<svg xmlns="http://www.w3.org/2000/svg" xmlns:xlink="http://www.w3.org/1999/xlink" version="1.1" x="0px" y="0px" viewBox="0 0 128 160" style="enable-background:new 0 0 128 128;" xml:space="preserve"><g><g><g><g><g><path d="M64.01,89.875c-3.788,0-6.869-3.052-6.869-6.803s3.081-6.803,6.869-6.803s6.869,3.052,6.869,6.803       S67.798,89.875,64.01,89.875z M64.01,80.27c-1.582,0-2.869,1.257-2.869,2.803s1.287,2.803,2.869,2.803s2.869-1.257,2.869-2.803       S65.592,80.27,64.01,80.27z"/></g></g><g><g><path d="M85.769,73.664H69.562c-0.976,0-1.808-0.703-1.972-1.665c-0.163-0.961,0.39-1.9,1.311-2.223       c5.247-1.839,8.773-6.76,8.773-12.246c0-7.165-5.923-12.994-13.203-12.994c-7.279,0-13.202,5.829-13.202,12.994       c0,5.34,3.237,10.278,8.055,12.288c0.88,0.367,1.379,1.304,1.191,2.238c-0.187,0.935-1.008,1.607-1.961,1.607H43.248       c-1.104,0-2-0.896-2-2s0.896-2,2-2h8.938c-3.07-3.187-4.918-7.548-4.918-12.133c0-9.371,7.717-16.994,17.202-16.994       S81.674,48.16,81.674,57.53c0,4.656-1.934,9-5.161,12.133h5.117c-0.334-0.792-0.127-1.741,0.569-2.317       c0.851-0.702,2.11-0.585,2.815,0.267l2.295,2.776c0.494,0.597,0.599,1.425,0.269,2.126       C87.248,73.216,86.543,73.664,85.769,73.664z"/></g><g><line x1="83.406" y1="74.289" x2="85.769" y2="71.664"/><path d="M83.405,76.289c-0.477,0-0.955-0.169-1.337-0.513c-0.821-0.739-0.888-2.003-0.148-2.825l2.362-2.625       c0.737-0.821,2.004-0.888,2.824-0.149c0.821,0.739,0.888,2.003,0.148,2.825l-2.362,2.625       C84.498,76.065,83.953,76.289,83.405,76.289z"/></g></g></g><path d="M109.775,68.566c-5.465,0-9.911-4.396-9.911-9.799s4.446-9.799,9.911-9.799c5.466,0,9.912,4.396,9.912,9.799    S115.241,68.566,109.775,68.566z M109.775,52.968c-3.26,0-5.911,2.602-5.911,5.799s2.651,5.799,5.911,5.799    s5.912-2.602,5.912-5.799S113.035,52.968,109.775,52.968z"/><path d="M18.225,68.566c-5.466,0-9.912-4.396-9.912-9.799s4.446-9.799,9.912-9.799c5.465,0,9.911,4.396,9.911,9.799    S23.689,68.566,18.225,68.566z M18.225,52.968c-3.26,0-5.912,2.602-5.912,5.799s2.652,5.799,5.912,5.799s5.911-2.602,5.911-5.799    S21.484,52.968,18.225,52.968z"/><path d="M64,21.598c-5.465,0-9.911-4.396-9.911-9.799S58.535,2,64,2s9.911,4.396,9.911,9.799S69.465,21.598,64,21.598z M64,6    c-3.26,0-5.911,2.602-5.911,5.799S60.74,17.598,64,17.598s5.911-2.602,5.911-5.799S67.26,6,64,6z"/><path d="M64,113.123c-5.465,0-9.911-4.396-9.911-9.799s4.446-9.799,9.911-9.799s9.911,4.396,9.911,9.799    S69.465,113.123,64,113.123z M64,97.525c-3.26,0-5.911,2.602-5.911,5.799s2.651,5.799,5.911,5.799s5.911-2.602,5.911-5.799    S67.26,97.525,64,97.525z"/></g><path d="M77.225,34.475H50.775c-1.104,0-2-0.896-2-2v-2.827c0-6.073,3.624-11.508,9.232-13.847c0.7-0.292,1.507-0.163,2.081,0.336   c1.085,0.942,2.474,1.461,3.911,1.461c1.437,0,2.826-0.519,3.911-1.461c0.575-0.499,1.381-0.628,2.081-0.336   c5.608,2.339,9.232,7.774,9.232,13.847v2.827C79.225,33.579,78.329,34.475,77.225,34.475z M52.775,30.475h22.449v-0.827   c0-4.08-2.23-7.768-5.768-9.677c-1.614,1.056-3.509,1.627-5.457,1.627s-3.843-0.571-5.457-1.627   c-3.537,1.909-5.768,5.597-5.768,9.677V30.475z"/><path d="M31.448,81.443H5c-1.104,0-2-0.896-2-2v-2.827c0-6.074,3.624-11.509,9.232-13.848c0.7-0.293,1.508-0.162,2.081,0.336   c1.084,0.942,2.474,1.461,3.911,1.461s2.826-0.519,3.91-1.461c0.572-0.498,1.381-0.629,2.081-0.336   c5.608,2.339,9.232,7.774,9.232,13.848v2.827C33.448,80.547,32.553,81.443,31.448,81.443z M7,77.443h22.448v-0.827   c0-4.08-2.23-7.768-5.768-9.677c-1.613,1.056-3.508,1.626-5.456,1.626s-3.844-0.571-5.457-1.626C9.23,68.848,7,72.536,7,76.616   V77.443z"/><path d="M77.225,126H50.775c-1.104,0-2-0.896-2-2v-2.956c0-6.046,3.615-11.442,9.21-13.749c0.702-0.291,1.51-0.156,2.081,0.346   c1.088,0.956,2.485,1.481,3.934,1.481s2.846-0.526,3.934-1.481c0.571-0.501,1.379-0.636,2.081-0.346   c5.595,2.306,9.21,7.703,9.21,13.749V124C79.225,125.104,78.329,126,77.225,126z M52.775,122h22.449v-0.956   c0-4.045-2.215-7.693-5.728-9.575c-1.622,1.074-3.531,1.654-5.497,1.654s-3.875-0.58-5.497-1.654   c-3.513,1.882-5.728,5.53-5.728,9.575V122z"/><path d="M123,81.443H96.552c-1.104,0-2-0.896-2-2v-2.827c0-6.074,3.624-11.509,9.232-13.848c0.7-0.293,1.509-0.162,2.081,0.336   c1.084,0.942,2.473,1.461,3.91,1.461s2.827-0.519,3.911-1.461c0.573-0.498,1.381-0.629,2.081-0.336   c5.608,2.339,9.232,7.774,9.232,13.848v2.827C125,80.547,124.104,81.443,123,81.443z M98.552,77.443H121v-0.827   c0-4.08-2.23-7.768-5.768-9.677c-1.613,1.056-3.509,1.626-5.457,1.626s-3.843-0.571-5.456-1.626   c-3.537,1.909-5.768,5.597-5.768,9.677V77.443z"/></g></svg>