<svg xmlns="http://www.w3.org/2000/svg" viewBox="0 0 64 80" x="0px" y="0px"><title>AI-IDEATION-AND-STRATEGY</title><g><path d="M49,27h3a1,1,0,0,0,1-1V23a1,1,0,0,0-2,0v2H49a1,1,0,0,0,0,2Z"/><path d="M25.474,23a4,4,0,1,0-4-4A4,4,0,0,0,25.474,23Zm0-6a2,2,0,1,1-2,2A2,2,0,0,1,25.474,17Z"/><path d="M3.63,22.668A2.974,2.974,0,0,0,5,23,2.983,2.983,0,0,0,7.82,20.988l7.864-.122L14.312,22a1,1,0,0,0-.231,1.272L15.95,26.5l.041,4.5H11a.9.9,0,0,0-.173.035,3,3,0,1,0,0,1.93A.9.9,0,0,0,11,33h6a1,1,0,0,0,1-1.009l-.046-5.068,3.2-1.2c.217.141.438.269.661.386l.675,4.054a1,1,0,0,0,.987.835H24v5H21a1,1,0,0,0-1,1V51.586l-8.707,8.707A1,1,0,0,0,12,62H44a1,1,0,0,0,.707-1.707L38,53.586V48.277l2.239-3.729C44.016,46.827,46.3,48,47,48h6a1,1,0,0,0,1-1V41.414l1.706-1.706A1.009,1.009,0,0,0,56,39V36h1.461a2,2,0,0,0,1.828-2.812l-3.109-7A7.772,7.772,0,0,0,58,21.171,17.362,17.362,0,0,0,48.35,5.557l-2.9-1.452a1,1,0,0,0-1.26.314L43.771,5H37V3a1,1,0,0,0-1-1H26a1,1,0,0,0-1,1V7H23.474a1,1,0,0,0-.987.836l-.675,4.053c-.223.117-.444.245-.661.386L17.3,10.832a1,1,0,0,0-1.217.436l-1.008,1.747c-.026,0-.047-.015-.073-.015H9V9.816a3,3,0,1,0-2,0V14a1,1,0,0,0,1,1h5.985a.99.99,0,0,0,.327,1l3.172,2.612c0,.073,0,.148-.006.222l-9.662.149A3,3,0,1,0,3.63,22.668ZM8,33a1,1,0,1,1,1-1A1,1,0,0,1,8,33ZM8,6A1,1,0,1,1,7,7,1,1,0,0,1,8,6ZM26,31h1.474a1,1,0,0,0,.986-.835l.676-4.054c.222-.116.443-.245.66-.386l3.853,1.443a1,1,0,0,0,1.217-.436L35.289,26H40a.929.929,0,0,0,.217-.044L42,28.333V30H38v2h2.307l-2.678,1.071A1,1,0,0,0,37,34v2H26ZM36.866,14.732,36.444,14H39v4H34.211l2.425-2A1,1,0,0,0,36.866,14.732ZM39,20v4H36.444l.422-.732A1,1,0,0,0,36.636,22l-2.425-2ZM32.293,44.707,36,48.414V49H30V38h2v6A1,1,0,0,0,32.293,44.707ZM25.954,58H26v-.052l3.753-4.289A1,1,0,0,0,30,53V51h2v9H24.2Zm-11.54,2,7.293-7.293A1,1,0,0,0,22,52V38h6V52.624L26,54.91V50H24v7.2L21.546,60Zm27.172,0H34V51h2v3a1,1,0,0,0,.293.707ZM36.8,46.388l-2.8-2.8V38h3v4a1,1,0,0,0,.47.848c.373.234.71.44,1.062.657ZM45.317,6.276l2.138,1.07A15.372,15.372,0,0,1,56,21.171a5.791,5.791,0,0,1-1.707,4.122,1,1,0,0,0-.207,1.113L57.461,34H55a1,1,0,0,0-1,1v3h-.172a5.789,5.789,0,0,1-4.121-1.707,1,1,0,0,0-1.414,1.414,7.752,7.752,0,0,0,4.386,2.2l-.386.386A1,1,0,0,0,52,41v5l-4.905.006a53.209,53.209,0,0,1-6.675-3.69l-.005-.005-.006,0c-.471-.286-.943-.576-1.409-.865V34.677l4.371-1.748A1,1,0,0,0,44,32V28a1,1,0,0,0-.2-.6L41,23.667V12.32ZM27,4h8V6a1,1,0,0,0,1,1h6.343l-3.156,4.419A.994.994,0,0,0,39,12H35.289l-.423-.732a1,1,0,0,0-1.217-.436L29.8,12.275c-.217-.141-.438-.27-.66-.386L28.46,7.835A1,1,0,0,0,27.474,7H27ZM16.237,15l1.153-2,3.551,1.331a1,1,0,0,0,.949-.135,5.965,5.965,0,0,1,1.217-.71,1,1,0,0,0,.592-.755L24.321,9h2.306l.622,3.732a1,1,0,0,0,.592.755,6.026,6.026,0,0,1,1.217.71,1,1,0,0,0,.948.135L33.558,13l1.152,2-2.925,2.407a1,1,0,0,0-.357.891,5.395,5.395,0,0,1,0,1.406,1,1,0,0,0,.357.891L34.71,23l-1.152,2-3.552-1.331a1,1,0,0,0-.948.135,6.026,6.026,0,0,1-1.217.71,1,1,0,0,0-.592.755L26.627,29H24.32L23.7,25.268a1,1,0,0,0-.592-.755,5.965,5.965,0,0,1-1.217-.71,1,1,0,0,0-.949-.135L17.39,25l-1.153-2,2.925-2.407a.664.664,0,0,0,.051-.055.754.754,0,0,0,.055-.058.98.98,0,0,0,.18-.276l.006-.011a.978.978,0,0,0,.064-.345.325.325,0,0,0,.008-.043c0-.012-.006-.022-.007-.034s0-.046,0-.069a5.395,5.395,0,0,1,0-1.406,1,1,0,0,0-.358-.891ZM4.111,19.543a.988.988,0,0,1,.584-.5,1,1,0,0,1,.612,1.9,1,1,0,0,1-1.258-.646h0A.992.992,0,0,1,4.111,19.543Z"/><rect x="24" y="42" width="2" height="2"/><rect x="24" y="46" width="2" height="2"/><rect x="30" y="30" width="2" height="2"/><rect x="34" y="30" width="2" height="2"/><rect x="43" y="12" width="2" height="4"/><rect x="43" y="18" width="2" height="2"/><rect x="43" y="22" width="2" height="2"/></g></svg>