<svg xmlns="http://www.w3.org/2000/svg" viewBox="0 0 48 60" x="0px" y="0px"><title>17-Mobile-App</title><g data-name="17-Mobile-App"><path d="M28,48H4a4,4,0,0,1-4-4V4A4,4,0,0,1,4,0H28a4,4,0,0,1,4,4v9a1,1,0,0,1-2,0V4a2,2,0,0,0-2-2H4A2,2,0,0,0,2,4V44a2,2,0,0,0,2,2H28a2,2,0,0,0,2-2V35a1,1,0,0,1,2,0v9A4,4,0,0,1,28,48Z"/><path d="M26,8H6A1,1,0,0,1,6,6H26a1,1,0,0,1,0,2Z"/><path d="M26,42H6a1,1,0,0,1,0-2H26a1,1,0,0,1,0,2Z"/><path d="M44,48H35a1,1,0,0,1,0-2h9a2,2,0,0,0,2-2V4a2,2,0,0,0-2-2H35a1,1,0,0,1,0-2h9a4,4,0,0,1,4,4V44A4,4,0,0,1,44,48Z"/><path d="M42,8H36a1,1,0,0,1,0-2h6a1,1,0,0,1,0,2Z"/><path d="M42,42H36a1,1,0,0,1,0-2h6a1,1,0,0,1,0,2Z"/><path d="M17,30a1,1,0,0,1-.707-.293l-5-5a1,1,0,0,1,0-1.414l5-5a1,1,0,0,1,1.414,1.414L13.414,24l4.293,4.293A1,1,0,0,1,17,30Z"/><path d="M31,30a1,1,0,0,1-.707-1.707L34.586,24l-4.293-4.293a1,1,0,0,1,1.414-1.414l5,5a1,1,0,0,1,0,1.414l-5,5A1,1,0,0,1,31,30Z"/><path d="M21,30a1,1,0,0,1-.894-1.447l5-10a1,1,0,1,1,1.79.894l-5,10A1,1,0,0,1,21,30Z"/></g></svg>