<svg xmlns="http://www.w3.org/2000/svg" xmlns:xlink="http://www.w3.org/1999/xlink" version="1.1" x="0px" y="0px" viewBox="0 0 66 82.5" enable-background="new 0 0 66 66" xml:space="preserve"><path d="M30.5,1.1c-17.8,2-25.8,23.9-13,36.8c5.1,5.1,4.3,10.8,4.4,11.6c0.1,0.3,0.2,0.5,0.4,0.6C22.2,50.7,22,51.4,22,52l0,0  c0,1.9,1.5,3.6,3.3,3.7c-0.2,0.4-0.3,1-0.3,1.5l0,0c0,1.5,1,2.9,2.4,3.3c0.3,2.5,2.4,4.5,5,4.5h1.1c2.6,0,4.8-2,5-4.5  c1.4-0.4,2.4-1.8,2.4-3.3l0,0c0-0.5-0.1-1.1-0.3-1.5c1.9-0.1,3.4-1.8,3.4-3.7l0,0c0-0.6-0.2-1.4-0.4-1.9c0.2-0.1,0.4-0.4,0.4-0.6  c0.2-0.8-0.7-6.2,4.7-11.8C62.5,23.4,51.2-1.1,30.5,1.1z M33.5,63h-1.1c-1.5,0-2.7-1-3-2.4h7.1C36.2,62,35,63,33.5,63z M39,57.1  c0,0.7-0.6,1.5-1.3,1.5h0h-9.3h0c-0.7,0-1.3-0.7-1.3-1.5l0,0c0-0.7,0.6-1.5,1.3-1.5h9.3C38.4,55.7,39,56.4,39,57.1L39,57.1z   M42.1,52c0,0.9-0.7,1.7-1.7,1.7h-2.7h-9.3h-2.7c-0.9,0-1.7-0.7-1.7-1.7v0c0-0.9,0.7-1.7,1.7-1.7h14.8C41.3,50.4,42.1,51.1,42.1,52  L42.1,52z M34,9.3c6,0.5,10.8,5.3,11.3,11.3H34V9.3z M33,22.5h12.3c-0.5,6.3-5.8,11.3-12.3,11.3c-6.8,0-12.3-5.5-12.3-12.3  c0-6.5,5-11.8,11.3-12.3v12.3C32,22.1,32.5,22.5,33,22.5z M42,48.4c-0.1,0-8.3,0-8,0V35.8c7.4-0.5,13.3-6.7,13.3-14.3  c0-7.9-6.4-14.3-14.3-14.3c0,0,0,0,0,0c0,0,0,0,0,0c0,0,0,0,0,0c-7.9,0-14.3,6.4-14.3,14.3c0,7.6,5.9,13.8,13.3,14.3v12.5  c-0.2,0-8.4,0-8.1,0c-0.1-4.6-1.7-8.5-5-11.8C7.2,24.7,14.7,4.9,30.8,3.1c18.7-2.1,29.1,20.2,16.5,33.2C43.9,39.8,42.1,43.9,42,48.4  z"/></svg>