<svg xmlns="http://www.w3.org/2000/svg" xmlns:xlink="http://www.w3.org/1999/xlink" version="1.1" x="0px" y="0px" viewBox="0 0 91 113.75" style="enable-background:new 0 0 91 91;" xml:space="preserve"><g><g><g><g><path d="M46.9,65.6c7.6,0,14.5-2,18.4-5.3c0.4-0.3,0.7-0.9,0.7-1.4s-0.2-1.1-0.7-1.4c-3.9-3.3-10.8-5.3-18.4-5.3      s-14.5,2-18.4,5.3c-0.4,0.3-0.7,0.9-0.7,1.4c0,0.1,0,0.2,0.1,0.2c0,0.1-0.1,0.2-0.1,0.3V83c0,0,0,0,0,0.1s0,0.3,0.1,0.4      c0,0.1,0,0.2,0.1,0.3c0,0.1,0.1,0.2,0.2,0.3c0.1,0.1,0.1,0.2,0.2,0.3c0,0,0,0,0,0.1c3.9,3.3,10.8,5.3,18.4,5.3s14.5-2,18.4-5.3      c0,0,0,0,0-0.1c0.1-0.1,0.2-0.2,0.2-0.3c0.1-0.1,0.1-0.2,0.2-0.3c0-0.1,0.1-0.2,0.1-0.3c0-0.1,0.1-0.3,0.1-0.4c0,0,0,0,0-0.1      V65.5c0-1-0.8-1.8-1.8-1.8s-1.8,0.8-1.8,1.8V66c-3.4,2.4-9.1,4-15.4,4c-6.2,0-12-1.5-15.4-4v-3.7C35.5,64.3,41,65.6,46.9,65.6z       M46.9,55.8c5.4,0,10.5,1.1,13.9,3c-3.4,1.9-8.5,3-13.9,3s-10.5-1.1-13.9-3C36.4,57,41.5,55.8,46.9,55.8z M31.5,82v-3.7      c4,2.1,9.5,3.3,15.4,3.3s11.4-1.2,15.4-3.3V82c-3.4,2.4-9.1,4-15.4,4C40.7,86,34.9,84.5,31.5,82z M46.9,73.6      c5.9,0,11.4-1.2,15.4-3.3V74c-3.4,2.4-9.1,4-15.4,4c-6.2,0-12-1.5-15.4-4v-3.7C35.5,72.4,41,73.6,46.9,73.6z"/><path d="M77,28.8c-0.5-7.9-3.8-15.2-9.2-20.4c-4.9-4.6-11-7.1-17.4-6.9C41,1.7,32.3,7.9,28,17.5c-2.3-1-4.6-1.4-7-1.3      c-10.5,0.3-18.9,10.2-18.6,22c0.1,6.1,2.6,12,6.8,15.9c3.5,3.3,7.8,5.1,12.3,5.1c0.1,0,0.3,0,0.4,0h1.2c1,0,1.8-0.8,1.8-1.8      s-0.8-1.8-1.8-1.8h-1.3c-3.7,0.1-7.3-1.3-10.1-4.1c-3.5-3.3-5.5-8.2-5.6-13.4C5.9,28.2,12.6,20,21.2,19.8      c2.3-0.1,4.6,0.5,6.9,1.8c1.6,0.9,3,2.2,3.6,3.4c0.3,0.6,1,1,1.6,1c0.3,0,0.6-0.1,0.9-0.2c0.9-0.5,1.2-1.6,0.7-2.5      c-0.8-1.4-2.1-2.8-3.7-3.9C34.9,11,42.4,5.5,50.5,5.3C56,5,61.2,7.1,65.3,11c4.6,4.4,7.4,10.6,8,17.5c-1.3,0.1-2.8,0.3-4.6,1      c-0.9,0.4-1.4,1.4-1,2.4c0.3,0.7,1,1.2,1.7,1.2c0.2,0,0.5,0,0.7-0.1c2-0.8,3.4-0.8,5.1-0.8c5.1,0.5,9.1,5.4,9.2,11.3      c0.1,6.5-4.3,11.8-9.8,12H71c-1,0-1.8,0.8-1.8,1.8s0.8,1.8,1.8,1.8h3.6c7.6-0.2,13.6-7.3,13.4-15.7C87.9,36.2,83.3,30.2,77,28.8      z"/><path d="M38,28.8c-1,0-1.8,0.8-1.8,1.8V42l-2.9-2.9c-0.7-0.7-1.9-0.7-2.6,0s-0.7,1.9,0,2.6l6,6c0.3,0.3,0.8,0.5,1.3,0.5      s1-0.2,1.3-0.5l6-6c0.7-0.7,0.7-1.9,0-2.6c-0.7-0.7-1.9-0.7-2.6,0L39.8,42V30.7C39.8,29.6,39,28.8,38,28.8z"/><path d="M55.3,40.6c1,0,1.8-0.8,1.8-1.8V27.3l2.9,2.9c0.7,0.7,1.9,0.7,2.6,0c0.7-0.7,0.7-1.9,0-2.6l-6-6c-0.7-0.7-1.9-0.7-2.6,0      l-6,6c-0.7,0.7-0.7,1.9,0,2.6c0.4,0.4,0.8,0.5,1.3,0.5s0.9-0.2,1.3-0.5l2.9-2.9v11.4C53.5,39.8,54.3,40.6,55.3,40.6z"/></g></g></g></g></svg>