<svg xmlns="http://www.w3.org/2000/svg" viewBox="0 0 96 120" x="0px" y="0px"><defs><style>.cls-1{fill:#000000;}</style></defs><title>Blockchain_5_1</title><g data-name="Your Icons"><path class="cls-1" d="M58.38,42a1,1,0,0,0-.5-.87l-.2-.08-9-5.18a1,1,0,0,0-1,0l-9.08,5.25a1,1,0,0,0-.5.86h0V52.52a1,1,0,0,0,.5.86l9,5.22.09.06s0,0,.07,0l.08,0a.85.85,0,0,0,.35.08h0a1,1,0,0,0,.5-.14l.09-.06,9-5.22a1,1,0,0,0,.5-.86Zm-11.14,14-7.11-4.11V43.76l7.11,4.11Zm1-9.91L41.13,42l7.08-4.09L55.35,42Zm8.11,5.8-7.11,4.11V47.87l7.11-4.11Z"/><path class="cls-1" d="M65.86,80a1,1,0,0,0-.4,1.36,1,1,0,0,0,.88.52,1,1,0,0,0,.48-.12,1,1,0,0,0-1-1.76Z"/><path class="cls-1" d="M62.35,81.93a1,1,0,0,0,.49,1.88,1,1,0,0,0,.48-.13,1,1,0,1,0-1-1.75Z"/><path class="cls-1" d="M58.85,83.85a1,1,0,0,0,.48,1.88,1,1,0,0,0,.48-.12,1,1,0,0,0-1-1.76Z"/><path class="cls-1" d="M55.34,85.78a1,1,0,0,0,.48,1.87.93.93,0,0,0,.48-.12,1,1,0,1,0-1-1.75Z"/><path class="cls-1" d="M69.36,78.08A1,1,0,0,0,69,79.44a1,1,0,0,0,.88.52.94.94,0,0,0,.48-.13,1,1,0,0,0,.39-1.35A1,1,0,0,0,69.36,78.08Z"/><path class="cls-1" d="M79.89,72.31a1,1,0,0,0,.48,1.87,1,1,0,0,0,.48-.12,1,1,0,0,0,.39-1.36A1,1,0,0,0,79.89,72.31Z"/><path class="cls-1" d="M72.87,76.16A1,1,0,0,0,73.35,78a1,1,0,1,0-.48-1.87Z"/><path class="cls-1" d="M76.38,74.23a1,1,0,0,0,.48,1.88,1,1,0,0,0,.48-.12,1,1,0,0,0-1-1.76Z"/><path class="cls-1" d="M83.39,70.38a1,1,0,1,0,1.36.4A1,1,0,0,0,83.39,70.38Z"/><path class="cls-1" d="M59.81,10.16a1,1,0,0,0-1.36.4,1,1,0,0,0,.4,1.35.91.91,0,0,0,.48.13,1,1,0,0,0,.48-1.88Z"/><path class="cls-1" d="M84.35,23.63a1,1,0,0,0-1,1.76,1,1,0,0,0,.48.12,1,1,0,0,0,.48-1.88Z"/><path class="cls-1" d="M77.34,19.78a1,1,0,1,0-1,1.76,1,1,0,0,0,.48.12,1,1,0,0,0,.48-1.88Z"/><path class="cls-1" d="M80.85,21.71a1,1,0,1,0-.48,1.87,1,1,0,0,0,.87-.51A1,1,0,0,0,80.85,21.71Z"/><path class="cls-1" d="M66.82,14a1,1,0,1,0-1,1.75.94.94,0,0,0,.48.13A1,1,0,0,0,66.82,14Z"/><path class="cls-1" d="M70.33,15.94a1,1,0,1,0,.39,1.35A1,1,0,0,0,70.33,15.94Z"/><path class="cls-1" d="M62.35,13.84a1.07,1.07,0,0,0,.49.12,1,1,0,0,0,.47-1.87,1,1,0,0,0-1.35.39A1,1,0,0,0,62.35,13.84Z"/><path class="cls-1" d="M55.34,10a1,1,0,0,0,.48.12,1,1,0,1,0-.88-1.48A1,1,0,0,0,55.34,10Z"/><path class="cls-1" d="M73.83,17.86a1,1,0,0,0-1,1.75.94.94,0,0,0,.48.13,1,1,0,0,0,.48-1.88Z"/><path class="cls-1" d="M48.25,20.26a1,1,0,1,0,1,1A1,1,0,0,0,48.25,20.26Z"/><circle class="cls-1" cx="48.21" cy="33.26" r="1"/><path class="cls-1" d="M48.24,24.26a1,1,0,1,0,0,2h0a1,1,0,0,0,0-2Z"/><path class="cls-1" d="M48.27,12.26a1,1,0,1,0,0,2h0a1,1,0,0,0,0-2Z"/><path class="cls-1" d="M48.26,16.26a1,1,0,1,0,0,2h0a1,1,0,0,0,0-2Z"/><path class="cls-1" d="M48.23,28.26a1,1,0,0,0,0,2,1,1,0,0,0,1-1A1,1,0,0,0,48.23,28.26Z"/><path class="cls-1" d="M89.78,34.51a1,1,0,0,0-1,1,1,1,0,0,0,1,1h0a1,1,0,1,0,0-2Z"/><circle class="cls-1" cx="89.76" cy="43.51" r="1"/><path class="cls-1" d="M89.77,38.51a1,1,0,1,0,1,1A1,1,0,0,0,89.77,38.51Z"/><path class="cls-1" d="M89.76,46.51a1,1,0,1,0,0,2,1,1,0,0,0,0-2Z"/><path class="cls-1" d="M89.74,54.51a1,1,0,0,0-1,1,1,1,0,0,0,1,1h0a1,1,0,0,0,0-2Z"/><path class="cls-1" d="M89.73,58.51a1,1,0,1,0,1,1A1,1,0,0,0,89.73,58.51Z"/><path class="cls-1" d="M89.75,50.51a1,1,0,0,0,0,2h0a1,1,0,0,0,0-2Z"/><circle class="cls-1" cx="48.22" cy="73.79" r="1"/><circle class="cls-1" cx="48.21" cy="81.79" r="1"/><circle class="cls-1" cx="48.22" cy="69.79" r="1"/><path class="cls-1" d="M48.21,78.79a1,1,0,0,0,0-2,1,1,0,1,0,0,2Z"/><circle class="cls-1" cx="48.23" cy="61.79" r="1"/><path class="cls-1" d="M48.22,66.79h0a1,1,0,1,0-1-1A1,1,0,0,0,48.23,66.79Z"/><path class="cls-1" d="M72.49,37.24a1,1,0,0,0,.38-.07,1,1,0,1,0-1.3-.55A1,1,0,0,0,72.49,37.24Z"/><path class="cls-1" d="M65.07,40.24a1,1,0,0,0,.38-.08,1,1,0,1,0-.38.08Z"/><path class="cls-1" d="M68.78,38.74a1,1,0,0,0,.38-.07,1,1,0,0,0-.75-1.86,1,1,0,0,0,.37,1.93Z"/><path class="cls-1" d="M76.2,35.75a1,1,0,0,0,.38-.07,1,1,0,1,0-.38.07Z"/><path class="cls-1" d="M83.62,32.76a1,1,0,0,0,.38-.07,1,1,0,1,0-.38.07Z"/><path class="cls-1" d="M61.36,41.73a1,1,0,0,0,.38-.07,1,1,0,1,0-.38.07Z"/><path class="cls-1" d="M79.91,34.25a1,1,0,0,0,.38-.07A1,1,0,1,0,79,33.63,1,1,0,0,0,79.91,34.25Z"/><path class="cls-1" d="M66,56.78a1,1,0,1,0-1.3.56,1,1,0,0,0,.37.07A1,1,0,0,0,66,56.78Z"/><path class="cls-1" d="M62.29,55.29a1,1,0,1,0-1.3.55,1,1,0,0,0,.37.07A1,1,0,0,0,62.29,55.29Z"/><path class="cls-1" d="M69.71,58.28a1,1,0,1,0-1.3.55,1,1,0,0,0,.37.07A1,1,0,0,0,69.71,58.28Z"/><path class="cls-1" d="M79.91,63.39a1,1,0,0,0,.38-1.93,1,1,0,0,0-.75,1.86A1,1,0,0,0,79.91,63.39Z"/><path class="cls-1" d="M83.25,64.81a1,1,0,0,0,.37.07,1,1,0,1,0-.37-.07Z"/><path class="cls-1" d="M77.13,61.27a1,1,0,1,0-.93.63A1,1,0,0,0,77.13,61.27Z"/><path class="cls-1" d="M73.42,59.77a1,1,0,1,0-1.3.56,1,1,0,0,0,.38.07A1,1,0,0,0,73.42,59.77Z"/><path class="cls-1" d="M48.27,11.16a4,4,0,1,0-4-4A4,4,0,0,0,48.27,11.16Zm0-7a3,3,0,1,1-3,3A3,3,0,0,1,48.27,4.16Z"/><path class="cls-1" d="M48.27,84.84a4,4,0,1,0,4,4A4,4,0,0,0,48.27,84.84Zm0,7a3,3,0,1,1,3-3A3,3,0,0,1,48.27,91.84Z"/><path class="cls-1" d="M89.25,33.3a4,4,0,1,0-4-4A4,4,0,0,0,89.25,33.3Zm0-7a3,3,0,1,1-3,3A3,3,0,0,1,89.25,26.3Z"/><path class="cls-1" d="M89.25,62.67a4,4,0,1,0,4,4A4,4,0,0,0,89.25,62.67Zm0,7a3,3,0,1,1,3-3A3,3,0,0,1,89.25,69.67Z"/><path class="cls-1" d="M7.47,62.67a4,4,0,1,0,4,4A4,4,0,0,0,7.47,62.67Zm0,7a3,3,0,1,1,3-3A3,3,0,0,1,7.47,69.67Z"/><path class="cls-1" d="M23.38,76.16a1,1,0,0,0-1,1.75,1.07,1.07,0,0,0,.48.12,1,1,0,0,0,.49-1.87Z"/><path class="cls-1" d="M33.89,81.93a1,1,0,0,0-1,1.75.94.94,0,0,0,.48.13,1,1,0,0,0,.48-1.88Z"/><path class="cls-1" d="M16.36,72.31a1,1,0,1,0-1,1.75,1,1,0,0,0,.48.12,1,1,0,0,0,.48-1.87Z"/><path class="cls-1" d="M12.85,70.38a1,1,0,0,0-1.35.4,1,1,0,0,0,.39,1.36,1.07,1.07,0,0,0,.48.12,1,1,0,0,0,.48-1.88Z"/><path class="cls-1" d="M40.91,85.78a1,1,0,1,0-1,1.75.9.9,0,0,0,.48.12,1,1,0,0,0,.87-.51A1,1,0,0,0,40.91,85.78Z"/><path class="cls-1" d="M30.39,80a1,1,0,1,0,.4,1.36A1,1,0,0,0,30.39,80Z"/><path class="cls-1" d="M26.88,78.08a1,1,0,1,0-1,1.75.94.94,0,0,0,.48.13,1,1,0,0,0,.48-1.88Z"/><path class="cls-1" d="M19.87,74.23a1,1,0,1,0-.48,1.88,1,1,0,0,0,.48-1.88Z"/><path class="cls-1" d="M37.4,83.85a1,1,0,1,0-1,1.76,1,1,0,0,0,.48.12,1,1,0,0,0,.88-.52A1,1,0,0,0,37.4,83.85Z"/><path class="cls-1" d="M40.43,10.11a1,1,0,0,0,.48-.12,1,1,0,0,0,.39-1.36A1,1,0,0,0,40,8.24a1,1,0,0,0-.4,1.36A1,1,0,0,0,40.43,10.11Z"/><path class="cls-1" d="M29.91,15.89a.94.94,0,0,0,.48-.13,1,1,0,0,0-1-1.75,1,1,0,0,0,.48,1.88Z"/><path class="cls-1" d="M36.44,10.16A1,1,0,0,0,36.92,12a.94.94,0,0,0,.48-.13,1,1,0,0,0,.4-1.35A1,1,0,0,0,36.44,10.16Z"/><path class="cls-1" d="M19.39,21.66a1,1,0,0,0,.48-.12,1,1,0,1,0-.48.12Z"/><path class="cls-1" d="M33.41,14a1,1,0,0,0,.48-.12,1,1,0,1,0-1.35-.4A1,1,0,0,0,33.41,14Z"/><path class="cls-1" d="M26.4,17.81a1,1,0,0,0,.48-.12,1,1,0,1,0-1.36-.4A1,1,0,0,0,26.4,17.81Z"/><path class="cls-1" d="M22.89,19.74a.91.91,0,0,0,.48-.13,1,1,0,1,0-.48.13Z"/><path class="cls-1" d="M15.88,23.58a1,1,0,0,0,.48-.12,1,1,0,1,0-.48.12Z"/><path class="cls-1" d="M12.38,25.51a1.07,1.07,0,0,0,.48-.12,1,1,0,1,0-.48.12Z"/><path class="cls-1" d="M6.5,50.51a1,1,0,1,0,1,1A1,1,0,0,0,6.5,50.51Z"/><path class="cls-1" d="M6.52,60.51a1,1,0,1,0-1-1A1,1,0,0,0,6.52,60.51Z"/><path class="cls-1" d="M6.5,48.51a1,1,0,0,0,1-1,1,1,0,0,0-1-1,1,1,0,0,0,0,2Z"/><path class="cls-1" d="M6.51,56.51a1,1,0,1,0-1-1A1,1,0,0,0,6.51,56.51Z"/><path class="cls-1" d="M6.48,40.51a1,1,0,1,0-1-1A1,1,0,0,0,6.48,40.51Z"/><path class="cls-1" d="M7.47,35.51a1,1,0,1,0-1,1A1,1,0,0,0,7.47,35.51Z"/><path class="cls-1" d="M6.49,44.51a1,1,0,1,0,0-2,1,1,0,0,0,0,2Z"/><path class="cls-1" d="M31.55,38.31a1,1,0,1,0-.38,1.93,1,1,0,0,0,.93-.63A1,1,0,0,0,31.55,38.31Z"/><path class="cls-1" d="M27.84,36.81a1,1,0,0,0-.75,1.86,1,1,0,0,0,.37.07,1,1,0,0,0,.38-1.93Z"/><path class="cls-1" d="M24.13,35.32a1,1,0,1,0,.55,1.3A1,1,0,0,0,24.13,35.32Z"/><path class="cls-1" d="M35.26,39.8a1,1,0,0,0-.75,1.86,1,1,0,0,0,.38.07,1,1,0,0,0,.37-1.93Z"/><path class="cls-1" d="M20.42,33.82a1,1,0,0,0-.75,1.86,1,1,0,0,0,.37.07,1,1,0,0,0,.38-1.93Z"/><path class="cls-1" d="M16.71,32.33A1,1,0,1,0,16,34.18a1,1,0,0,0,.37.07,1,1,0,0,0,.38-1.92Z"/><path class="cls-1" d="M13,30.83a1,1,0,1,0,.55,1.3A1,1,0,0,0,13,30.83Z"/><path class="cls-1" d="M16,61.46a1,1,0,0,0,.37,1.93,1,1,0,0,0,.38-.07A1,1,0,0,0,16,61.46Z"/><path class="cls-1" d="M34.51,54a1,1,0,0,0,.38,1.92,1,1,0,0,0,.37-.07A1,1,0,1,0,34.51,54Z"/><path class="cls-1" d="M12.25,63a1,1,0,0,0,.38,1.92,1,1,0,0,0,.37-.07A1,1,0,1,0,12.25,63Z"/><path class="cls-1" d="M30.8,55.48a1,1,0,0,0,.38,1.93,1,1,0,0,0,.37-.07A1,1,0,0,0,32.1,56,1,1,0,0,0,30.8,55.48Z"/><path class="cls-1" d="M27.09,57a1,1,0,0,0-.55,1.3,1,1,0,0,0,1.3.55A1,1,0,0,0,27.09,57Z"/><path class="cls-1" d="M23.38,58.47a1,1,0,0,0,.37,1.93,1,1,0,0,0,.38-.07,1,1,0,0,0-.75-1.86Z"/><path class="cls-1" d="M19.67,60a1,1,0,1,0,1.3.55A1,1,0,0,0,19.67,60Z"/><path class="cls-1" d="M7,33.3a4,4,0,1,0-4-4A4,4,0,0,0,7,33.3Zm0-7a3,3,0,1,1-3,3A3,3,0,0,1,7,26.3Z"/></g></svg>