<svg xmlns="http://www.w3.org/2000/svg" xmlns:xlink="http://www.w3.org/1999/xlink" version="1.1" x="0px" y="0px" viewBox="0 0 65 60" enable-background="new 0 0 65 65" xml:space="preserve"><g><path d="M54.8,21.9c0-3.8-2.4-6.9-5.5-7.4v-8c0-1.4-1.1-2.4-2.4-2.4s-2.4,1.1-2.4,2.4v2.2c-8.2,5.1-14,7.1-21,7.3v-2.5H12.1   c-4.6,0-8.3,3.7-8.3,8.3c0,4.3,3.2,7.8,7.4,8.3l1,4.9h-2c-0.9,0-1.8,0.5-2.4,1.2l-2.5,3.5H1.6v1.5H6l3-4.2c0.3-0.4,0.7-0.6,1.1-0.6   h3c0,0,0,0,0,0h0h9.1c-0.4,1.9-2,3.4-4,3.4h-5.6v1.5H16c-0.3,0.5-0.5,1-0.5,1.6c0,1,0.5,1.9,1.2,2.5C16,46.1,15.5,47,15.5,48   c0,1,0.5,1.8,1.2,2.4c-0.7,0.6-1.2,1.4-1.2,2.4s0.5,1.8,1.2,2.4c-0.7,0.6-1.2,1.4-1.2,2.4c0,0.6,0.2,1.2,0.5,1.7H9.8   c-0.4,0-0.8-0.1-1.2-0.3l-1.8-0.8c-0.7-0.3-1.5-0.5-2.2-0.5l-4.1,0l0,1.5l4.1,0c0.5,0,1.1,0.1,1.6,0.4L8,60.5   c0.6,0.3,1.2,0.4,1.8,0.4h8.2v-0.1c0.2,0,0.4,0.1,0.6,0.1h2.9c1.8,0,3.2-1.4,3.2-3.2c0-0.6-0.2-1.2-0.5-1.7h0   c1.8,0,3.2-1.4,3.2-3.2c0-1-0.5-1.8-1.2-2.4c0.7-0.6,1.2-1.4,1.2-2.4c0-1-0.5-1.9-1.2-2.4c0.7-0.6,1.2-1.5,1.2-2.5   c0-1.7-1.4-3.1-3.1-3.1H22c1.1-1,1.8-2.5,1.8-4.1v-0.8h-3.3c-0.1-0.6-0.4-1.1-0.9-1.5l-0.3-0.3c-0.5-0.4-0.6-1.1-0.4-1.7l0.6-1.4   h3.9v-2.5c7,0.1,12.8,2.2,21,7.3v2.2c0,1.4,1.1,2.4,2.4,2.4s2.4-1.1,2.4-2.4v-8C52.4,28.8,54.8,25.7,54.8,21.9z M23.3,57.7   c0,0.9-0.8,1.7-1.7,1.7h-2.9c-0.9,0-1.7-0.8-1.7-1.7c0-0.9,0.8-1.7,1.7-1.7h2.9C22.5,56,23.3,56.8,23.3,57.7z M26,52.8   c0,0.9-0.8,1.7-1.7,1.7h-2.7h-2.9c-0.9,0-1.7-0.8-1.7-1.7c0-0.9,0.8-1.7,1.7-1.7h5.6C25.2,51.2,26,51.9,26,52.8z M18.7,49.7   c-0.9,0-1.7-0.8-1.7-1.7s0.8-1.7,1.7-1.7h0.1l0,0h2.8h2.8c0.9,0,1.7,0.8,1.7,1.7s-0.8,1.7-1.7,1.7H18.7z M26,43.1   c0,1-0.8,1.7-1.7,1.7h-2.8h-2.8c-1,0-1.7-0.8-1.7-1.7c0-0.9,0.7-1.6,1.6-1.6h5.7C25.3,41.5,26,42.2,26,43.1z M18.9,35.1h-5.1   l-1-4.9h5.2L17.5,31c-0.5,1.2-0.3,2.5,0.7,3.4l0.3,0.3C18.7,34.8,18.8,35,18.9,35.1z M21.9,28.7h-2.9h-7c-3.8,0-6.8-3.1-6.8-6.8   s3.1-6.8,6.8-6.8h9.9v1v11.6V28.7z M23.4,26.2v-8.6c8-0.2,14.3-2.9,21-7v22.6C37.7,29.1,31.4,26.4,23.4,26.2z M47.8,37.2   c0,0.5-0.4,0.9-0.9,0.9c-0.5,0-0.9-0.4-0.9-0.9V6.6c0-0.5,0.4-0.9,0.9-0.9c0.5,0,0.9,0.4,0.9,0.9V37.2z M49.3,27.8V16.1   c2.3,0.5,4,2.9,4,5.9C53.3,24.9,51.6,27.3,49.3,27.8z"/><rect x="53.9" y="31.3" transform="matrix(-0.7071 -0.7071 0.7071 -0.7071 74.7803 95.1353)" width="6.4" height="1.5"/><rect x="58.1" y="21.2" width="6.4" height="1.5"/><rect x="56.3" y="8.5" transform="matrix(0.7071 0.7071 -0.7071 0.7071 25.0194 -36.9336)" width="1.5" height="6.4"/></g></svg>