<svg xmlns="http://www.w3.org/2000/svg" xmlns:xlink="http://www.w3.org/1999/xlink" version="1.1" x="0px" y="0px" viewBox="0 0 100 80" style="enable-background:new 0 0 100 100;" xml:space="preserve"><path d="M93,5H7C5.9,5,5,5.9,5,7v68c0,1.1,0.9,2,2,2h56.6l16,17.4c0.4,0.4,0.9,0.6,1.5,0.6c0.2,0,0.5,0,0.7-0.1  c0.8-0.3,1.3-1,1.3-1.9V77h10c1.1,0,2-0.9,2-2V7C95,5.9,94.1,5,93,5z M91,73H81c-1.1,0-2,0.9-2,2v12.9L65.9,73.6  C65.5,73.2,65,73,64.4,73H9V9h82V73z M17,52h4v11c0,1.1,0.9,2,2,2s2-0.9,2-2V52h3.6l28.6,12.8c0.3,0.1,0.5,0.2,0.8,0.2  c0.4,0,0.8-0.1,1.1-0.3c0.6-0.4,0.9-1,0.9-1.7V19c0-0.7-0.3-1.3-0.9-1.7s-1.3-0.4-1.9-0.1L28.6,30H17c-1.1,0-2,0.9-2,2v18  C15,51.1,15.9,52,17,52z M56,59.9L31,48.7V33.3l25-11.2V59.9z M19,34h8v14h-8V34z M64.6,49.6c4.7-4.7,4.7-12.5,0-17.2  c-0.8-0.8-0.8-2.1,0-2.8c0.8-0.8,2.1-0.8,2.8,0c6.2,6.3,6.2,16.5,0,22.8C67,52.8,66.5,53,66,53c-0.5,0-1-0.2-1.4-0.6  C63.8,51.7,63.8,50.4,64.6,49.6z M73.4,59.6c10.1-10.3,10.1-26.9,0-37.2c-0.8-0.8-0.8-2.1,0-2.8c0.8-0.8,2.1-0.8,2.8,0  c11.6,11.8,11.6,31,0,42.8c-0.4,0.4-0.9,0.6-1.4,0.6c-0.5,0-1-0.2-1.4-0.6C72.7,61.7,72.6,60.4,73.4,59.6z"/></svg>