<svg xmlns="http://www.w3.org/2000/svg" xmlns:xlink="http://www.w3.org/1999/xlink" version="1.1" x="0px" y="0px" viewBox="0 0 70 87.5" style="enable-background:new 0 0 70 70;" xml:space="preserve"><style type="text/css">
	.st0{fill:none;stroke:#000000;stroke-width:2;stroke-linecap:round;stroke-linejoin:round;stroke-miterlimit:10;}
	.st1{fill:none;}
</style><g><g><g><path d="M31.6700153,60.0000229c-0.265625,0-0.5195313-0.1054688-0.7070313-0.2929688L10.2930622,39.036644     c-0.390625-0.390625-0.390625-1.0234375,0-1.4140625l25.4082012-25.4082031     c0.1669922-0.1669922,0.3867188-0.2695313,0.6220703-0.2895508l22.5917969-1.9213867     c0.2949219-0.0244141,0.5830078,0.0810547,0.7919922,0.2895508s0.3144531,0.4980469,0.2890625,0.7919922l-1.921875,22.5917969     c-0.0195313,0.2348633-0.1220703,0.4550781-0.2890625,0.6220703L32.3770447,59.7070541     C32.1895447,59.8945541,31.9356403,60.0000229,31.6700153,60.0000229z M12.414156,38.3296127l19.2558594,19.2563477     l24.4423809-24.4428711l1.7910156-21.0463867l-21.0458984,1.7900391L12.414156,38.3296127z"/></g></g><g><g><path d="M50.0069275,24.9184799c-1.2617188,0-2.5234375-0.4804688-3.484375-1.4414063     c-0.9287109-0.9287109-1.4404297-2.1660156-1.4404297-3.4848633c0-1.3183594,0.5117188-2.5556641,1.4404297-3.484375     c1.9228516-1.9228516,5.0488281-1.9208984,6.9697266,0c0.9326172,0.9321289,1.4462891,2.1699219,1.4462891,3.484375     c0,1.3149414-0.5136719,2.5522461-1.4462891,3.4848633l0,0l0,0     C52.5313416,24.4380112,51.2696228,24.9184799,50.0069275,24.9184799z M50.0069275,17.0654526     c-0.7490234,0-1.4990234,0.2856445-2.0703125,0.8564453c-0.5507813,0.5512695-0.8544922,1.2866211-0.8544922,2.0703125     c0,0.7841797,0.3037109,1.5195313,0.8544922,2.0708008c1.140625,1.1401367,2.9970703,1.1420898,4.1416016,0l0,0     c0.5546875-0.5551758,0.8603516-1.2900391,0.8603516-2.0708008c0-0.7802734-0.3056641-1.5151367-0.8603516-2.0703125     C51.5069275,17.3510971,50.7569275,17.0654526,50.0069275,17.0654526z"/></g></g></g></svg>