<svg xmlns="http://www.w3.org/2000/svg" xmlns:xlink="http://www.w3.org/1999/xlink" version="1.1" x="0px" y="0px" viewBox="0 0 128 140" style="enable-background:new 0 0 128 128;" xml:space="preserve"><path d="M64,78c9.9,0,18-8.1,18-18c0-9.9-8.1-18-18-18c-9.9,0-18,8.1-18,18C46,69.9,54.1,78,64,78z M64,46c7.7,0,14,6.3,14,14  c0,7.7-6.3,14-14,14c-7.7,0-14-6.3-14-14C50,52.3,56.3,46,64,46z"/><path d="M116,38c4.4,0,8-3.6,8-8V8c0-4.4-3.6-8-8-8H12C7.6,0,4,3.6,4,8v22c0,4.4,3.6,8,8,8h9v24.3c-2.3-0.7-4.7-0.3-6.6,1.4  c-4.7,4.2-1.7,9.8,2,13.4c0.1,0.1,18,17.3,18,17.3s8,7.5,8.5,12V128h43v-21.7c0.5-4.5,8.1-12,8.1-12L111.7,75  c3.2-3.3,6.4-8.7,2.6-12.7c-2.2-2.3-5.3-2.8-8.3-1.7V38H116z M109.1,64c0.6,0,1.4,0.1,2.3,1.1c2.1,2.1-1.8,6.3-2.6,7.1L91.2,91.5  c-2.1,2.1-8.6,8.9-9.2,14.4l0,0.2v0.2V124H47v-17.9l0-0.2c-0.6-5.6-7.6-12.5-9.7-14.5c-11.9-11.4-18-17.2-18-17.3  c-2-1.9-3.2-4-3.2-5.5c0-0.5,0.1-1.1,1.1-2c0.5-0.5,1-0.7,1.7-0.7c1.7,0,4.1,1.4,6.5,3.7L44,86h12.4c0.1,0,3.5,4.5,4.1,5.1  c0.8,0.9,1.9,1.7,3.2,1.8c1.3,0.1,2.6-0.7,3.5-1.6c0.5-0.6,4.1-5.1,4.2-5.3h12.4c0,0,18.4-18.1,18.6-18.4  C104.7,65.4,107.3,64,109.1,64z M25,64.3V38h77v24.8c-1.6,1.7-1.7,1.5-19.9,19.2H69.3c0,0-5.2,6.8-5.4,6.9c0,0,0,0,0,0  c-0.5,0-5.5-6.9-5.5-6.9H45.5C45.5,82,26.3,65.4,25,64.3z M12,34c-2.2,0-4-1.8-4-4V8c0-2.2,1.8-4,4-4h104c2.2,0,4,1.8,4,4v22  c0,2.2-1.8,4-4,4H12z"/></svg>