<svg xmlns="http://www.w3.org/2000/svg" data-name="Layer 1" viewBox="0 0 98 122.5" x="0px" y="0px"><g data-name="Group"><path data-name="Compound Path" d="M87.1,24.6H30V14.3A1.6,1.6,0,0,0,28.6,13H18.1a8.1,8.1,0,0,0-7.8,8H10V76.8A8.4,8.4,0,0,0,18.1,85H86.8A1.5,1.5,0,0,0,88,83.7V25.6A.9.9,0,0,0,87.1,24.6ZM12,22.5V21.2A6.3,6.3,0,0,1,18.1,15H28V68H18.1c-2.3,0-4.1,1.3-6.1,3ZM86,83H18.1A6.3,6.3,0,0,1,12,76.8v-.6A6.3,6.3,0,0,1,18.1,70H28.6c.6,0,1.4-.1,1.4-.7V26.5H86Z"/><path data-name="Compound Path" d="M46.5,43.8,55,35.9V65.3a5.1,5.1,0,0,0-4.1,5,5.1,5.1,0,0,0,10.2,0,5.1,5.1,0,0,0-4.1-5V35.9l8.5,7.9a1,1,0,0,0,.7.2.9.9,0,0,0,.7-.3,1,1,0,0,0,0-1.4L56.7,32.9a1.2,1.2,0,0,0-1.4,0L45.1,42.3a1,1,0,0,0,1.4,1.5ZM59.1,70.3a3.1,3.1,0,0,1-6.2,0,3.1,3.1,0,0,1,6.2,0Z"/><path data-name="Compound Path" d="M43.4,58.9a4.9,4.9,0,0,0,0-9.8,4.9,4.9,0,0,0,0,9.8Zm0-7.8a2.9,2.9,0,0,1,0,5.8,2.9,2.9,0,0,1,0-5.8Z"/><path data-name="Path" d="M67.2,49.8a1,1,0,0,0-1.4,1.4L68.6,54l-2.8,2.8a1,1,0,0,0,0,1.4.9.9,0,0,0,.7.3,1.1,1.1,0,0,0,.7-.3L70,55.4l2.8,2.8a1.1,1.1,0,0,0,.7.3.9.9,0,0,0,.7-.3,1,1,0,0,0,0-1.4L71.4,54l2.8-2.8a1,1,0,0,0-1.4-1.4L70,52.6Z"/></g></svg>