<svg xmlns="http://www.w3.org/2000/svg" xmlns:xlink="http://www.w3.org/1999/xlink" version="1.1" x="0px" y="0px" viewBox="0 0 100 125" enable-background="new 0 0 100 100" xml:space="preserve"><g><path d="M69.166,91.438h-39.26c-2.207,0-4.002-1.796-4.002-4.003v-74.87c0-2.207,1.795-4.002,4.002-4.002h39.26   c2.207,0,4.002,1.795,4.002,4.002v74.87C73.168,89.642,71.373,91.438,69.166,91.438z M29.906,9.563   c-1.655,0-3.002,1.347-3.002,3.002v74.87c0,1.656,1.347,3.003,3.002,3.003h39.26c1.655,0,3.002-1.347,3.002-3.003v-74.87   c0-1.656-1.347-3.002-3.002-3.002H29.906z"/></g><g><rect x="28.229" y="16.663" width="42.762" height="1"/></g><g><rect x="28.229" y="82.046" width="42.762" height="1"/></g><g><path d="M56.138,13.91H42.935c-0.54,0-0.979-0.439-0.979-0.979c0-0.541,0.439-0.98,0.979-0.98h13.203   c0.54,0,0.979,0.439,0.979,0.98C57.117,13.47,56.678,13.91,56.138,13.91z M42.935,12.45c-0.264,0-0.479,0.215-0.479,0.48   c0,0.264,0.215,0.479,0.479,0.479h13.203c0.264,0,0.479-0.215,0.479-0.479c0-0.265-0.215-0.48-0.479-0.48H42.935z"/></g><g><path d="M60.081,13.91c-0.541,0-0.98-0.439-0.98-0.979c0-0.541,0.44-0.98,0.98-0.98c0.54,0,0.979,0.439,0.979,0.98   C61.061,13.47,60.621,13.91,60.081,13.91z M60.081,12.45c-0.265,0-0.48,0.215-0.48,0.48c0,0.264,0.215,0.479,0.48,0.479   c0.264,0,0.479-0.215,0.479-0.479C60.561,12.666,60.345,12.45,60.081,12.45z"/></g><g><path d="M63.583,13.91c-0.54,0-0.979-0.439-0.979-0.979c0-0.541,0.439-0.98,0.979-0.98c0.541,0,0.98,0.439,0.98,0.98   C64.563,13.47,64.124,13.91,63.583,13.91z M63.583,12.45c-0.264,0-0.479,0.215-0.479,0.48c0,0.264,0.215,0.479,0.479,0.479   c0.265,0,0.48-0.215,0.48-0.479C64.063,12.666,63.848,12.45,63.583,12.45z"/></g><g><path d="M37.471,14.396c-0.808,0-1.466-0.658-1.466-1.466c0-0.809,0.658-1.466,1.466-1.466c0.809,0,1.467,0.658,1.467,1.466   C38.938,13.738,38.279,14.396,37.471,14.396z M37.471,11.964c-0.533,0-0.966,0.434-0.966,0.966s0.433,0.966,0.966,0.966   c0.533,0,0.967-0.433,0.967-0.966S38.004,11.964,37.471,11.964z"/></g><g><g><path d="M41.429,67.838H36.82V59.41h4.609V67.838z M37.57,67.088h3.109V60.16H37.57V67.088z"/></g></g><g><g><path d="M49.311,67.838h-4.609V53.127h4.609V67.838z M45.452,67.088h3.109V53.877h-3.109V67.088z"/></g></g><g><g><path d="M57.193,67.838h-4.609V48.946h4.609V67.838z M53.334,67.088h3.109V49.696h-3.109V67.088z"/></g></g><g><g><path d="M64.908,67.838h-4.609V42.603h4.609V67.838z M61.049,67.088h3.109V43.353h-3.109V67.088z"/></g></g><g><path d="M35.041,54.731c-0.701,0-1.3-0.501-1.423-1.193c-0.14-0.785,0.385-1.538,1.168-1.678   c0.12-0.022,12.061-2.388,22.648-16.274l-4.097,0.475c-0.703,0.084-1.288-0.415-1.366-1.083c-0.038-0.327,0.054-0.649,0.258-0.907   c0.205-0.258,0.497-0.421,0.824-0.459l7.308-0.846c0.379-0.044,0.755,0.092,1.017,0.357c0.268,0.269,0.395,0.641,0.347,1.02   l-0.897,7.222c-0.083,0.667-0.695,1.159-1.375,1.071c-0.674-0.084-1.155-0.701-1.071-1.375l0.295-2.372   c-11.038,13.684-22.87,15.929-23.38,16.02C35.212,54.724,35.125,54.731,35.041,54.731z M59.072,34.641l-0.513,0.694   C47.64,50.119,35.045,52.575,34.919,52.598c-0.378,0.068-0.63,0.431-0.563,0.809c0.067,0.372,0.423,0.637,0.807,0.563   c0.514-0.092,12.662-2.397,23.755-16.8l0.839-1.089l-0.631,5.07c-0.033,0.264,0.156,0.506,0.419,0.539c0.003,0,0.006,0,0.008,0   c0.298,0,0.5-0.181,0.53-0.42l0.897-7.222c0.019-0.148-0.031-0.293-0.135-0.398c-0.09-0.091-0.215-0.143-0.344-0.143l-7.362,0.849   c-0.128,0.015-0.243,0.079-0.322,0.18c-0.08,0.101-0.116,0.227-0.101,0.355c0.028,0.244,0.234,0.427,0.48,0.427L59.072,34.641z"/></g></svg>