<svg xmlns="http://www.w3.org/2000/svg" xmlns:xlink="http://www.w3.org/1999/xlink" version="1.1" x="0px" y="0px" viewBox="0 0 64 80" style="enable-background:new 0 0 64 64;" xml:space="preserve"><g><path d="M38.586,1l6.5,6.5l-6.5,6.5H34v3.155c-1.335-0.182-2.665-0.182-4,0V10h-8v10.852c-1.8,1.616-3.158,3.61-4,5.816V22h-8v11   h7.051c0.05,0.759,0.149,1.503,0.308,2.227L1.293,51.293l1.414,1.414L18.02,37.395c1.523,3.934,4.652,7.063,8.586,8.586   L11.293,61.293l1.414,1.414L25.414,50H27v8c0,2.757,2.243,5,5,5s5-2.243,5-5v-8h2v-2h-2v-1.875   c5.515-1.959,9.546-7.047,9.949-13.125H54V21.414l2.5-2.5l6.5,6.5V1H38.586z M46,9.414v7.172l-2.707,2.707l1.414,1.414L46,19.414   v7.254c-0.842-2.207-2.2-4.2-4-5.816V14h-0.586L46,9.414z M30,33v-9.749c1.317-0.299,2.683-0.299,4,0V33h6.941   c-0.5,4.493-4.317,8-8.941,8s-8.442-3.507-8.941-8H30z M36,16h4v15h-4V16z M34,19.178v2.014c-1.321-0.242-2.679-0.242-4,0v-2.014   C31.337,18.968,32.663,18.968,34,19.178z M24,12h4v19h-4V12z M16,31h-4v-7h4V31z M35,58c0,1.654-1.346,3-3,3s-3-1.346-3-3v-8h6V58z    M35,48h-6v-1.302C29.97,46.895,30.973,47,32,47s2.03-0.105,3-0.302V48z M32,45c-7.168,0-13-5.832-13-13   c0-3.052,1.082-5.958,3-8.272v3.739c-0.656,1.441-1,2.963-1,4.533c0,6.065,4.935,11,11,11s11-4.935,11-11   c0-1.569-0.344-3.091-1-4.533v-3.739c1.918,2.314,3,5.22,3,8.272C45,39.168,39.168,45,32,45z M52,31h-4V7h4V31z M61,20.586   l-4.5-4.5l-2.5,2.5V5h-8v0.586L43.414,3H61V20.586z"/><rect x="1.893" y="50.5" transform="matrix(0.7071 -0.7071 0.7071 0.7071 -32.7548 23.9228)" width="21.213" height="2"/><rect x="1.586" y="60" transform="matrix(0.7071 -0.7071 0.7071 0.7071 -42.2548 19.9878)" width="2.828" height="2"/></g></svg>