<svg xmlns:dc="http://purl.org/dc/elements/1.1/" xmlns:cc="http://creativecommons.org/ns#" xmlns:rdf="http://www.w3.org/1999/02/22-rdf-syntax-ns#" xmlns:svg="http://www.w3.org/2000/svg" xmlns="http://www.w3.org/2000/svg" xmlns:sodipodi="http://sodipodi.sourceforge.net/DTD/sodipodi-0.dtd" xmlns:inkscape="http://www.inkscape.org/namespaces/inkscape" viewBox="0 0 48 60.00000125" version="1.1" x="0px" y="0px"><g transform="translate(0,-1004.3622)"><g><path d="m 24.298828,1014.8398 c -5.303715,-0.187 -9.853169,3.0888 -10.464844,7.5489 -2.619186,0.8829 -4.5069716,2.8354 -4.9999996,5.2129 -3.8478706,0.024 -7.1485773,2.4955 -7.3261719,5.8652 -0.1416761,2.7565 1.7916888,5.7854 5.0390625,6.1348 a 0.60006014,0.60006014 0 0 0 0.064453,0 l 16.304688,0.02 0.002,-1.2012 -16.2480472,-0.018 c -2.550504,-0.2783 -4.07519,-2.73 -3.9648438,-4.8769 0.1419155,-2.6927 2.9689997,-4.8968 6.4375,-4.7754 0.042666,0.012 0.051399,0.027 0.1386719,0.027 A 0.60006014,0.60006014 0 0 0 9.877,1028.2439 c 0.245809,-2.1583 1.999074,-4.0672 4.597656,-4.8398 a 0.60006014,0.60006014 0 0 0 0.427735,-0.5293 c 0.304822,-3.9073 4.409577,-7.0142 9.353515,-6.8398 5.021006,0.1807 8.791213,3.6402 8.582032,7.6132 -0.009,0.1673 -0.02527,0.3373 -0.04883,0.5059 a 0.60006014,0.60006014 0 0 0 0.695313,0.6738 c 0.477887,-0.081 0.9663,-0.1118 1.457031,-0.096 2.684573,0.098 4.943167,1.6025 5.658203,3.6172 a 0.60006014,0.60006014 0 0 0 0.414063,0.3789 c 2.700596,0.7046 4.396081,2.7596 4.28125,4.961 a 0.60006014,0.60006014 0 0 0 -0.002,0.037 c 0.02182,2.2696 -0.775163,3.2583 -1.945313,3.8672 l 0.554688,1.0644 c 1.493365,-0.7771 2.605699,-2.3491 2.58789,-4.9238 0.134265,-2.7566 -1.929494,-5.1653 -4.912109,-6.0567 -1.010128,-2.4128 -3.605546,-4.0357 -6.591797,-4.1445 a 0.60006014,0.60006014 0 0 0 -0.002,0 c -0.323522,-0.011 -0.645825,0.037 -0.96875,0.062 0.167853,-4.701 -4.209175,-8.5615 -9.716797,-8.7598 z m -15.1289061,12.7149 0.021484,0 c -0.00412,-2e-4 -0.0076,0 -0.011719,0 -0.00591,-10e-5 -0.00362,0 -0.00977,0 z" style="color:#000000;font-style:normal;font-variant:normal;font-weight:normal;font-stretch:normal;font-size:medium;line-height:normal;font-family:sans-serif;text-indent:0;text-align:start;text-decoration:none;text-decoration-line:none;text-decoration-style:solid;text-decoration-color:#000000;letter-spacing:normal;word-spacing:normal;text-transform:none;direction:ltr;block-progression:tb;writing-mode:lr-tb;baseline-shift:baseline;text-anchor:start;white-space:normal;clip-rule:nonzero;display:inline;overflow:visible;visibility:visible;opacity:1;isolation:auto;mix-blend-mode:normal;color-interpolation:sRGB;color-interpolation-filters:linearRGB;solid-color:#000000;solid-opacity:1;fill:#000000;fill-opacity:1;fill-rule:nonzero;stroke:none;stroke-width:1.20000029;stroke-linecap:butt;stroke-linejoin:round;stroke-miterlimit:4;stroke-dasharray:none;stroke-dashoffset:0;stroke-opacity:1;color-rendering:auto;image-rendering:auto;shape-rendering:auto;text-rendering:auto;enable-background:accumulate"/><path d="m 23.943359,1019.0098 c -1.706078,-0.4219 -3.410135,0.063 -4.691406,1.2363 -1.199599,1.0982 -1.996823,2.8177 -2.298828,4.9043 -0.728949,0.1396 -1.715862,0.3483 -2.746094,0.957 -1.18057,0.6975 -2.302203,1.8705 -2.460937,3.6192 a 0.60006365,0.60006365 0 1 0 1.195312,0.1074 c 0.118273,-1.3029 0.898606,-2.1165 1.875,-2.6934 0.976394,-0.5768 2.127369,-0.8514 2.722656,-0.9453 a 0.60006014,0.60006014 0 0 0 0.503907,-0.5293 c 0.217374,-2.0515 0.99777,-3.5978 2.019531,-4.5332 1.021761,-0.9354 2.264991,-1.2856 3.59375,-0.957 a 0.60041394,0.60041394 0 1 0 0.287109,-1.166 z" style="color:#000000;font-style:normal;font-variant:normal;font-weight:normal;font-stretch:normal;font-size:medium;line-height:normal;font-family:sans-serif;text-indent:0;text-align:start;text-decoration:none;text-decoration-line:none;text-decoration-style:solid;text-decoration-color:#000000;letter-spacing:normal;word-spacing:normal;text-transform:none;direction:ltr;block-progression:tb;writing-mode:lr-tb;baseline-shift:baseline;text-anchor:start;white-space:normal;clip-rule:nonzero;display:inline;overflow:visible;visibility:visible;opacity:1;isolation:auto;mix-blend-mode:normal;color-interpolation:sRGB;color-interpolation-filters:linearRGB;solid-color:#000000;solid-opacity:1;fill:#000000;fill-opacity:1;fill-rule:nonzero;stroke:none;stroke-width:1.20000029;stroke-linecap:round;stroke-linejoin:round;stroke-miterlimit:4;stroke-dasharray:none;stroke-dashoffset:0;stroke-opacity:1;color-rendering:auto;image-rendering:auto;shape-rendering:auto;text-rendering:auto;enable-background:accumulate"/><path d="m 30.148438,1027.6504 0.457031,2.0078 -0.09961,0.025 -0.02539,0.01 c -0.02884,0.01 -0.05862,0.021 -0.08789,0.031 -0.137917,0.045 -0.271297,0.093 -0.40039,0.1425 -0.04104,0.014 -0.07918,0.029 -0.113282,0.041 -0.08005,0.028 -0.161035,0.059 -0.24414,0.092 l -0.01563,0.01 -0.01563,0.01 c -0.04135,0.019 -0.07399,0.036 -0.09766,0.047 -0.114516,0.051 -0.226877,0.104 -0.335937,0.1582 -0.05334,0.024 -0.106793,0.051 -0.164063,0.08 -0.04048,0.019 -0.07471,0.036 -0.111328,0.055 l -1.048828,-1.7207 -4.527344,4.4434 1.707032,1.0742 c -0.01709,0.032 -0.03601,0.063 -0.05273,0.096 -0.01524,0.026 -0.03427,0.055 -0.05859,0.1035 l -0.002,0.01 -0.0039,0.01 c -0.0416,0.087 -0.08074,0.1742 -0.119141,0.2617 -0.02848,0.059 -0.05687,0.1173 -0.08398,0.1758 l -0.002,0.01 -0.0039,0.01 c -0.01417,0.033 -0.02967,0.068 -0.04492,0.1055 -0.02168,0.047 -0.04425,0.095 -0.06641,0.1445 l 0,0 -0.002,0 c -0.01609,0.036 -0.03243,0.075 -0.04883,0.1133 l -0.0078,0.018 -0.0059,0.017 c -0.03038,0.085 -0.06005,0.1716 -0.08789,0.2579 -0.02331,0.063 -0.04543,0.1248 -0.06641,0.1855 -7.01e-4,0 -0.0013,0 -0.002,0 -1.96e-4,6e-4 1.95e-4,0 0,0 -0.02104,0.06 -0.03425,0.1066 -0.04102,0.1289 -0.0064,0.018 -0.01307,0.038 -0.01953,0.057 l -1.958985,-0.4766 -0.05273,6.3379 1.96875,-0.4453 c 0.01781,0.062 0.03506,0.1263 0.05273,0.1836 l 0,-0.01 c 0.01616,0.054 0.03359,0.1162 0.05469,0.1855 l 0.0039,0.018 0.0059,0.018 c 0.03929,0.1058 0.08122,0.2102 0.125,0.3164 0.04856,0.1285 0.100036,0.2563 0.154297,0.3828 0.01987,0.05 0.03931,0.097 0.05469,0.1347 l 0.0078,0.018 0.0078,0.018 c 0.04162,0.085 0.08417,0.1692 0.126953,0.25 0.03105,0.065 0.06904,0.1255 0.101562,0.1895 l -1.730468,1.0507 4.453125,4.5176 1.089843,-1.7246 c 0.276344,0.1471 0.54605,0.3069 0.835938,0.4258 l -0.167969,-0.1055 -0.01563,-0.014 c 0.169737,0.1689 0.387349,0.1893 0.300781,0.1661 l -0.07227,-0.024 c 0.242861,0.1 0.490184,0.1871 0.740234,0.2656 0.02012,0.01 0.04819,0.016 0.07031,0.024 l -0.480469,1.9668 6.347656,0.053 -0.447266,-1.9726 0.02539,-0.01 0.03125,-0.01 c 0.01769,-0.01 0.03313,-0.016 0.05078,-0.021 0.552972,-0.1687 1.066495,-0.4342 1.578125,-0.7012 l 1.080079,1.7735 4.527343,-4.4454 -1.720703,-1.082 c 0.0494,-0.09 0.101935,-0.1791 0.148438,-0.2715 0.06069,-0.1211 0.12,-0.2446 0.175781,-0.3691 l 0,0 c 0.06183,-0.1365 0.12095,-0.2735 0.175781,-0.4121 0.0702,-0.1785 0.134401,-0.359 0.19336,-0.541 l 0.02539,0 0.02148,-0.094 1.957032,0.4746 0.05273,-6.3379 -1.990234,0.4512 c -0.02921,-0.099 -0.04957,-0.1994 -0.08203,-0.2969 l -0.0039,-0.012 c -0.0084,-0.026 -0.01884,-0.055 -0.01172,-0.031 l -0.002,-0.01 -0.0039,-0.01 c -0.08689,-0.2579 -0.18376,-0.512 -0.292969,-0.7617 l -0.002,0 -0.002,0 c -0.04861,-0.1067 -0.09893,-0.2139 -0.152344,-0.3204 l -0.0078,-0.014 c -0.03959,-0.084 -0.08295,-0.1656 -0.125,-0.2481 l 1.736328,-1.0547 -4.453125,-4.5175 -1.082031,1.7109 c -0.05045,-0.029 -0.101086,-0.059 -0.150391,-0.086 l -0.0078,0 -0.0059,0 c -0.08001,-0.041 -0.165796,-0.085 -0.257812,-0.1289 l -0.117188,-0.057 -0.01563,0 c -0.255369,-0.1187 -0.513783,-0.2289 -0.779297,-0.3242 l -0.0957,-0.033 -0.02344,0 c -0.08242,-0.029 -0.166804,-0.051 -0.25,-0.078 l 0.480468,-1.9649 -0.757812,-0.01 c -1.719741,-0.014 -3.287628,-0.052 -4.833984,-0.082 l -0.767578,-0.016 z m 1.511718,1.2285 c 1.066699,0.022 2.168967,0.041 3.324219,0.055 l -0.398437,1.6269 0.576171,0.1465 c 0.266545,0.068 0.530646,0.1481 0.789063,0.2422 l 0.09961,0.035 c 0.230117,0.085 0.457688,0.1779 0.679688,0.2832 5.43e-4,2e-4 0.0014,-3e-4 0.002,0 l 0.107422,0.074 0.04687,0 c 0.04193,0.021 0.08192,0.041 0.126953,0.064 0.09148,0.051 0.180499,0.1004 0.265625,0.1504 l 0.0078,0 0.0098,0.01 c 0.11314,0.062 0.223797,0.1237 0.332031,0.1875 l 0.5,0.2949 0.888672,-1.4082 2.328125,2.3614 -1.423828,0.8632 0.28125,0.5059 c 0.02196,0.039 0.03958,0.068 0.05078,0.088 l 0.0039,0.01 0.0078,0.01 c 0.03406,0.056 0.06619,0.1148 0.101563,0.1777 0.07314,0.135 0.143679,0.2732 0.208984,0.4122 l 0.0039,0.01 0.002,0.01 c 0.04665,0.093 0.09273,0.187 0.136719,0.2832 0.09508,0.2175 0.179987,0.4389 0.255859,0.6641 0.0041,0.012 0.01375,0.041 0.0078,0.022 l 0.0039,0.01 0.002,0.01 c 0.08548,0.2552 0.159013,0.5151 0.21875,0.7773 l 0.132813,0.584 1.652344,-0.3731 -0.02734,3.3086 -1.65625,-0.4023 -0.138672,0.5879 c -0.01318,0.056 -0.0294,0.1173 -0.04883,0.1875 l 0.03516,-0.1582 -0.04492,0.1914 c -0.01229,0.052 -0.02204,0.095 -0.0332,0.1367 -0.02179,0.074 -0.04472,0.146 -0.06836,0.2188 l 0,0 c -0.05231,0.1621 -0.109724,0.3224 -0.171875,0.4805 -0.04806,0.1213 -0.09884,0.2412 -0.152344,0.3594 l 0,0 -0.002,0 c -0.04842,0.1081 -0.09866,0.2151 -0.152344,0.3223 -0.08156,0.1619 -0.168643,0.3209 -0.261719,0.4785 l 0,0 -0.002,0 c -0.03598,0.062 -0.06871,0.1182 -0.101562,0.17 -0.0038,0 -0.0082,0.01 -0.03516,0.055 l -0.298828,0.502 1.419922,0.8926 -2.365234,2.3222 -0.876953,-1.4394 -0.511719,0.3105 c -0.595496,0.3615 -1.234735,0.6445 -1.902344,0.8438 l -0.04297,0.014 c -0.1705,0.054 -0.344767,0.101 -0.523437,0.1445 l -0.574219,0.1406 0.371094,1.6289 -3.31836,-0.027 0.396485,-1.6231 -0.568359,-0.1504 c -0.121577,-0.032 -0.24316,-0.067 -0.363282,-0.1035 l -0.0039,0 -0.0039,0 c -0.05407,-0.015 -0.120554,-0.037 -0.197266,-0.062 l -0.0039,0 -0.0039,0 c -0.202928,-0.064 -0.40271,-0.1359 -0.59961,-0.2149 l -0.0039,0 -0.0918,-0.039 c -0.413615,-0.1697 -0.812784,-0.3727 -1.193359,-0.6075 l -0.50586,-0.3105 -0.890625,1.4082 -2.326171,-2.3594 1.423828,-0.8652 -0.300782,-0.5098 c -0.123595,-0.2092 -0.237667,-0.4237 -0.341796,-0.6426 l -0.0059,-0.012 -0.0059,-0.012 c -0.0357,-0.067 -0.06896,-0.133 -0.101563,-0.1992 -0.01724,-0.042 -0.03313,-0.081 -0.04492,-0.1114 l -0.0039,-0.01 -0.0039,-0.01 c -0.04942,-0.1152 -0.09651,-0.232 -0.140625,-0.3496 l -0.0039,-0.01 -0.0039,-0.01 c -0.03495,-0.085 -0.06886,-0.1703 -0.101562,-0.2578 -0.01474,-0.049 -0.02997,-0.1031 -0.04883,-0.166 l 0,0 0,0 c -0.02976,-0.096 -0.05799,-0.1884 -0.08008,-0.2734 l -0.002,-0.01 -0.0039,-0.01 c -0.03378,-0.1134 -0.06615,-0.2262 -0.0957,-0.3398 l 0,0 c -0.0054,-0.021 -0.0091,-0.036 -0.01172,-0.047 l -0.142578,-0.5723 -1.621094,0.3672 0.02734,-3.3086 1.644532,0.3985 0.128906,-0.6016 c 0.0038,-0.018 0.01105,-0.044 0.01953,-0.074 l 0.0039,-0.012 0.0039,-0.014 c 0.01115,-0.047 0.02351,-0.1002 0.03906,-0.1563 l 0.0039,-0.014 c 6.07e-4,0 0.0013,0 0.002,-0.01 0.01117,-0.035 0.02352,-0.072 0.03711,-0.1133 0.01467,-0.045 0.03089,-0.091 0.04883,-0.1425 l 0.0039,-0.012 0.0039,-0.012 c 0.01442,-0.048 0.02347,-0.075 0.02539,-0.08 l 0,0 0.002,0 c 0.0225,-0.065 0.04392,-0.1294 0.06641,-0.1894 l 0.0059,-0.014 0.0039,-0.012 c 0.01984,-0.062 0.03905,-0.1245 0.06055,-0.1856 0.0017,0 0.0042,-0.01 0.0059,-0.012 0.01296,-0.03 0.02555,-0.061 0.03906,-0.092 l 0.002,0 c 0.02182,-0.049 0.04401,-0.098 0.06836,-0.1504 l 0.0059,-0.012 0.0039,-0.012 c 0.0098,-0.024 0.02059,-0.049 0.03125,-0.074 l 0.0078,-0.016 c 0.02492,-0.053 0.04842,-0.1073 0.07422,-0.1602 l 0.0059,-0.01 0.0059,-0.012 c 0.03205,-0.073 0.06396,-0.1458 0.09766,-0.2168 l 0.002,-0.01 c 9.86e-4,0 0.0029,0 0.0039,-0.01 0.0056,-0.01 0.01333,-0.024 0.03125,-0.055 l 0.0078,-0.01 0.0059,-0.012 c 0.09564,-0.1839 0.195471,-0.3633 0.302735,-0.5371 l 0.3125,-0.5059 -1.410156,-0.8887 2.363281,-2.3222 0.867187,1.4218 0.507813,-0.2968 c 0.119062,-0.07 0.237832,-0.137 0.355469,-0.1992 l 0.0098,-0.01 c 0.0677,-0.034 0.13077,-0.064 0.185547,-0.09 l 0.0098,-0.01 0.0098,0 c 0.04094,-0.021 0.08555,-0.041 0.132813,-0.062 l 0.01172,-0.01 0.0098,-0.01 c 0.09999,-0.05 0.198688,-0.097 0.296875,-0.1407 l 0.0039,0 0.0039,0 c 0.02894,-0.013 0.04808,-0.024 0.06836,-0.033 l 0.0039,0 c 0.06516,-0.026 0.131473,-0.052 0.201172,-0.076 l 0.002,0 0.0039,0 c 0.04184,-0.015 0.07722,-0.028 0.109376,-0.039 l 0.01172,0 0.01172,0 c 0.121522,-0.047 0.241351,-0.09 0.357422,-0.1269 l 0.0078,0 0.0078,0 c 0.0167,-0.01 0.03363,-0.011 0.05078,-0.018 l 0.226563,-0.059 0.002,0 c -0.01565,0 0.03685,-8e-4 0.138672,-0.039 l -0.04297,0.014 c 0.101648,-0.03 0.203324,-0.058 0.302734,-0.084 l 0.560547,-0.1465 -0.128906,-0.5664 -0.244141,-1.0742 z m 5.714844,1.375 c 0.0037,0 0.0091,0 0.01172,0.01 0.05608,0.04 0.072,0.06 0.06836,0.057 -0.0032,0 -0.03359,-0.029 -0.08008,-0.062 z m -1.53125,0.6406 c 0.0055,0 0.116893,0.065 0.285156,0.086 -0.0176,0 -0.04579,-0.01 -0.08203,-0.012 l -0.05664,-0.01 c -0.03706,-0.011 -0.06687,-0.021 -0.08789,-0.031 -0.04596,-0.022 -0.0618,-0.035 -0.05859,-0.033 z m 0.283203,0.09 0.01367,0 c 0.01576,0 0.008,0.01 0.02539,0.01 l -0.03906,-0.01 z m -0.359375,15.4218 c -0.02888,0 -0.01899,0.01 -0.04297,0.01 l -0.02344,0 0.06641,-0.01 z" style="color:#000000;font-style:normal;font-variant:normal;font-weight:normal;font-stretch:normal;font-size:medium;line-height:normal;font-family:sans-serif;text-indent:0;text-align:start;text-decoration:none;text-decoration-line:none;text-decoration-style:solid;text-decoration-color:#000000;letter-spacing:normal;word-spacing:normal;text-transform:none;direction:ltr;block-progression:tb;writing-mode:lr-tb;baseline-shift:baseline;text-anchor:start;white-space:normal;clip-rule:nonzero;display:inline;overflow:visible;visibility:visible;opacity:1;isolation:auto;mix-blend-mode:normal;color-interpolation:sRGB;color-interpolation-filters:linearRGB;solid-color:#000000;solid-opacity:1;fill:#000000;fill-opacity:1;fill-rule:nonzero;stroke:none;stroke-width:1.20000005;stroke-linecap:butt;stroke-linejoin:miter;stroke-miterlimit:4;stroke-dasharray:none;stroke-dashoffset:0;stroke-opacity:1;color-rendering:auto;image-rendering:auto;shape-rendering:auto;text-rendering:auto;enable-background:accumulate"/><path d="m 33.299884,1032.5131 c -3.377561,-0.028 -6.151231,2.6959 -6.178901,6.0686 -0.02767,3.3727 2.700937,6.1415 6.078497,6.1692 3.377561,0.028 6.153185,-2.6959 6.180856,-6.0687 0.02767,-3.3726 -2.702892,-6.1414 -6.080452,-6.1691 z m -0.0099,1.201 c 2.730354,0.022 4.911514,2.2354 4.889174,4.9583 -0.02234,2.7229 -2.239515,4.8998 -4.969869,4.8774 -2.730354,-0.022 -4.911513,-2.2354 -4.889174,-4.9583 0.02234,-2.7229 2.239515,-4.8998 4.969869,-4.8774 z" style="color:#000000;font-style:normal;font-variant:normal;font-weight:normal;font-stretch:normal;font-size:medium;line-height:normal;font-family:sans-serif;text-indent:0;text-align:start;text-decoration:none;text-decoration-line:none;text-decoration-style:solid;text-decoration-color:#000000;letter-spacing:normal;word-spacing:normal;text-transform:none;direction:ltr;block-progression:tb;writing-mode:lr-tb;baseline-shift:baseline;text-anchor:start;white-space:normal;clip-rule:nonzero;display:inline;overflow:visible;visibility:visible;opacity:1;isolation:auto;mix-blend-mode:normal;color-interpolation:sRGB;color-interpolation-filters:linearRGB;solid-color:#000000;solid-opacity:1;fill:#000000;fill-opacity:1;fill-rule:nonzero;stroke:none;stroke-width:1.20000017;stroke-linecap:butt;stroke-linejoin:miter;stroke-miterlimit:4;stroke-dasharray:none;stroke-dashoffset:0;stroke-opacity:1;color-rendering:auto;image-rendering:auto;shape-rendering:auto;text-rendering:auto;enable-background:accumulate"/></g></g></svg>