<svg xmlns="http://www.w3.org/2000/svg" xmlns:xlink="http://www.w3.org/1999/xlink" version="1.1" x="0px" y="0px" viewBox="0 0 256 320" style="enable-background:new 0 0 256 256;" xml:space="preserve"><g><path d="M173.3,97c3,0,5.4-2.4,5.4-5.4V30c0-3-2.4-5.4-5.4-5.4H82.7c-3,0-5.4,2.4-5.4,5.4v61.6c0,3,2.4,5.4,5.4,5.4h25.2l16.4,16.4   c1,1,2.3,1.5,3.6,1.5c1.3,0,2.6-0.5,3.6-1.5L148.1,97H173.3z M142.3,88.3L128,102.6l-14.3-14.3c-1-1-2.3-1.5-3.6-1.5H87.5v-52h80.9   v52h-22.5C144.6,86.8,143.3,87.3,142.3,88.3z"/><path d="M112.5,158.4l-32.6-7.9c-8.5-9.8-20.4-23.7-21.2-24.8c-5.7-7.9-15-12.6-24.7-12.6c-16.8,0-30.5,13.7-30.5,30.5v57.3   c0,16.8,13.7,30.5,30.5,30.5s30.5-13.7,30.5-30.5v-28.1c0-2.8-2.3-5.1-5.1-5.1s-5.1,2.3-5.1,5.1v28.1c0,11.2-9.1,20.3-20.3,20.3   c-11.2,0-20.3-9.1-20.3-20.3v-57.3c0-11.2,9.1-20.3,20.3-20.3c6.5,0,12.6,3.1,16.4,8.4c0.7,0.9,12.8,15,22.8,26.7   c0.7,0.8,1.6,1.4,2.7,1.6l34.2,8.3c2.7,0.7,5.5-1,6.2-3.8C116.9,161.8,115.2,159,112.5,158.4z"/><path d="M14.2,80.1L14.2,80.1c2.1,10.7,11.5,18.5,22.5,18.5S57,90.8,59.1,80.1l2.8-14.3c0.9-6.8-1.1-13.7-5.7-18.9   s-11.1-8.2-17.9-8.2H35c-6.9,0-13.4,3-17.9,8.2S10.5,59,11.5,66.1L14.2,80.1z M24.8,53.7c2.6-3,6.3-4.7,10.2-4.7h3.2   c3.9,0,7.7,1.7,10.2,4.7c2.6,3,3.8,6.9,3.3,10.5l-2.7,14c-1.2,5.9-6.4,10.2-12.4,10.2s-11.3-4.3-12.4-10.2l-2.7-13.7   C21,60.6,22.2,56.6,24.8,53.7z"/><path d="M222.1,113.1c-9.8,0-19,4.7-24.6,12.5c-0.9,1.1-12.8,15-21.3,24.9l-32.6,7.9c-2.7,0.7-4.4,3.4-3.8,6.2   c0.7,2.7,3.4,4.4,6.2,3.8l34.2-8.3c1-0.3,2-0.8,2.7-1.6c10-11.7,22.2-25.8,22.8-26.7c3.8-5.3,10-8.4,16.4-8.4   c11.2,0,20.3,9.1,20.3,20.3v57.3c0,11.2-9.1,20.3-20.3,20.3c-11.2,0-20.3-9.1-20.3-20.3v-28.1c0-2.8-2.3-5.1-5.1-5.1   c-2.8,0-5.1,2.3-5.1,5.1v28.1c0,16.8,13.7,30.5,30.5,30.5s30.5-13.7,30.5-30.5v-57.3C252.6,126.8,238.9,113.1,222.1,113.1z"/><path d="M196.9,80.1c2.1,10.7,11.5,18.5,22.5,18.5s20.4-7.8,22.5-18.5v0l2.8-14.3c0.9-6.8-1.1-13.7-5.7-18.9   c-4.5-5.2-11.1-8.2-17.9-8.2h-3.2c-6.9,0-13.4,3-17.9,8.2s-6.6,12.1-5.6,19.2L196.9,80.1z M207.5,53.7c2.6-3,6.3-4.7,10.2-4.7h3.2   c3.9,0,7.7,1.7,10.2,4.7c2.6,3,3.8,6.9,3.3,10.5l-2.7,14c-1.2,5.9-6.4,10.2-12.4,10.2c-6,0-11.3-4.3-12.4-10.2l-2.7-13.7   C203.8,60.6,204.9,56.6,207.5,53.7z"/><path d="M145.6,46.2l-24.2,24.2l-11-11c-0.9-0.9-2.4-0.9-3.3,0c-0.9,0.9-0.9,2.4,0,3.3l12.7,12.7c0.4,0.4,1,0.7,1.7,0.7   c0.6,0,1.2-0.2,1.7-0.7l25.8-25.8c0.9-0.9,0.9-2.4,0-3.3C148,45.3,146.5,45.3,145.6,46.2z"/></g></svg>