<svg xmlns="http://www.w3.org/2000/svg" xmlns:xlink="http://www.w3.org/1999/xlink" version="1.1" x="0px" y="0px" viewBox="0 20 100 60" enable-background="new 0 0 100 100" xml:space="preserve"><g><path d="M82.511,24.34H57.503v-1.567c0-0.552-0.447-1-1-1H44.769c-0.553,0-1,0.448-1,1v1.567H18.761c-0.553,0-1,0.448-1,1v44.5   c0,0.552,0.447,1,1,1h27.452l-6.404,9.438c-0.311,0.457-0.191,1.079,0.266,1.389c0.172,0.117,0.367,0.172,0.561,0.172   c0.32,0,0.635-0.153,0.828-0.438l7.125-10.5c0.013-0.019,0.015-0.042,0.025-0.062h6.366l6.827,10.062   c0.193,0.285,0.508,0.438,0.828,0.438c0.193,0,0.389-0.056,0.561-0.172c0.457-0.31,0.576-0.932,0.266-1.389l-6.065-8.938h25.115   c0.553,0,1-0.448,1-1v-44.5C83.511,24.788,83.063,24.34,82.511,24.34z M55.503,23.773v1.558c0,0.003-0.002,0.006-0.002,0.01   s0.002,0.006,0.002,0.01v1.558h-9.734V25.35c0-0.003,0.002-0.006,0.002-0.01s-0.002-0.006-0.002-0.01v-1.558H55.503z M81.511,68.84   h-61.75v-42.5h24.008v1.567c0,0.552,0.447,1,1,1h11.734c0.553,0,1-0.448,1-1V26.34h24.008V68.84z"/><path d="M39.346,55.672h-4.625c-0.553,0-1,0.448-1,1v6.141c0,0.552,0.447,1,1,1h4.625c0.553,0,1-0.448,1-1v-6.141   C40.346,56.12,39.898,55.672,39.346,55.672z M38.346,61.813h-2.625v-4.141h2.625V61.813z"/><path d="M48.991,46.618h-4.625c-0.553,0-1,0.448-1,1v14.5c0,0.552,0.447,1,1,1h4.625c0.553,0,1-0.448,1-1v-14.5   C49.991,47.065,49.544,46.618,48.991,46.618z M47.991,61.118h-2.625v-12.5h2.625V61.118z"/><path d="M58.636,49.906h-4.625c-0.553,0-1,0.448-1,1V62.33c0,0.552,0.447,1,1,1h4.625c0.553,0,1-0.448,1-1V50.906   C59.636,50.354,59.188,49.906,58.636,49.906z M57.636,61.33h-2.625v-9.424h2.625V61.33z"/><path d="M62.656,41.159v20.542c0,0.552,0.447,1,1,1h4.625c0.553,0,1-0.448,1-1V41.159c0-0.552-0.447-1-1-1h-4.625   C63.104,40.159,62.656,40.607,62.656,41.159z M64.656,42.159h2.625v18.542h-2.625V42.159z"/><path d="M62.844,33.368h1.126l-7.944,10.604l-8.896-4.497c-0.369-0.187-0.815-0.126-1.123,0.152l-9.646,8.75   c-0.409,0.371-0.439,1.003-0.068,1.413c0.197,0.218,0.468,0.328,0.74,0.328c0.24,0,0.48-0.085,0.672-0.259l9.136-8.288l9.031,4.565   c0.434,0.22,0.962,0.095,1.252-0.293l8.472-11.308l0.252,0.811c0.134,0.429,0.528,0.704,0.955,0.704   c0.098,0,0.198-0.015,0.297-0.045c0.527-0.164,0.822-0.725,0.658-1.252l-0.834-2.681c-0.006-0.018-0.02-0.03-0.026-0.048   c-0.013-0.034-0.018-0.07-0.034-0.103c-0.027-0.055-0.066-0.102-0.104-0.15c-0.015-0.02-0.025-0.042-0.042-0.061   c-0.074-0.084-0.162-0.154-0.259-0.208c-0.027-0.016-0.056-0.024-0.084-0.037c-0.078-0.036-0.159-0.06-0.246-0.074   c-0.034-0.005-0.065-0.012-0.101-0.014c-0.021-0.001-0.039-0.008-0.06-0.008h-3.125c-0.553,0-1,0.448-1,1   S62.291,33.368,62.844,33.368z"/></g></svg>