<svg xmlns="http://www.w3.org/2000/svg" xmlns:xlink="http://www.w3.org/1999/xlink" version="1.1" x="0px" y="0px" viewBox="0 0 512 620" style="enable-background:new 0 0 512 512;" xml:space="preserve"><g><g><path d="M300.749,331.051c-20.331,0-45.753-7.153-55.581-10.178c-1.583-0.487-2.472-2.166-1.985-3.749    c0.486-1.585,2.165-2.477,3.75-1.985c27.104,8.34,62.563,14.719,73.293,5.242c2.785-2.461,3.725-6.011,2.87-10.854    c-0.788-5.04-4.262-9.747-10.335-14.049c-25.479-18.05-89.059-23.62-111.164-19.522c-16.828,3.205-41.78,16.783-60,26.698    c-4.004,2.179-7.786,4.236-11.148,6.006c-1.466,0.774-3.281,0.21-4.052-1.257s-0.208-3.28,1.257-4.052    c3.327-1.751,7.091-3.8,11.076-5.968c19.602-10.667,43.997-23.941,61.76-27.325c23.558-4.359,88.616,1.308,115.741,20.524    c7.445,5.273,11.746,11.316,12.784,17.96c1.221,6.915-0.396,12.431-4.816,16.335C319.07,329.406,310.493,331.05,300.749,331.051z"/></g><g><path d="M293.343,385.342c-17.159,0-29.779-3.95-42.041-7.789c-20.219-6.329-39.318-12.307-77.174,2.253    c-1.547,0.596-3.282-0.176-3.877-1.723c-0.595-1.547,0.176-3.282,1.723-3.877c39.809-15.313,59.875-9.03,81.121-2.379    c13.75,4.305,27.966,8.753,48.73,7.188c24.523-1.583,99.576-41.36,122.858-68.359c5.585-6.478,6.551-10.318,6.378-12.4    c-0.222-3.099-1.359-5.464-3.48-7.268c-5.531-4.7-16.204-4.537-22.147-4.004c-23.783,3.993-61.182,19.889-78.541,33.391    c-1.309,1.017-3.192,0.782-4.21-0.526c-1.017-1.308-0.781-3.192,0.526-4.21c18.335-14.26,56.348-30.424,81.349-34.591    c0.073-0.013,0.147-0.021,0.222-0.028c8.378-0.764,19.813-0.444,26.687,5.397c3.366,2.86,5.242,6.688,5.577,11.376    c0.395,4.725-2.162,10.226-7.816,16.782C404.696,343.02,328.271,383.32,302.243,385    C299.14,385.233,296.18,385.342,293.343,385.342z"/></g><g><path d="M95.05,440.756c-4.831,0-6.349-5.056-6.861-6.846c-4.277-12.365-4.398-28.316-4.527-45.202    c-0.115-15.151-0.233-30.819-3.522-43.975c-0.523-2.35-1.172-4.594-1.799-6.765c-1.908-6.6-3.71-12.833-0.974-18.305    c2.456-4.911,11.686-9.671,23.498-15.383c3.168-1.532,5.905-2.856,7.697-3.88c0.12-0.069,0.245-0.13,0.374-0.181l0.712-0.288    c2.391-0.97,5.366-2.177,8.777-2.177c4.437,0,8.591,1.99,12.7,6.083c12.764,11.756,37.925,56.54,44.673,71.965    c0.021,0.049,0.042,0.099,0.061,0.148c3.269,8.716,5.391,15.283,2.901,20.34c-2.977,6.466-21.988,15.748-50.613,29.153    c-10.857,5.084-20.234,9.475-24.525,12.115c-0.075,0.047-0.152,0.089-0.23,0.129l-0.989,0.497    C99.56,439.622,97.315,440.756,95.05,440.756z M111.358,305.713c-1.961,1.106-4.711,2.437-7.881,3.97    c-7.108,3.438-19.006,9.191-20.743,12.665c-1.687,3.375-0.27,8.278,1.371,13.955c0.653,2.26,1.329,4.596,1.875,7.053    c3.444,13.772,3.565,29.804,3.683,45.307c0.125,16.414,0.242,31.917,4.222,43.358c0.019,0.053,0.036,0.106,0.051,0.161    c0.529,1.854,0.992,2.435,1.127,2.574c0.842-0.009,2.771-0.983,4.637-1.925l0.891-0.448c4.624-2.823,14.079-7.251,25.014-12.371    c17.027-7.974,45.526-21.319,47.706-26.225c0.018-0.041,0.038-0.082,0.058-0.123c1.438-2.876-0.458-8.488-3.097-15.528    c-7.333-16.721-31.913-59.529-43.247-69.918c-0.032-0.03-0.063-0.06-0.094-0.091c-2.942-2.941-5.723-4.371-8.504-4.371    c-2.24,0-4.417,0.883-6.521,1.737L111.358,305.713z"/></g><g><path d="M134.463,391.197c-4.928,0-10.241-3.773-10.409-9.893c-1.136-6.541,3.772-11.835,9.269-13.209    c0.238-0.06,0.482-0.09,0.728-0.09c6.597,0,11.677,4.087,12.942,10.412c0.039,0.193,0.058,0.391,0.058,0.588    c0,6.822-4.454,11.809-10.642,11.995C135.776,391.131,135.124,391.197,134.463,391.197z M134.436,374.014    c-2.289,0.727-5.1,3.123-4.444,6.404c0.039,0.193,0.058,0.391,0.058,0.588c0,2.735,2.563,4.191,4.413,4.191    c0.3,0,0.589-0.034,0.86-0.102c0.238-0.06,0.482-0.09,0.728-0.09c3.559,0,4.904-3.006,4.995-5.702    C140.288,376.1,137.85,374.149,134.436,374.014z"/></g><g><path d="M364.05,444.006h-338c-1.657,0-3-1.343-3-3s1.343-3,3-3h338c1.657,0,3,1.343,3,3S365.707,444.006,364.05,444.006z"/></g><g><path d="M382.05,460.006h-240c-1.657,0-3-1.343-3-3s1.343-3,3-3h240c1.657,0,3,1.343,3,3S383.707,460.006,382.05,460.006z"/></g><g><path d="M448.05,475.006h-165c-1.657,0-3-1.343-3-3s1.343-3,3-3h165c1.657,0,3,1.343,3,3S449.707,475.006,448.05,475.006z"/></g><g><path d="M486.05,475.006h-21c-1.657,0-3-1.343-3-3s1.343-3,3-3h21c1.657,0,3,1.343,3,3S487.707,475.006,486.05,475.006z"/></g><g><path d="M211.05,475.006h-78c-1.657,0-3-1.343-3-3s1.343-3,3-3h78c1.657,0,3,1.343,3,3S212.707,475.006,211.05,475.006z"/></g><g><path d="M134.053,284.007c-1.037,0-2.046-0.539-2.602-1.502c-0.828-1.435-0.335-3.27,1.1-4.098    c2.137-1.233,52.616-30.271,75.742-36.304c0.048-0.013,0.097-0.024,0.146-0.034c24.561-5.115,92.765,20.051,95.656,21.125    c1.553,0.577,2.344,2.304,1.768,3.857c-0.577,1.553-2.305,2.344-3.857,1.768c-0.69-0.257-69.314-25.586-92.271-20.891    c-22.389,5.876-73.668,35.379-74.185,35.677C135.077,283.877,134.562,284.007,134.053,284.007z"/></g><g><path d="M246.035,229.027h-13.346c-1.485,0-2.746-1.086-2.967-2.555l-3.536-23.556c-3.554-0.672-7.019-1.601-10.345-2.773    l-14.852,18.646c-0.927,1.163-2.566,1.47-3.851,0.727l-11.537-6.687c-1.283-0.744-1.83-2.313-1.288-3.693l8.713-22.175    c-2.708-2.335-5.245-4.872-7.577-7.575l-22.189,8.714c-1.382,0.542-2.953-0.007-3.695-1.292l-6.672-11.553    c-0.742-1.286-0.433-2.921,0.729-3.847l18.627-14.845c-1.18-3.391-2.104-6.857-2.76-10.354l-23.56-3.519    c-1.469-0.22-2.557-1.481-2.557-2.967V126.35c0-1.486,1.087-2.748,2.557-2.967l23.56-3.52c0.656-3.495,1.58-6.962,2.76-10.353    l-18.627-14.845c-1.161-0.925-1.471-2.561-0.729-3.847l6.672-11.553c0.743-1.285,2.314-1.833,3.695-1.292l22.189,8.714    c2.331-2.703,4.869-5.24,7.577-7.576l-8.713-22.174c-0.542-1.38,0.005-2.949,1.288-3.693l11.537-6.688    c1.285-0.746,2.924-0.437,3.851,0.727l14.852,18.647c3.327-1.172,6.792-2.101,10.345-2.773l3.536-23.556    c0.221-1.468,1.482-2.555,2.967-2.555h13.346c1.484,0,2.746,1.085,2.966,2.553l3.547,23.557c3.551,0.672,7.02,1.601,10.359,2.775    l14.838-18.647c0.925-1.162,2.564-1.473,3.851-0.729l11.555,6.688c1.284,0.744,1.832,2.314,1.289,3.695l-8.728,22.173    c2.71,2.338,5.244,4.875,7.565,7.574l22.198-8.713c1.377-0.542,2.951,0.007,3.693,1.292l6.674,11.553    c0.743,1.286,0.433,2.922-0.729,3.847l-18.641,14.845c1.189,3.412,2.117,6.878,2.771,10.352l23.563,3.52    c1.47,0.22,2.557,1.481,2.557,2.967v13.375c0,1.486-1.088,2.748-2.557,2.967l-23.563,3.519c-0.653,3.474-1.581,6.941-2.771,10.353    l18.641,14.845c1.161,0.925,1.472,2.562,0.729,3.847l-6.674,11.553c-0.742,1.286-2.315,1.834-3.693,1.292l-22.198-8.713    c-2.322,2.7-4.855,5.236-7.565,7.573l8.728,22.174c0.543,1.381-0.005,2.952-1.289,3.695l-11.555,6.687    c-1.286,0.745-2.926,0.435-3.851-0.729l-14.838-18.646c-3.339,1.174-6.808,2.103-10.359,2.775l-3.547,23.557    C248.78,227.942,247.519,229.027,246.035,229.027z M235.272,223.027h8.181l3.485-23.142c0.194-1.293,1.205-2.312,2.498-2.517    c4.639-0.734,9.141-1.941,13.381-3.589c1.228-0.477,2.616-0.099,3.435,0.928l14.578,18.321l7.081-4.098l-8.574-21.784    c-0.479-1.218-0.113-2.605,0.903-3.429c3.603-2.92,6.895-6.216,9.784-9.797c0.822-1.019,2.21-1.388,3.431-0.908l21.811,8.561    l4.09-7.08l-18.309-14.582c-1.022-0.814-1.399-2.197-0.934-3.417c1.679-4.391,2.882-8.896,3.578-13.389    c0.201-1.297,1.223-2.313,2.521-2.508l23.152-3.458v-8.205l-23.152-3.458c-1.299-0.194-2.32-1.21-2.521-2.508    c-0.695-4.492-1.899-8.996-3.578-13.388c-0.466-1.221-0.089-2.603,0.934-3.417l18.309-14.582l-4.09-7.08l-21.811,8.561    c-1.219,0.48-2.608,0.112-3.431-0.908c-2.889-3.58-6.181-6.876-9.785-9.798c-1.016-0.824-1.381-2.212-0.902-3.429l8.574-21.784    l-7.081-4.098l-14.578,18.321c-0.818,1.028-2.209,1.404-3.435,0.928c-4.24-1.647-8.742-2.855-13.381-3.589    c-1.292-0.205-2.303-1.223-2.498-2.517l-3.485-23.142h-8.181l-3.474,23.141c-0.194,1.294-1.205,2.313-2.498,2.518    c-4.649,0.736-9.145,1.943-13.364,3.588c-1.226,0.479-2.618,0.102-3.437-0.926l-14.593-18.322l-7.067,4.097l8.561,21.786    c0.479,1.217,0.113,2.604-0.903,3.428c-3.598,2.917-6.896,6.215-9.802,9.802c-0.823,1.016-2.209,1.382-3.428,0.904l-21.798-8.56    l-4.089,7.08l18.296,14.582c1.022,0.815,1.399,2.197,0.932,3.418c-1.664,4.349-2.863,8.852-3.565,13.387    c-0.201,1.297-1.223,2.313-2.521,2.508l-23.15,3.458v8.205l23.15,3.458c1.299,0.194,2.32,1.21,2.521,2.508    c0.703,4.536,1.902,9.04,3.565,13.388c0.467,1.221,0.09,2.603-0.932,3.418l-18.296,14.582l4.089,7.08l21.798-8.56    c1.219-0.478,2.604-0.112,3.428,0.904c2.907,3.588,6.205,6.886,9.802,9.801c1.017,0.823,1.382,2.21,0.903,3.428l-8.561,21.787    l7.067,4.096l14.593-18.321c0.819-1.028,2.209-1.406,3.437-0.926c4.219,1.645,8.715,2.852,13.364,3.588    c1.292,0.205,2.303,1.223,2.498,2.518L235.272,223.027z M239.376,170.183c-20.482,0-37.146-16.664-37.146-37.146    c0-20.482,16.664-37.146,37.146-37.146c20.474,0,37.13,16.664,37.13,37.146C276.507,153.519,259.851,170.183,239.376,170.183z     M239.376,101.891c-17.174,0-31.146,13.972-31.146,31.146c0,17.174,13.972,31.146,31.146,31.146    c17.166,0,31.13-13.972,31.13-31.146C270.507,115.863,256.542,101.891,239.376,101.891z"/></g><g><path d="M396.685,163.752c-1.354,0-2.559-0.915-2.903-2.251l-3.563-13.833c-1.794-0.183-3.564-0.466-5.297-0.848l-7.705,12.021    c-0.801,1.25-2.394,1.725-3.75,1.12l-7.697-3.441c-1.355-0.606-2.063-2.112-1.666-3.543l3.834-13.778    c-1.449-1.042-2.838-2.174-4.153-3.387l-12.681,6.576c-1.317,0.685-2.938,0.299-3.81-0.902l-4.951-6.83    c-0.872-1.203-0.732-2.863,0.328-3.903l10.197-9.998c-0.729-1.634-1.366-3.314-1.903-5.024l-14.272-0.667    c-1.484-0.069-2.694-1.215-2.845-2.693l-0.854-8.395c-0.15-1.477,0.803-2.842,2.241-3.209l13.822-3.536    c0.177-1.779,0.458-3.552,0.843-5.305l-12.011-7.694c-1.25-0.8-1.727-2.394-1.121-3.749l3.443-7.711    c0.606-1.357,2.115-2.064,3.545-1.667l13.76,3.835c1.058-1.462,2.188-2.85,3.381-4.153l-6.555-12.689    c-0.681-1.318-0.297-2.935,0.904-3.806l6.828-4.95c1.201-0.87,2.862-0.733,3.902,0.328l9.993,10.19    c1.637-0.737,3.309-1.374,5.002-1.903l0.667-14.265c0.069-1.484,1.215-2.694,2.693-2.844l8.395-0.854    c1.479-0.156,2.839,0.8,3.209,2.236l3.561,13.82c1.757,0.175,3.528,0.461,5.3,0.856l7.704-12.02    c0.801-1.25,2.397-1.725,3.752-1.119l7.683,3.443c1.354,0.607,2.062,2.114,1.663,3.543l-3.835,13.76    c1.457,1.054,2.852,2.186,4.17,3.385l12.684-6.559c1.321-0.684,2.94-0.296,3.81,0.907l4.938,6.83    c0.869,1.203,0.729,2.861-0.331,3.9l-10.19,9.991c0.736,1.633,1.375,3.305,1.91,5.002l14.259,0.668    c1.48,0.069,2.688,1.209,2.843,2.684l0.869,8.402c0.15,1.476-0.8,2.84-2.236,3.21l-13.825,3.562    c-0.178,1.764-0.46,3.53-0.845,5.284l12.016,7.722c1.248,0.802,1.723,2.397,1.115,3.751l-3.443,7.682    c-0.607,1.355-2.119,2.061-3.542,1.663l-13.763-3.833c-1.038,1.446-2.172,2.841-3.392,4.173l6.58,12.69    c0.686,1.322,0.298,2.946-0.911,3.816l-6.843,4.923c-1.203,0.866-2.856,0.724-3.894-0.334l-9.995-10.192    c-1.639,0.737-3.313,1.379-5.014,1.92l-0.667,14.25c-0.069,1.48-1.209,2.688-2.683,2.843l-8.381,0.883    C396.895,163.747,396.789,163.752,396.685,163.752z M383.554,140.395c0.263,0,0.528,0.034,0.79,0.106    c2.695,0.736,5.524,1.19,8.411,1.35c1.305,0.072,2.413,0.981,2.739,2.247l3.452,13.4l3.245-0.342l0.646-13.815    c0.062-1.307,0.963-2.424,2.228-2.759c2.728-0.725,5.406-1.75,7.96-3.048c1.169-0.593,2.584-0.361,3.501,0.574l9.694,9.885    l2.647-1.904l-6.376-12.296c-0.604-1.164-0.381-2.586,0.55-3.51c2.046-2.032,3.852-4.255,5.367-6.608    c0.712-1.105,2.063-1.618,3.327-1.266l13.349,3.718l1.332-2.971l-11.644-7.482c-1.099-0.706-1.614-2.042-1.274-3.303    c0.746-2.775,1.196-5.598,1.337-8.392c0.066-1.311,0.977-2.427,2.248-2.754l13.408-3.454l-0.337-3.256l-13.83-0.648    c-1.311-0.062-2.43-0.968-2.762-2.238c-0.712-2.723-1.73-5.392-3.027-7.932c-0.597-1.168-0.365-2.588,0.571-3.506l9.881-9.687    l-1.911-2.644l-12.288,6.354c-1.162,0.6-2.575,0.38-3.5-0.544c-1.996-1.997-4.229-3.81-6.636-5.388    c-1.093-0.716-1.596-2.056-1.245-3.314l3.717-13.334l-2.969-1.331l-7.47,11.654c-0.707,1.104-2.054,1.621-3.315,1.275    c-2.812-0.768-5.632-1.221-8.381-1.347c-1.316-0.061-2.438-0.973-2.768-2.249l-3.454-13.409l-3.257,0.331l-0.646,13.835    c-0.062,1.315-0.975,2.437-2.25,2.765c-2.706,0.696-5.37,1.709-7.92,3.011c-1.168,0.594-2.588,0.364-3.506-0.571l-9.687-9.878    l-2.646,1.919l6.356,12.306c0.603,1.167,0.377,2.589-0.558,3.512c-1.976,1.951-3.785,4.171-5.376,6.597    c-0.716,1.091-2.053,1.597-3.314,1.244l-13.33-3.716l-1.336,2.993l11.641,7.458c1.102,0.706,1.619,2.044,1.278,3.308    c-0.744,2.756-1.193,5.588-1.336,8.417c-0.066,1.313-0.979,2.43-2.253,2.755l-13.405,3.429l0.33,3.252l13.837,0.647    c1.311,0.061,2.43,0.967,2.763,2.236c0.722,2.756,1.738,5.438,3.02,7.973c0.589,1.167,0.355,2.581-0.577,3.496l-9.879,9.686    l1.917,2.645l12.305-6.381c1.168-0.607,2.599-0.379,3.523,0.563c1.984,2.024,4.194,3.827,6.566,5.356    c1.104,0.712,1.617,2.06,1.266,3.326l-3.718,13.361l2.981,1.333l7.471-11.654C381.589,140.9,382.55,140.395,383.554,140.395z     M394.821,126.422c-12.619,0-23.113-9.477-24.41-22.043c-1.389-13.478,8.447-25.575,21.926-26.967    c0.846-0.087,1.703-0.131,2.549-0.131c12.632,0,23.123,9.491,24.404,22.077c0.675,6.518-1.232,12.912-5.371,17.999    c-4.138,5.087-10.013,8.26-16.542,8.935C396.529,126.377,395.669,126.422,394.821,126.422z M394.886,83.28    c-0.641,0-1.29,0.034-1.933,0.1c-10.188,1.052-17.623,10.196-16.573,20.383c0.98,9.497,8.908,16.659,18.441,16.659    c0.643,0,1.296-0.034,1.94-0.101c4.936-0.509,9.376-2.907,12.503-6.752c3.126-3.843,4.566-8.673,4.057-13.601    C412.353,90.453,404.428,83.28,394.886,83.28z"/></g></g></svg>