<svg xmlns="http://www.w3.org/2000/svg" xmlns:xlink="http://www.w3.org/1999/xlink" version="1.1" x="0px" y="0px" viewBox="0 0 66 82.5" enable-background="new 0 0 66 66" xml:space="preserve"><g><path d="M6.042,58.719h11.86c-0.706,1.719-1.108,3.579-1.108,5.531c0,0.414,0.336,0.75,0.75,0.75h30.908   c0.414,0,0.75-0.336,0.75-0.75c0-1.952-0.402-3.813-1.108-5.531h11.863c0.414,0,0.75-0.336,0.75-0.75   c0-5.896-4.174-10.88-9.869-12.462c2.375-1.28,3.985-3.699,3.985-6.471c0-4.102-3.517-7.44-7.839-7.44   c-3.106,0-5.853,1.726-7.11,4.324c-1.686-1.804-4.14-2.95-6.876-2.95c-2.738,0-5.193,1.147-6.879,2.953   c-1.258-2.599-4.006-4.327-7.112-4.327c-4.322,0-7.839,3.337-7.839,7.44c0,2.773,1.61,5.192,3.985,6.472   c-5.691,1.582-9.861,6.565-9.861,12.461C5.292,58.383,5.628,58.719,6.042,58.719z M18.315,63.5   c0.415-7.282,6.842-13.085,14.683-13.085S47.266,56.218,47.681,63.5H18.315z M25.29,46.435c-0.779-0.381-1.594-0.688-2.439-0.922   c0.52-0.279,1.006-0.614,1.451-1.005C24.549,45.193,24.881,45.839,25.29,46.435z M41.693,44.512   c0.446,0.388,0.931,0.723,1.45,1.001c-0.843,0.233-1.656,0.539-2.434,0.919C41.116,45.838,41.446,45.194,41.693,44.512z    M59.182,57.219H47.382c-1.882-3.434-5.094-6.104-8.989-7.411c2.279-2.127,5.345-3.332,8.591-3.332   C53.456,46.476,58.77,51.229,59.182,57.219z M46.984,33.096c3.495,0,6.339,2.665,6.339,5.94c0,3.275-2.844,5.94-6.339,5.94   c-1.903,0-3.657-0.786-4.875-2.155c0.051-0.37,0.086-0.745,0.086-1.129c0-1.598-0.463-3.092-1.257-4.381   C41.742,34.819,44.174,33.096,46.984,33.096z M32.998,34.47c4.244,0,7.697,3.24,7.697,7.223c0,3.982-3.453,7.223-7.697,7.223   s-7.697-3.24-7.697-7.223C25.301,37.71,28.754,34.47,32.998,34.47z M12.668,39.036c0-3.275,2.844-5.94,6.339-5.94   c2.811,0,5.244,1.726,6.048,4.221c-0.792,1.288-1.254,2.78-1.254,4.376c0,0.38,0.035,0.752,0.085,1.12   c-1.208,1.374-2.965,2.164-4.878,2.164C15.512,44.976,12.668,42.311,12.668,39.036z M19.007,46.476   c3.247,0,6.313,1.205,8.592,3.333c-3.893,1.308-7.104,3.977-8.985,7.41H6.817C7.229,51.229,12.539,46.476,19.007,46.476z"/><path d="M4.327,26.348h4.882l-1.277,4.675c-0.085,0.311,0.038,0.64,0.305,0.82c0.268,0.18,0.619,0.168,0.874-0.026l7.159-5.469   h12.618l3.036,5.249c0.135,0.232,0.383,0.375,0.649,0.375c0.012,0,0.023-0.001,0.036-0.001c0.28-0.013,0.529-0.182,0.646-0.437   l2.37-5.185H49.73l7.159,5.469c0.254,0.194,0.606,0.206,0.874,0.026c0.267-0.18,0.39-0.509,0.305-0.82l-1.277-4.675h4.882   c0.414,0,0.75-0.336,0.75-0.75V1.75c0-0.414-0.336-0.75-0.75-0.75H4.327c-0.414,0-0.75,0.336-0.75,0.75v23.848   C3.577,26.012,3.913,26.348,4.327,26.348z M5.077,2.5h55.846v22.348h-5.114c-0.233,0-0.454,0.109-0.596,0.295   c-0.142,0.186-0.189,0.427-0.128,0.653l0.951,3.482l-5.597-4.276c-0.131-0.1-0.29-0.154-0.455-0.154H35.144   c-0.294,0-0.561,0.171-0.682,0.438l-1.967,4.302l-2.525-4.366c-0.134-0.232-0.382-0.375-0.649-0.375H16.016   c-0.165,0-0.324,0.054-0.455,0.154l-5.597,4.276l0.951-3.482c0.061-0.226,0.015-0.467-0.128-0.653   c-0.142-0.186-0.362-0.295-0.596-0.295H5.077V2.5z"/><path d="M8.309,6.839h49.383c0.414,0,0.75-0.336,0.75-0.75c0-0.414-0.336-0.75-0.75-0.75H8.309c-0.414,0-0.75,0.336-0.75,0.75   C7.559,6.503,7.895,6.839,8.309,6.839z"/><path d="M8.309,11.652h49.383c0.414,0,0.75-0.336,0.75-0.75c0-0.414-0.336-0.75-0.75-0.75H8.309c-0.414,0-0.75,0.336-0.75,0.75   C7.559,11.316,7.895,11.652,8.309,11.652z"/><path d="M8.309,16.466h49.383c0.414,0,0.75-0.336,0.75-0.75s-0.336-0.75-0.75-0.75H8.309c-0.414,0-0.75,0.336-0.75,0.75   S7.895,16.466,8.309,16.466z"/><path d="M58.441,20.529c0-0.414-0.336-0.75-0.75-0.75H8.309c-0.414,0-0.75,0.336-0.75,0.75c0,0.414,0.336,0.75,0.75,0.75h49.383   C58.105,21.279,58.441,20.943,58.441,20.529z"/></g></svg>