<svg xmlns="http://www.w3.org/2000/svg" xmlns:xlink="http://www.w3.org/1999/xlink" version="1.1" x="0px" y="0px" viewBox="0 0 63.811 89.12750000000001" enable-background="new 0 0 63.811 71.302" xml:space="preserve"><g><path d="M31.934,0C19.951,0,8.93,4.772,0.311,12.605c-0.169,0.168-0.254,0.393-0.254,0.589C0.056,13.588,0,13.981,0,14.486   c0,27.542,13.338,50.731,31.594,56.795c0.169,0.027,0.339,0.027,0.509,0c18.312-6.037,31.708-29.227,31.708-56.795   c0-0.477-0.085-0.926-0.085-1.292c0-0.225-0.085-0.449-0.254-0.589C54.853,4.772,43.888,0,31.934,0L31.934,0z M31.934,1.6   c11.417,0,21.901,4.492,30.237,11.988c0,0.309,0.028,0.646,0.028,0.898c0,26.924-13.112,49.299-30.322,55.167   C14.667,63.786,1.583,41.381,1.583,14.486c0-0.252,0.028-0.589,0.028-0.898C9.947,6.092,20.488,1.6,31.934,1.6L31.934,1.6z    M31.792,9.966c-0.367,0.056-0.678,0.393-0.678,0.786v33.549c-0.028,0.422,0.368,0.814,0.792,0.814s0.791-0.393,0.791-0.814V10.752   C32.696,10.303,32.244,9.91,31.792,9.966L31.792,9.966z M31.877,53.762c-0.961,0-1.78,0.814-1.78,1.77   c0,0.953,0.819,1.713,1.78,1.713s1.809-0.76,1.809-1.713C33.686,54.577,32.838,53.762,31.877,53.762L31.877,53.762z"/></g></svg>