<svg xmlns="http://www.w3.org/2000/svg" xmlns:xlink="http://www.w3.org/1999/xlink" version="1.1" x="0px" y="0px" viewBox="0 0 100 100" style="enable-background:new 0 0 100 100;" xml:space="preserve"><path d="M89.125,10.415h-78c-0.552,0-1,0.447-1,1s0.448,1,1,1H25.89v3.626h-8.849c-0.552,0-1,0.447-1,1v72.374c0,0.553,0.448,1,1,1  h66.167c0.552,0,1-0.447,1-1V17.041c0-0.553-0.448-1-1-1H74.36v-3.626h14.765c0.552,0,1-0.447,1-1S89.677,10.415,89.125,10.415z   M82.208,18.041v70.374H18.042V18.041h7.849v3.829c-2.004,0.457-3.508,2.246-3.508,4.386c0,2.485,2.022,4.508,4.508,4.508  c2.485,0,4.507-2.022,4.507-4.508c0-2.141-1.503-3.929-3.507-4.386v-3.829h44.47v3.829c-2.004,0.457-3.507,2.246-3.507,4.386  c0,2.485,2.022,4.508,4.507,4.508c2.486,0,4.508-2.022,4.508-4.508c0-2.141-1.503-3.929-3.508-4.386v-3.829H82.208z M26.89,27.256  c0.552,0,1-0.447,1-1V23.96c0.885,0.387,1.507,1.27,1.507,2.296c0,1.383-1.125,2.508-2.507,2.508c-1.383,0-2.508-1.125-2.508-2.508  c0-1.026,0.622-1.909,1.508-2.296v2.296C25.89,26.809,26.338,27.256,26.89,27.256z M73.36,27.256c0.552,0,1-0.447,1-1V23.96  c0.886,0.387,1.508,1.27,1.508,2.296c0,1.383-1.125,2.508-2.508,2.508c-1.382,0-2.507-1.125-2.507-2.508  c0-1.026,0.622-1.909,1.507-2.296v2.296C72.36,26.809,72.808,27.256,73.36,27.256z M72.36,16.041H27.89v-3.626h44.47V16.041z"/><path d="M73.603,39.502c0.007-0.27-0.095-0.53-0.283-0.724c-0.188-0.193-0.446-0.303-0.716-0.303c-9.498,0-9.742-5.955-9.747-6.202  c-0.005-0.549-0.451-0.991-1-0.991H38.144c-0.543,0-0.988,0.441-1,0.984c-0.005,0.254-0.249,6.209-9.747,6.209  c-0.268,0-0.523,0.113-0.711,0.304s-0.292,0.454-0.288,0.722c0.001,0.09-0.013,0.272-0.029,0.538  c-1.217,19.092,7.248,34.135,23.224,41.271c0.13,0.058,0.269,0.087,0.408,0.087s0.278-0.029,0.408-0.087  c15.976-7.136,24.441-22.179,23.224-41.271C73.615,39.773,73.602,39.591,73.603,39.502z M50,79.299  c-20.203-9.262-22.277-28.156-21.654-38.842c8.275-0.337,10.21-5.073,10.661-7.175h21.985c0.451,2.102,2.386,6.838,10.661,7.175  C72.277,51.143,70.203,70.037,50,79.299z"/><path d="M50,45.366c-7.895,0-14.093,8.211-14.353,8.561c-0.264,0.354-0.264,0.839,0,1.193c0.26,0.35,6.458,8.561,14.353,8.561  s14.093-8.211,14.353-8.561c0.264-0.354,0.264-0.839,0-1.193C64.093,53.577,57.895,45.366,50,45.366z M50,61.681  c-5.741,0-10.732-5.339-12.265-7.157c1.533-1.818,6.524-7.157,12.265-7.157s10.732,5.339,12.265,7.157  C60.732,56.342,55.741,61.681,50,61.681z"/><path d="M50,48.701c-3.21,0-5.822,2.612-5.822,5.822S46.79,60.345,50,60.345s5.822-2.611,5.822-5.821S53.21,48.701,50,48.701z   M50,58.345c-2.107,0-3.822-1.714-3.822-3.821s1.714-3.822,3.822-3.822s3.822,1.715,3.822,3.822S52.107,58.345,50,58.345z"/></svg>