<svg xmlns="http://www.w3.org/2000/svg" xmlns:xlink="http://www.w3.org/1999/xlink" version="1.1" x="0px" y="0px" viewBox="0 0 64 80" style="enable-background:new 0 0 64 64;" xml:space="preserve"><g><rect x="31" y="33" width="2" height="2"/><path d="M38,27v-2c0-3.309-2.691-6-6-6s-6,2.691-6,6v4h-2v14h16V29H28v-4c0-2.206,1.794-4,4-4s4,1.794,4,4v2H38z M38,41h-5v-4h-2v4   h-5V31h12V41z"/><rect x="25.824" y="11.682" transform="matrix(0.9659 -0.2588 0.2588 0.9659 -2.3682 7.3746)" width="2" height="2"/><rect x="21" y="13.68" transform="matrix(0.8661 -0.4999 0.4999 0.8661 -4.3922 12.9643)" width="2" height="2"/><rect x="16.858" y="16.858" transform="matrix(0.7074 -0.7069 0.7069 0.7074 -7.397 17.8492)" width="2" height="2"/><rect x="13.679" y="21" transform="matrix(0.5 -0.866 0.866 0.5 -11.7129 23.712)" width="2" height="2"/><rect x="11.682" y="25.823" transform="matrix(0.2588 -0.9659 0.9659 0.2588 -16.5097 32.1321)" width="2" height="2"/><rect x="36.176" y="50.318" transform="matrix(0.9659 -0.2588 0.2588 0.9659 -12.0154 11.3705)" width="2" height="2"/><rect x="41" y="48.32" transform="matrix(0.8661 -0.4999 0.4999 0.8661 -19.0312 27.602)" width="2" height="2"/><rect x="45.142" y="45.142" transform="matrix(0.7074 -0.7069 0.7069 0.7074 -19.1127 46.1196)" width="2" height="2"/><rect x="48.32" y="41" transform="matrix(0.5 -0.866 0.866 0.5 -11.7134 63.7111)" width="2" height="2"/><rect x="50.319" y="36.177" transform="matrix(0.2588 -0.9659 0.9659 0.2588 2.129 77.1279)" width="2" height="2"/><rect x="61" y="11" width="2" height="2"/><rect x="57" y="16" width="2" height="2"/><rect x="57" y="22" width="2" height="2"/><rect x="61" y="28" width="2" height="2"/><rect x="1" y="51" width="2" height="2"/><rect x="5" y="46" width="2" height="2"/><path d="M32,15c-9.374,0-17,7.626-17,17c0,0.655,0.042,1.325,0.124,2H5v2h12.499l-0.226-1.187C17.092,33.859,17,32.913,17,32   c0-8.271,6.729-15,15-15c4.963,0,9.599,2.453,12.401,6.563L44.699,24H55v-2h-9.254c-1.775-2.437-4.135-4.321-6.813-5.518L42.414,13   h2.172l5,5H55v-2h-4.586l-3-3H59v-2H41.586l-4.715,4.715C35.31,15.248,33.672,15,32,15z"/><path d="M32,49c9.374,0,17-7.626,17-17c0-0.655-0.042-1.325-0.124-2H59v-2H46.501l0.226,1.187C46.908,30.141,47,31.087,47,32   c0,8.271-6.729,15-15,15c-4.963,0-9.599-2.453-12.401-6.563L19.301,40H9v2h9.254c1.775,2.437,4.135,4.321,6.813,5.518L21.586,51   h-2.172l-5-5H9v2h4.586l3,3H5v2h17.414l4.715-4.715C28.69,48.752,30.328,49,32,49z"/><rect x="5" y="40" width="2" height="2"/><rect x="1" y="34" width="2" height="2"/><path d="M13.64,15.054C9.522,19.513,7,25.466,7,32h2C9,19.317,19.318,9,32,9V7c-6.534,0-12.487,2.522-16.946,6.64L13,11.586V7h-2v4   H9V5H7v6H5V1H3v10H1v2h10.586L13.64,15.054z"/><path d="M61,51h-2v10h-2v-6h-2v6h-2v-4h-2v4h-1.586l-6.508-6.508C51.241,50.433,57,41.877,57,32h-2c0,12.683-10.318,23-23,23v2   c3.146,0,6.155-0.59,8.931-1.655L48.586,63H63v-2h-2V51z"/></g></svg>