<svg xmlns="http://www.w3.org/2000/svg" xmlns:xlink="http://www.w3.org/1999/xlink" version="1.1" x="0px" y="0px" viewBox="0 0 60 75" style="enable-background:new 0 0 60 60;" xml:space="preserve"><g><g><path d="M37,44c-1.9,0-4.6,0-6.3-1.7c-0.4-0.4-1-0.4-1.4,0C27.6,44,24.9,44,23,44c-0.6,0-1,0.4-1,1c0,5,2.8,9,7.6,10.9    c0.1,0,0.2,0.1,0.4,0.1s0.3,0,0.4-0.1C35.2,54,38,50,38,45C38,44.4,37.6,44,37,44z M24,46c1.5,0,3.3-0.2,5-1.1v8.5    C25.3,51.4,24.3,48.2,24,46z M31,53.4v-8.5c1.6,0.8,3.4,1,5,1.1C35.7,48.2,34.7,51.4,31,53.4z"/><path d="M52.3,32.1c1.2-4.4,0.1-8.4-2.9-11.5c-4.2-4.2-11.5-5.8-17.3-3.8c-3.9,1.4-6.6,4.2-7.7,8c-2.8-2.5-7.1-2.5-10.4-1.1    c-3.5,1.4-6.6,4.5-6.2,8.5C3.4,32.7,0,36.4,0,41c0,5,4,9,9,9h7v7c0,1.7,1.3,3,3,3h22c1.7,0,3-1.3,3-3v-7h7c5,0,9-4,9-9    C60,36.5,56.7,32.7,52.3,32.1z M42,57c0,0.6-0.4,1-1,1H19c-0.6,0-1-0.4-1-1V41c0-0.6,0.4-1,1-1h22c0.6,0,1,0.4,1,1V57z M51,48h-7    v-7c0-1.7-1.3-3-3-3H19c-1.7,0-3,1.3-3,3v7H9c-3.9,0-7-3.1-7-7s3.1-7,7-7c0.3,0,0.6-0.1,0.8-0.4c0.2-0.2,0.3-0.6,0.2-0.9    c-0.9-3.6,2-6.2,4.8-7.3c3.2-1.3,7.5-1.2,9.3,2.1c0.2,0.4,0.6,0.6,1.1,0.5c0.4-0.1,0.7-0.4,0.8-0.9c0.5-4.2,2.9-7.2,6.8-8.5    c5-1.7,11.6-0.3,15.2,3.4c2,2,3.9,5.5,2.1,10.7c-0.1,0.3-0.1,0.6,0.1,0.9c0.2,0.3,0.5,0.4,0.8,0.4c3.9,0,7,3.1,7,7S54.9,48,51,48z    "/></g></g></svg>