<svg xmlns="http://www.w3.org/2000/svg" xmlns:xlink="http://www.w3.org/1999/xlink" version="1.1" x="0px" y="0px" viewBox="0 0 65 81.25" enable-background="new 0 0 65 65" xml:space="preserve"><g><path d="M0,4.2v56.7h65V4.2H0z M63.5,5.7v5.6h-62V5.7H63.5z M55.7,59.3V38.9h-1.5v20.4h-4.9V42.7h-1.5v16.7h-4.9V47.7h-1.5v11.6   h-4.9v-4.4H35v4.4H30v-8.9h-1.5v8.9h-4.9V45.6h-1.5v13.7h-4.9V48.5h-1.5v10.9h-4.9v-7H9.3v7H1.5V12.8h62v46.6H55.7z"/><rect x="59.5" y="7.8" width="1.5" height="1.5"/><rect x="55.6" y="7.8" width="1.5" height="1.5"/><rect x="51.6" y="7.8" width="1.5" height="1.5"/><path d="M39.1,19.9c-2-0.5-3.9-0.8-5.8-0.9c-0.3,0-0.5,0-0.8,0c-0.3,0-0.5,0-0.8,0c-1.9,0.1-3.8,0.3-5.8,0.9   c-9,2.5-15.5,9-15.8,9.2l-0.5,0.5l0.5,0.5c0.1,0.1,3.6,3.6,8.9,6.4c4.5,2.4,9,3.7,13.4,3.7c0,0,0.1,0,0.1,0s0.1,0,0.1,0   c4.3,0,8.8-1.3,13.4-3.7c5.3-2.9,8.7-6.3,8.9-6.4l0.5-0.5l-0.5-0.5C54.6,28.8,48.1,22.3,39.1,19.9z M32.6,38.8c0,0-0.1,0-0.1,0   s-0.1,0-0.1,0c-5-0.1-9.1-4.2-9.1-9.2c0-4.8,3.7-8.7,8.4-9.1c0.5,0,1.1,0,1.6,0c4.7,0.4,8.4,4.3,8.4,9.1   C41.7,34.6,37.6,38.7,32.6,38.8z M19.7,35.3c-3.9-2.1-6.8-4.6-8-5.6c1.7-1.5,7-6,13.8-8.1c-2.3,2-3.7,4.9-3.7,8.1   c0,3.2,1.5,6.1,3.7,8.1C23.6,37.1,21.7,36.3,19.7,35.3z M45.3,35.3c-2,1.1-3.9,1.9-5.9,2.5c2.3-2,3.7-4.9,3.7-8.1   c0-3.2-1.5-6.1-3.7-8.1c6.8,2.1,12.1,6.6,13.8,8.1C52.1,30.7,49.2,33.2,45.3,35.3z"/><path d="M32.5,26.4c-1.8,0-3.2,1.4-3.2,3.2c0,1.8,1.4,3.2,3.2,3.2c1.8,0,3.2-1.4,3.2-3.2C35.7,27.8,34.3,26.4,32.5,26.4z    M32.5,31.4c-1,0-1.7-0.8-1.7-1.7c0-1,0.8-1.7,1.7-1.7c1,0,1.7,0.8,1.7,1.7C34.2,30.6,33.5,31.4,32.5,31.4z"/></g></svg>