<svg xmlns="http://www.w3.org/2000/svg" viewBox="0 0 60 75" x="0px" y="0px"><title>002 - Data Science</title><path d="M54.5,0a5.467,5.467,0,0,0-3.9,1.641C44.935-.908,37.5-.359,30.008,2.749,20.154-1.329,10.5-.925,4.788,4.789s-6.117,15.365-2.04,25.218C-.361,37.5-.909,44.935,1.642,50.6A5.488,5.488,0,1,0,9.4,58.358a19.635,19.635,0,0,0,8.093,1.62,33.043,33.043,0,0,0,12.49-2.722A33.051,33.051,0,0,0,42.48,59.965c5.048,0,9.515-1.536,12.732-4.753,5.713-5.713,6.116-15.366,2.04-25.218,3.109-7.5,3.657-14.929,1.106-20.592A5.487,5.487,0,0,0,54.5,0Zm0,2A3.5,3.5,0,0,1,58,5.5a3.468,3.468,0,0,1-1.467,2.837A3.376,3.376,0,0,1,54.5,9,3.5,3.5,0,0,1,51,5.5a3.389,3.389,0,0,1,.677-2.052A3.458,3.458,0,0,1,54.5,2ZM6.2,6.2c2.857-2.857,6.834-4.218,11.362-4.218a29.571,29.571,0,0,1,9.944,1.894A53.273,53.273,0,0,0,3.878,27.508C.821,19.045,1.38,11.025,6.2,6.2ZM30.023,4.9A49.438,49.438,0,0,1,44.8,15.2,49.482,49.482,0,0,1,55.106,29.97,49.4,49.4,0,0,1,44.793,44.793,49.382,49.382,0,0,1,29.969,55.106,49.5,49.5,0,0,1,15.2,44.8,49.464,49.464,0,0,1,4.894,30.03,51.119,51.119,0,0,1,30.023,4.9ZM5.5,58A3.5,3.5,0,0,1,2,54.5a3.468,3.468,0,0,1,1.467-2.837A3.376,3.376,0,0,1,5.5,51,3.5,3.5,0,0,1,9,54.5a3.394,3.394,0,0,1-.677,2.052A3.456,3.456,0,0,1,5.5,58Zm5.049-1.316c.06-.139.111-.281.159-.424.008-.023.019-.046.027-.07a5.5,5.5,0,0,0,.177-.735c.01-.06.019-.119.028-.18A5.666,5.666,0,0,0,11,54.5,5.507,5.507,0,0,0,5.5,49a5.676,5.676,0,0,0-.774.06c-.061.009-.122.018-.184.029a5.336,5.336,0,0,0-.724.173c-.034.011-.066.026-.1.038-.136.046-.271.094-.4.151-1.986-4.695-1.665-10.706.572-16.917a51.826,51.826,0,0,0,9.9,13.676,51.785,51.785,0,0,0,13.684,9.9C21.26,58.348,15.245,58.67,10.549,56.684ZM53.8,53.8c-4.823,4.824-12.847,5.382-21.313,2.322a51.864,51.864,0,0,0,13.722-9.913,51.865,51.865,0,0,0,9.915-13.715C59.179,40.955,58.62,48.976,53.8,53.8Zm2.314-26.331a51.814,51.814,0,0,0-9.9-13.677,51.814,51.814,0,0,0-13.677-9.9c6.212-2.237,12.224-2.558,16.918-.572-.061.139-.112.282-.16.426-.008.023-.018.044-.025.066a5.42,5.42,0,0,0-.178.737c-.01.06-.019.119-.027.179A5.461,5.461,0,0,0,54.5,11a5.634,5.634,0,0,0,.772-.06c.063-.009.124-.018.186-.029a5.358,5.358,0,0,0,.723-.173c.034-.011.067-.026.1-.038.135-.047.27-.094.4-.152C58.67,15.244,58.349,21.256,56.112,27.467Z"/><path d="M30,48c7.851,0,14-3.606,14-8.21V20.21c0-.016-.008-.029-.009-.045,0-.055.009-.11.009-.165,0-4.486-6.149-8-14-8s-14,3.514-14,8c0,.072,0,.136,0,.188,0,.008,0,.014,0,.022V39.79C16,44.394,22.149,48,30,48Zm12-9.855V39.79C42,43.156,36.505,46,30,46s-12-2.844-12-6.21V38.179c.043.041.1.076.142.117q.327.3.7.576c.078.059.149.12.23.177a11.961,11.961,0,0,0,1.059.671c.077.043.16.082.238.124.31.166.631.324.966.473.133.059.267.115.4.172q.476.2.982.368c.129.045.254.091.385.133.466.147.944.283,1.442.4.069.016.143.028.213.044q.651.145,1.336.256c.165.026.331.048.5.071q.587.081,1.192.134c.167.014.332.031.5.042.563.038,1.132.063,1.715.063.474,0,.936-.011,1.385-.042.518-.028,1.024-.077,1.523-.136.16-.019.315-.043.473-.065.342-.048.679-.1,1.009-.163.167-.031.333-.063.5-.1.336-.071.663-.149.986-.234.13-.034.263-.064.39-.1.439-.124.865-.259,1.274-.408.075-.027.143-.058.216-.085q.5-.191.976-.4c.125-.057.245-.117.367-.176q.386-.187.745-.39c.116-.066.232-.13.344-.2.259-.157.5-.32.74-.489.069-.049.143-.095.21-.145a9.528,9.528,0,0,0,.821-.687C41.97,38.169,41.987,38.157,42,38.145ZM18.851,24.853c.1.072.191.145.291.215.3.21.617.413.953.6.039.023.074.047.113.069.379.21.782.406,1.2.591.116.051.236.1.355.146q.486.2,1,.378c.135.046.268.093.406.136.439.14.889.268,1.356.38.031.008.059.017.09.024.5.117,1.011.213,1.535.3.15.024.3.044.455.065q.6.084,1.213.138c.162.014.322.03.486.041.557.037,1.12.063,1.7.063s1.139-.026,1.7-.063c.163-.011.321-.027.482-.041.416-.036.824-.083,1.227-.139.145-.021.292-.039.436-.062a20.928,20.928,0,0,0,3.042-.717c.091-.029.179-.06.268-.09q.646-.218,1.246-.47l.114-.047A12.059,12.059,0,0,0,42,24.162V27c0,3.252-5.495,6-12,6s-12-2.748-12-6V24.151c.051.049.115.091.168.139Q18.489,24.581,18.851,24.853Zm-.011,7.019c.078.059.149.12.23.177a11.961,11.961,0,0,0,1.059.671c.077.043.16.082.238.124.31.166.631.324.966.473.133.059.267.115.4.172q.476.2.982.368c.129.045.254.091.385.133.466.147.944.283,1.442.4.069.016.143.028.213.044q.651.145,1.336.256c.165.026.331.048.5.071q.587.081,1.192.134c.167.014.332.031.5.042.563.038,1.132.063,1.715.063s1.152-.025,1.715-.063c.168-.011.333-.028.5-.042q.606-.054,1.192-.134c.167-.023.333-.045.5-.071q.684-.111,1.336-.256c.07-.016.144-.028.213-.044.5-.117.976-.253,1.442-.4.131-.042.256-.088.385-.133q.506-.172.982-.368c.137-.057.271-.113.4-.172.335-.149.656-.307.966-.473.078-.042.161-.081.238-.124a11.961,11.961,0,0,0,1.059-.671c.081-.057.152-.118.23-.177q.37-.279.7-.576c.044-.041.1-.076.142-.117V34c0,3.012-4.711,5.631-10.738,5.962-.418.029-.835.038-1.262.038-6.5,0-12-2.748-12-6V31.179c.043.041.1.076.142.117Q18.469,31.593,18.84,31.872ZM30,14c6.505,0,12,2.748,12,6l-.009.157C41.823,23.324,36.331,26,30,26s-11.823-2.676-11.991-5.843c0-.029,0-.129-.009-.157C18,16.748,23.5,14,30,14Z"/><path d="M17.978,6.005c.314.007.632.021.953.044l.07,0a1,1,0,0,0,.068-2c-.351-.025-.7-.041-1.047-.049H18a1,1,0,0,0-.022,2Z"/><path d="M14.978,5.152a1,1,0,0,0-1.19-.765,12.185,12.185,0,0,0-6.171,3.23C5.146,10.088,3.9,13.687,4,18.024A1,1,0,0,0,5,19h.023A1,1,0,0,0,6,17.976c-.091-3.777.958-6.87,3.033-8.945a10.233,10.233,0,0,1,5.181-2.69A1,1,0,0,0,14.978,5.152Z"/><path d="M42.023,54c-.314-.007-.633-.021-.954-.044A1.014,1.014,0,0,0,40,54.88a1,1,0,0,0,.929,1.067c.351.025.7.039,1.046.048H42a1,1,0,0,0,.023-2Z"/><path d="M45.022,54.848a1,1,0,0,0,.977.788.971.971,0,0,0,.213-.023,12.186,12.186,0,0,0,6.171-3.23c2.471-2.47,3.722-6.069,3.619-10.406A1.033,1.033,0,0,0,54.979,41,1,1,0,0,0,54,42.023c.091,3.779-.958,6.872-3.033,8.946a10.225,10.225,0,0,1-5.181,2.689A1,1,0,0,0,45.022,54.848Z"/><path d="M26.212,18.384A17.9,17.9,0,0,1,30,18a17,17,0,0,1,4.722.62,1.026,1.026,0,0,0,.278.04,1,1,0,0,0,.278-1.961A19.009,19.009,0,0,0,30,16a19.923,19.923,0,0,0-4.212.43,1,1,0,1,0,.424,1.954Z"/><path d="M20.514,20.874a1,1,0,0,0,1.36-.388,1.458,1.458,0,0,1,.545-.582,1,1,0,0,0-.842-1.814,3.371,3.371,0,0,0-1.451,1.424A1,1,0,0,0,20.514,20.874Z"/></svg>