<svg xmlns="http://www.w3.org/2000/svg" xmlns:xlink="http://www.w3.org/1999/xlink" version="1.0" x="0px" y="0px" viewBox="0 0 100 125" enable-background="new 0 0 100 100" xml:space="preserve"><path fill="none" stroke="#000000" stroke-linecap="round" stroke-linejoin="round" stroke-miterlimit="10" d="M64.903,85.292  c0.866,0,1.568,0.704,1.568,1.568c0,0,0,0.354,0,0.785c0,0.432-0.314,0.944-0.702,1.136l-1.732,0.867  C63.65,89.844,62.979,90,62.55,90H13.922c-0.432,0-1.1-0.156-1.485-0.352l-1.735-0.867C10.315,88.59,10,88.077,10,87.646  c0-0.431,0-0.785,0-0.785c0-0.864,0.703-1.568,1.569-1.568H64.903z"/><path fill="none" stroke="#000000" stroke-linecap="round" stroke-linejoin="round" stroke-miterlimit="10" d="M58.628,52.352  H17.844c-1.733,0-3.138,1.402-3.138,3.136v29.805h47.059V55.487C61.765,53.754,60.363,52.352,58.628,52.352z"/><rect x="18.236" y="59.804" fill="none" stroke="#000000" stroke-linecap="round" stroke-linejoin="round" stroke-miterlimit="10" width="39.999" height="21.882"/><rect x="46.47" y="64.508" fill="none" stroke="#000000" stroke-linecap="round" stroke-linejoin="round" stroke-miterlimit="10" width="7.06" height="12.47"/><rect x="34.706" y="64.508" fill="none" stroke="#000000" stroke-linecap="round" stroke-linejoin="round" stroke-miterlimit="10" width="7.059" height="12.47"/><rect x="18.236" y="56.272" fill="none" stroke="#000000" stroke-linecap="round" stroke-linejoin="round" stroke-miterlimit="10" width="29.411" height="3.531"/><rect x="47.647" y="56.272" fill="none" stroke="#000000" stroke-linecap="round" stroke-linejoin="round" stroke-miterlimit="10" width="3.531" height="3.531"/><rect x="51.178" y="56.272" fill="none" stroke="#000000" stroke-linecap="round" stroke-linejoin="round" stroke-miterlimit="10" width="3.529" height="3.531"/><rect x="54.707" y="56.272" fill="none" stroke="#000000" stroke-linecap="round" stroke-linejoin="round" stroke-miterlimit="10" width="3.528" height="3.531"/><rect x="52.354" y="10" fill="none" stroke="#000000" stroke-linecap="round" stroke-linejoin="round" stroke-miterlimit="10" width="37.646" height="11.763"/><rect x="10" y="13.528" fill="none" stroke="#000000" stroke-linecap="round" stroke-linejoin="round" stroke-miterlimit="10" width="32.94" height="29.412"/><rect x="28.824" y="18.234" fill="none" stroke="#000000" stroke-linecap="round" stroke-linejoin="round" stroke-miterlimit="10" width="9.412" height="20.001"/><rect x="10" y="10" fill="none" stroke="#000000" stroke-linecap="round" stroke-linejoin="round" stroke-miterlimit="10" width="22.352" height="3.527"/><rect x="39.41" y="10" fill="none" stroke="#000000" stroke-linecap="round" stroke-linejoin="round" stroke-miterlimit="10" width="3.529" height="3.527"/><rect x="35.881" y="10" fill="none" stroke="#000000" stroke-linecap="round" stroke-linejoin="round" stroke-miterlimit="10" width="3.529" height="3.527"/><rect x="32.352" y="10" fill="none" stroke="#000000" stroke-linecap="round" stroke-linejoin="round" stroke-miterlimit="10" width="3.529" height="3.527"/><path fill="none" stroke="#000000" stroke-linecap="round" stroke-linejoin="round" stroke-miterlimit="10" d="M77.06,15.882  c0,1.294-1.059,2.352-2.353,2.352H58.235c-1.293,0-2.353-1.058-2.353-2.352c0-1.293,1.06-2.354,2.353-2.354h16.472  C76.001,13.528,77.06,14.589,77.06,15.882z"/><circle fill="none" stroke="#000000" stroke-linecap="round" stroke-linejoin="round" stroke-miterlimit="10" cx="84.117" cy="15.882" r="2.354"/><rect x="52.354" y="21.763" fill="none" stroke="#000000" stroke-linecap="round" stroke-linejoin="round" stroke-miterlimit="10" width="37.646" height="11.766"/><path fill="none" stroke="#000000" stroke-linecap="round" stroke-linejoin="round" stroke-miterlimit="10" d="M77.06,27.646  c0,1.294-1.059,2.353-2.353,2.353H58.235c-1.293,0-2.353-1.059-2.353-2.353c0-1.295,1.06-2.352,2.353-2.352h16.472  C76.001,25.294,77.06,26.352,77.06,27.646z"/><circle fill="none" stroke="#000000" stroke-linecap="round" stroke-linejoin="round" stroke-miterlimit="10" cx="84.117" cy="27.646" r="2.354"/><rect x="52.354" y="33.531" fill="none" stroke="#000000" stroke-linecap="round" stroke-linejoin="round" stroke-miterlimit="10" width="37.646" height="11.763"/><path fill="none" stroke="#000000" stroke-linecap="round" stroke-linejoin="round" stroke-miterlimit="10" d="M77.06,39.412  c0,1.293-1.059,2.352-2.353,2.352H58.235c-1.293,0-2.353-1.059-2.353-2.352c0-1.294,1.06-2.354,2.353-2.354h16.472  C76.001,37.059,77.06,38.118,77.06,39.412z"/><circle fill="none" stroke="#000000" stroke-linecap="round" stroke-linejoin="round" stroke-miterlimit="10" cx="84.117" cy="39.412" r="2.354"/><circle fill="none" stroke="#000000" stroke-linecap="round" stroke-linejoin="round" stroke-miterlimit="10" cx="84.117" cy="51.175" r="2.354"/><path fill="none" stroke="#000000" stroke-linecap="round" stroke-linejoin="round" stroke-miterlimit="10" d="M52.354,45.293v7.058  h6.274c1.735,0,3.137,1.402,3.137,3.136v1.569H90V45.293H52.354z"/><path fill="none" stroke="#000000" stroke-linecap="round" stroke-linejoin="round" stroke-miterlimit="10" d="M74.707,48.823  H58.235c-1.293,0-2.353,1.059-2.353,2.352c0,0.43,0.125,0.829,0.328,1.177h2.417c0.989,0,1.858,0.465,2.434,1.178h13.646  c1.294,0,2.353-1.061,2.353-2.354C77.06,49.882,76.001,48.823,74.707,48.823z"/><path fill="none" stroke="#000000" stroke-linecap="round" stroke-linejoin="round" stroke-miterlimit="10" d="M14.706,18.234h9.411  H14.706z"/><path fill="none" stroke="#000000" stroke-linecap="round" stroke-linejoin="round" stroke-miterlimit="10" d="M22.941,64.508H30  H22.941z"/><path fill="none" stroke="#000000" stroke-linecap="round" stroke-linejoin="round" stroke-miterlimit="10" d="M22.941,68.039h3.529  H22.941z"/><path fill="none" stroke="#000000" stroke-linecap="round" stroke-linejoin="round" stroke-miterlimit="10" d="M22.941,71.566H30  H22.941z"/><path fill="none" stroke="#000000" stroke-linecap="round" stroke-linejoin="round" stroke-miterlimit="10" d="M22.941,75.098H30  H22.941z"/><path fill="none" stroke="#000000" stroke-linecap="round" stroke-linejoin="round" stroke-miterlimit="10" d="M14.706,21.763h4.706  H14.706z"/><path fill="none" stroke="#000000" stroke-linecap="round" stroke-linejoin="round" stroke-miterlimit="10" d="M14.706,25.293h9.411  H14.706z"/><path fill="none" stroke="#000000" stroke-linecap="round" stroke-linejoin="round" stroke-miterlimit="10" d="M14.706,28.822h9.411  H14.706z"/><path fill="none" stroke="#000000" stroke-linecap="round" stroke-linejoin="round" stroke-miterlimit="10" d="M14.706,32.352h4.706  H14.706z"/><path fill="none" stroke="#000000" stroke-linecap="round" stroke-linejoin="round" stroke-miterlimit="10" d="M14.706,35.881h4.706  H14.706z"/><path fill="none" stroke="#000000" stroke-linecap="round" stroke-linejoin="round" stroke-miterlimit="10" d="M75.883,57.057v4.704  c0,5.202-4.214,9.414-9.411,9.414h-4.707h4.707c5.197,0,9.411-4.212,9.411-9.414V57.057z"/><polygon fill="none" stroke="#000000" stroke-linecap="round" stroke-linejoin="round" stroke-miterlimit="10" points="  78.823,59.998 75.883,57.057 72.94,59.998 75.883,57.057 "/><polygon fill="none" stroke="#000000" stroke-linecap="round" stroke-linejoin="round" stroke-miterlimit="10" points="  45.881,25.294 42.94,28.234 45.881,31.176 42.94,28.234 "/><path fill="none" stroke="#000000" stroke-linecap="round" stroke-linejoin="round" stroke-miterlimit="10" d="M52.352,28.236H42.94  H52.352z"/></svg>