<svg xmlns="http://www.w3.org/2000/svg" xmlns:xlink="http://www.w3.org/1999/xlink" version="1.1" x="0px" y="0px" viewBox="0 0 64 80" style="enable-background:new 0 0 64 64;" xml:space="preserve"><path d="M57,11h-2.54C53.36,9.776,51.771,9,50,9c-0.114,0-0.229,0.013-0.344,0.02l-1.691-6.28c-0.08-0.296-0.291-0.539-0.572-0.659  c-0.281-0.122-0.604-0.106-0.872,0.041l-5.465,2.981c-0.001,0-0.001,0-0.002,0L30.245,11H7c-2.757,0-5,2.243-5,5v36  c0,2.757,2.243,5,5,5h14.919l-2.7,3.375c-0.24,0.301-0.286,0.712-0.12,1.059C19.266,61.779,19.615,62,20,62h24  c0.385,0,0.734-0.221,0.901-0.566c0.166-0.347,0.12-0.758-0.12-1.059L42.081,57H57c2.757,0,5-2.243,5-5V16  C62,13.243,59.757,11,57,11z M57,13c1.654,0,3,1.346,3,3v32H29v-2h2c1.654,0,3-1.346,3-3c0-0.768-0.29-1.469-0.766-2  C33.71,40.469,34,39.768,34,39s-0.29-1.469-0.766-2C33.71,36.469,34,35.768,34,35s-0.29-1.469-0.766-2C33.71,32.469,34,31.768,34,31  c0-0.352-0.072-0.686-0.184-1H54c0.312,0,0.604-0.145,0.794-0.392s0.253-0.568,0.172-0.868l-2.263-8.406  c0.002-0.001,0.004-0.003,0.007-0.004c0.004-0.002,0.007-0.004,0.01-0.006c0.266-0.135,0.517-0.29,0.757-0.459  c0.076-0.054,0.144-0.116,0.217-0.173c0.161-0.125,0.318-0.253,0.464-0.393c0.079-0.076,0.151-0.157,0.226-0.237  c0.126-0.135,0.248-0.272,0.361-0.418c0.071-0.091,0.137-0.185,0.202-0.28c0.102-0.148,0.196-0.3,0.284-0.456  c0.057-0.102,0.112-0.203,0.163-0.308c0.08-0.164,0.148-0.333,0.213-0.504c0.04-0.106,0.082-0.21,0.116-0.318  c0.059-0.19,0.103-0.386,0.143-0.583c0.02-0.096,0.047-0.19,0.061-0.287C55.973,15.61,56,15.308,56,15  c0-0.323-0.033-0.639-0.082-0.948c-0.006-0.037-0.01-0.074-0.017-0.11c-0.058-0.324-0.143-0.637-0.251-0.941H57z M9.645,28  c-0.779-1.916-0.779-4.084,0-6H13v6H9.645z M30.979,12.878C30.979,12.878,30.979,12.878,30.979,12.878l9.919-5.411L46.426,28H15  v-6.406L30.979,12.878z M17,30h14c0.552,0,1,0.448,1,1s-0.448,1-1,1h-3c-0.553,0-1,0.447-1,1s0.447,1,1,1h3c0.552,0,1,0.448,1,1  s-0.448,1-1,1h-3c-0.553,0-1,0.447-1,1s0.447,1,1,1h3c0.552,0,1,0.448,1,1s-0.448,1-1,1h-3c-0.553,0-1,0.447-1,1s0.447,1,1,1h3  c0.552,0,1,0.448,1,1s-0.448,1-1,1h-3c-0.553,0-1,0.447-1,1v3H17V30z M53.181,12.604c0.123,0.164,0.23,0.335,0.326,0.51  c0.017,0.032,0.034,0.064,0.051,0.097c0.078,0.15,0.144,0.305,0.201,0.462c0.032,0.091,0.058,0.184,0.084,0.278  c0.033,0.116,0.067,0.232,0.089,0.351C53.972,14.529,54,14.761,54,15c0,0.198-0.019,0.392-0.047,0.584  c-0.009,0.06-0.023,0.117-0.034,0.176c-0.026,0.133-0.057,0.264-0.096,0.392c-0.019,0.062-0.039,0.124-0.061,0.185  c-0.046,0.128-0.1,0.253-0.159,0.375c-0.024,0.049-0.045,0.1-0.07,0.148c-0.089,0.167-0.187,0.328-0.299,0.48  c-0.01,0.014-0.023,0.027-0.034,0.041c-0.103,0.137-0.216,0.266-0.336,0.389c-0.04,0.041-0.083,0.079-0.125,0.118  c-0.099,0.093-0.203,0.181-0.313,0.264c-0.049,0.037-0.098,0.074-0.149,0.109c-0.036,0.025-0.076,0.045-0.114,0.069l-0.138-0.512  l-1.834-6.812C51.416,11.063,52.486,11.684,53.181,12.604z M47.952,10.383c0,0.001,0,0.001,0,0.002l2.59,9.618L52.695,28h-4.198  L42.704,6.482l3.661-1.997L47.952,10.383z M7,13h19.578l-12.833,7H9c-0.379,0-0.725,0.214-0.895,0.553  c-1.393,2.785-1.393,6.109,0,8.895C8.275,29.786,8.621,30,9,30h6v18H4V16C4,14.346,5.346,13,7,13z M41.919,60H22.081l2.399-3H39.52  L41.919,60z M57,55H7c-1.654,0-3-1.346-3-3v-2h56v2C60,53.654,58.654,55,57,55z"/></svg>