<svg xmlns="http://www.w3.org/2000/svg" viewBox="0 0 64 80" x="0px" y="0px"><g><path d="M58,10v2a2,2,0,0,1,2,2V44H4V14a2,2,0,0,1,2-2V10a4,4,0,0,0-4,4V48a4,4,0,0,0,4,4H25.656l-2.4,8H21v2H43V60H40.744l-2.4-8H58a4,4,0,0,0,4-4V14A4,4,0,0,0,58,10ZM38.656,60H25.344l2.4-8h8.512ZM60,48a2,2,0,0,1-2,2H6a2,2,0,0,1-2-2V46H60Z"/><path d="M10,6a2,2,0,0,1,2-2H44V8H36a1,1,0,0,0-.707.293l-20,20a1,1,0,0,0,0,1.414l12,12a1,1,0,0,0,1.414,0l20-20A1,1,0,0,0,49,21V14h5V42h2V13c0-.021-.011-.04-.012-.061a1,1,0,0,0-.052-.26c-.011-.032-.019-.062-.033-.093a1,1,0,0,0-.2-.293l-10-10a.97.97,0,0,0-.292-.2c-.032-.015-.064-.023-.1-.035a.988.988,0,0,0-.252-.05C45.043,2.012,45.023,2,45,2H12A4,4,0,0,0,8,6V42h2ZM47,20.586l-19,19L17.414,29l19-19H44.1A5.014,5.014,0,0,0,47,13.576ZM52.586,12H49a3,3,0,0,1-3-3V5.414Z"/><rect x="12" y="6" width="2" height="2"/><rect x="16" y="6" width="2" height="2"/><rect x="20" y="6" width="2" height="2"/><circle cx="43" cy="14" r="2"/><rect x="24.5" y="26.55" width="2" height="9.899" transform="translate(-14.805 27.257) rotate(-45)"/><rect x="27.5" y="23.55" width="2" height="9.899" transform="translate(-11.805 28.5) rotate(-45)"/><path d="M39.98,17.8a1,1,0,0,0-.784-.784l-5-1a1,1,0,0,0-.9.273l-3,3a1,1,0,0,0-.273.9l1,5a1,1,0,0,0,.784.784l5,1A.932.932,0,0,0,37,27a1,1,0,0,0,.707-.293l3-3a1,1,0,0,0,.273-.9Zm-3.309,7.111L32.85,24.15l-.764-3.821,2.243-2.244,3.821.765.764,3.821Z"/><rect x="12" y="12" width="10" height="2"/><rect x="12" y="16" width="10" height="2"/><rect x="12" y="20" width="6" height="2"/><rect x="50" y="32" width="2" height="2"/><rect x="42" y="36" width="10" height="2"/><rect x="42" y="40" width="10" height="2"/><rect x="42" y="32" width="6" height="2"/><rect x="12" y="36" width="7" height="2"/><rect x="12" y="40" width="10" height="2"/></g></svg>