<svg xmlns="http://www.w3.org/2000/svg" xmlns:xlink="http://www.w3.org/1999/xlink" version="1.1" x="0px" y="0px" viewBox="0 0 66 82.5" enable-background="new 0 0 66 66" xml:space="preserve"><g><g><path d="M64.895,4.803c0-0.26-0.027-0.513-0.077-0.759c-0.351-1.713-1.869-3.005-3.684-3.005h-0.003H38.466h-0.001    c-0.518,0-1.012,0.105-1.462,0.296c-2.779,1.177-2.3,3.841-2.3,6.928c0,3.056,0.003-9.799,0.003,23.636H9.325L8.25,27.771    C8.164,27.44,7.866,27.21,7.525,27.21h-5.67c-0.414,0-0.75,0.336-0.75,0.75c0,0.414,0.336,0.75,0.75,0.75h5.09l1.076,4.134    c0.002,0.007-0.001,0.014,0.001,0.021l6.285,21.049c0.024,0.081,0.063,0.156,0.111,0.223l2.02,6.724    c0.217,0.706,0.858,1.181,1.597,1.181h2.779c0.346,1.666,1.823,2.921,3.589,2.921c1.766,0,3.244-1.255,3.589-2.921h4.013    c0.346,1.666,1.824,2.921,3.589,2.921c1.766,0,3.244-1.255,3.589-2.921h1.311c0.414,0,0.75-0.336,0.75-0.75    c0-0.414-0.336-0.75-0.75-0.75h-1.313c-0.349-1.662-1.824-2.913-3.587-2.913c-1.763,0-3.238,1.251-3.587,2.913H27.99    c-0.349-1.662-1.824-2.913-3.587-2.913c-1.763,0-3.238,1.251-3.587,2.913h-2.781c-0.079,0-0.14-0.045-0.162-0.116l-1.795-5.976    h26.417c0.342,0,0.641-0.231,0.727-0.563l0.62-2.415h17.293c2.073,0,3.76-1.688,3.76-3.761V44.25V8.266    c0-0.001,0.001-0.002,0.001-0.002V4.803z M35.595,59.127c1.195,0,2.167,0.972,2.167,2.167s-0.972,2.167-2.167,2.167    c-1.195,0-2.167-0.972-2.167-2.167S34.4,59.127,35.595,59.127z M24.403,59.127c1.195,0,2.167,0.972,2.167,2.167    s-0.972,2.167-2.167,2.167c-1.195,0-2.166-0.972-2.166-2.167S23.208,59.127,24.403,59.127z M61.132,2.539    c1.092,0,2.005,0.777,2.217,1.807c0.03,0.147,0.046,0.298,0.046,0.454v2.714h-27.19c0-2.494-0.317-4.077,1.381-4.796    c0.271-0.115,0.568-0.178,0.88-0.178H61.132z M36.205,9.014h27.19V43.5H45.887l0.588-2.291h13.669c0.414,0,0.75-0.336,0.75-0.75    c0-30.309,0.294-29.159-0.75-29.159c-22.084,0-21.44-0.283-21.44,0.75v19.85h-2.5V9.014z M47.06,38.932l1.565-6.096    c0.058-0.225,0.008-0.463-0.134-0.646c-0.142-0.183-0.361-0.29-0.593-0.29h-0.004h-7.69V12.8h19.19v26.909H46.861L47.06,38.932z     M41.913,52.948H15.627l-1.572-5.231H33.48c0.414,0,0.75-0.336,0.75-0.75s-0.336-0.75-0.75-0.75H13.604l-1.829-6.086h19.281    c0.414,0,0.75-0.336,0.75-0.75c0-0.414-0.336-0.75-0.75-0.75H11.325l-1.572-5.232c12.692,0,24.487,0,37.175,0l-2.737,10.658    c-0.001,0.002-0.002,0.004-0.003,0.007l-1.66,6.47c-0.002,0.007,0.001,0.014,0,0.021L41.913,52.948z M63.395,47.709    c0,1.246-1.014,2.261-2.26,2.261H44.226L45.502,45h17.893V47.709z"/></g><g><path d="M45.328,5.776h8.942c0.414,0,0.75-0.336,0.75-0.75c0-0.414-0.336-0.75-0.75-0.75h-8.942c-0.414,0-0.75,0.336-0.75,0.75    C44.578,5.44,44.914,5.776,45.328,5.776z"/></g><g><path d="M49.799,49.737c1.241,0,2.251-1.01,2.251-2.251c0-1.241-1.01-2.251-2.251-2.251s-2.251,1.01-2.251,2.251    C47.548,48.728,48.557,49.737,49.799,49.737z M49.799,46.735c0.414,0,0.751,0.337,0.751,0.751c0,0.414-0.337,0.751-0.751,0.751    s-0.751-0.337-0.751-0.751C49.048,47.072,49.384,46.735,49.799,46.735z"/></g></g></svg>