<svg xmlns="http://www.w3.org/2000/svg" xmlns:xlink="http://www.w3.org/1999/xlink" version="1.1" x="0px" y="0px" viewBox="0 0 64 80" style="enable-background:new 0 0 64 64;" xml:space="preserve"><g><path d="M62,5h-5V2c0-0.552-0.447-1-1-1h-4c-0.553,0-1,0.448-1,1v3H40.899C40.434,2.721,38.414,1,36,1h-8   c-2.414,0-4.434,1.721-4.899,4H13V2c0-0.552-0.447-1-1-1H8C7.447,1,7,1.448,7,2v3H2C1.447,5,1,5.448,1,6v44c0,0.552,0.447,1,1,1   h17.001L5.4,61.2c-0.345,0.258-0.485,0.708-0.349,1.116C5.188,62.725,5.569,63,6,63h8c0.228,0,0.447-0.077,0.625-0.219L28,52.081   V62c0,0.552,0.447,1,1,1h6c0.553,0,1-0.448,1-1v-9.919l13.375,10.7C49.553,62.923,49.772,63,50,63h8   c0.431,0,0.812-0.275,0.948-0.684c0.137-0.409-0.004-0.858-0.349-1.116L44.999,51H62c0.553,0,1-0.448,1-1V6C63,5.448,62.553,5,62,5   z M53,3h2v2h-2V3z M28,3h8c1.304,0,2.416,0.836,2.829,2H25.171C25.584,3.836,26.696,3,28,3z M9,3h2v2H9V3z M13.649,61H9l13.333-10   h3.816L13.649,61z M34,61h-4V51h4V61z M55,61h-4.649l-12.5-10h3.816L55,61z M61,49H35h-6H3V7h5h4h12h16h12h4h5V49z"/><path d="M11,40c0,0.552,0.447,1,1,1h4c0.553,0,1-0.448,1-1v-9c0-0.552-0.447-1-1-1h-4c-0.553,0-1,0.448-1,1V40z M13,32h2v7h-2V32z"/><path d="M20,26c-0.553,0-1,0.448-1,1v13c0,0.552,0.447,1,1,1h4c0.553,0,1-0.448,1-1V27c0-0.552-0.447-1-1-1H20z M23,39h-2V28h2V39z   "/><path d="M28,22c-0.553,0-1,0.448-1,1v17c0,0.552,0.447,1,1,1h4c0.553,0,1-0.448,1-1V23c0-0.552-0.447-1-1-1H28z M31,39h-2V24h2V39z   "/><path d="M9,14.816c1.161-0.414,2-1.514,2-2.816c0-1.654-1.346-3-3-3s-3,1.346-3,3c0,1.302,0.839,2.402,2,2.816V44   c0,0.552,0.447,1,1,1h31v-2H9V14.816z M8,11c0.552,0,1,0.449,1,1s-0.448,1-1,1s-1-0.449-1-1S7.448,11,8,11z"/><path d="M52.981,20.567l-2.548-2.548C50.785,17.424,51,16.74,51,16c0-2.206-1.794-4-4-4s-4,1.794-4,4   c0,0.74,0.215,1.424,0.567,2.019l-2.548,2.548C40.424,20.215,39.74,20,39,20c-2.206,0-4,1.794-4,4s1.794,4,4,4   c0.101,0,0.196-0.022,0.296-0.03l2.51,6.692C40.72,35.378,40,36.605,40,38c0,2.206,1.794,4,4,4s4-1.794,4-4   c0-0.805-0.243-1.551-0.654-2.179l5.806-8.294C53.707,27.819,54.33,28,55,28c2.206,0,4-1.794,4-4s-1.794-4-4-4   C54.26,20,53.576,20.215,52.981,20.567z M47,14c1.103,0,2,0.897,2,2s-0.897,2-2,2s-2-0.897-2-2S45.897,14,47,14z M37,24   c0-1.103,0.897-2,2-2s2,0.897,2,2s-0.897,2-2,2S37,25.103,37,24z M41.195,27.338C42.28,26.622,43,25.395,43,24   c0-0.74-0.215-1.424-0.567-2.019l2.548-2.548C45.576,19.785,46.26,20,47,20s1.424-0.215,2.019-0.567l2.548,2.548   C51.215,22.576,51,23.26,51,24c0,0.805,0.243,1.551,0.654,2.179l-5.806,8.294C45.293,34.181,44.67,34,44,34   c-0.101,0-0.196,0.022-0.296,0.03L41.195,27.338z M44,40c-1.103,0-2-0.897-2-2s0.897-2,2-2s2,0.897,2,2S45.103,40,44,40z M57,24   c0,1.103-0.897,2-2,2s-2-0.897-2-2s0.897-2,2-2S57,22.897,57,24z"/><path d="M17.48,24H22c0.314,0,0.611-0.148,0.8-0.4l2.7-3.6H30c0.266,0,0.52-0.105,0.707-0.293L35,15.414V18h2v-5   c0-0.552-0.447-1-1-1h-5v2h2.586l-4,4H25c-0.314,0-0.611,0.148-0.8,0.4L21.5,22H17c-0.304,0-0.591,0.138-0.781,0.375l-4,5   l1.562,1.249L17.48,24z"/></g></svg>