<svg xmlns="http://www.w3.org/2000/svg" xmlns:xlink="http://www.w3.org/1999/xlink" version="1.1" x="0px" y="0px" viewBox="0 0 66 82.5" enable-background="new 0 0 66 66" xml:space="preserve"><g><g><path d="M3,31h30.5c1.1,0,2-0.9,2-2V7.8c0-1.1-0.9-2-2-2H15.2V2c0-0.6-0.4-1-1-1H2C1.4,1,1,1.4,1,2v4.8V29C1,30.1,1.9,31,3,31z     M33.5,29H3V7.8h11.2h19.3L33.5,29z M3,3h10.2v2.8H3V3z"/></g><g><path d="M63,39.8H44.7V36c0-0.6-0.4-1-1-1H31.5c-0.6,0-1,0.4-1,1v4.8V63c0,1.1,0.9,2,2,2H63c1.1,0,2-0.9,2-2V41.8    C65,40.7,64.1,39.8,63,39.8z M32.5,37h10.2v2.8H32.5V37z M32.5,63V41.8h11.2H63L63,63H32.5z"/></g><g><path d="M49.2,25.3c-0.4-0.4-1-0.4-1.4,0c-0.4,0.4-0.4,1,0,1.4l2.7,2.7c0.1,0.1,0.2,0.2,0.3,0.2c0.1,0.1,0.3,0.1,0.4,0.1    c0.1,0,0.3,0,0.4-0.1c0.1-0.1,0.2-0.1,0.3-0.2l2.7-2.7c0.4-0.4,0.4-1,0-1.4c-0.4-0.4-1-0.4-1.4,0l-1,1V15c0-2.2-1.8-4-4-4h-4.6    c-0.6,0-1,0.4-1,1c0,0.6,0.4,1,1,1h4.6c1.1,0,2,0.9,2,2v11.3L49.2,25.3z"/></g><g><path d="M16.8,40.7c0.2,0.2,0.5,0.3,0.7,0.3c0.3,0,0.5-0.1,0.7-0.3c0.4-0.4,0.4-1,0-1.4l-2.7-2.7c-0.1-0.1-0.2-0.2-0.3-0.2    c-0.2-0.1-0.5-0.1-0.8,0c-0.1,0.1-0.2,0.1-0.3,0.2l-2.7,2.7c-0.4,0.4-0.4,1,0,1.4c0.4,0.4,1,0.4,1.4,0l1-1V51c0,2.2,1.8,4,4,4h4.6    c0.6,0,1-0.4,1-1c0-0.6-0.4-1-1-1h-4.6c-1.1,0-2-0.9-2-2V39.7L16.8,40.7z"/></g><g><path d="M14.9,23h-6c-0.6,0-1,0.4-1,1c0,0.6,0.4,1,1,1h6c0.6,0,1-0.4,1-1C15.9,23.5,15.4,23,14.9,23z"/></g><g><path d="M14.9,18h-6c-0.6,0-1,0.4-1,1c0,0.6,0.4,1,1,1h6c0.6,0,1-0.4,1-1C15.9,18.5,15.4,18,14.9,18z"/></g><g><path d="M12.6,12.8c0,0.6,0.4,1,1,1h2c0.6,0,1-0.4,1-1c0-0.6-0.4-1-1-1h-2C13,11.8,12.6,12.2,12.6,12.8z"/></g><g><path d="M19.6,13.8h2c0.6,0,1-0.4,1-1c0-0.6-0.4-1-1-1h-2c-0.6,0-1,0.4-1,1C18.6,13.3,19,13.8,19.6,13.8z"/></g><g><path d="M25.6,13.8h2c0.6,0,1-0.4,1-1c0-0.6-0.4-1-1-1h-2c-0.6,0-1,0.4-1,1C24.6,13.3,25,13.8,25.6,13.8z"/></g><g><path d="M44.4,57h-6c-0.6,0-1,0.4-1,1c0,0.6,0.4,1,1,1h6c0.6,0,1-0.4,1-1C45.4,57.5,45,57,44.4,57z"/></g><g><path d="M44.4,52h-6c-0.6,0-1,0.4-1,1c0,0.6,0.4,1,1,1h6c0.6,0,1-0.4,1-1C45.4,52.5,45,52,44.4,52z"/></g><g><path d="M45.1,45.8h-2c-0.6,0-1,0.4-1,1c0,0.6,0.4,1,1,1h2c0.6,0,1-0.4,1-1C46.1,46.2,45.7,45.8,45.1,45.8z"/></g><g><path d="M51.1,45.8h-2c-0.6,0-1,0.4-1,1c0,0.6,0.4,1,1,1h2c0.6,0,1-0.4,1-1C52.1,46.2,51.7,45.8,51.1,45.8z"/></g><g><path d="M57.1,45.8h-2c-0.6,0-1,0.4-1,1c0,0.6,0.4,1,1,1h2c0.6,0,1-0.4,1-1C58.1,46.2,57.7,45.8,57.1,45.8z"/></g></g></svg>