<svg xmlns="http://www.w3.org/2000/svg" xmlns:xlink="http://www.w3.org/1999/xlink" version="1.1" x="0px" y="0px" viewBox="0 0 150 187.5" style="enable-background:new 0 0 150 150;" xml:space="preserve"><g><path d="M61.3,120.6c0-3.6-2.9-6.5-6.5-6.5s-6.5,2.9-6.5,6.5c0,3.6,2.9,6.5,6.5,6.5S61.3,124.2,61.3,120.6z M52.4,120.6   c0-1.4,1.1-2.5,2.5-2.5c1.4,0,2.5,1.1,2.5,2.5s-1.1,2.5-2.5,2.5C53.5,123.1,52.4,122,52.4,120.6z"/><path d="M47.9,22.6c-1.1,0-2,0.9-2,2s0.9,2,2,2h14.4c1.1,0,2-0.9,2-2s-0.9-2-2-2H47.9z"/><path d="M128.7,69.3h-21.9L92.8,30.9c-1.1-3.1-3-6-5.5-8.2c-0.5-0.5-1.2-0.8-1.9-0.8c-1.4,0-2.6,1-2.8,2.5   c-0.1,0.9-0.2,1.8-0.2,2.7c0,2.4,0.4,4.8,1.2,7c-2.2,0.1-4.2,1.4-4.9,3.6L67.2,69.3H47c-1.1,0-2,0.9-2,2v12.5c0,1.1,0.9,2,2,2h14.1   l-4,11C57.1,97,57,97.2,57,97.4l-0.3,11c0,0.9,0.5,1.6,1.3,1.9c0.2,0.1,0.5,0.1,0.7,0.1c0.6,0,1.2-0.3,1.6-0.8l6.9-8.6   c0.1-0.2,0.2-0.4,0.3-0.6l5.4-14.7h29.6l2.7,7.4l0,0.2c-0.2,5.9,2.5,11.6,7.3,15.1l2.3,1.7c0.4,0.3,0.8,0.4,1.2,0.4   c0.2,0,0.5,0,0.7-0.1c0.6-0.2,1.1-0.8,1.3-1.4l0.7-2.8c0,0,0,0,0,0c1.4-5.8-0.2-11.8-4.1-16.2l-0.1-0.1l-1.5-4.1h15.9   c1.1,0,2-0.9,2-2V71.3C130.7,70.2,129.8,69.3,128.7,69.3z M110.6,91.6c0.1,0.2,0.2,0.5,0.4,0.7l0.4,0.4c3,3.4,4.2,8,3.2,12.5   c-3.6-2.7-5.7-7.1-5.6-11.6l0-0.6c0-0.3,0-0.5-0.1-0.8L87.4,32.9c-0.6-1.7-1-3.5-1-5.4c1.1,1.4,2,3,2.7,4.8L110.6,91.6z M63.8,98.9   l-2.9,3.7l0.1-4.7l21.4-58.8c0.3-0.8,1.1-1.2,1.9-0.9c0.6,0.2,1,0.8,1,1.4c0,0.2,0,0.3-0.1,0.5L63.8,98.9z M87.6,45.2l8.8,24.1   H78.9L87.6,45.2z M49,81.8v-8.5h16.7l-3.1,8.5H49z M74.3,81.8l3.1-8.5h20.4l3.1,8.5H74.3z M126.7,81.8h-15.4l-3.1-8.5h18.5V81.8z"/><path d="M87.4,89.7c-1.1,0-2,0.9-2,2v34.3c0,2.7-2.2,4.9-4.9,4.9H28.3c-2.7,0-4.9-2.2-4.9-4.9V23.9c0-2.7,2.2-4.9,4.9-4.9h52.2   c1.1,0,2-0.9,2-2s-0.9-2-2-2H28.3c-4.9,0-8.9,4-8.9,8.9v102.1c0,4.9,4,8.9,8.9,8.9h52.2c4.9,0,8.9-4,8.9-8.9V91.7   C89.4,90.6,88.5,89.7,87.4,89.7z"/></g></svg>