<svg xmlns="http://www.w3.org/2000/svg" xmlns:xlink="http://www.w3.org/1999/xlink" version="1.1" x="0px" y="0px" viewBox="0 0 100 125" style="enable-background:new 0 0 100 100;" xml:space="preserve"><title>federal_building</title><g><path d="M47.9,52.2H32.7v25.6h15.2V52.2z M44.6,74.5h-8.7v-19h8.7V74.5z"/><path d="M67.9,52.2H52.2v25.6h15.8V52.2z M64.7,74.5h-9.2v-19h9.2V74.5z"/><path d="M85.4,82.3v-7.8h-4v-19h3.7V37h-6.6c-4.3-7.1-11.9-11.4-20.2-11.5h-7.5v-7.7h14.5V5.9H47.6v19.6h-5.8   c-8.3,0-15.9,4.4-20.2,11.5h-6.8v18.4h4.3v19h-4v7.8H7.9v11h83.5v-11H85.4z M50.9,9.2h11.2v5.3H50.9V9.2z M41.8,28.8h16.6   c6.4,0,12.4,3.1,16.2,8.2H25.6C29.4,31.8,35.4,28.8,41.8,28.8z M28.4,77.8V52.2H18.1v-12h63.8v12h-9.7v25.6h10v4.6H18.4l0-4.6H28.4   z M22.4,74.5v-19h2.7v19H22.4z M78.2,55.4v19h-2.7v-19H78.2z M88.1,90.1H11.1v-4.5h76.9V90.1z"/></g></svg>