<svg xmlns="http://www.w3.org/2000/svg" xmlns:xlink="http://www.w3.org/1999/xlink" version="1.1" x="0px" y="0px" viewBox="-255 347 100 125" style="enable-background:new -255 347 100 100;" xml:space="preserve"><path d="M-196.8,421.6h-16.5c-0.3,2.7-2.6,4.8-5.4,4.8c-0.3,0-0.6,0-0.8-0.1v0.4c0,1.5,1.2,2.6,2.6,2.6h23.6c1.5,0,2.6-1.2,2.6-2.6  v-0.4c-0.3,0-0.5,0.1-0.8,0.1C-194.2,426.4-196.5,424.3-196.8,421.6z M-163.3,364.6h-83.5c-1.1,0-2,0.9-2,2v52.1c0,1.1,0.9,2,2,2  h83.5c1.1,0,2-0.9,2-2v-52.1C-161.2,365.5-162.1,364.6-163.3,364.6z M-163.5,410.2c0,6.3-5.1,8.6-11.4,8.6h-29.8h-0.5h-29.8  c-6.3,0-11.4-2.3-11.4-8.6v-35.1c0-6.3,5.1-8.6,11.4-8.6h29.8h0.5h29.8c6.3,0,11.4,2.3,11.4,8.6V410.2z M-203,402.1  c-4.6,1-9.2-1.5-10.9-5.9c-1.4-3.5-0.6-7.4,1.8-10l-0.1,0.4c-0.1,0.8,0.4,1.6,1.3,1.7c0.1,0,0.1,0,0.2,0c0.7,0,1.4-0.5,1.5-1.3  l0.6-3.8c0.1-0.8-0.4-1.6-1.3-1.7l-3.8-0.6c-0.8-0.1-1.6,0.4-1.7,1.3s0.4,1.6,1.3,1.7l0.1,0c-3.4,3.5-4.5,8.7-2.6,13.4  c1.9,4.9,6.6,8,11.7,8c0.9,0,1.7-0.1,2.6-0.3c0.8-0.2,1.3-1,1.2-1.8C-201.4,402.4-202.2,401.9-203,402.1z M-193.3,388  c-2.3-5.7-8.3-8.9-14.3-7.7c-0.8,0.2-1.3,1-1.2,1.8c0.2,0.8,1,1.3,1.8,1.2c4.6-1,9.2,1.5,10.9,5.9c1.3,3.3,0.7,6.9-1.4,9.6l0-0.1  c0.1-0.8-0.4-1.6-1.3-1.7c-0.8-0.1-1.6,0.4-1.7,1.3l-0.6,3.8c-0.1,0.8,0.4,1.6,1.3,1.7l3.8,0.6c0.1,0,0.1,0,0.2,0  c0.7,0,1.4-0.5,1.5-1.3c0.1-0.8-0.4-1.6-1.3-1.7l-0.2,0C-192.5,397.7-191.4,392.6-193.3,388z"/></svg>