<svg xmlns="http://www.w3.org/2000/svg" xmlns:xlink="http://www.w3.org/1999/xlink" version="1.1" x="0px" y="0px" viewBox="0 0 100 125" style="enable-background:new 0 0 100 100;" xml:space="preserve"><style type="text/css">
	.st0{stroke:#000000;stroke-miterlimit:10;}
	.st1{fill:none;stroke:#000000;stroke-width:2;stroke-miterlimit:10;}
	.st2{fill:none;stroke:#000000;stroke-miterlimit:10;}
	.st3{fill:none;}
</style><path d="M20.9,68.7l2-3.1c4.9,2,10.5,1.5,15-1.4l8.5,11c-2,3.3-0.5,7.8,3.5,9c1.5,0.4,3.1,0.3,4.5-0.5c2.7-1.5,3.7-4.6,2.8-7.3h0.1  l19.3-10.3c0.1-0.1,0.2-0.1,0.2-0.2c4.5,4.8,12.4,4.5,16.4-1.2c1.6-2.2,2.2-5.2,1.6-8c-1-4.5-4.6-7.6-8.7-8.2V32.2c-0.9,0-2,0-3,0  v16.3c-0.8,0.1-1.7,0.3-2.5,0.7c0-0.1,0-0.1-0.1-0.2l-9-13.3c0,0-0.1,0-0.1-0.1c2.3-2.4,2.3-6.2-0.1-8.5s-6.2-2.3-8.5,0.1  c-0.3,0.3-0.5,0.6-0.7,0.9C62,28,62,28,61.9,27.9L29,15.9v-0.3c0-2.9-1.9-5.5-4.8-6.1c-3.9-0.8-7.2,2.2-7.2,5.9c0,3.3,2.7,6,6,6  l3,12.8c-9,1.7-14.9,10.3-13.2,19.3c0.8,4.5,3.5,8.4,7.3,10.8l-1.6,2.5 M64.2,30.5c0.4-1.2,1.7-2,3-2c1,0,1.9,0.5,2.4,1.4  c1.2,2.3-0.4,4.6-2.6,4.6C65.1,34.5,63.5,32.6,64.2,30.5z M23,18.4c-1.7,0-3-1.3-3-3s1.3-3,3-3s3,1.3,3,3S24.7,18.4,23,18.4z   M25.6,20.9c1-0.5,1.9-1.2,2.5-2.1L61,30.9h0.2v0.6c0,0.3,0,0.7,0.1,1l-17.8,10c-2.9-5.2-8.4-8.5-14.4-8.5l-3-13.2L25.6,20.9z   M31.3,63.7c-9.2,1.5-17.1-6.4-15.6-15.6c0.9-5.6,5.4-10.1,11-11c9.2-1.5,17.1,6.4,15.6,15.6C41.4,58.3,36.9,62.8,31.3,63.7z   M51.5,81.4c-1.7,0-3-1.3-3-3s1.3-3,3-3s3,1.3,3,3S53.2,81.4,51.5,81.4z M55.9,73.8c-0.1,0.1-0.2,0.1-0.3,0.2  c-1.9-1.8-4.8-2.2-7.1-0.8l-8.3-10.7c2.3-2.2,4-5,4.8-8.1L74,59c0,1.6,0.4,3.1,1.1,4.5L55.9,73.8z M74.4,56l-28.9-4.6v-1  c0-1.8-0.3-3.6-0.9-5.3l17.7-10c1.5,2,4.2,2.8,6.6,1.9c0,0.1,0.1,0.2,0.1,0.2l9,13.4C76.3,52,75,53.9,74.4,56z M91.9,60.1  c-0.5,3.2-3.1,5.7-6.2,6.2c-5.1,0.8-9.4-3.5-8.6-8.6c0.5-3.2,3.1-5.7,6.2-6.2C88.4,50.7,92.7,55,91.9,60.1z"/><path d="M30.1,91.3c-8.4,0-16.7,0-25.1,0C5,83.9,5,76.5,5,69c1.2,0,2.4,0,3.6,0c0,4.8,0,9.6,0,14.5c2.4-1.3,4.8-2.7,7.2-4  c0,1.4,0,2.7,0,4.1c2.4-1.3,4.8-2.7,7.2-4c0,1.3,0,2.6,0,4c2.4-1.3,4.8-2.6,7.2-4C30.1,83.5,30.1,87.4,30.1,91.3z"/><g><path d="M37.9,47.5c-2.6-2.5-5.6-3.8-9.2-3.8c-3.5,0-6.6,1.3-9.1,3.8c-0.4-0.4-0.8-0.8-1.1-1.1c5.2-5.5,14.7-5.9,20.5,0   C38.7,46.7,38.3,47.1,37.9,47.5z"/><path d="M36.2,49.2c-0.4,0.4-0.8,0.7-1.1,1.1c-1.7-1.7-3.8-2.6-6.3-2.6s-4.6,0.9-6.3,2.7c-0.4-0.4-0.7-0.8-1.1-1.1   C25.1,45.2,32.1,44.9,36.2,49.2z"/><path d="M33.4,52c-0.4,0.4-0.8,0.7-1.1,1.1c-2.3-2-4.7-2-7,0c-0.4-0.4-0.7-0.7-1.1-1.1C26.3,49.6,30.7,49.2,33.4,52z"/></g><path class="st0" d="M93.7,8.7c0.2,0.1,0.5,0.2,0.7,0.4s0.3,0.5,0.3,0.7c0,0.1,0,0.1,0,0.2c0,4.1,0,8.3,0,12.4c0,0.4-0.1,0.8-0.4,1  c-0.2,0.2-0.4,0.2-0.6,0.3c-0.1,0-0.1,0-0.2,0c-6.1,0-12.3,0-18.4,0c-0.4,0-0.8-0.2-1-0.5c-0.1-0.2-0.2-0.3-0.2-0.5  c0-4.3,0-8.7,0-13.1c0.1-0.2,0.2-0.3,0.2-0.5c0.1-0.2,0.4-0.4,0.7-0.5C81,8.7,87.3,8.7,93.7,8.7z M75,10c0,4.1,0,8.3,0,12.4  c6.1,0,12.2,0,18.3,0c0-4.1,0-8.3,0-12.4C87.2,10,81.1,10,75,10z"/><g><line class="st1" x1="89.9" y1="28.2" x2="78.1" y2="28.2"/><path d="M82.2,24.1c1.3,0,2.6,0,3.9,0c0,0.1,0,0.1,0,0.2c0,0.6,0,1.2,0,1.8c0,0.7,0.6,1.2,1.3,1.2c0.4,0,0.9,0,1.3,0   c0.5,0,0.8,0.5,0.6,1c-0.1,0.2-0.3,0.3-0.5,0.3c0,0-0.1,0-0.2,0c-3,0-6,0-9,0c-0.3,0-0.5-0.1-0.7-0.4c-0.2-0.4,0.1-0.9,0.6-0.9   c0.4,0,0.8,0,1.2,0c0.9,0,1.4-0.5,1.4-1.4c0-0.5,0-1.1,0-1.6C82.2,24.2,82.2,24.2,82.2,24.1z"/></g><circle cx="29" cy="55.9" r="2.1"/><path class="st2" d="M97.4,118.6"/><path class="st2" d="M22.5,71"/><line class="st3" x1="21.1" y1="68.4" x2="21.9" y2="69"/><line class="st3" x1="17.4" y1="65.5" x2="21.1" y2="68.4"/><path class="st3" d="M86.7,32.5"/><line class="st3" x1="85.3" y1="32.5" x2="86.1" y2="32.5"/><line class="st3" x1="84.9" y1="32.5" x2="85.3" y2="32.5"/><line class="st3" x1="83.1" y1="32.5" x2="84.9" y2="32.5"/><line class="st3" x1="82.3" y1="32.5" x2="83.1" y2="32.5"/></svg>