<svg xmlns="http://www.w3.org/2000/svg" data-name="Слой 1" viewBox="0 0 128 160" x="0px" y="0px"><title>exchange, Sync, Synchronize, load, arrows, Monitor, Computer, laptop, Link, url</title><path d="M93.4,120H84v8h9.4c12.67,0,22.6-9.66,22.6-22V97.66l5.17,5.17,5.66-5.66L112,82.34,97.17,97.17l5.66,5.66L108,97.66V106C108,114,101.72,120,93.4,120Z"/><path d="M29.57,8.81c.33-.11.66-.21,1-.3l.75-.17.79-.14L30.88.28,29.71.5c-.39.08-.77.17-1.15.27s-1,.29-1.54.46A21.67,21.67,0,0,0,12,22v8.34L6.83,25.17,1.17,30.83,16,45.66,30.83,30.83l-5.66-5.66L20,30.34V22A13.78,13.78,0,0,1,29.57,8.81Z"/><path d="M114.69,60A5.31,5.31,0,0,0,120,54.71V5.29A5.31,5.31,0,0,0,114.69,0H41.31A5.31,5.31,0,0,0,36,5.29V48H5a5,5,0,0,0-5,5v58a5,5,0,0,0,5,5H40v8H20v4H72v-4H52v-8H87a5,5,0,0,0,5-5V68h28c4,0,8-4,8-8H114.69ZM88,111a1,1,0,0,1-1,1H5a1,1,0,0,1-1-1V53a1,1,0,0,1,1-1H87a1,1,0,0,1,1,1ZM87,48H40V5.29A1.32,1.32,0,0,1,41.31,4h73.37A1.32,1.32,0,0,1,116,5.29V54.71A1.32,1.32,0,0,1,114.69,56H92V53A5,5,0,0,0,87,48Z"/><path d="M67.23,59.12a10.68,10.68,0,0,0-15.09,0l-4.51,4.51a10.68,10.68,0,0,0-.89,14.06l-5.05,5.05a10.66,10.66,0,0,0-14,.88l-4.53,4.53a10.67,10.67,0,0,0,0,15.06l1.67,1.67a10.67,10.67,0,0,0,15.06,0l4.53-4.53a10.66,10.66,0,0,0,.88-14l5.05-5.05a10.66,10.66,0,0,0,14.06-.89l4.51-4.51a10.68,10.68,0,0,0,0-15.09ZM40.81,96.79l-4.53,4.53a5.63,5.63,0,0,1-7.93,0l-1.67-1.67a5.63,5.63,0,0,1,0-7.93l4.53-4.53a5.57,5.57,0,0,1,6.85-.82l-4.14,4.14a2.52,2.52,0,1,0,3.57,3.57l4.14-4.14A5.6,5.6,0,0,1,40.81,96.79Zm24.5-24.5L60.8,76.8a5.62,5.62,0,0,1-6.86.83l4.14-4.14a2.52,2.52,0,1,0-3.57-3.57l-4.14,4.14a5.6,5.6,0,0,1,.83-6.86l4.51-4.51a5.63,5.63,0,0,1,8,0l1.65,1.65A5.63,5.63,0,0,1,65.31,72.29Z"/></svg>