<svg xmlns="http://www.w3.org/2000/svg" xmlns:xlink="http://www.w3.org/1999/xlink" version="1.1" x="0px" y="0px" viewBox="0 0 100 125" enable-background="new 0 0 100 100" xml:space="preserve"><path d="M79.778,0H20.222c-4.892,0-8.871,3.97-8.871,8.851s3.979,8.851,8.871,8.851h3.619v55.916  c0,14.548,11.87,26.383,26.461,26.383s26.461-11.835,26.461-26.383V17.701h3.016c4.892,0,8.871-3.97,8.871-8.851S84.67,0,79.778,0z   M79.778,12.701h-5.227c-0.063,0-0.123,0.014-0.186,0.019c-0.035-0.001-0.068-0.01-0.104-0.01c-1.381,0-2.5,1.119-2.5,2.5v58.408  C71.763,85.407,62.136,95,50.302,95c-11.833,0-21.461-9.593-21.461-21.383v-6.962h15.461c1.381,0,2.5-1.119,2.5-2.5  s-1.119-2.5-2.5-2.5H28.841V49.28h20.961c1.381,0,2.5-1.119,2.5-2.5s-1.119-2.5-2.5-2.5H28.841V31.905h15.461  c1.381,0,2.5-1.119,2.5-2.5s-1.119-2.5-2.5-2.5H28.841V15.209c0-1.214-0.866-2.225-2.014-2.451c-0.17-0.036-0.345-0.057-0.525-0.057  h-6.08c-2.135,0-3.871-1.728-3.871-3.851S18.087,5,20.222,5h59.557c2.135,0,3.871,1.728,3.871,3.851S81.913,12.701,79.778,12.701z"/></svg>