<svg xmlns:dc="http://purl.org/dc/elements/1.1/" xmlns:cc="http://creativecommons.org/ns#" xmlns:rdf="http://www.w3.org/1999/02/22-rdf-syntax-ns#" xmlns:svg="http://www.w3.org/2000/svg" xmlns="http://www.w3.org/2000/svg" xmlns:sodipodi="http://sodipodi.sourceforge.net/DTD/sodipodi-0.dtd" xmlns:inkscape="http://www.inkscape.org/namespaces/inkscape" preserveAspectRatio="xMidYMid" viewBox="0 0 61 75" version="1.1" x="0px" y="0px"><defs><style>

      .cls-3 {
        fill: #000000;
      }
    </style></defs><path style="" d="M 18.40625 -0.03125 C 17.648801 -0.024044922 17.0655 0.75775 17.34375 1.53125 L 18.6875 5.3125 C 17.667863 5.54474 16.477562 5.8825083 15.15625 6.4375 C 14.17325 6.8415 13.14775 7.351 12.09375 8 C 11.07275 8.611 9.9555 9.36375 8.9375 10.21875 C 7.9195 11.09075 6.903 12.06525 6 13.15625 C 5.068 14.22325 4.242 15.42225 3.5 16.65625 C 2.752 17.88825 2.146 19.184 1.625 20.5 C 1.132 21.827 0.75 23.178 0.5 24.5 C 0.354 25.155 0.2765 25.8005 0.1875 26.4375 C 0.1335 27.0875 0.05425 27.74675 0.03125 28.34375 C 0.02925 28.95075 0.00425 29.45575 0.03125 30.09375 C 0.05725 30.66675 0.10125 31.223 0.15625 31.75 C 0.37025 33.861 0.846 35.57175 1.25 36.71875 C 1.654 37.86975 1.96875 38.46875 1.96875 38.46875 C 1.96875 38.46875 1.91575 37.78475 1.84375 36.59375 C 1.77175 35.40275 1.733 33.70475 1.875 31.71875 C 1.91 31.22175 1.96125 30.7165 2.03125 30.1875 C 2.10925 29.6525 2.169 29.09925 2.25 28.53125 C 2.346 27.96225 2.47475 27.41375 2.59375 26.84375 C 2.76275 26.27675 2.8695 25.704 3.0625 25.125 C 3.3915 23.952 3.8285 22.76775 4.3125 21.59375 C 4.8415 20.43775 5.40775 19.2815 6.09375 18.1875 C 7.39675 15.9615 8.99975 13.9115 10.71875 12.1875 C 11.15475 11.7625 11.58825 11.35675 12.03125 10.96875 C 12.24825 10.77275 12.4755 10.566 12.6875 10.375 C 12.9155 10.189 13.154 10.02575 13.375 9.84375 C 14.251 9.15975 15.1045 8.50875 15.9375 7.96875 C 17.093885 7.2288567 18.122238 6.6852865 19.03125 6.21875 L 20.375 10 C 20.685 10.864 21.822 11.01325 22.375 10.28125 L 27.09375 4.03125 C 27.58375 3.38325 27.28 2.44175 26.5 2.21875 L 18.71875 0.03125 C 18.60575 -0.000875 18.514457 -0.032279297 18.40625 -0.03125 z M 32.53125 4.5 L 33.03125 4.6875 C 33.35625 4.7895 33.82425 4.9735 34.40625 5.1875 C 34.98925 5.4125 35.68375 5.7155 36.46875 6.0625 C 37.24775 6.4295 38.086 6.867 39 7.375 C 39.905 7.899 40.87675 8.53675 41.84375 9.21875 C 42.80775 9.90675 43.7355 10.7085 44.6875 11.5625 C 45.1575 11.9935 45.65275 12.43825 46.09375 12.90625 C 46.58775 13.42625 46.94725 13.88725 47.40625 14.40625 C 48.27025 15.42725 49.07825 16.5285 49.78125 17.6875 C 50.50425 18.8345 51.1395 20.031 51.6875 21.25 C 51.9575 21.859 52.1985 22.47075 52.4375 23.09375 C 52.6665 23.68675 52.8845 24.3275 53.0625 24.9375 C 53.4125 26.1665 53.70525 27.36325 53.90625 28.53125 C 54.08725 29.69925 54.21125 30.83 54.28125 31.875 C 54.31558 32.497148 54.336114 33.087346 54.34375 33.65625 L 50.0625 33.0625 C 48.8495 32.8925 47.9165 34.143 48.4375 35.25 L 52.0625 42.90625 C 52.5235 43.88525 53.8165 44.0965 54.5625 43.3125 L 60.5625 37 C 61.4275 36.091 60.89925 34.57925 59.65625 34.40625 L 55.6875 33.84375 C 55.805388 33.241895 55.927671 32.597121 56 31.90625 C 56.251 29.69725 56.218 27.04425 55.625 24.28125 C 55.476 23.58625 55.30975 22.9055 55.09375 22.1875 C 54.89475 21.4985 54.62975 20.814 54.34375 20.125 C 53.79875 18.739 53.1055 17.38175 52.3125 16.09375 C 51.4965 14.81875 50.58175 13.611 49.59375 12.5 C 49.11775 11.962 48.5625 11.3815 48.0625 10.9375 C 47.5155 10.4365 46.96225 9.97025 46.40625 9.53125 C 45.30725 8.64625 44.15725 7.9305 43.03125 7.3125 C 41.90825 6.6855 40.76475 6.22575 39.71875 5.84375 C 37.62275 5.08175 35.80325 4.756 34.53125 4.625 C 33.89025 4.554 33.4005 4.53925 33.0625 4.53125 C 32.7215 4.52425 32.53125 4.5 32.53125 4.5 z M 27.59375 15.53125 C 25.87975 15.57625 24.17475 15.981 22.71875 16.625 C 21.26075 17.275 20.04225 18.15525 19.15625 19.03125 C 18.93325 19.24825 18.72125 19.4755 18.53125 19.6875 C 18.36025 19.9045 18.2145 20.1195 18.0625 20.3125 C 17.7565 20.7065 17.51875 21.067 17.34375 21.375 C 16.99475 21.997 16.875 22.40625 16.875 22.40625 C 16.875 22.40625 17.19925 22.16525 17.78125 21.78125 C 18.06625 21.59225 18.4195 21.39725 18.8125 21.15625 C 19.0185 21.04125 19.23875 20.91025 19.46875 20.78125 C 19.69175 20.66925 19.9435 20.5605 20.1875 20.4375 C 21.1825 19.9455 22.349 19.476 23.625 19.125 C 24.903 18.784 26.2965 18.56125 27.6875 18.53125 C 28.3655 18.49725 29.071 18.53475 29.75 18.59375 C 30.399 18.65575 31.111 18.736 31.75 18.875 C 33.045 19.141 34.26025 19.53675 35.28125 19.96875 C 36.30625 20.39075 37.152 20.8525 37.75 21.1875 C 38.357 21.5335 38.6875 21.71875 38.6875 21.71875 C 38.6875 21.71875 38.54425 21.347 38.15625 20.75 C 37.77525 20.149 37.1275 19.325 36.1875 18.5 C 35.2525 17.676 33.997 16.8665 32.5 16.3125 C 31.747 16.0305 30.95875 15.8225 30.09375 15.6875 C 29.25975 15.5445 28.46575 15.51025 27.59375 15.53125 z M 14.3125 27.25 C 14.3125 27.25 14.09225 27.5615 13.78125 28.1875 C 13.47025 28.8115 13.098 29.76575 12.875 30.96875 C 12.655 32.16775 12.598 33.61725 12.875 35.15625 C 12.939 35.54625 13.009 35.93575 13.125 36.34375 C 13.225 36.72275 13.37725 37.116 13.53125 37.5 C 13.81925 38.273 14.188 39.00375 14.625 39.71875 C 15.076 40.42575 15.59125 41.11975 16.15625 41.71875 C 16.41925 42.00375 16.77025 42.3415 17.03125 42.5625 C 17.34325 42.8385 17.64875 43.0835 17.96875 43.3125 C 19.22675 44.2375 20.54475 44.82025 21.71875 45.15625 C 22.89975 45.48325 23.925 45.5705 24.625 45.5625 C 25.33 45.5585 25.71875 45.5 25.71875 45.5 C 25.71875 45.5 25.357 45.317 24.75 45 C 24.158 44.684 23.3305 44.21275 22.4375 43.59375 C 21.5445 42.97575 20.57025 42.20225 19.65625 41.28125 C 19.43525 41.04725 19.227 40.8025 19 40.5625 C 18.735 40.2725 18.57675 40.0885 18.34375 39.8125 C 17.92875 39.2835 17.5405 38.73825 17.1875 38.15625 C 16.8215 37.58225 16.4785 36.94975 16.1875 36.34375 C 16.0465 36.04075 15.91225 35.7535 15.78125 35.4375 C 15.66025 35.1515 15.5465 34.83125 15.4375 34.53125 C 15.0145 33.30625 14.75475 32.076 14.59375 31 C 14.51475 30.472 14.4745 29.97825 14.4375 29.53125 C 14.4095 29.07125 14.36375 28.6435 14.34375 28.3125 C 14.32475 27.6285 14.3125 27.25 14.3125 27.25 z M 41.875 27.5 C 41.875 27.5 41.8505 27.87925 41.8125 28.53125 C 41.7695 29.17325 41.70625 30.07075 41.53125 31.09375 C 41.48825 31.34975 41.46425 31.604 41.40625 31.875 C 41.34625 32.15 41.28275 32.42675 41.21875 32.71875 C 41.07975 33.27475 40.92075 33.8385 40.71875 34.4375 C 40.52575 35.0235 40.255 35.6025 40 36.1875 C 39.718 36.7615 39.44175 37.36025 39.09375 37.90625 C 38.44175 39.02525 37.67575 40.05675 36.84375 40.96875 C 36.41075 41.42875 36.0185 41.81075 35.5625 42.21875 C 35.1485 42.60075 34.7185 42.96725 34.3125 43.28125 C 33.4985 43.92325 32.7305 44.43825 32.1875 44.78125 C 31.6335 45.12825 31.3125 45.3125 31.3125 45.3125 C 31.3125 45.3125 31.708 45.37175 32.375 45.34375 C 33.041 45.31975 33.98375 45.20475 35.09375 44.84375 C 35.64975 44.65875 36.23475 44.41875 36.84375 44.09375 C 37.41075 43.79675 38.053 43.3855 38.625 42.9375 C 39.204 42.4745 39.77325 41.94175 40.28125 41.34375 C 40.80825 40.76275 41.2725 40.1195 41.6875 39.4375 C 42.5065 38.0635 43.04225 36.5285 43.28125 35.0625 C 43.40525 34.3445 43.4435 33.58525 43.4375 32.90625 C 43.4185 32.57425 43.43825 32.34675 43.40625 31.96875 C 43.37125 31.65475 43.33525 31.3485 43.28125 31.0625 C 43.06825 29.9145 42.70125 29.00225 42.40625 28.40625 C 42.11325 27.80625 41.875 27.5 41.875 27.5 z M 4.625 45.3125 C 3.9585234 45.292156 3.37625 45.8555 3.4375 46.5625 L 4.15625 55 C 4.23625 55.937 5.3485 56.39325 6.0625 55.78125 L 10.21875 52.1875 C 10.407254 52.388616 10.595655 52.601274 10.8125 52.8125 C 11.4615 53.4565 12.207 54.1435 13.125 54.8125 C 14.027 55.5045 15.085 56.2055 16.25 56.8125 C 17.402 57.4435 18.66225 57.9905 20.03125 58.4375 C 21.40425 58.8955 22.837 59.286 24.375 59.5 C 25.882 59.732 27.3775 59.82825 28.9375 59.78125 C 30.4795 59.71125 32.04425 59.53475 33.53125 59.21875 C 35.02225 58.91775 36.44025 58.42725 37.78125 57.90625 C 40.45325 56.81525 42.7205 55.33175 44.4375 53.84375 C 44.8725 53.48075 45.27925 53.104 45.65625 52.75 C 46.00625 52.379 46.34425 52.0185 46.65625 51.6875 C 47.27325 51.0115 47.743 50.37275 48.125 49.84375 C 48.884 48.77975 49.21875 48.125 49.21875 48.125 C 49.21875 48.125 48.6715 48.6205 47.6875 49.4375 C 47.1965 49.8465 46.58 50.32075 45.875 50.84375 C 45.51 51.09575 45.12875 51.37425 44.71875 51.65625 C 44.29875 51.90625 43.9035 52.20375 43.4375 52.46875 C 42.5245 53.02175 41.49125 53.5345 40.40625 54.0625 C 39.30525 54.5625 38.111 55.0195 36.875 55.4375 C 35.63 55.8395 34.30675 56.116 32.96875 56.375 C 31.62775 56.627 30.258 56.75125 28.875 56.78125 C 27.509 56.84025 26.06775 56.74275 24.71875 56.59375 C 23.39875 56.43675 22.03525 56.24525 20.78125 55.90625 C 19.52125 55.56725 18.3085 55.23325 17.1875 54.78125 C 16.0655 54.33725 15.0075 53.868 14.0625 53.375 C 13.1145 52.882 12.27525 52.37525 11.53125 51.90625 C 11.323496 51.770672 11.192772 51.658585 11 51.53125 L 13.21875 49.625 C 13.91475 49.028 13.66225 47.91225 12.78125 47.65625 L 4.90625 45.34375 C 4.809 45.3155 4.7202109 45.315406 4.625 45.3125 z " fill="#000000" fill-rule="evenodd"/></svg>