<svg xmlns="http://www.w3.org/2000/svg" xmlns:xlink="http://www.w3.org/1999/xlink" version="1.1" viewBox="0 0 96 120" x="0px" y="0px"><path d="M42.004 88h-40c-1.104 0-2-0.9-2-2v-76c0-1.104 0.896-2 2-2h40c1.104 0 2 0.896 2 2v76c0 1.1-0.896 2-2 2zM4.004 84h36v-72h-36v72z" fill="#000000"/><path d="M34.004 60h-24c-1.104 0-2-0.9-2-2v-40c0-1.104 0.896-2 2-2h24c1.104 0 2 0.896 2 2v40c0 1.1-0.896 2-2 2zM12.004 56h20v-36h-20v36z" fill="#000000"/><path d="M20.004 80.752c-4.412 0-8-3.588-8-8 0-4.416 3.588-8 8-8s8 3.584 8 8c0 4.408-3.588 8-8 8zM20.004 68.752c-2.204 0-4 1.788-4 4 0 2.204 1.796 4 4 4s4-1.796 4-4c0-2.212-1.796-4-4-4z" fill="#000000"/><path d="M68.336 49.668c-0.484 0-0.976-0.176-1.36-0.536-0.812-0.752-0.856-2.016-0.108-2.824l4.076-4.392-4.076-4.392c-0.752-0.808-0.704-2.076 0.108-2.82 0.808-0.756 2.072-0.708 2.828 0.1l5.336 5.752c0.712 0.768 0.712 1.952 0 2.72l-5.336 5.752c-0.388 0.424-0.928 0.64-1.468 0.64z" fill="#000000"/><path d="M72.008 44h-20c-1.104 0-2-0.896-2-2s0.896-2 2-2h20c1.1 0 2 0.896 2 2s-0.9 2-2 2z" fill="#000000"/><path d="M57.336 61.668c-0.532 0-1.072-0.216-1.468-0.64l-5.328-5.752c-0.712-0.76-0.712-1.948 0-2.72l5.328-5.752c0.752-0.812 2.016-0.86 2.828-0.1 0.812 0.748 0.86 2.012 0.108 2.82l-4.072 4.392 4.072 4.396c0.752 0.808 0.704 2.076-0.108 2.824-0.384 0.356-0.868 0.532-1.36 0.532z" fill="#000000"/><path d="M72.008 56h-20c-1.104 0-2-0.9-2-2s0.896-2 2-2h20c1.1 0 2 0.9 2 2s-0.9 2-2 2z" fill="#000000"/><path d="M77.992 80h-25.984c-1.104 0-2-0.9-2-2s0.896-2 2-2h25.984c7.72 0 14-6.272 14-13.98 0-5.028-2.656-9.552-7.096-12.092-0.668-0.38-1.060-1.108-1.004-1.872 0.064-0.912 0.1-1.46 0.1-2.020 0-16.54-13.452-30-29.992-30-0.632 0-1.252 0.020-1.876 0.056-1.124 0.072-2.052-0.776-2.116-1.88-0.068-1.1 0.776-2.048 1.876-2.112 0.7-0.044 1.408-0.068 2.116-0.068 18.748 0 33.992 15.252 33.992 34 0 0.364-0.008 0.728-0.032 1.088 4.984 3.332 8.032 8.924 8.032 14.896 0 9.912-8.076 17.984-18 17.984z" fill="#000000"/></svg>