<svg xmlns="http://www.w3.org/2000/svg" xmlns:xlink="http://www.w3.org/1999/xlink" version="1.1" x="0px" y="0px" viewBox="0 0 64 80" style="enable-background:new 0 0 64 64;" xml:space="preserve"><g><path d="M46,35c-6.065,0-11,4.935-11,11s4.935,11,11,11c2.878,0,5.599-1.104,7.663-3.107l-1.394-1.436   C50.581,54.097,48.354,55,46,55c-4.962,0-9-4.037-9-9s4.038-9,9-9s9,4.037,9,9c0,1.774-0.516,3.491-1.491,4.963l1.667,1.105   C56.37,50.267,57,48.169,57,46C57,39.935,52.065,35,46,35z"/><path d="M46,39c-3.86,0-7,3.141-7,7s3.14,7,7,7s7-3.141,7-7S49.86,39,46,39z M46,51c-2.757,0-5-2.243-5-5s2.243-5,5-5s5,2.243,5,5   S48.757,51,46,51z"/><path d="M63,51V41h-2.861c-0.177-0.503-0.378-0.993-0.603-1.466l2.02-2.02l-7.071-7.071l-2.02,2.021   c-0.473-0.225-0.962-0.427-1.465-0.603V29h-3v-8h-1h-6H19v-7.376c0.174-0.201,0.335-0.415,0.467-0.651   c2.071,0.209,3.931-0.648,5.171-2.17C25.085,10.934,25.541,11,26,11c2.757,0,5-2.243,5-5s-2.243-5-5-5   c-1.065,0-2.049,0.341-2.861,0.911c-1.902-1.162-4.375-1.162-6.277,0C16.049,1.341,15.065,1,14,1c-2.757,0-5,2.243-5,5   c0,0.49,0.079,0.973,0.218,1.438C7.909,8.096,7,9.437,7,11c0,0.732,0.212,1.409,0.556,2H7v8H1v10h2v32h38h2h8v-2.861   c0.503-0.176,0.993-0.378,1.465-0.603l2.02,2.021l7.071-7.071l-2.02-2.02c0.225-0.473,0.426-0.963,0.603-1.466H63z M9,11   c0-1.103,0.897-2,2-2c0.494,0,0.969,0.182,1.335,0.512l1.337-1.488c-0.684-0.615-1.556-0.959-2.471-1.005   C11.083,6.692,11,6.352,11,6c0-1.654,1.346-3,3-3s3,1.346,3,3h2c0-0.951-0.281-1.831-0.744-2.588c1.092-0.52,2.395-0.519,3.487,0   C21.281,4.169,21,5.049,21,6h2c0-1.654,1.346-3,3-3s3,1.346,3,3s-1.346,3-3,3c-0.435,0-0.87-0.104-1.294-0.308l-0.817-0.395   l-0.471,0.775C22.684,10.279,21.406,11,20,11c-0.279,0-0.577-0.038-0.912-0.116l-0.916-0.214l-0.27,0.9   C17.646,12.426,16.881,13,16,13h-5C9.897,13,9,12.103,9,11z M9,15h8v6H9V15z M3,23h38h5v6h-5H3V23z M41,31v0.861   c-0.503,0.176-0.993,0.378-1.465,0.603L38.071,31H41z M5,31h31.958l-5,5H7v7h2v18H5V31z M32.463,39.534   c-0.225,0.473-0.426,0.963-0.603,1.466H29H9v-3h21.929L32.463,39.534z M29,47v2H11v-2h2v-2h-2v-2h18v2H15v2H29z M34.958,59l2,2H11   v-2h18v-2H11v-2h19.958l2,2H31v2H34.958z M31.929,53H11v-2h18h2h0.861c0.177,0.503,0.378,0.993,0.603,1.466L31.929,53z M38.071,61   l1.464-1.464c0.473,0.225,0.962,0.427,1.465,0.603V61H38.071z M58.728,54.485l-4.243,4.243l-1.646-1.646l-0.656,0.355   c-0.767,0.415-1.597,0.758-2.468,1.016L49,58.666V61h-6v-2.334l-0.715-0.213c-0.871-0.258-1.701-0.601-2.468-1.016l-0.656-0.355   l-1.646,1.646l-4.243-4.243l1.646-1.646l-0.355-0.656c-0.415-0.766-0.757-1.597-1.017-2.469L33.333,49H31v-2v-2v-2h2h0.333   l0.213-0.715c0.26-0.872,0.602-1.703,1.017-2.469l0.355-0.656l-1.646-1.646l4.243-4.243l1.646,1.646l0.656-0.355   c0.767-0.415,1.597-0.758,2.468-1.016L43,33.334V31h5h1v2.334l0.715,0.213c0.871,0.258,1.701,0.601,2.468,1.016l0.656,0.355   l1.646-1.646l4.243,4.243l-1.646,1.646l0.355,0.656c0.415,0.766,0.757,1.597,1.017,2.469L58.667,43H61v6h-2.333l-0.213,0.715   c-0.26,0.872-0.602,1.703-1.017,2.469l-0.355,0.656L58.728,54.485z"/></g></svg>