<svg xmlns="http://www.w3.org/2000/svg" xmlns:xlink="http://www.w3.org/1999/xlink" version="1.1" x="0px" y="0px" viewBox="0 0 64 80" enable-background="new 0 0 64 64" xml:space="preserve"><g><g><path d="M22,8c0.26,0,0.52-0.11,0.71-0.29C22.89,7.52,23,7.26,23,7c0-0.26-0.11-0.52-0.29-0.71c-0.38-0.37-1.05-0.37-1.42,0    C21.11,6.48,21,6.74,21,7c0,0.26,0.11,0.52,0.29,0.71C21.48,7.89,21.74,8,22,8z"/><path d="M36,57h-8c-0.552,0-1,0.448-1,1s0.448,1,1,1h8c0.552,0,1-0.448,1-1S36.552,57,36,57z"/><circle cx="26" cy="6" r="2"/><path d="M56,32h-7V6c0-2.757-2.243-5-5-5H20c-2.757,0-5,2.243-5,5v8H7c-2.757,0-5,2.243-5,5v8c0,2.415,1.721,4.435,4,4.899V39    c0,0.466,0.322,0.87,0.776,0.975C6.851,39.992,6.926,40,7,40c0.376,0,0.729-0.213,0.899-0.563L11.515,32H15v26    c0,2.757,2.243,5,5,5h24c2.757,0,5-2.243,5-5v-8h2.485l3.615,7.437C55.271,57.787,55.624,58,56,58c0.075,0,0.15-0.008,0.225-0.025    C56.678,57.87,57,57.466,57,57v-7.101c2.279-0.464,4-2.485,4-4.899v-8C61,34.243,58.757,32,56,32z M20,3h24c1.654,0,3,1.346,3,3v3    H17V6C17,4.346,18.346,3,20,3z M10.889,30c-0.383,0-0.732,0.219-0.899,0.563L8,34.655V31c0-0.552-0.448-1-1-1    c-1.654,0-3-1.346-3-3v-8c0-1.654,1.346-3,3-3h16c1.654,0,3,1.346,3,3v8c0,1.654-1.346,3-3,3H10.889z M44,61H20    c-1.654,0-3-1.346-3-3v-3h30v3C47,59.654,45.654,61,44,61z M47,53H17V32h6c2.757,0,5-2.243,5-5v-8c0-2.757-2.243-5-5-5h-6v-3h30    v21h-7c-2.757,0-5,2.243-5,5v8c0,2.757,2.243,5,5,5h7V53z M59,45c0,1.654-1.346,3-3,3c-0.552,0-1,0.448-1,1v3.655l-1.989-4.092    C52.843,48.219,52.494,48,52.111,48H40c-1.654,0-3-1.346-3-3v-8c0-1.654,1.346-3,3-3h16c1.654,0,3,1.346,3,3V45z"/><path d="M55,42H40c-0.552,0-1,0.448-1,1s0.448,1,1,1h15c0.552,0,1-0.448,1-1S55.552,42,55,42z"/><path d="M55,37H40c-0.552,0-1,0.448-1,1s0.448,1,1,1h15c0.552,0,1-0.448,1-1S55.552,37,55,37z"/><path d="M24,25c0-0.552-0.448-1-1-1H8c-0.552,0-1,0.448-1,1s0.448,1,1,1h15C23.552,26,24,25.552,24,25z"/><path d="M8,21h15c0.552,0,1-0.448,1-1s-0.448-1-1-1H8c-0.552,0-1,0.448-1,1S7.448,21,8,21z"/></g></g></svg>