<svg xmlns="http://www.w3.org/2000/svg" xmlns:xlink="http://www.w3.org/1999/xlink" version="1.1" x="0px" y="0px" viewBox="0 0 512 640" style="enable-background:new 0 0 512 512;" xml:space="preserve"><g><g><g><g><path d="M357.078,454.714H142.1c-12.124,0-21.987-9.851-21.987-21.959v-18.002c0-1.657,1.343-3,3-3s3,1.343,3,3v18.002      c0,8.8,7.172,15.959,15.987,15.959h214.979c8.816,0,15.988-7.159,15.988-15.959v-70.144h-67.001c-1.657,0-3-1.343-3-3v-64.278      c0-1.657,1.343-3,3-3s3,1.343,3,3v61.278h67.001c1.657,0,3,1.343,3,3v73.144C379.066,444.863,369.202,454.714,357.078,454.714z       M123.112,367.753c-1.657,0-3-1.343-3-3v-143.28c0-1.657,1.343-3,3-3h98.444v-73.128h-98.444c-1.657,0-3-1.343-3-3V67.642      c0-1.657,1.343-3,3-3s3,1.343,3,3v71.703h98.444c1.657,0,3,1.343,3,3v79.128c0,1.657-1.343,3-3,3h-98.444v140.28      C126.112,366.41,124.769,367.753,123.112,367.753z M376.066,282.721h-35.613c-1.657,0-3-1.343-3-3s1.343-3,3-3h32.613V60.103      c0-8.798-7.172-15.956-15.988-15.956H142.1c-1.657,0-3-1.343-3-3s1.343-3,3-3h214.979c12.124,0,21.988,9.85,21.988,21.956      v219.618C379.066,281.378,377.724,282.721,376.066,282.721z"/></g><g><path d="M376.066,102.545H160.277c-1.657,0-3-1.343-3-3s1.343-3,3-3h212.789V60.103c0-8.798-7.172-15.956-15.988-15.956H142.1      c-8.815,0-15.987,7.158-15.987,15.956V86.71c0,1.657-1.343,3-3,3s-3-1.343-3-3V60.103c0-12.106,9.863-21.956,21.987-21.956      h214.979c12.124,0,21.988,9.85,21.988,21.956v39.442C379.066,101.202,377.724,102.545,376.066,102.545z"/></g><g><path d="M357.078,454.714H142.1c-12.124,0-21.987-9.851-21.987-21.959v-53.972c0-1.657,1.343-3,3-3h117.481c1.657,0,3,1.343,3,3      s-1.343,3-3,3H126.112v50.972c0,8.8,7.172,15.959,15.987,15.959h214.979c8.816,0,15.988-7.159,15.988-15.959v-50.972h-82.473      c-1.657,0-3-1.343-3-3s1.343-3,3-3h85.473c1.657,0,3,1.343,3,3v53.972C379.066,444.863,369.202,454.714,357.078,454.714z"/></g><g><path d="M249.589,432.093c-9.346,0-16.95-7.604-16.95-16.952c0-9.363,7.604-16.981,16.95-16.981      c9.347,0,16.951,7.618,16.951,16.981C266.54,424.488,258.936,432.093,249.589,432.093z M249.589,404.159      c-6.038,0-10.95,4.926-10.95,10.981c0,6.039,4.912,10.952,10.95,10.952c6.039,0,10.951-4.913,10.951-10.952      C260.54,409.085,255.627,404.159,249.589,404.159z"/></g><g><path d="M268.7,70.369h-38.221c-1.657,0-3-1.343-3-3s1.343-3,3-3H268.7c1.657,0,3,1.343,3,3S270.357,70.369,268.7,70.369z"/></g><g><path d="M354.666,472.847H116.184c-1.657,0-3-1.343-3-3s1.343-3,3-3h238.482c1.657,0,3,1.343,3,3      S356.323,472.847,354.666,472.847z"/></g><g><path d="M428.299,488.996H244.705c-1.657,0-3-1.343-3-3s1.343-3,3-3h183.594c1.657,0,3,1.343,3,3      S429.956,488.996,428.299,488.996z"/></g><g><path d="M470.061,488.996h-22.956c-1.657,0-3-1.343-3-3s1.343-3,3-3h22.956c1.657,0,3,1.343,3,3      S471.718,488.996,470.061,488.996z"/></g><g><path d="M165.913,488.508H78.909c-1.657,0-3-1.343-3-3s1.343-3,3-3h87.004c1.657,0,3,1.343,3,3S167.57,488.508,165.913,488.508z      "/></g><g><path d="M393.649,105.568c-1.657,0-3-1.343-3-3V44.961c0-8.649-7.322-15.957-15.989-15.957h-79.981c-1.657,0-3-1.343-3-3      s1.343-3,3-3h79.981c12.125,0,21.989,9.85,21.989,21.957v57.607C396.649,104.225,395.307,105.568,393.649,105.568z"/></g><g><path d="M224.557,224.473H70.696c-1.657,0-3-1.343-3-3v-79.128c0-1.657,1.343-3,3-3h153.86c1.657,0,3,1.343,3,3v79.128      C227.557,223.129,226.213,224.473,224.557,224.473z M73.696,218.473h147.86v-73.128H73.696V218.473z"/></g><g><path d="M134.439,166.623H90.479c-1.657,0-3-1.343-3-3s1.343-3,3-3h43.961c1.657,0,3,1.343,3,3S136.096,166.623,134.439,166.623      z"/></g><g><path d="M182.794,184.909H90.479c-1.657,0-3-1.343-3-3s1.343-3,3-3h92.315c1.657,0,3,1.343,3,3S184.451,184.909,182.794,184.909      z"/></g><g><path d="M182.794,200.324H90.479c-1.657,0-3-1.343-3-3s1.343-3,3-3h92.315c1.657,0,3,1.343,3,3S184.451,200.324,182.794,200.324      z"/></g><g><path d="M104.949,247.217h-63.01c-1.657,0-3-1.343-3-3s1.343-3,3-3h63.01c1.657,0,3,1.343,3,3S106.606,247.217,104.949,247.217z      "/></g><g><path d="M104.949,265.532h-63.01c-1.657,0-3-1.343-3-3s1.343-3,3-3h63.01c1.657,0,3,1.343,3,3S106.606,265.532,104.949,265.532z      "/></g><g><path d="M104.949,283.85h-63.01c-1.657,0-3-1.343-3-3s1.343-3,3-3h63.01c1.657,0,3,1.343,3,3S106.606,283.85,104.949,283.85z"/></g><g><path d="M104.949,302.166h-63.01c-1.657,0-3-1.343-3-3s1.343-3,3-3h63.01c1.657,0,3,1.343,3,3S106.606,302.166,104.949,302.166z      "/></g><g><path d="M104.949,320.482h-63.01c-1.657,0-3-1.343-3-3s1.343-3,3-3h63.01c1.657,0,3,1.343,3,3S106.606,320.482,104.949,320.482z      "/></g><g><path d="M104.949,338.799h-63.01c-1.657,0-3-1.343-3-3s1.343-3,3-3h63.01c1.657,0,3,1.343,3,3S106.606,338.799,104.949,338.799z      "/></g><g><path d="M355.154,224.839h-68.139c-1.657,0-3-1.343-3-3v-79.859c0-1.657,1.343-3,3-3h68.139c1.657,0,3,1.343,3,3v79.859      C358.154,223.496,356.812,224.839,355.154,224.839z M290.016,218.839h62.139v-73.859h-62.139V218.839z"/></g><g><path d="M390.707,362.611c-0.005,0.001-0.013,0.001-0.02,0h-84.622c-1.657,0-3-1.343-3-3v-79.891c0-1.657,1.343-3,3-3h95.614      c1.657,0,3,1.343,3,3v52.568c0,0.973-0.472,1.886-1.266,2.448c-0.795,0.562-1.813,0.705-2.73,0.382l-17.25-6.069l9.984,29.274      c0.186,0.391,0.289,0.827,0.289,1.287C393.707,361.269,392.364,362.611,390.707,362.611z M309.065,356.611h77.43l-10.735-31.474      c-0.37-1.088-0.088-2.292,0.729-3.101c0.817-0.809,2.022-1.078,3.107-0.698l19.084,6.715v-45.333h-89.614V356.611z"/></g><g><path d="M400,389.934c-0.232,0-0.467-0.027-0.697-0.082c-1.002-0.239-1.81-0.976-2.143-1.95l-21.4-62.765      c-0.37-1.087-0.088-2.291,0.729-3.1s2.023-1.078,3.107-0.698l63.01,22.193c0.979,0.345,1.709,1.171,1.933,2.184      c0.224,1.014-0.093,2.07-0.835,2.794l-41.609,40.572C401.527,389.634,400.773,389.934,400,389.934z M383.435,329.053      l17.872,52.417l34.749-33.883L383.435,329.053z"/></g><g><path d="M438.678,384.195c-0.666,0-1.337-0.221-1.894-0.675l-17.859-14.563c-1.284-1.047-1.477-2.937-0.43-4.221      c1.046-1.284,2.937-1.478,4.221-0.43l17.859,14.563c1.284,1.047,1.477,2.937,0.43,4.221      C440.412,383.818,439.549,384.195,438.678,384.195z"/></g><g><path d="M265.434,357.055h-99.643c-12.159,0-22.051-9.891-22.051-22.049V264.67c0-12.158,9.892-22.05,22.051-22.05h99.643      c12.158,0,22.049,9.892,22.049,22.05v70.336C287.482,347.164,277.592,357.055,265.434,357.055z M165.791,248.62      c-8.851,0-16.051,7.2-16.051,16.05v70.336c0,8.85,7.2,16.049,16.051,16.049h99.643c8.85,0,16.049-7.199,16.049-16.049V264.67      c0-8.85-7.199-16.05-16.049-16.05H165.791z"/></g></g></g></g></svg>