<svg xmlns="http://www.w3.org/2000/svg" xmlns:xlink="http://www.w3.org/1999/xlink" version="1.1" x="0px" y="0px" viewBox="0 0 66 82.5" enable-background="new 0 0 66 66" xml:space="preserve"><g><g><circle cx="30.159" cy="58.37" r="1.546"/></g><g><path d="M36.5,6.886H23.816c-0.414,0-0.75,0.336-0.75,0.75c0,0.414,0.336,0.75,0.75,0.75H36.5c0.414,0,0.75-0.336,0.75-0.75    C37.25,7.222,36.914,6.886,36.5,6.886z"/></g><g><path d="M13.079,31.898H13.03v-3.116c0.851,0.122,1.641,0.443,2.37,0.962l1.078-1.525c-1.083-0.74-2.232-1.155-3.448-1.243v-0.845    h-1.061v0.829c-1.072,0.055-1.942,0.387-2.61,0.995c-0.669,0.608-1.003,1.389-1.003,2.345c0,0.956,0.29,1.677,0.87,2.163    c0.58,0.486,1.494,0.878,2.743,1.177v3.215c-0.983-0.154-1.939-0.635-2.867-1.441l-1.21,1.441c1.205,1.05,2.564,1.652,4.077,1.807    v1.21h1.061v-1.194c1.127-0.055,2.033-0.387,2.718-0.995c0.685-0.608,1.027-1.394,1.027-2.362c0-0.966-0.298-1.704-0.895-2.213    C15.284,32.6,14.35,32.197,13.079,31.898z M11.969,31.6c-0.619-0.199-1.039-0.406-1.259-0.622    c-0.221-0.215-0.331-0.508-0.331-0.878c0-0.37,0.141-0.679,0.422-0.928c0.282-0.249,0.671-0.395,1.168-0.44V31.6z M14.29,36.44    c-0.31,0.254-0.729,0.41-1.26,0.464v-2.983c0.663,0.199,1.116,0.412,1.359,0.638c0.243,0.227,0.365,0.533,0.365,0.92    C14.754,35.865,14.599,36.186,14.29,36.44z"/></g><g><path d="M64.952,22.34c-0.023-0.07-0.051-0.137-0.094-0.197c-0.008-0.011-0.009-0.025-0.017-0.036    c-0.016-0.02-0.041-0.029-0.059-0.047c-0.046-0.047-0.095-0.088-0.153-0.123c-0.039-0.023-0.077-0.04-0.119-0.055    c-0.028-0.01-0.05-0.03-0.08-0.037c-0.034-0.008-0.067-0.001-0.101-0.004c-0.026-0.003-0.049-0.017-0.076-0.017H48.735v-1.851    c0.053,0.012,0.102,0.032,0.158,0.032c0.414,0,0.75-0.336,0.75-0.75V12.67c0-0.414-0.336-0.75-0.75-0.75    c-0.056,0-0.105,0.02-0.158,0.032V7.545c0-2.311-1.879-4.189-4.189-4.189h-28.77c-1.734,0-3.224,1.058-3.861,2.563    c-0.213,0.502-0.331,1.053-0.331,1.631c0,0.562,0.002,3.914,0.002,4.476c-0.109-0.061-0.228-0.106-0.361-0.106    c-0.414,0-0.75,0.336-0.75,0.75v3.612c0,0.414,0.336,0.75,0.75,0.75c0.134,0,0.253-0.044,0.361-0.106v4.781    C5.687,22.096,1.003,27.006,1.003,33.001c0,5.995,4.684,10.904,10.583,11.292c0,7.259-0.002,12.685-0.002,14.162    c0,2.31,1.879,4.188,4.189,4.188h28.773c2.021,0,3.713-1.44,4.103-3.349c0.141-0.684,0.086-0.416,0.086-11.805h2.491    c0.423,1.483,1.775,2.579,3.392,2.579c1.617,0,2.97-1.096,3.393-2.579h1.262c0.414,0,0.75-0.336,0.75-0.75    c0-0.414-0.336-0.75-0.75-0.75h-1.166c-0.261-1.697-1.719-3.005-3.488-3.005c-1.769,0-3.226,1.308-3.488,3.005h-7.313    c-0.261-1.697-1.719-3.005-3.488-3.005c-1.769,0-3.227,1.308-3.488,3.005h-2.694l2.265-5.701h23.88c0.349,0,0.651-0.24,0.73-0.579    l3.961-16.967c0.003-0.013-0.002-0.025,0-0.038c0.017-0.095,0.019-0.188,0.001-0.278C64.978,22.397,64.962,22.37,64.952,22.34z     M54.618,44.486c1.126,0,2.042,0.916,2.042,2.042c0,1.126-0.916,2.042-2.042,2.042C51.921,48.57,51.919,44.486,54.618,44.486z     M13.086,7.545c0-0.37,0.075-0.722,0.211-1.043c0.409-0.963,1.365-1.64,2.475-1.64h28.773c1.482,0,2.688,1.206,2.688,2.688v2.859    H13.086V7.545z M12.333,42.832c-5.42,0-9.831-4.41-9.831-9.83c0-5.421,4.41-9.831,9.831-9.831c5.421,0,9.831,4.41,9.831,9.831    C22.164,38.421,17.754,42.832,12.333,42.832z M47.233,58.456c0,0.184-0.019,0.364-0.054,0.538    c-0.253,1.222-1.337,2.144-2.633,2.144h-28.77c-1.483,0-2.689-1.206-2.689-2.688v-2.852h34.147V58.456z M40.329,44.486    c1.126,0,2.042,0.916,2.042,2.042c0,1.126-0.916,2.042-2.042,2.042c-1.126,0-2.042-0.916-2.042-2.042    C38.287,45.402,39.203,44.486,40.329,44.486z M36.484,38.79l-1.766-6.983h5.413l0.844,6.983H36.484z M34.339,30.306l-1.766-6.983    h6.533l0.844,6.983H34.339z M47.181,38.79h-4.694l-0.844-6.983h5.539V38.79z M47.181,30.306h-5.72l-0.844-6.983h6.564V30.306z     M47.235,21.823H32.12l-0.878-3.415c-0.086-0.332-0.384-0.563-0.727-0.563h-1.929c-0.414,0-0.75,0.336-0.75,0.75    c0,0.414,0.336,0.75,0.75,0.75h1.347l5.18,20.151l-2.768,6.968c-0.092,0.231-0.063,0.493,0.076,0.698    c0.14,0.206,0.372,0.329,0.621,0.329h3.895c0.423,1.483,1.775,2.579,3.392,2.579c1.617,0,2.97-1.096,3.393-2.579h3.513v6.606    H13.086v-9.804c5.897-0.39,10.579-5.299,10.579-11.292c0-5.994-4.682-10.903-10.579-11.293V11.91h34.149V21.823z M53.376,38.79    h-4.695v-6.983h5.539L53.376,38.79z M48.681,30.306v-6.983h6.565l-0.844,6.983H48.681z M59.56,38.79h-4.673l0.844-6.983h5.518    L59.56,38.79z M61.611,30.306h-5.699l0.844-6.983H63.3L61.611,30.306z"/></g></g></svg>