<svg xmlns="http://www.w3.org/2000/svg" xmlns:xlink="http://www.w3.org/1999/xlink" version="1.1" x="0px" y="0px" viewBox="-370 248.3 100 125" style="enable-background:new -370 248.3 100 100;" xml:space="preserve"><g><path d="M-300.5,342.2h-33c-4.1,0-7.5-3.4-7.5-7.5v-72.9c0-4.1,3.4-7.5,7.5-7.5h33c4.1,0,7.5,3.4,7.5,7.5v72.9   C-293,338.9-296.4,342.2-300.5,342.2z M-333.5,255.3c-3.6,0-6.5,2.9-6.5,6.5v72.9c0,3.6,2.9,6.5,6.5,6.5h33c3.6,0,6.5-2.9,6.5-6.5   v-72.9c0-3.6-2.9-6.5-6.5-6.5H-333.5z M-317,339.3c-2.6,0-4.7-2.1-4.7-4.7c0-2.6,2.1-4.7,4.7-4.7s4.7,2.1,4.7,4.7   C-312.3,337.2-314.4,339.3-317,339.3z M-317,330.9c-2,0-3.7,1.7-3.7,3.7s1.7,3.7,3.7,3.7c2,0,3.7-1.7,3.7-3.7S-315,330.9-317,330.9   z M-296.3,327.9h-41.3v-60.8h41.3V327.9z M-336.6,326.9h39.3v-58.8h-39.3V326.9z M-309.2,263.3h-15.5c-1,0-1.7-0.7-1.7-1.7   c0-1,0.7-1.7,1.7-1.7h15.5c1,0,1.7,0.7,1.7,1.7C-307.5,262.6-308.2,263.3-309.2,263.3z M-324.7,260.9c-0.4,0-0.7,0.3-0.7,0.7   s0.3,0.7,0.7,0.7h15.5c0.4,0,0.7-0.3,0.7-0.7s-0.3-0.7-0.7-0.7H-324.7z"/></g><g><path d="M-317,312.4c-8.2,0-14.9-6.7-14.9-14.9c0-8.2,6.7-14.9,14.9-14.9c8.2,0,14.9,6.7,14.9,14.9   C-302.1,305.7-308.7,312.4-317,312.4z M-317,284.5c-7.2,0-13,5.8-13,13s5.8,13,13,13c7.2,0,13-5.8,13-13S-309.8,284.5-317,284.5z"/></g><g><path d="M-316.9,281.9c8.7,0,15.7,7,15.7,15.7s-7,15.7-15.7,15.7s-15.7-7-15.7-15.7S-325.6,281.9-316.9,281.9 M-316.9,280.9   c-9.2,0-16.6,7.5-16.6,16.6c0,9.2,7.5,16.6,16.6,16.6s16.6-7.5,16.6-16.6C-300.3,288.4-307.8,280.9-316.9,280.9L-316.9,280.9z"/></g><g><path d="M-311.7,304.7c-0.8,0.5-2.1,1.1-3.8,1.1c-2,0-3.9-0.8-5.1-2.2c-1-1.1-1.6-2.5-1.8-4.3h-1.6v-1.2h1.4c0-0.1,0-0.3,0-0.4   c0-0.4,0-0.8,0-1.1h-1.5v-1.3h1.7c0.3-1.8,1.1-3.2,2.1-4.3c1.3-1.3,2.9-2.1,5-2.1c1.5,0,2.7,0.4,3.4,0.8l-0.5,1.7   c-0.6-0.4-1.7-0.7-2.8-0.7c-1.4,0-2.5,0.5-3.3,1.4c-0.8,0.7-1.3,1.9-1.5,3.2h7v1.3h-7.3c0,0.3-0.1,0.7-0.1,1.1c0,0.1,0,0.3,0,0.5   h7.3v1.2h-7.1c0.2,1.5,0.7,2.5,1.4,3.3c0.9,1,2.2,1.5,3.6,1.5c1.3,0,2.5-0.5,3.1-0.8L-311.7,304.7z"/></g></svg>