<svg xmlns="http://www.w3.org/2000/svg" xmlns:xlink="http://www.w3.org/1999/xlink" version="1.0" x="0px" y="0px" viewBox="0 0 128 130" style="enable-background:new 0 0 128 128;" xml:space="preserve"><style type="text/css">
	.st0{display:none;}
	.st1{display:inline;}
	.st2{fill:none;stroke:#000000;stroke-width:0.1;stroke-miterlimit:10;}
</style><g class="st0"><g class="st1"><rect class="st2" width="128" height="128"/><line class="st2" x1="0" y1="124" x2="128" y2="124"/><line class="st2" x1="0" y1="120" x2="128" y2="120"/><line class="st2" x1="0" y1="116" x2="128" y2="116"/><line class="st2" x1="0" y1="112" x2="128" y2="112"/><line class="st2" x1="0" y1="108" x2="128" y2="108"/><line class="st2" x1="0" y1="104" x2="128" y2="104"/><line class="st2" x1="0" y1="100" x2="128" y2="100"/><line class="st2" x1="0" y1="96" x2="128" y2="96"/><line class="st2" x1="0" y1="92" x2="128" y2="92"/><line class="st2" x1="0" y1="88" x2="128" y2="88"/><line class="st2" x1="0" y1="84" x2="128" y2="84"/><line class="st2" x1="0" y1="80" x2="128" y2="80"/><line class="st2" x1="0" y1="76" x2="128" y2="76"/><line class="st2" x1="0" y1="72" x2="128" y2="72"/><line class="st2" x1="0" y1="68" x2="128" y2="68"/><line class="st2" x1="0" y1="64" x2="128" y2="64"/><line class="st2" x1="0" y1="60" x2="128" y2="60"/><line class="st2" x1="0" y1="56" x2="128" y2="56"/><line class="st2" x1="0" y1="52" x2="128" y2="52"/><line class="st2" x1="0" y1="48" x2="128" y2="48"/><line class="st2" x1="0" y1="44" x2="128" y2="44"/><line class="st2" x1="0" y1="40" x2="128" y2="40"/><line class="st2" x1="0" y1="36" x2="128" y2="36"/><line class="st2" x1="0" y1="32" x2="128" y2="32"/><line class="st2" x1="0" y1="28" x2="128" y2="28"/><line class="st2" x1="0" y1="24" x2="128" y2="24"/><line class="st2" x1="0" y1="20" x2="128" y2="20"/><line class="st2" x1="0" y1="16" x2="128" y2="16"/><line class="st2" x1="0" y1="12" x2="128" y2="12"/><line class="st2" x1="0" y1="8" x2="128" y2="8"/><line class="st2" x1="0" y1="4" x2="128" y2="4"/><line class="st2" x1="124" y1="0" x2="124" y2="128"/><line class="st2" x1="120" y1="0" x2="120" y2="128"/><line class="st2" x1="116" y1="0" x2="116" y2="128"/><line class="st2" x1="112" y1="0" x2="112" y2="128"/><line class="st2" x1="108" y1="0" x2="108" y2="128"/><line class="st2" x1="104" y1="0" x2="104" y2="128"/><line class="st2" x1="100" y1="0" x2="100" y2="128"/><line class="st2" x1="96" y1="0" x2="96" y2="128"/><line class="st2" x1="92" y1="0" x2="92" y2="128"/><line class="st2" x1="88" y1="0" x2="88" y2="128"/><line class="st2" x1="84" y1="0" x2="84" y2="128"/><line class="st2" x1="80" y1="0" x2="80" y2="128"/><line class="st2" x1="76" y1="0" x2="76" y2="128"/><line class="st2" x1="72" y1="0" x2="72" y2="128"/><line class="st2" x1="68" y1="0" x2="68" y2="128"/><line class="st2" x1="64" y1="0" x2="64" y2="128"/><line class="st2" x1="60" y1="0" x2="60" y2="128"/><line class="st2" x1="56" y1="0" x2="56" y2="128"/><line class="st2" x1="52" y1="0" x2="52" y2="128"/><line class="st2" x1="48" y1="0" x2="48" y2="128"/><line class="st2" x1="44" y1="0" x2="44" y2="128"/><line class="st2" x1="40" y1="0" x2="40" y2="128"/><line class="st2" x1="36" y1="0" x2="36" y2="128"/><line class="st2" x1="32" y1="0" x2="32" y2="128"/><line class="st2" x1="28" y1="0" x2="28" y2="128"/><line class="st2" x1="24" y1="0" x2="24" y2="128"/><line class="st2" x1="20" y1="0" x2="20" y2="128"/><line class="st2" x1="16" y1="0" x2="16" y2="128"/><line class="st2" x1="12" y1="0" x2="12" y2="128"/><line class="st2" x1="8" y1="0" x2="8" y2="128"/><line class="st2" x1="4" y1="0" x2="4" y2="128"/></g></g><g><g><path d="M62.2,58.6l-24-10.9c-0.5-0.2-1-0.2-1.4,0.1c-0.4,0.3-0.7,0.8-0.7,1.3v32c0,0.6,0.3,1.1,0.9,1.4l24,10.9    c0.2,0.1,0.4,0.1,0.6,0.1c0.3,0,0.6-0.1,0.8-0.2c0.4-0.3,0.7-0.8,0.7-1.3V60C63.1,59.4,62.7,58.8,62.2,58.6z M60.1,89.7l-21-9.5    V51.4l21,9.5V89.7z"/><path d="M91.2,47.8c-0.4-0.3-1-0.3-1.4-0.1l-24,10.9c-0.5,0.2-0.9,0.8-0.9,1.4v32c0,0.5,0.3,1,0.7,1.3c0.2,0.2,0.5,0.2,0.8,0.2    c0.2,0,0.4,0,0.6-0.1l24-10.9c0.5-0.2,0.9-0.8,0.9-1.4V49C91.9,48.5,91.7,48.1,91.2,47.8z M88.9,80.1l-21,9.5V60.9l21-9.5V80.1z"/><path d="M88.4,45.9c0-0.6-0.3-1.1-0.9-1.4L64.4,33.6c-0.4-0.2-0.9-0.2-1.3,0L40.5,44.3c-0.5,0.2-0.9,0.8-0.9,1.4s0.3,1.1,0.9,1.4    l22.7,10.6c0.2,0.1,0.4,0.1,0.6,0.1c0.2,0,0.4,0,0.6-0.1l23.1-10.4C88.1,47,88.4,46.5,88.4,45.9z M63.8,54.6l-19.2-9l19.2-9    l19.5,9.2L63.8,54.6z"/><path d="M33.1,126.9h61.8c4,0,7.3-2.9,7.3-6.5V7.6c0-3.6-3.3-6.5-7.3-6.5H33.1c-4,0-7.3,2.9-7.3,6.5v112.8    C25.8,124,29.1,126.9,33.1,126.9z M94.9,123.9H33.1c-2.4,0-4.3-1.6-4.3-3.5v-14h70.3v14C99.2,122.3,97.2,123.9,94.9,123.9z     M28.8,103.4V22.9h70.3v80.5H28.8z M33.1,4.1h61.8c2.4,0,4.3,1.6,4.3,3.5v12.3H28.8V7.6C28.8,5.7,30.8,4.1,33.1,4.1z"/><path d="M55.2,13.4h17.6c0.8,0,1.5-0.7,1.5-1.5s-0.7-1.5-1.5-1.5H55.2c-0.8,0-1.5,0.7-1.5,1.5S54.4,13.4,55.2,13.4z"/><path d="M64,111.4c-2.3,0-4.1,1.8-4.1,4.1s1.8,4.1,4.1,4.1s4.1-1.8,4.1-4.1S66.3,111.4,64,111.4z M64,116.7    c-0.6,0-1.1-0.5-1.1-1.1s0.5-1.1,1.1-1.1s1.1,0.5,1.1,1.1S64.6,116.7,64,116.7z"/></g></g></svg>