<svg xmlns="http://www.w3.org/2000/svg" xmlns:xlink="http://www.w3.org/1999/xlink" version="1.1" x="0px" y="0px" viewBox="0 0 100 100" style="enable-background:new 0 0 100 100;" xml:space="preserve"><path d="M27.399,10c-2.954,0-5.357,2.403-5.357,5.357v69.285c0,2.954,2.403,5.357,5.357,5.357h45.201  c2.954,0,5.357-2.403,5.357-5.357V15.357c0-2.954-2.403-5.357-5.357-5.357H27.399z M75.958,15.357v69.285  c0,1.852-1.506,3.357-3.357,3.357H27.399c-1.851,0-3.357-1.506-3.357-3.357V15.357c0-1.852,1.506-3.357,3.357-3.357h45.201  C74.452,12,75.958,13.506,75.958,15.357z"/><path d="M27.751,18.085c-0.552,0-1,0.447-1,1v57.351c0,0.553,0.448,1,1,1h44.498c0.552,0,1-0.447,1-1V19.085c0-0.553-0.448-1-1-1  H27.751z M71.249,75.436H28.751V20.085h42.498V75.436z"/><path d="M50,79.083c-1.988,0-3.605,1.617-3.605,3.605c0,1.987,1.617,3.604,3.605,3.604s3.605-1.617,3.605-3.604  C53.605,80.7,51.988,79.083,50,79.083z M50,84.293c-0.885,0-1.605-0.72-1.605-1.604c0-0.886,0.72-1.605,1.605-1.605  s1.605,0.72,1.605,1.605C51.605,83.573,50.885,84.293,50,84.293z"/><path d="M50.065,37.233c-5.79,0.04-10.469,4.793-10.43,10.597c0.019,2.812,1.128,5.447,3.124,7.422  c1.979,1.958,4.595,3.034,7.373,3.034c0.024,0,0.049,0,0.073,0c5.79-0.039,10.469-4.792,10.43-10.596  c-0.018-2.812-1.127-5.447-3.124-7.422C55.515,38.292,52.87,37.211,50.065,37.233z M56.862,42.228l-2.15,0.014  c-0.511-1.093-1.104-1.996-1.652-2.695c1.18,0.422,2.267,1.092,3.186,2.001C56.465,41.765,56.669,41.993,56.862,42.228z   M58.145,51.158l-2.701,0.018c0.241-0.789,0.408-1.641,0.474-2.554l2.876-0.019C58.708,49.501,58.483,50.359,58.145,51.158z   M42.236,44.126l2.592-0.017c-0.244,0.852-0.417,1.781-0.479,2.79l-2.874,0.019C41.57,45.929,41.839,44.992,42.236,44.126z   M50.927,42.267l-0.016-2.456c0.481,0.512,1.161,1.341,1.776,2.445L50.927,42.267z M53.503,44.051  c0.297,0.833,0.52,1.762,0.609,2.782l-3.154,0.021l-0.018-2.786L53.503,44.051z M49.127,42.279l-1.609,0.011  c0.542-1.003,1.136-1.791,1.594-2.31L49.127,42.279z M49.139,44.08l0.018,2.786l-2.991,0.02c0.076-1.019,0.273-1.956,0.558-2.79  L49.139,44.08z M41.488,48.718l2.88-0.019c0.078,0.911,0.257,1.761,0.509,2.547l-2.709,0.018  C41.815,50.46,41.584,49.605,41.488,48.718z M46.18,48.687l2.989-0.02l0.017,2.55l-2.401,0.016  C46.486,50.461,46.275,49.607,46.18,48.687z M49.198,53.018l0.013,2.035c-0.489-0.529-1.038-1.21-1.537-2.024L49.198,53.018z   M50.998,53.006l1.669-0.011c-0.539,0.908-1.136,1.65-1.654,2.208L50.998,53.006z M50.986,51.205l-0.017-2.55l3.148-0.021  c-0.082,0.923-0.294,1.776-0.584,2.554L50.986,51.205z M58.782,46.802l-2.87,0.019c-0.075-1.007-0.261-1.934-0.516-2.783  l2.594-0.017C58.403,44.893,58.677,45.828,58.782,46.802z M47.096,39.595c-0.535,0.704-1.114,1.612-1.609,2.709l-2.144,0.014  C44.316,41.098,45.611,40.152,47.096,39.595z M43.231,53.058l2.381-0.016c0.65,1.285,1.444,2.331,2.157,3.114  c-1.398-0.394-2.683-1.132-3.745-2.183C43.734,53.686,43.475,53.376,43.231,53.058z M52.63,56.114  c0.7-0.793,1.474-1.844,2.103-3.132l2.367-0.016C55.997,54.448,54.44,55.569,52.63,56.114z"/><path d="M32.884,54.134c0.159,0.093,0.333,0.137,0.504,0.137c0.343,0,0.678-0.177,0.864-0.494l0.334-0.57  c2.284,6.524,8.435,10.96,15.473,10.96c7.569,0,14.119-5.128,15.929-12.47c0.132-0.536-0.196-1.078-0.732-1.21  c-0.537-0.137-1.078,0.194-1.21,0.731c-1.588,6.446-7.34,10.948-13.986,10.948c-6.168,0-11.559-3.88-13.573-9.589l0.725,0.425  c0.476,0.281,1.089,0.119,1.368-0.356c0.279-0.477,0.119-1.09-0.357-1.368l-2.728-1.599c-0.228-0.135-0.501-0.172-0.758-0.105  c-0.257,0.067-0.476,0.233-0.61,0.462l-1.599,2.729C32.247,53.241,32.407,53.854,32.884,54.134z"/><path d="M34.859,45.05c0.08,0.02,0.16,0.028,0.239,0.028c0.45,0,0.858-0.306,0.97-0.762c1.584-6.455,7.337-10.964,13.99-10.964  c6.057,0,11.356,3.743,13.455,9.283l-0.689-0.332c-0.495-0.238-1.095-0.029-1.334,0.468c-0.24,0.497-0.03,1.095,0.467,1.335  l2.849,1.371c0.137,0.065,0.285,0.099,0.434,0.099c0.111,0,0.223-0.019,0.331-0.057c0.25-0.087,0.456-0.271,0.57-0.51l1.371-2.85  c0.24-0.498,0.03-1.096-0.467-1.335c-0.496-0.239-1.095-0.029-1.334,0.468l-0.318,0.66c-2.382-6.325-8.425-10.6-15.333-10.6  c-7.577,0-14.129,5.135-15.933,12.487C33.995,44.376,34.323,44.918,34.859,45.05z"/></svg>