<svg xmlns="http://www.w3.org/2000/svg" xmlns:xlink="http://www.w3.org/1999/xlink" version="1.1" x="0px" y="0px" viewBox="0 0 64 80" style="enable-background:new 0 0 64 64;" xml:space="preserve"><g><path d="M50.489,33.604c-0.019-0.011-0.038-0.021-0.057-0.03l-6.703-3.282l-1.217-1.825c1.338-0.676,2.342-1.94,2.659-3.466H49   c0.552,0,1-0.447,1-1v-6c0-2.757-2.243-5-5-5h-1.288c-0.797-0.816-1.792-1.406-2.874-1.721c-0.593-0.173-1.211-0.263-1.838-0.263   s-1.245,0.09-1.838,0.263c-1.132,0.33-2.169,0.96-2.983,1.836c-0.427,0.458-0.782,0.972-1.059,1.523   c-0.53,1.051-0.775,2.234-0.691,3.412l0.038,0.772l-2.021,1.347C30.167,20.354,30,20.666,30,21v3c0,0.553,0.448,1,1,1h1.826   c0.312,1.522,1.318,2.789,2.661,3.467l-1.221,1.832l-6.788,3.431C26.566,34.266,26,35.256,26,36.313V43   c0,0.552,0.446,0.999,0.998,1l24,0.048c0,0,0.001,0,0.002,0c0.265,0,0.519-0.105,0.707-0.292C51.895,43.568,52,43.313,52,43.048   v-6.84C52,35.135,51.421,34.137,50.489,33.604z M48,18v5h-2.671l0.241-4.929c0.076-1.057-0.109-2.111-0.521-3.07   C46.681,15.028,48,16.362,48,18z M39,13.016c1.288,0,2.48,0.519,3.357,1.461c0.025,0.027,0.05,0.054,0.074,0.082   c0.009,0.011,0.019,0.021,0.028,0.032c0.015,0.017,0.03,0.035,0.045,0.052c0.009,0.011,0.019,0.022,0.028,0.034   c0.014,0.017,0.029,0.035,0.043,0.053c0.01,0.012,0.019,0.024,0.029,0.036c0.015,0.018,0.029,0.037,0.043,0.055   c0.008,0.01,0.016,0.021,0.024,0.031c0.045,0.059,0.088,0.12,0.13,0.181c0.003,0.005,0.006,0.009,0.009,0.014   c0.018,0.027,0.036,0.054,0.053,0.081c0.004,0.006,0.008,0.012,0.012,0.019c0.017,0.027,0.034,0.054,0.05,0.081   c0.003,0.005,0.006,0.009,0.008,0.014c0.378,0.625,0.597,1.33,0.643,2.073l-2.083-1.183c-0.229-0.129-0.498-0.163-0.75-0.097   l-6.329,1.683c0-0.001,0-0.002,0-0.003c-0.001-0.032-0.001-0.064-0.001-0.095c0-0.007,0-0.013,0-0.02c0-0.03,0-0.059,0.001-0.088   c0-0.009,0-0.019,0-0.029c0.001-0.027,0.002-0.054,0.003-0.081c0-0.012,0.001-0.024,0.002-0.036   c0.001-0.025,0.003-0.049,0.004-0.074c0.001-0.015,0.002-0.03,0.003-0.044c0.002-0.022,0.003-0.044,0.005-0.066   c0.001-0.016,0.003-0.032,0.005-0.049c0.002-0.022,0.005-0.044,0.007-0.067c0.002-0.015,0.004-0.03,0.005-0.045   c0.003-0.023,0.006-0.045,0.009-0.068c0.002-0.015,0.004-0.03,0.006-0.044c0.003-0.023,0.007-0.046,0.011-0.068   c0.002-0.014,0.005-0.028,0.007-0.042c0.004-0.023,0.008-0.047,0.013-0.07c0.003-0.014,0.005-0.028,0.008-0.041   c0.005-0.023,0.009-0.046,0.014-0.069c0.003-0.013,0.006-0.027,0.009-0.04c0.005-0.023,0.01-0.046,0.016-0.069   c0.003-0.012,0.006-0.025,0.009-0.037c0.006-0.025,0.012-0.049,0.019-0.073c0.002-0.007,0.004-0.014,0.006-0.021   c0.008-0.029,0.016-0.058,0.024-0.086c0-0.002,0.001-0.003,0.002-0.005c0.018-0.059,0.037-0.118,0.057-0.176   c0.003-0.01,0.007-0.02,0.01-0.03c0.007-0.021,0.015-0.042,0.023-0.063c0.005-0.014,0.01-0.029,0.016-0.043   c0.008-0.021,0.016-0.041,0.024-0.062c0.006-0.015,0.011-0.029,0.017-0.043c0.008-0.019,0.016-0.038,0.024-0.058   c0.007-0.016,0.013-0.032,0.02-0.047c0.008-0.018,0.016-0.036,0.024-0.054c0.007-0.016,0.015-0.032,0.022-0.049   c0.008-0.018,0.017-0.036,0.026-0.053c0.008-0.017,0.016-0.034,0.025-0.05c0.008-0.016,0.016-0.032,0.024-0.047   c0.01-0.018,0.019-0.037,0.029-0.055c0.008-0.015,0.016-0.03,0.024-0.045c0.01-0.018,0.02-0.037,0.031-0.055   c0.008-0.015,0.017-0.03,0.026-0.045c0.01-0.018,0.021-0.036,0.032-0.054c0.009-0.015,0.018-0.029,0.027-0.044   c0.011-0.019,0.023-0.037,0.035-0.056c0.009-0.014,0.017-0.027,0.026-0.041c0.012-0.018,0.023-0.036,0.035-0.054   c0.01-0.015,0.02-0.029,0.03-0.044c0.012-0.018,0.024-0.035,0.037-0.052c0.009-0.013,0.019-0.026,0.028-0.04   c0.014-0.02,0.029-0.04,0.044-0.059c0.008-0.011,0.016-0.022,0.025-0.033c0.015-0.02,0.031-0.039,0.046-0.059   c0.009-0.011,0.017-0.022,0.026-0.033c0.016-0.021,0.033-0.041,0.05-0.061c0.008-0.009,0.015-0.019,0.023-0.028   c0.017-0.02,0.035-0.041,0.052-0.061c0.008-0.01,0.017-0.02,0.025-0.029c0.026-0.029,0.052-0.058,0.078-0.086   C36.52,13.534,37.712,13.016,39,13.016z M32,21.535l0.58-0.387L32.671,23H32V21.535z M34.673,23l-0.154-3.144l0.035-0.024   l-0.04-0.059l-0.001-0.014l6.347-1.688l2.633,1.495l-0.227,4.648C43.156,25.776,41.842,27,40.275,27h-2.551   c-1.296,0-2.419-0.838-2.831-2H40v-2H34.673z M40.275,29h0.189l1.249,1.873L39,33.586l-2.713-2.713L37.535,29h0.189H40.275z    M50,42.046l-22-0.044v-5.688c0-0.353,0.188-0.683,0.436-0.83l6.369-3.217l3.488,3.488c0.391,0.391,1.023,0.391,1.414,0   l3.495-3.495l6.316,3.094C49.816,35.534,50,35.859,50,36.208V42.046z"/><rect x="38" y="38" width="2" height="2"/><path d="M44,61c0,0.552-0.449,1-1,1H15c-0.551,0-1-0.448-1-1V3c0-0.552,0.449-1,1-1h28c0.551,0,1,0.448,1,1v8h2V3   c0-1.654-1.346-3-3-3H15c-1.654,0-3,1.346-3,3v58c0,1.654,1.346,3,3,3h28c1.654,0,3-1.346,3-3V46h-2V61z"/><path d="M26,57c0,1.654,1.346,3,3,3s3-1.346,3-3s-1.346-3-3-3S26,55.346,26,57z M30,57c0,0.552-0.449,1-1,1s-1-0.448-1-1   s0.449-1,1-1S30,56.448,30,57z"/><path d="M42,9V5c0-0.553-0.448-1-1-1H17c-0.552,0-1,0.447-1,1v46c0,0.553,0.448,1,1,1h24c0.552,0,1-0.447,1-1v-5h-2v4H18V6h22v3H42   z"/><rect x="20" y="10" width="2" height="2"/><rect x="24" y="8" width="2" height="4"/></g></svg>