<svg xmlns="http://www.w3.org/2000/svg" xmlns:xlink="http://www.w3.org/1999/xlink" version="1.1" x="0px" y="0px" viewBox="0 0 512 640" style="enable-background:new 0 0 512 512;" xml:space="preserve"><g><path d="M370.608,161.283v-44.688h5.92v44.688H370.608z M333.917,137.813h11.557c3.828,0,6.512-0.717,8.121-2.111   c1.609-1.431,2.398-3.436,2.398-6.011c0-1.86-0.465-3.47-1.396-4.794c-0.949-1.323-2.201-2.219-3.721-2.647   c-1.002-0.251-2.861-0.394-5.527-0.394h-11.432V137.813z M328.015,161.283v-44.688h16.85c2.971,0,5.225,0.144,6.799,0.43   c2.182,0.358,4.043,1.073,5.51,2.111c1.502,1.002,2.682,2.433,3.596,4.293c0.912,1.824,1.342,3.864,1.342,6.082   c0,3.793-1.199,6.977-3.615,9.589c-2.414,2.647-6.797,3.972-13.111,3.972h-11.467v18.211H328.015z M294.349,142.928h15.221   l-4.668-12.379c-1.395-3.756-2.469-6.869-3.184-9.337c-0.625,2.933-1.432,5.796-2.469,8.622L294.349,142.928z M281.503,161.283   l17.137-44.688h6.494l18.176,44.688h-6.727l-5.17-13.561h-18.801l-4.848,13.561H281.503z"/><g><path d="M377.05,456.006h-224c-12.682,0-23-10.317-23-23v-111c0-1.657,1.343-3,3-3h2c1.657,0,3,1.343,3,3c0,6.374,4.626,11,11,11    s11-4.626,11-11c0-1.657,1.343-3,3-3h55c1.657,0,3,1.343,3,3c0,6.482,5.797,11,11,11c6.374,0,11-4.626,11-11    c0-5.203-4.518-11-11-11c-1.657,0-3-1.343-3-3v-55c0-1.657,1.343-3,3-3c6.374,0,11-4.626,11-11s-4.626-11-11-11    c-1.657,0-3-1.343-3-3v-56c0-1.657,1.343-3,3-3c6.065,0,11-4.486,11-10c0-6.374-4.626-11-11-11c-5.203,0-11,4.518-11,11    c0,1.657-1.343,3-3,3h-55c-1.657,0-3-1.343-3-3c0-6.374-4.626-11-11-11s-11,4.626-11,11c0,1.657-1.343,3-3,3h-2    c-1.657,0-3-1.343-3-3v-110c0-12.682,10.318-23,23-23h224c12.683,0,23,10.318,23,23v387    C400.05,445.688,389.732,456.006,377.05,456.006z M136.05,333.203v99.803c0,9.374,7.626,17,17,17h224c9.374,0,17-7.626,17-17v-387    c0-9.374-7.626-17-17-17h-224c-9.374,0-17,7.626-17,17v98.802c3.069-3.595,7.675-5.802,13-5.802c8.663,0,15.422,5.839,16.759,14    h49.505c1.521-8.49,9.363-14,16.736-14c9.691,0,17,7.309,17,17c0,7.859-6.052,14.413-14,15.75v50.491    c8.161,1.337,14,8.096,14,16.759s-5.839,15.422-14,16.759v49.505c8.49,1.521,14,9.363,14,16.736c0,9.691-7.309,17-17,17    c-7.374,0-15.215-5.51-16.736-14h-49.505c-1.337,8.161-8.096,14-16.759,14C143.726,339.006,139.12,336.799,136.05,333.203z"/></g><g><path d="M369.048,364.006c-0.527,0-1.061-0.139-1.542-0.428l-10-6c-1.246-0.748-1.777-2.282-1.26-3.641l7.31-19.187    c-1.993-2.01-3.962-4.063-5.602-6.154l-19.879,7.229c-1.434,0.521-3.027-0.115-3.709-1.478l-5-10    c-0.64-1.279-0.287-2.832,0.842-3.71l16.129-12.545c-1.253-3.036-1.961-6.078-2.197-9.441l-20.478-2.671    c-1.494-0.194-2.612-1.468-2.612-2.975v-12c0-1.507,1.118-2.78,2.612-2.975l20.973-2.736l2.063-8.247l-15.632-13.792    c-1.085-0.957-1.332-2.552-0.588-3.793l6-10c0.771-1.288,2.377-1.804,3.754-1.214l19.133,8.2l6.19-6.19l-7.309-19.185    c-0.518-1.358,0.014-2.893,1.26-3.64l10-6c1.303-0.783,2.981-0.468,3.912,0.73l12.8,16.458l10.104-2.526    c0.895-0.225,1.845-0.023,2.574,0.546c0.728,0.569,1.153,1.441,1.153,2.365v31c0,1.377-0.937,2.576-2.272,2.91    c-11.201,2.801-18.728,12.884-18.728,25.09c0,0.077-0.003,0.153-0.009,0.23c-0.875,11.371,7.07,22.265,18.891,25.902    c1.259,0.387,2.118,1.55,2.118,2.867v39c0,1.53-1.151,2.815-2.673,2.982c-1.507,0.162-2.924-0.837-3.256-2.332l-1.599-7.193    c-2.803-0.716-5.665-1.52-8.563-2.74l-12.541,16.125C370.831,363.603,369.947,364.006,369.048,364.006z M362.748,353.726    l5.565,3.34l12.368-15.901c0.878-1.13,2.434-1.48,3.71-0.842c3.161,1.581,6.34,2.492,9.658,3.338v-24.516    c-13.26-5.052-21.975-17.853-21-31.253c0.046-13.895,8.558-25.945,21-30.131v-24.913l-8.272,2.068    c-1.15,0.288-2.366-0.13-3.096-1.069l-12.368-15.902l-5.565,3.34l7.105,18.652c0.421,1.104,0.153,2.354-0.683,3.189l-9,9    c-0.867,0.868-2.176,1.121-3.303,0.636l-18.593-7.968l-3.368,5.613l15.127,13.348c0.841,0.742,1.198,1.891,0.926,2.978l-3,12    c-0.299,1.196-1.3,2.088-2.522,2.247l-20.388,2.659v6.732l20.388,2.659c1.494,0.194,2.612,1.468,2.612,2.975    c0,4.352,0.827,7.947,2.684,11.658c0.64,1.279,0.287,2.832-0.842,3.71l-16.059,12.49l2.704,5.408l19.487-7.086    c1.3-0.473,2.755,0.005,3.521,1.155c1.835,2.753,4.778,5.696,7.625,8.543c0.836,0.836,1.104,2.084,0.683,3.189L362.748,353.726z"/></g><g><path d="M377.05,456.006h-224c-12.682,0-23-10.317-23-23v-56c0-1.657,1.343-3,3-3h264c1.657,0,3,1.343,3,3v56    C400.05,445.688,389.732,456.006,377.05,456.006z M136.05,380.006v53c0,9.374,7.626,17,17,17h224c9.374,0,17-7.626,17-17v-53    H136.05z"/></g><g><path d="M265.05,433.006c-9.588,0-18-8.411-18-18c0-9.374,8.075-17,18-17s18,7.626,18,17    C283.05,424.595,274.639,433.006,265.05,433.006z M265.05,404.006c-6.616,0-12,4.935-12,11c0,6.393,5.607,12,12,12s12-5.607,12-12    C277.05,408.94,271.667,404.006,265.05,404.006z"/></g><g><path d="M359.05,79.006h-226c-1.657,0-3-1.343-3-3s1.343-3,3-3h226c1.657,0,3,1.343,3,3S360.707,79.006,359.05,79.006z"/></g><g><path d="M285.05,56.006h-40c-1.657,0-3-1.343-3-3s1.343-3,3-3h40c1.657,0,3,1.343,3,3S286.707,56.006,285.05,56.006z"/></g><g><path d="M218.429,325.316h-55.6c-1.657,0-3-1.343-3-3c0-6-4.889-10.881-10.898-10.881c-6.01,0-10.9,4.881-10.9,10.881    c0,1.657-1.343,3-3,3H79.433c-1.657,0-3-1.343-3-3c0-6-4.898-10.881-10.918-10.881c-1.657,0-3-1.343-3-3v-55.598    c0-1.657,1.343-3,3-3c6.02,0,10.918-4.898,10.918-10.918c0-6-4.898-10.882-10.918-10.882c-1.657,0-3-1.343-3-3v-55.599    c0-1.657,1.343-3,3-3c6.02,0,10.918-4.897,10.918-10.917c0-1.657,1.343-3,3-3h55.598c1.657,0,3,1.343,3,3    c0,6.02,4.89,10.917,10.9,10.917c6.009,0,10.898-4.897,10.898-10.917c0-1.657,1.343-3,3-3h55.6c1.657,0,3,1.343,3,3    c0,6.02,4.889,10.917,10.898,10.917c1.657,0,3,1.343,3,3v55.599c0,1.657-1.343,3-3,3c-6.009,0-10.898,4.881-10.898,10.882    c0,6.02,4.889,10.918,10.898,10.918c1.657,0,3,1.343,3,3v55.598c0,1.657-1.343,3-3,3c-6.009,0-10.898,4.881-10.898,10.881    C221.429,323.974,220.086,325.316,218.429,325.316z M165.563,319.316h50.134c1.246-6.909,6.715-12.371,13.631-13.614v-50.131    c-7.892-1.421-13.898-8.347-13.898-16.651c0-8.286,6.007-15.197,13.898-16.615v-50.132c-6.918-1.246-12.389-6.723-13.632-13.65    h-50.132c-1.418,7.902-8.337,13.917-16.632,13.917c-8.296,0-15.215-6.015-16.634-13.917h-50.13    c-1.245,6.928-6.723,12.406-13.651,13.651v50.13c7.902,1.417,13.918,8.329,13.918,16.616c0,8.305-6.016,15.231-13.918,16.651    v50.13c6.926,1.242,12.403,6.705,13.65,13.615h50.132c1.421-7.882,8.339-13.881,16.633-13.881    C157.224,305.436,164.141,311.435,165.563,319.316z M148.931,255.838c-9.319,0-16.9-7.589-16.9-16.918    c0-9.309,7.582-16.882,16.9-16.882c9.318,0,16.898,7.573,16.898,16.882C165.83,248.249,158.249,255.838,148.931,255.838z     M148.931,228.038c-6.01,0-10.9,4.881-10.9,10.882c0,6.02,4.89,10.918,10.9,10.918c6.009,0,10.898-4.898,10.898-10.918    C159.83,232.919,154.94,228.038,148.931,228.038z"/></g><g><path d="M149.05,256.006c-9.691,0-17-7.309-17-17s7.309-17,17-17s17,7.309,17,17S158.742,256.006,149.05,256.006z M149.05,228.006    c-6.374,0-11,4.626-11,11s4.626,11,11,11s11-4.626,11-11S155.424,228.006,149.05,228.006z"/></g><g><path d="M232.05,172.006c-8.897,0-17-7.626-17-16c0-10.169,8.79-17,17-17c9.691,0,17,7.309,17,17    C249.05,164.828,241.424,172.006,232.05,172.006z M232.05,145.006c-5.203,0-11,4.518-11,11c0,5.14,5.346,10,11,10    c6.065,0,11-4.486,11-10C243.05,149.632,238.424,145.006,232.05,145.006z"/></g><g><path d="M65.05,172.006c-8.673,0-16-7.327-16-16c0-9.374,7.178-17,16-17c9.691,0,17,7.309,17,17    C82.05,164.828,74.424,172.006,65.05,172.006z M65.05,145.006c-5.514,0-10,4.935-10,11c0,5.327,4.673,10,10,10    c6.065,0,11-4.486,11-10C76.05,149.632,71.424,145.006,65.05,145.006z"/></g><g><path d="M65.05,339.006c-8.822,0-16-7.626-16-17c0-8.897,7.626-17,16-17c10.169,0,17,8.79,17,17    C82.05,331.697,74.742,339.006,65.05,339.006z M65.05,311.006c-5.14,0-10,5.346-10,11c0,6.065,4.486,11,10,11    c6.374,0,11-4.626,11-11C76.05,316.803,71.533,311.006,65.05,311.006z"/></g><g><path d="M232.05,339.006c-8.21,0-17-6.831-17-17c0-8.579,8.42-17,17-17c10.169,0,17,8.79,17,17    C249.05,331.697,241.742,339.006,232.05,339.006z M232.05,311.006c-5.346,0-11,5.654-11,11c0,6.482,5.797,11,11,11    c6.374,0,11-4.626,11-11C243.05,316.803,238.533,311.006,232.05,311.006z"/></g><g><path d="M232.05,256.006c-8.21,0-17-6.831-17-17s8.79-17,17-17c9.691,0,17,7.309,17,17S241.742,256.006,232.05,256.006z     M232.05,228.006c-5.203,0-11,4.518-11,11s5.797,11,11,11c6.374,0,11-4.626,11-11S238.424,228.006,232.05,228.006z"/></g><g><path d="M65.05,256.006c-8.822,0-16-7.626-16-17s7.178-17,16-17c9.691,0,17,7.309,17,17S74.742,256.006,65.05,256.006z     M65.05,228.006c-5.514,0-10,4.935-10,11s4.486,11,10,11c6.374,0,11-4.626,11-11S71.424,228.006,65.05,228.006z"/></g><g><path d="M149.05,172.006c-9.374,0-17-7.178-17-16c0-9.691,7.309-17,17-17s17,7.309,17,17    C166.05,164.828,158.424,172.006,149.05,172.006z M149.05,145.006c-6.374,0-11,4.626-11,11c0,5.514,4.935,10,11,10s11-4.486,11-10    C160.05,149.632,155.424,145.006,149.05,145.006z"/></g><g><path d="M149.05,339.006c-9.691,0-17-7.309-17-17c0-8.21,6.831-17,17-17s17,8.79,17,17    C166.05,331.697,158.742,339.006,149.05,339.006z M149.05,311.006c-6.482,0-11,5.797-11,11c0,6.374,4.626,11,11,11s11-4.626,11-11    C160.05,316.803,155.533,311.006,149.05,311.006z"/></g><g><path d="M139.109,232.117c-0.768,0-1.535-0.292-2.121-0.878l-26.887-26.869c-1.172-1.171-1.172-3.071-0.001-4.243    c1.171-1.172,3.07-1.173,4.243-0.001l26.887,26.869c1.172,1.171,1.172,3.071,0.001,4.243    C140.645,231.824,139.877,232.117,139.109,232.117z M96.802,189.827c-0.768,0-1.536-0.293-2.122-0.879l-21.447-21.466    c-1.171-1.172-1.17-3.072,0.001-4.243c1.172-1.172,3.071-1.17,4.243,0.001l21.447,21.466c1.171,1.172,1.17,3.072-0.001,4.243    C98.337,189.535,97.569,189.827,96.802,189.827z"/></g><g><path d="M158.751,232.117c-0.768,0-1.536-0.293-2.121-0.879c-1.172-1.171-1.172-3.071,0-4.242l26.869-26.869    c1.171-1.172,3.071-1.172,4.242,0c1.172,1.171,1.172,3.071,0,4.242l-26.869,26.869    C160.287,231.824,159.519,232.117,158.751,232.117z M201.041,189.827c-0.768,0-1.536-0.293-2.122-0.879    c-1.171-1.171-1.171-3.071,0-4.243l21.467-21.466c1.171-1.171,3.071-1.171,4.243,0s1.171,3.071,0,4.243l-21.467,21.466    C202.576,189.534,201.808,189.827,201.041,189.827z"/></g><g><path d="M75.355,315.336c-0.767,0-1.534-0.292-2.12-0.877c-1.172-1.171-1.174-3.07-0.003-4.242l21.822-21.86    c1.17-1.173,3.069-1.176,4.243-0.004c1.172,1.171,1.174,3.07,0.003,4.242l-21.822,21.86    C76.892,315.042,76.124,315.336,75.355,315.336z M112.634,278.02c-0.769,0-1.537-0.293-2.123-0.88    c-1.171-1.173-1.17-3.072,0.002-4.243l26.475-26.439c1.173-1.171,3.072-1.169,4.243,0.002c1.171,1.172,1.17,3.072-0.002,4.243    l-26.475,26.44C114.168,277.728,113.401,278.02,112.634,278.02z"/></g><g><path d="M222.507,315.336c-0.768,0-1.536-0.293-2.121-0.879l-23.686-23.686c-1.172-1.171-1.172-3.071,0-4.242    c1.171-1.172,3.071-1.172,4.242,0l23.686,23.686c1.172,1.171,1.172,3.071,0,4.242    C224.043,315.043,223.275,315.336,222.507,315.336z M183.439,276.23c-0.767,0-1.534-0.292-2.12-0.877l-24.688-24.65    c-1.172-1.171-1.174-3.07-0.003-4.243c1.17-1.173,3.07-1.174,4.243-0.003l24.688,24.65c1.172,1.171,1.174,3.07,0.003,4.243    C184.976,275.937,184.208,276.23,183.439,276.23z"/></g><g><path d="M135.05,242.006h-56c-1.657,0-3-1.343-3-3s1.343-3,3-3h56c1.657,0,3,1.343,3,3S136.707,242.006,135.05,242.006z"/></g><g><path d="M149.05,228.006c-1.657,0-3-1.343-3-3v-56c0-1.657,1.343-3,3-3s3,1.343,3,3v56    C152.05,226.663,150.707,228.006,149.05,228.006z"/></g><g><path d="M218.05,242.006h-55c-1.657,0-3-1.343-3-3s1.343-3,3-3h55c1.657,0,3,1.343,3,3S219.707,242.006,218.05,242.006z"/></g><g><path d="M149.05,311.006c-1.657,0-3-1.343-3-3v-55c0-1.657,1.343-3,3-3s3,1.343,3,3v55    C152.05,309.663,150.707,311.006,149.05,311.006z"/></g><g><path d="M194.05,209.006c-7.72,0-14-6.28-14-14s6.28-14,14-14s14,6.28,14,14S201.77,209.006,194.05,209.006z M194.05,187.006    c-4.336,0-8,3.664-8,8s3.664,8,8,8s8-3.664,8-8S198.387,187.006,194.05,187.006z"/></g><g><path d="M104.05,209.006c-7.72,0-14-6.28-14-14s6.28-14,14-14s14,6.28,14,14S111.77,209.006,104.05,209.006z M104.05,187.006    c-4.336,0-8,3.664-8,8s3.664,8,8,8s8-3.664,8-8S108.387,187.006,104.05,187.006z"/></g><g><path d="M105.05,297.006c-7.72,0-14-6.28-14-14s6.28-14,14-14s14,6.28,14,14S112.77,297.006,105.05,297.006z M105.05,275.006    c-4.336,0-8,3.663-8,8s3.664,8,8,8s8-3.663,8-8S109.387,275.006,105.05,275.006z"/></g><g><path d="M190.05,296.006c-7.72,0-14-6.28-14-14s6.28-14,14-14s14,6.28,14,14S197.77,296.006,190.05,296.006z M190.05,274.006    c-4.336,0-8,3.663-8,8s3.664,8,8,8s8-3.663,8-8S194.387,274.006,190.05,274.006z"/></g><g><path d="M260.05,263.006c-1.657,0-3-1.343-3-3v-5c0-1.657,1.343-3,3-3s3,1.343,3,3v5    C263.05,261.663,261.707,263.006,260.05,263.006z M260.05,240.006c-1.657,0-3-1.343-3-3v-5c0-1.657,1.343-3,3-3s3,1.343,3,3v5    C263.05,238.663,261.707,240.006,260.05,240.006z M260.05,217.006c-1.657,0-3-1.343-3-3v-5c0-1.657,1.343-3,3-3s3,1.343,3,3v5    C263.05,215.663,261.707,217.006,260.05,217.006z M260.05,194.006c-1.657,0-3-1.343-3-3v-5c0-1.657,1.343-3,3-3s3,1.343,3,3v5    C263.05,192.663,261.707,194.006,260.05,194.006z M260.05,171.006c-1.657,0-3-1.343-3-3v-5c0-1.657,1.343-3,3-3s3,1.343,3,3v5    C263.05,169.663,261.707,171.006,260.05,171.006z M260.05,148.006c-1.657,0-3-1.343-3-3v-5c0-1.657,1.343-3,3-3s3,1.343,3,3v5    C263.05,146.663,261.707,148.006,260.05,148.006z M254.05,131.006h-5c-1.657,0-3-1.343-3-3s1.343-3,3-3h5c1.657,0,3,1.343,3,3    S255.707,131.006,254.05,131.006z M231.05,131.006h-5c-1.657,0-3-1.343-3-3s1.343-3,3-3h5c1.657,0,3,1.343,3,3    S232.707,131.006,231.05,131.006z M208.05,131.006h-5c-1.657,0-3-1.343-3-3s1.343-3,3-3h5c1.657,0,3,1.343,3,3    S209.707,131.006,208.05,131.006z M185.05,131.006h-5c-1.657,0-3-1.343-3-3s1.343-3,3-3h5c1.657,0,3,1.343,3,3    S186.707,131.006,185.05,131.006z M162.05,131.006h-5c-1.657,0-3-1.343-3-3s1.343-3,3-3h5c1.657,0,3,1.343,3,3    S163.707,131.006,162.05,131.006z M139.05,131.006h-5c-1.657,0-3-1.343-3-3s1.343-3,3-3h5c1.657,0,3,1.343,3,3    S140.707,131.006,139.05,131.006z M116.05,131.006h-5c-1.657,0-3-1.343-3-3s1.343-3,3-3h5c1.657,0,3,1.343,3,3    S117.707,131.006,116.05,131.006z M93.05,131.006h-5c-1.657,0-3-1.343-3-3s1.343-3,3-3h5c1.657,0,3,1.343,3,3    S94.707,131.006,93.05,131.006z"/></g><g><path d="M345.05,473.006h-264c-1.657,0-3-1.343-3-3s1.343-3,3-3h264c1.657,0,3,1.343,3,3S346.707,473.006,345.05,473.006z"/></g><g><path d="M460.05,489.006h-233c-1.657,0-3-1.343-3-3s1.343-3,3-3h233c1.657,0,3,1.343,3,3S461.707,489.006,460.05,489.006z"/></g><g><path d="M208.05,489.006h-23c-1.657,0-3-1.343-3-3s1.343-3,3-3h23c1.657,0,3,1.343,3,3S209.707,489.006,208.05,489.006z"/></g><g><path d="M387.05,473.006h-23c-1.657,0-3-1.343-3-3s1.343-3,3-3h23c1.657,0,3,1.343,3,3S388.707,473.006,387.05,473.006z"/></g></g></svg>