<svg xmlns="http://www.w3.org/2000/svg" xmlns:xlink="http://www.w3.org/1999/xlink" version="1.1" x="0px" y="0px" viewBox="0 0 100 124.99875" enable-background="new 0 0 100 99.999" xml:space="preserve"><g><path d="M63.984,12.371H36.016c-4.356,0-7.899,3.543-7.899,7.899v59.458c0,4.356,3.543,7.899,7.899,7.899h27.968   c4.356,0,7.899-3.543,7.899-7.899V20.271C71.883,15.914,68.34,12.371,63.984,12.371z M69.065,79.729   c0,2.802-2.279,5.081-5.081,5.081H36.016c-2.802,0-5.081-2.279-5.081-5.081V20.271c0-2.802,2.279-5.081,5.081-5.081h27.968   c2.802,0,5.081,2.279,5.081,5.081V79.729z"/><path d="M64.904,23.148H35.096c-0.778,0-1.409,0.631-1.409,1.409v47.801c0,0.778,0.631,1.409,1.409,1.409h9.602   c-0.693,1.023-1.099,2.256-1.099,3.583c0,3.53,2.871,6.401,6.401,6.401c3.529,0,6.4-2.871,6.4-6.401   c0-1.327-0.406-2.56-1.099-3.583h9.602c0.778,0,1.409-0.631,1.409-1.409V24.557C66.313,23.779,65.682,23.148,64.904,23.148z    M63.495,25.966v30.635c-3.382-2.602-7.486-4.192-11.75-4.535v-5.92c2.521-0.632,4.396-2.91,4.396-5.625   c0-3.2-2.604-5.804-5.805-5.804c-3.2,0-5.804,2.604-5.804,5.804c0,2.714,1.874,4.992,4.395,5.624v5.871   c-4.504,0.223-8.862,1.846-12.421,4.585V25.966H63.495z M50.335,43.507c-1.646,0-2.985-1.34-2.985-2.986   c0-1.646,1.34-2.985,2.985-2.985c1.646,0,2.986,1.34,2.986,2.985C53.322,42.167,51.982,43.507,50.335,43.507z M53.583,77.35   c0,1.976-1.607,3.583-3.582,3.583c-1.976,0-3.583-1.607-3.583-3.583s1.607-3.583,3.583-3.583   C51.975,73.767,53.583,75.374,53.583,77.35z M36.505,70.948V60.346c3.324-3.266,7.777-5.22,12.421-5.485v7.849   c0,0.778,0.631,1.409,1.409,1.409s1.409-0.631,1.409-1.409v-7.814c4.402,0.407,8.586,2.342,11.75,5.45v10.602H36.505z"/><path d="M44.855,20.705h10.29c0.778,0,1.409-0.631,1.409-1.409s-0.631-1.409-1.409-1.409h-10.29c-0.778,0-1.409,0.631-1.409,1.409   S44.077,20.705,44.855,20.705z"/></g></svg>