<?xml version="1.0" standalone="no"?>
<!DOCTYPE svg PUBLIC "-//W3C//DTD SVG 20010904//EN"
 "http://www.w3.org/TR/2001/REC-SVG-20010904/DTD/svg10.dtd">
<svg version="1.0" xmlns="http://www.w3.org/2000/svg"
 width="500.000000pt" height="350.000000pt" viewBox="0 0 500.000000 350.000000"
 preserveAspectRatio="xMidYMid meet">

<g transform="translate(0.000000,350.000000) scale(0.100000,-0.100000)"
fill="#000000" stroke="none">
<path d="M2756 2755 c-3 -9 -23 -24 -44 -33 -46 -21 -97 -60 -89 -69 4 -3 13
0 21 6 11 9 19 9 34 0 19 -12 19 -13 -1 -63 -12 -28 -45 -93 -74 -143 -29 -51
-53 -97 -53 -103 0 -5 -4 -10 -8 -10 -4 0 -20 -25 -36 -55 -15 -31 -42 -71
-60 -90 -18 -19 -41 -53 -52 -77 -17 -39 -143 -203 -168 -220 -6 -4 -7 -10 -3
-14 7 -7 25 10 86 81 18 22 31 33 28 25 -4 -8 -12 -34 -19 -57 -7 -24 -18 -43
-26 -43 -7 0 -10 -5 -6 -11 8 -13 -16 -60 -27 -53 -5 3 -6 -1 -4 -8 3 -8 -1
-22 -10 -33 -14 -19 -15 -19 -8 -1 5 15 3 18 -9 14 -10 -4 -20 3 -29 19 -11
21 -11 27 -1 30 6 3 12 12 12 20 0 13 -3 13 -15 3 -9 -7 -18 -10 -22 -7 -3 4
-23 66 -44 139 -21 73 -38 121 -38 106 -1 -27 -5 -30 -46 -32 -13 -1 -21 -9
-23 -24 -4 -26 26 -171 38 -187 4 -5 12 -25 18 -44 10 -28 9 -32 -3 -28 -10 4
-12 1 -8 -11 11 -35 -48 46 -77 105 -60 123 -181 477 -179 526 0 21 1 21 8 3
7 -19 8 -19 13 1 4 16 11 20 31 16 15 -3 29 -14 33 -25 3 -11 8 -17 11 -14 9
9 -38 133 -73 192 -50 84 -90 121 -153 145 -84 31 -167 20 -283 -38 l-90 -45
-31 30 c-18 16 -46 37 -64 46 -64 32 -203 12 -244 -35 -10 -12 -23 -18 -30
-13 -7 4 -9 3 -5 -4 3 -6 -2 -17 -12 -24 -10 -7 -38 -38 -63 -68 -24 -30 -66
-76 -92 -102 -26 -26 -47 -57 -47 -68 0 -11 -3 -20 -8 -20 -7 0 -92 -131 -92
-143 0 -3 -16 -39 -35 -81 -19 -41 -55 -137 -80 -212 -25 -75 -50 -143 -56
-150 -6 -7 -8 -18 -4 -23 10 -18 -16 -134 -33 -148 -25 -18 196 -17 263 2 28
7 46 14 40 14 -5 1 7 18 27 39 20 20 60 82 89 137 28 55 58 107 65 116 8 8 14
22 14 30 0 9 7 24 15 35 8 10 15 27 15 38 0 16 -2 17 -16 5 -24 -20 -77 -21
-70 -2 3 8 1 11 -4 8 -6 -3 -10 -2 -10 3 0 15 102 173 180 277 73 99 238 275
257 275 6 0 21 -25 34 -55 23 -53 24 -54 33 -29 l8 26 19 -29 c11 -15 38 -66
60 -111 36 -74 43 -83 63 -78 29 7 42 -16 100 -170 97 -260 150 -359 235 -441
l54 -53 -49 0 c-43 0 -55 5 -97 41 -26 23 -66 68 -88 100 -22 32 -44 59 -50
59 -5 0 -14 12 -21 28 l-11 27 -9 -33 c-10 -38 -23 -34 -43 15 -9 20 -18 33
-22 30 -11 -12 74 -173 111 -210 73 -73 64 -72 431 -75 225 -2 343 1 371 8 51
15 136 79 199 150 61 69 133 166 152 205 14 30 14 30 -16 -5 -17 -19 -31 -38
-31 -42 0 -5 -4 -8 -10 -8 -5 0 12 35 39 78 51 84 135 243 146 280 10 35 -11
26 -25 -10 -20 -54 -33 -78 -42 -78 -4 0 -8 7 -8 16 0 8 5 12 10 9 6 -3 10 -2
10 3 0 6 -7 12 -15 16 -9 3 -15 0 -15 -8 0 -7 -7 -19 -15 -26 -34 -28 15 91
137 328 54 106 98 195 98 197 0 3 -58 5 -129 5 -107 0 -130 -3 -135 -15z m-39
-68 c-4 -14 -47 -23 -47 -9 0 13 7 17 30 19 13 1 20 -3 17 -10z m-1943 -231
c-9 -15 -19 -24 -22 -22 -2 3 3 17 12 32 10 14 20 23 23 21 2 -3 -3 -17 -13
-31z m-94 -166 c-6 -12 -14 -19 -17 -17 -2 3 1 15 7 27 6 12 14 19 17 17 2 -3
-1 -15 -7 -27z"/>
<path d="M2615 2730 c-16 -7 -17 -9 -3 -9 9 -1 20 4 23 9 7 11 7 11 -20 0z"/>
<path d="M2560 2705 c-17 -10 -20 -14 -9 -15 9 0 22 7 29 15 15 18 12 18 -20
0z"/>
<path d="M2500 2665 c-20 -24 -6 -28 15 -5 10 11 13 20 8 20 -6 0 -16 -7 -23
-15z"/>
<path d="M3642 2329 c-19 -19 -41 -46 -50 -61 -13 -22 -24 -28 -52 -28 -32 0
-36 -4 -54 -46 -10 -25 -15 -48 -11 -52 7 -7 195 -5 202 2 2 2 2 52 1 111 l-3
108 -33 -34z"/>
<path d="M2435 2239 c-4 -6 -5 -12 -2 -15 2 -3 7 2 10 11 7 17 1 20 -8 4z"/>
<path d="M971 1914 c0 -11 3 -14 6 -6 3 7 2 16 -1 19 -3 4 -6 -2 -5 -13z"/>
<path d="M937 1840 c-3 -11 -3 -20 -1 -20 2 0 8 9 14 20 6 11 7 20 2 20 -6 0
-12 -9 -15 -20z"/>
<path d="M900 1785 c-7 -9 -11 -18 -8 -20 3 -3 11 1 18 10 7 9 11 18 8 20 -3
3 -11 -1 -18 -10z"/>
<path d="M421 1744 c0 -11 3 -14 6 -6 3 7 2 16 -1 19 -3 4 -6 -2 -5 -13z"/>
<path d="M844 1718 l-19 -21 28 18 c28 18 33 25 19 25 -5 0 -17 -10 -28 -22z"/>
<path d="M2668 1728 c7 -7 12 -27 12 -45 0 -49 17 -40 22 12 3 42 2 45 -21 45
-20 0 -22 -3 -13 -12z"/>
<path d="M2734 1726 c-3 -8 -4 -29 -2 -48 4 -33 4 -33 15 -8 l10 25 7 -23 c9
-28 20 -28 34 1 l11 22 0 -22 c2 -40 21 -24 21 16 0 51 -18 62 -33 22 -14 -39
-22 -39 -36 -1 -11 33 -19 37 -27 16z"/>
<path d="M396 1703 c-6 -14 -5 -15 5 -6 7 7 10 15 7 18 -3 3 -9 -2 -12 -12z"/>
<path d="M780 1680 c0 -5 7 -7 15 -4 8 4 15 8 15 10 0 2 -7 4 -15 4 -8 0 -15
-4 -15 -10z"/>
<path d="M2980 1339 l0 -320 36 3 35 3 -1 265 c0 162 3 261 9 255 8 -9 234
-353 310 -472 33 -52 34 -53 82 -53 l49 0 0 320 0 320 -40 0 -41 0 3 -265 c2
-146 1 -265 -2 -265 -3 1 -81 120 -173 265 l-169 265 -49 0 -49 0 0 -321z"/>
<path d="M3640 1340 l0 -320 170 0 170 0 0 35 0 35 -130 0 -130 0 0 110 0 110
115 0 115 0 0 35 0 35 -115 0 -115 0 0 105 0 105 125 0 125 0 0 35 0 35 -165
0 -165 0 0 -320z"/>
<path d="M4050 1625 l0 -35 95 0 95 0 0 -285 0 -285 40 0 40 0 0 285 0 285 90
0 90 0 0 35 0 35 -225 0 -225 0 0 -35z"/>
<path d="M350 1630 c0 -5 5 -10 10 -10 6 0 10 5 10 10 0 6 -4 10 -10 10 -5 0
-10 -4 -10 -10z"/>
<path d="M2386 1409 c-17 -20 -26 -43 -26 -65 0 -27 -4 -34 -20 -34 -11 0 -20
-7 -20 -15 0 -8 9 -15 20 -15 19 0 20 -7 20 -110 0 -102 1 -110 19 -110 27 0
33 27 30 128 l-3 87 27 3 c35 4 35 30 0 34 -19 2 -27 9 -28 24 -3 39 13 64 40
64 18 0 25 5 25 20 0 33 -53 27 -84 -11z"/>
<path d="M1060 1414 c-11 -12 -10 -18 3 -32 16 -15 18 -15 34 0 13 14 14 20 3
32 -7 9 -16 16 -20 16 -4 0 -13 -7 -20 -16z"/>
<path d="M610 1235 c0 -168 1 -175 20 -175 19 0 20 7 20 130 0 72 3 130 8 130
4 0 32 -58 63 -128 33 -76 61 -127 69 -127 9 0 37 52 71 128 31 70 59 131 63
134 3 4 6 -55 6 -130 0 -130 1 -137 20 -137 19 0 20 7 20 175 l0 175 -27 0
c-26 0 -32 -9 -88 -135 -33 -74 -62 -135 -65 -135 -3 0 -31 61 -64 135 -55
129 -59 135 -87 135 l-29 0 0 -175z"/>
<path d="M2529 1368 c-1 -7 -2 -22 -3 -33 0 -13 -9 -21 -23 -23 -13 -2 -23
-10 -23 -17 0 -7 10 -15 23 -17 21 -3 22 -9 27 -103 5 -97 6 -100 33 -113 31
-15 67 -8 67 14 0 8 -8 14 -19 14 -33 0 -42 24 -39 107 3 77 3 78 31 81 38 5
36 32 -3 32 -28 0 -30 3 -30 35 0 28 -4 35 -20 35 -11 0 -20 -6 -21 -12z"/>
<path d="M2710 1363 c-51 -18 -66 -77 -30 -113 43 -43 113 -12 113 51 0 44
-43 76 -83 62z m66 -49 c3 -13 3 -32 0 -41 -6 -15 -8 -15 -16 -3 -5 8 -7 23
-4 33 3 10 0 25 -7 33 -10 12 -9 13 5 8 9 -3 19 -17 22 -30z m-78 -14 c2 -43
-12 -54 -21 -18 -5 18 7 58 17 58 1 0 3 -18 4 -40z m37 20 c3 -5 1 -10 -4 -10
-6 0 -11 5 -11 10 0 6 2 10 4 10 3 0 8 -4 11 -10z m5 -66 c0 -14 -12 -19 -23
-8 -9 9 4 35 14 28 5 -3 9 -12 9 -20z"/>
<path d="M1223 1300 c-46 -27 -66 -73 -61 -132 6 -56 33 -92 84 -108 44 -15
98 -1 102 27 3 19 1 20 -36 10 -33 -9 -45 -8 -66 7 -53 34 -58 112 -11 156 20
19 32 22 70 18 38 -5 45 -3 45 12 0 35 -76 41 -127 10z"/>
<path d="M1476 1299 c-21 -17 -26 -18 -26 -5 0 9 -8 16 -20 16 -19 0 -20 -7
-20 -125 0 -116 1 -125 19 -125 17 0 19 9 23 91 3 82 5 93 27 111 14 10 33 17
43 15 14 -4 18 1 18 19 0 30 -27 32 -64 3z"/>
<path d="M1634 1310 c-11 -4 -33 -23 -48 -41 -25 -30 -28 -39 -24 -92 4 -49 9
-63 36 -89 27 -27 39 -32 80 -32 60 0 98 23 118 69 49 118 -49 231 -162 185z
m106 -50 c31 -31 28 -113 -5 -145 -13 -14 -35 -25 -48 -25 -34 0 -74 35 -82
70 -8 36 10 96 33 110 29 16 81 11 102 -10z"/>
<path d="M1894 1308 c-12 -5 -28 -21 -35 -34 -20 -39 -2 -74 54 -102 36 -19
47 -30 47 -48 0 -29 -40 -42 -76 -25 -34 15 -36 14 -32 -11 7 -47 105 -44 142
5 27 37 13 75 -39 104 -61 33 -67 41 -54 65 9 18 17 20 55 14 34 -4 44 -2 44
9 0 31 -63 44 -106 23z"/>
<path d="M2113 1306 c-56 -26 -82 -115 -53 -186 24 -58 103 -84 164 -55 79 38
97 163 32 224 -31 29 -99 37 -143 17z m116 -52 c31 -39 29 -107 -4 -139 -57
-58 -135 -11 -135 80 0 76 94 116 139 59z"/>
<path d="M1060 1195 c0 -63 -1 -118 -2 -122 -2 -5 7 -9 20 -11 22 -3 22 -2 22
122 0 119 -1 126 -20 126 -19 0 -20 -7 -20 -115z"/>
<path d="M2794 1102 c-6 -4 -16 -17 -23 -30 -10 -19 -8 -26 13 -47 14 -14 29
-25 34 -25 16 0 52 41 52 59 0 35 -48 62 -76 43z"/>
<path d="M610 295 c0 -288 0 -295 20 -295 20 0 20 7 20 295 0 288 0 295 -20
295 -20 0 -20 -7 -20 -295z"/>
<path d="M660 295 l0 -295 25 0 25 0 0 295 0 295 -25 0 -25 0 0 -295z"/>
<path d="M780 295 c0 -256 2 -295 15 -295 13 0 15 39 15 295 0 256 -2 295 -15
295 -13 0 -15 -39 -15 -295z"/>
<path d="M854 295 c0 -165 2 -234 3 -153 2 81 2 216 0 300 -1 84 -3 18 -3
-147z"/>
<path d="M930 296 l0 -296 125 0 125 0 0 290 0 290 -87 0 c-49 0 -105 3 -125
6 l-38 7 0 -297z"/>
<path d="M1200 290 l0 -290 25 0 25 0 0 290 0 290 -25 0 -25 0 0 -290z"/>
<path d="M1260 290 l0 -290 45 0 45 0 0 290 0 290 -45 0 -45 0 0 -290z"/>
<path d="M1360 290 c0 -187 4 -290 10 -290 6 0 10 103 10 290 0 187 -4 290
-10 290 -6 0 -10 -103 -10 -290z"/>
<path d="M1410 290 c0 -283 0 -290 20 -290 20 0 20 7 20 290 0 283 0 290 -20
290 -20 0 -20 -7 -20 -290z"/>
<path d="M1580 290 l0 -290 65 0 65 0 0 290 0 290 -65 0 -65 0 0 -290z"/>
<path d="M1720 290 l0 -290 25 0 25 0 0 290 0 290 -25 0 -25 0 0 -290z"/>
<path d="M1850 290 l0 -290 45 0 45 0 0 290 0 290 -45 0 -45 0 0 -290z"/>
<path d="M1950 290 l0 -290 25 0 25 0 0 290 0 290 -25 0 -25 0 0 -290z"/>
<path d="M2070 315 l0 -265 25 0 c13 0 40 9 60 20 19 11 37 19 40 17 3 -1 27
18 55 42 l50 44 0 203 0 204 -75 0 -75 0 -3 -252 -2 -253 -3 253 c-2 244 -3
252 -22 252 -19 0 -20 -8 -23 -262 l-2 -263 -3 263 c-1 166 -6 262 -12 262 -6
0 -10 -95 -10 -265z"/>
<path d="M2360 380 c0 -157 3 -200 13 -200 33 0 37 23 37 212 l0 188 -25 0
-25 0 0 -200z"/>
<path d="M2480 320 l0 -50 40 0 c21 0 55 8 75 17 30 14 35 22 35 50 l0 33 -75
0 -75 0 0 -50z"/>
</g>
</svg>
