<svg xmlns="http://www.w3.org/2000/svg" xmlns:xlink="http://www.w3.org/1999/xlink" version="1.1" x="0px" y="0px" viewBox="-255 347 100 125" style="enable-background:new -255 347 100 100;" xml:space="preserve"><style type="text/css">
	.st0{fill-rule:evenodd;clip-rule:evenodd;}
</style><path class="st0" d="M-172.7,421.3l-4.2-4.2c7.1-7.1,11.4-16.8,11.4-27.6c0-10.8-4.4-20.5-11.4-27.6l4.2-4.2  c8.1,8.1,13.2,19.4,13.2,31.8S-164.5,413.2-172.7,421.3z M-183.3,410.7l-4.2-4.2c4.3-4.3,7-10.3,7-17s-2.7-12.6-7-17l4.2-4.2  c5.4,5.4,8.8,12.9,8.8,21.2S-177.9,405.3-183.3,410.7z M-204.5,404.5c-8.3,0-15-6.7-15-15s6.7-15,15-15s15,6.7,15,15  S-196.2,404.5-204.5,404.5z M-221.5,406.5l-4.2,4.2c-5.4-5.4-8.8-12.9-8.8-21.2s3.4-15.8,8.8-21.2l4.2,4.2c-4.3,4.3-7,10.3-7,17  S-225.8,402.1-221.5,406.5z M-232.1,417.1l-4.2,4.2c-8.1-8.1-13.2-19.4-13.2-31.8s5-23.7,13.2-31.8l4.2,4.2  c-7.1,7.1-11.4,16.8-11.4,27.6C-243.5,400.3-239.1,410-232.1,417.1z M-216.5,427.5h9v-17h6v17h9v2h33v6h-33v2h-24v-2h-33v-6h33  V427.5z"/></svg>