<svg xmlns="http://www.w3.org/2000/svg" xmlns:xlink="http://www.w3.org/1999/xlink" version="1.1" x="0px" y="0px" viewBox="0 0 100 125" style="enable-background:new 0 0 100 100;" xml:space="preserve"><path d="M47.6,85.2C47.6,85.2,47.6,85.2,47.6,85.2c0.1,0,0.2,0,0.2,0c1.6,0,2.9-1.3,2.9-2.9c0-1.6-1.3-2.9-2.9-2.9  c0,0-0.1,0-0.1,0c0,0-0.1,0-0.1,0c-1.6,0-2.9,1.3-2.9,2.9C44.6,83.9,46,85.2,47.6,85.2z"/><path d="M53,7.6H42.3c-0.7,0-1.1,0.6-1.1,1.1s0.6,1.1,1.1,1.1H53c0.7,0,1.1-0.6,1.1-1.1S53.6,7.6,53,7.6z"/><path d="M77.8,91.8c2.2-2,7.8-8.1,5.8-18.1c-2.2-11.2-1.3-23.7-0.4-27.6c0.6-2.6,1-5.3-0.3-7.3c-0.9-1.3-2.3-2.1-4.3-2.4  c-2.2-0.4-4.2,0.2-5.7,1.1V8.7c-0.1-4.2-3.4-7.5-7.6-7.5h-35c-4.2,0-7.5,3.3-7.5,7.5v41.5l-1.3-0.3c-2.6-0.7-5.3,0.8-6,3.4l-0.2,0.6  c-0.4,1.6,0,3.3,1,4.5c-0.8,0.6-1.5,1.5-1.8,2.6l-0.2,0.6c-0.3,1.3-0.2,2.6,0.5,3.7c0.5,0.9,1.2,1.5,2.1,2c-0.5,0.5-0.9,1.2-1.1,2  l-0.2,0.6c-0.3,1.3-0.2,2.6,0.5,3.7c0.7,1.1,1.7,2,3,2.3l3.6,1v6.1c0,4.2,3.3,7.5,7.5,7.5h35.1c4.2,0,7.5-3.3,7.5-7.5V41.3  c1.1-0.9,3-2.2,5.2-1.8c1.7,0.3,2,0.8,2.1,1c0.7,1,0.2,3.2-0.1,4.8c-1.2,5.1-1.8,18.1,0.4,29c2,9.9-5.1,15.3-5.4,15.5  c-0.5,0.4-0.7,1-0.6,1.6l1.1,5.8c0.1,0.8,0.8,1.3,1.6,1.3c0.1,0,0.2,0,0.3,0c0.9-0.2,1.5-1,1.3-1.9L77.8,91.8z M25.5,15.7h44.4v58.9  H30.7c0.1-0.3,0.3-0.6,0.3-0.9l0.2-0.6c0.5-1.8-0.1-3.7-1.4-4.9c0.7-0.6,1.2-1.4,1.4-2.3l0.2-0.6c0.3-1.3,0.2-2.6-0.5-3.7  c-0.1-0.1-0.2-0.3-0.3-0.4c0.9-0.6,1.6-1.5,2-2.6c0.1-0.3,0.4-1.2,0.4-2.2c0-2.1-1.4-4.1-3.6-4.6l-3.8-1V15.7z M17.2,62.2l0.2-0.6  c0.1-0.5,0.5-1,1-1.3c0.5-0.3,1-0.3,1.6-0.2l7.3,2c0.5,0.1,1,0.5,1.3,1c0.3,0.5,0.3,1,0.2,1.6l-0.2,0.6c-0.1,0.5-0.5,1-1,1.3  c-0.5,0.3-1,0.3-1.6,0.2l-7.3-2c-0.5-0.1-1-0.5-1.3-1C17.1,63.3,17,62.7,17.2,62.2z M18.1,54.6l0.2-0.6c0.3-0.9,1.1-1.5,2-1.5  c0.2,0,0.4,0,0.5,0.1l7.8,2.1c0.5,0.1,1,0.5,1.3,1c0.3,0.5,0.3,1,0.2,1.6l-0.2,0.6c-0.1,0.5-0.5,1-1,1.3c-0.5,0.3-1,0.3-1.6,0.2  l-7.8-2.1C18.4,56.8,17.8,55.7,18.1,54.6z M18.7,72c-0.3-0.5-0.3-1-0.2-1.6l0.2-0.6c0.3-1.1,1.5-1.8,2.6-1.5L27,70  c1.1,0.3,1.8,1.4,1.5,2.6l-0.2,0.6c-0.3,1.1-1.5,1.8-2.6,1.5L20,72.9C19.4,72.8,19,72.4,18.7,72z M70,82.7c-0.1,2.5-2.2,4.6-4.7,4.6  h-35c-2.6,0-4.6-2.1-4.6-4.6v-5.2H70V82.7z M70,12.9H25.5V8.7c0-2.6,2.1-4.6,4.7-4.6h35.1c2.6,0,4.6,2.1,4.6,4.6V12.9z"/><path d="M44.7,28.3c0-0.2-0.1-0.4-0.3-0.6l-1.7-1.5l1.6-1.5c0.3-0.2,0.3-0.4,0.3-0.6c0-0.3-0.1-0.5-0.2-0.6  c-0.2-0.1-0.4-0.2-0.6-0.2c-0.3,0-0.5,0.1-0.6,0.2l-1.6,1.7l-1.7-1.6c-0.1-0.1-0.3-0.2-0.6-0.2c0,0,0,0,0,0c-0.3,0-0.5,0.1-0.6,0.2  c-0.2,0.2-0.3,0.4-0.3,0.7c0,0.2,0.1,0.5,0.3,0.6l0,0l1.7,1.5l-1.6,1.5c-0.3,0.2-0.3,0.4-0.3,0.6c0,0.3,0.1,0.5,0.2,0.6  c0.1,0.1,0.4,0.2,0.6,0.2c0.3,0,0.5-0.1,0.6-0.2l1.6-1.7l1.8,1.6c0.2,0.1,0.4,0.2,0.6,0.2c0.3,0,0.5-0.1,0.6-0.2  C44.7,28.7,44.8,28.5,44.7,28.3z"/><path d="M34.6,42.6l1.7,1.6c0.2,0.2,0.5,0.2,0.7,0.2c0.2,0,0.5-0.1,0.6-0.2c0.1-0.1,0.2-0.4,0.2-0.6  c0-0.2-0.1-0.4-0.3-0.6l-1.7-1.5l1.6-1.5c0.3-0.2,0.3-0.4,0.3-0.6c0-0.2-0.1-0.5-0.2-0.6c-0.1-0.1-0.4-0.2-0.6-0.2c0,0,0,0,0,0  c-0.2,0-0.5,0.1-0.6,0.2l-1.6,1.6L33,38.7c-0.1-0.1-0.4-0.2-0.6-0.2c-0.3,0-0.5,0.1-0.6,0.2c-0.2,0.2-0.3,0.4-0.3,0.7  c0,0.2,0.1,0.5,0.3,0.6l1.7,1.5L31.8,43c-0.3,0.2-0.3,0.4-0.3,0.6c0,0.2,0.1,0.5,0.2,0.6c0.1,0.1,0.4,0.2,0.6,0.2  c0.3,0,0.5-0.1,0.6-0.2L34.6,42.6z"/><path d="M49.3,58.6c0.2,0.1,0.4,0.2,0.7,0.1c0.2,0,0.5-0.2,0.6-0.3l1.3-1.9l2,1.3C54,58,54.3,58,54.5,58  c0.2,0,0.5-0.2,0.6-0.3c0.1-0.2,0.2-0.4,0.1-0.7c0-0.2-0.1-0.4-0.3-0.5l-0.1,0l-1.9-1.2l1.3-1.7c0.2-0.2,0.3-0.4,0.2-0.7  c0-0.2-0.2-0.5-0.3-0.6c-0.2-0.1-0.4-0.2-0.7-0.1c-0.2,0-0.5,0.2-0.6,0.3l-1.3,1.9L49.8,53c-0.1-0.1-0.3-0.1-0.5-0.1  c-0.1,0-0.1,0-0.2,0c-0.2,0-0.5,0.2-0.6,0.3c-0.2,0.2-0.3,0.5-0.2,0.7c0,0.2,0.2,0.4,0.4,0.5l1.9,1.3l-1.3,1.7  C49,57.6,49,57.8,49,58C49.1,58.3,49.2,58.5,49.3,58.6z"/><path d="M65.3,47.5c0-0.2,0-0.4-0.2-0.6l-1.6-1.6l1.7-1.4c0.3-0.2,0.4-0.4,0.4-0.6c0-0.2-0.1-0.5-0.2-0.6  c-0.1-0.1-0.4-0.2-0.6-0.2c-0.2,0-0.5,0.1-0.6,0.2l-1.7,1.6l-1.6-1.7c-0.1-0.1-0.4-0.2-0.6-0.2c-0.3,0-0.5,0.1-0.6,0.2  c-0.2,0.2-0.3,0.4-0.3,0.6c0,0.2,0.1,0.5,0.2,0.6l1.6,1.6l-1.7,1.4C59.1,46.8,59,47,59,47.3c0,0.2,0.1,0.5,0.2,0.6  c0.1,0.1,0.4,0.2,0.6,0.2c0.2,0,0.5-0.1,0.6-0.2l1.7-1.6l1.7,1.7c0.2,0.2,0.4,0.3,0.6,0.3c0,0,0,0,0,0c0.3,0,0.5-0.1,0.6-0.2  C65.2,48,65.3,47.8,65.3,47.5z"/><path d="M56.4,30.9l-4.9-1.4c-0.1,0-0.2,0-0.3,0c-0.2,0-0.4,0-0.6,0.1c-0.3,0.2-0.5,0.4-0.6,0.7c-0.1,0.3-0.1,0.6,0.1,0.9  c0.2,0.3,0.4,0.5,0.7,0.6l2.4,0.7l-0.9,0.6c-14.7,9.7-14,22.3-13,27.3l0.1,0.3L39,60.9c-1.5,1.2-2,3.3-1.2,5.1  c0.2,0.4,0.4,0.8,0.7,1.2c1.2,1.4,3.3,1.8,5,1.1c1.1-0.5,1.9-1.3,2.3-2.4c0.4-1.1,0.4-2.3,0-3.3c-0.7-1.6-2.2-2.6-3.9-2.6l-0.4,0  l-0.1-0.4c-0.8-4.3-1.3-15.4,11.9-24.2l1-0.7l-0.6,2.8c-0.1,0.4,0,0.7,0.3,1c0.2,0.2,0.4,0.3,0.7,0.4c0.3,0.1,0.6,0,0.9-0.2  c0.3-0.2,0.4-0.4,0.5-0.8l1.1-5.5C57.3,31.7,57,31.1,56.4,30.9z M43.3,62.9c0.1,0.2,0.3,0.3,0.3,0.5c0.2,0.5,0.2,1,0,1.5  c-0.2,0.5-0.6,0.9-1.1,1.1c-0.2,0.1-0.5,0.2-0.8,0.2c-0.2,0-0.5,0-0.7-0.1c-0.5-0.2-0.9-0.6-1.1-1.1c-0.4-1,0-2.2,1-2.6  C41.8,62.1,42.7,62.3,43.3,62.9z"/><circle cx="62.4" cy="28" r="3.2"/><text x="0" y="115" fill="#000000" font-size="5px" font-weight="bold" font-family="'Helvetica Neue', Helvetica, Arial-Unicode, Arial, Sans-serif">Created by Aneeque Ahmed</text><text x="0" y="120" fill="#000000" font-size="5px" font-weight="bold" font-family="'Helvetica Neue', Helvetica, Arial-Unicode, Arial, Sans-serif">from the Noun Project</text></svg>