<svg xmlns="http://www.w3.org/2000/svg" data-name="Layer 1" viewBox="0 0 100 125" x="0px" y="0px"><title>32</title><g data-name="Group"><path data-name="Compound Path" d="M21.7,40.9H43.1a1,1,0,0,0,1-1V27.1a1,1,0,0,0-1-1H21.7a1,1,0,0,0-1,1V39.9A1,1,0,0,0,21.7,40.9Zm1-12.8H42.1V38.9H22.7Z"/><path data-name="Compound Path" d="M82.5,36a11.7,11.7,0,0,0,6.6-2.1A12.6,12.6,0,0,0,94,27.4l.2-.7c3-9.2-3.5-19.1-3.7-19.6L89.4,5.6a1,1,0,0,0-1.2-.4l-1.8.7a31.1,31.1,0,0,0-6,3.2c-4.3,2.9-7.3,6.5-8.6,10.4l-.2.7a12.4,12.4,0,0,0,.6,9.3,11.4,11.4,0,0,0,6.2,5.7V48.8a5.8,5.8,0,0,0,5.8,5.8,3.8,3.8,0,0,1,3.8,3.8v8a12,12,0,1,1-24,0V37.7a8,8,0,0,0-8-8H53.5V24.2a9,9,0,0,0-9-9H20.3a9,9,0,0,0-9,9v57a6.9,6.9,0,0,0,.6,13.7h41a6.9,6.9,0,0,0,.6-13.7V31.7h2.4a6,6,0,0,1,6,6V66.3a14,14,0,1,0,28,0v-8a5.8,5.8,0,0,0-5.8-5.8,3.8,3.8,0,0,1-3.8-3.8v-13ZM20.3,17.2H44.5a7,7,0,0,1,7,7V81.1H13.3V24.2A7,7,0,0,1,20.3,17.2ZM57.8,88a4.9,4.9,0,0,1-4.9,4.9h-41a4.9,4.9,0,0,1,0-9.8h41A4.9,4.9,0,0,1,57.8,88ZM92.3,26.1l-.2.7a10.6,10.6,0,0,1-4,5.4,9.6,9.6,0,0,1-7.5,1.5L88.8,8.4C89.5,9.5,94.9,18.2,92.3,26.1ZM74,28.5a10.4,10.4,0,0,1-.5-7.8l.2-.7c1.1-3.5,3.8-6.7,7.8-9.4a29.3,29.3,0,0,1,5.4-2.9L78.6,33.1A9.5,9.5,0,0,1,74,28.5Z"/></g></svg>