<svg xmlns="http://www.w3.org/2000/svg" xmlns:xlink="http://www.w3.org/1999/xlink" version="1.1" x="0px" y="0px" viewBox="0 0 64 80" style="enable-background:new 0 0 64 64;" xml:space="preserve"><g><path d="M32,18c-4.962,0-9,4.037-9,9s4.038,9,9,9s9-4.037,9-9S36.962,18,32,18z M32,28c-0.551,0-1-0.448-1-1s0.449-1,1-1   s1,0.448,1,1S32.551,28,32,28z M33,33.92v-4.104c1.161-0.414,2-1.514,2-2.816c0-1.654-1.346-3-3-3s-3,1.346-3,3   c0,1.302,0.839,2.402,2,2.816v4.104c-3.387-0.488-6-3.401-6-6.92c0-3.859,3.14-7,7-7s7,3.141,7,7C39,30.519,36.387,33.432,33,33.92   z"/><path d="M43.87,32.28c0.093-0.207,0.18-0.414,0.26-0.622L49,30.848v-7.695l-4.87-0.811c-0.152-0.393-0.327-0.786-0.523-1.175   l-1.786,0.9c0.248,0.491,0.456,0.989,0.617,1.478l0.189,0.573L47,24.848v4.305l-4.373,0.729l-0.189,0.573   c-0.161,0.488-0.369,0.986-0.617,1.478l-0.272,0.54l2.58,3.611l-3.044,3.045l-3.612-2.58l-0.539,0.271   c-0.493,0.248-0.991,0.456-1.479,0.617l-0.573,0.189L34.153,42h-4.306l-0.729-4.373l-0.573-0.189   c-0.489-0.162-0.987-0.369-1.478-0.617l-0.54-0.271l-3.612,2.58l-3.644-3.644l-1.414,1.414L22.7,41.74l4.02-2.871   c0.207,0.093,0.414,0.18,0.621,0.26L28.153,44h7.694l0.812-4.871c0.207-0.08,0.415-0.167,0.622-0.26l4.02,2.871l5.441-5.439   L43.87,32.28z"/><path d="M15,23.152v7.695l4.87,0.811c0.152,0.393,0.327,0.786,0.523,1.175l1.786-0.9c-0.248-0.491-0.456-0.989-0.617-1.478   l-0.189-0.573L17,29.152v-4.305l4.373-0.729l0.189-0.573c0.161-0.488,0.369-0.986,0.617-1.478l0.272-0.54l-2.58-3.611l3.044-3.045   l3.613,2.58l0.54-0.272c0.485-0.245,0.982-0.452,1.477-0.616l0.573-0.189L29.847,12h4.306l0.729,4.373l0.573,0.189   c0.494,0.163,0.991,0.37,1.478,0.616l0.54,0.272l3.612-2.58l3.644,3.644l1.414-1.414L41.3,12.258l-4.02,2.872   c-0.207-0.093-0.414-0.179-0.622-0.26L35.847,10h-7.694l-0.812,4.87c-0.208,0.081-0.416,0.168-0.622,0.26l-4.02-2.872l-5.441,5.441   l2.872,4.021c-0.093,0.207-0.18,0.414-0.26,0.622L15,23.152z"/><rect x="31" y="14" width="2" height="2"/><rect x="22.515" y="17.515" transform="matrix(0.7071 -0.7071 0.7071 0.7071 -6.2046 22.0502)" width="2" height="2"/><rect x="19" y="26" width="2" height="2"/><rect x="22.515" y="34.485" transform="matrix(0.7071 -0.7071 0.7071 0.7071 -18.2047 27.0208)" width="2" height="2"/><rect x="31" y="38" width="2" height="2"/><rect x="39.485" y="34.485" transform="matrix(0.7071 -0.7071 0.7071 0.7071 -13.234 39.0209)" width="2" height="2"/><rect x="43" y="26" width="2" height="2"/><rect x="39.485" y="17.515" transform="matrix(0.7071 -0.7071 0.7071 0.7071 -1.2339 34.0503)" width="2" height="2"/><path d="M32,57c-1.654,0-3,1.346-3,3s1.346,3,3,3s3-1.346,3-3S33.654,57,32,57z M32,61c-0.551,0-1-0.448-1-1s0.449-1,1-1   s1,0.448,1,1S32.551,61,32,61z"/><path d="M60,57c-1.654,0-3,1.346-3,3s1.346,3,3,3s3-1.346,3-3S61.654,57,60,57z M60,61c-0.551,0-1-0.448-1-1s0.449-1,1-1   s1,0.448,1,1S60.551,61,60,61z"/><path d="M4,57c-1.654,0-3,1.346-3,3s1.346,3,3,3s3-1.346,3-3S5.654,57,4,57z M4,61c-0.551,0-1-0.448-1-1s0.449-1,1-1s1,0.448,1,1   S4.551,61,4,61z"/><path d="M4,47c-1.654,0-3,1.346-3,3s1.346,3,3,3s3-1.346,3-3S5.654,47,4,47z M4,51c-0.551,0-1-0.448-1-1s0.449-1,1-1s1,0.448,1,1   S4.551,51,4,51z"/><rect x="31" y="46" width="2" height="9"/><path d="M20,54c0,2.757-2.243,5-5,5H9v2h6c3.86,0,7-3.141,7-7V42h-2V54z"/><path d="M14,48c0,0.552-0.449,1-1,1H9v2h4c1.654,0,3-1.346,3-3V33h-2V48z"/><path d="M60,47c-1.654,0-3,1.346-3,3s1.346,3,3,3s3-1.346,3-3S61.654,47,60,47z M60,51c-0.551,0-1-0.448-1-1s0.449-1,1-1   s1,0.448,1,1S60.551,51,60,51z"/><path d="M44,54V42h-2v12c0,3.859,3.14,7,7,7h6v-2h-6C46.243,59,44,56.757,44,54z"/><path d="M50,48V33h-2v15c0,1.654,1.346,3,3,3h4v-2h-4C50.449,49,50,48.552,50,48z"/><path d="M63,23c0-4.411-3.589-8-8-8c-0.354,0-0.702,0.031-1.047,0.076C53.489,10.546,49.651,7,45,7c-1.02,0-2.019,0.18-2.963,0.509   C40.285,3.571,36.4,1,32,1c-4.4,0-8.284,2.572-10.037,6.509C21.018,7.179,20.019,7,19,7c-4.649,0-8.485,3.543-8.952,8.071   C9.703,15.024,9.353,15,9,15c-4.411,0-8,3.589-8,8s3.589,8,8,8h4v-2H9c-3.309,0-6-2.691-6-6s2.691-6,6-6   c2.125,0,4.049,1.089,5.146,2.913l1.714-1.031c-0.899-1.496-2.262-2.637-3.84-3.284C12.23,11.926,15.276,9,19,9   c1.706,0,3.35,0.621,4.628,1.748l1.322-1.5c-0.371-0.327-0.769-0.617-1.184-0.876C25.19,5.124,28.382,3,32,3   c3.62,0,6.813,2.126,8.235,5.377c-0.731,0.456-1.404,1.011-1.986,1.67l1.499,1.324C41.079,9.864,42.993,9,45,9   c3.721,0,6.764,2.921,6.979,6.589c-0.95,0.387-1.825,0.959-2.578,1.698l1.4,1.428C51.929,17.608,53.42,17,55,17   c3.309,0,6,2.691,6,6s-2.691,6-6,6h-4v2h4C59.411,31,63,27.411,63,23z"/></g></svg>