<svg xmlns="http://www.w3.org/2000/svg" xmlns:xlink="http://www.w3.org/1999/xlink" version="1.1" x="0px" y="0px" viewBox="0 0 100 125" style="enable-background:new 0 0 100 100;" xml:space="preserve"><path d="M59.0810547,45.2714844c0-5.0073242-4.0737305-9.0810547-9.0810547-9.0810547s-9.0810547,4.0737305-9.0810547,9.0810547  S44.9926758,54.3525391,50,54.3525391S59.0810547,50.2788086,59.0810547,45.2714844z M42.9189453,45.2714844  c0-3.9042969,3.1767578-7.0810547,7.0810547-7.0810547s7.0810547,3.1767578,7.0810547,7.0810547  S53.9042969,52.3525391,50,52.3525391S42.9189453,49.1757812,42.9189453,45.2714844z"/><path d="M52.9458008,63.6474609c0.0297852,0.2822266,0.1777344,0.5385742,0.4077148,0.7050781  c0.1723633,0.125,0.3779297,0.1904297,0.5869141,0.1904297c0.0698242,0,0.1401367-0.0073242,0.2099609-0.0224609  c2.3232422-0.4985352,4.5180664-1.4091797,6.5239258-2.7055664c0.2382812-0.1538086,0.3999023-0.4018555,0.4443359-0.6816406  c0.0449219-0.2802734-0.03125-0.565918-0.2094727-0.7866211c-0.9536133-1.1801758-0.8623047-2.8798828,0.2119141-3.9541016  c1.0737305-1.074707,2.7739258-1.1655273,3.9541016-0.2119141c0.2207031,0.1782227,0.5063477,0.2558594,0.7866211,0.2094727  c0.2797852-0.0444336,0.527832-0.2060547,0.6816406-0.4443359c1.2963867-2.0058594,2.206543-4.2006836,2.7055664-6.5239258  c0.0595703-0.2773438-0.0014648-0.5668945-0.1679688-0.796875c-0.1665039-0.2294922-0.4228516-0.3779297-0.7050781-0.4077148  c-1.5097656-0.1586914-2.6484375-1.425293-2.6484375-2.9458008s1.1386719-2.7871094,2.6484375-2.9458008  c0.2822266-0.0297852,0.5385742-0.1777344,0.7050781-0.4077148s0.2275391-0.5195312,0.1679688-0.796875  C68.75,38.7973633,67.8398438,36.6020508,66.543457,34.597168c-0.1542969-0.2382812-0.4018555-0.3999023-0.6821289-0.4443359  c-0.2773438-0.046875-0.5654297,0.0317383-0.7861328,0.2094727c-1.1791992,0.953125-2.8789062,0.8623047-3.9541016-0.2119141  c-1.0742188-1.074707-1.1655273-2.7744141-0.2119141-3.9541016c0.1782227-0.2202148,0.2543945-0.5063477,0.2094727-0.7861328  c-0.0444336-0.2802734-0.2060547-0.5283203-0.4443359-0.6821289c-2.0058594-1.2963867-4.2006836-2.2070312-6.5239258-2.7055664  c-0.2802734-0.0605469-0.5678711,0.0009766-0.796875,0.1679688c-0.2299805,0.1665039-0.3779297,0.4228516-0.4077148,0.7050781  C52.7871094,28.4052734,51.5205078,29.5439453,50,29.5439453s-2.7871094-1.1386719-2.9458008-2.6484375  c-0.0297852-0.2822266-0.1777344-0.5385742-0.4077148-0.7050781c-0.2294922-0.1665039-0.5166016-0.2285156-0.796875-0.1679688  c-2.3232422,0.4985352-4.5180664,1.4091797-6.5239258,2.7055664c-0.2382812,0.1538086-0.3999023,0.4018555-0.4443359,0.6821289  c-0.0449219,0.2797852,0.03125,0.565918,0.2094727,0.7861328c0.9536133,1.1796875,0.8623047,2.8793945-0.2119141,3.9541016  c-1.0751953,1.0742188-2.7744141,1.1645508-3.9541016,0.2119141c-0.2207031-0.1777344-0.5083008-0.2563477-0.7861328-0.2094727  c-0.2802734,0.0444336-0.527832,0.2060547-0.6821289,0.4443359c-1.2963867,2.0048828-2.206543,4.2001953-2.7055664,6.5239258  c-0.0595703,0.2773438,0.0014648,0.5668945,0.1679688,0.796875s0.4228516,0.3779297,0.7050781,0.4077148  c1.5097656,0.1586914,2.6484375,1.425293,2.6484375,2.9458008s-1.1386719,2.7871094-2.6484375,2.9458008  c-0.2822266,0.0297852-0.5385742,0.1782227-0.7050781,0.4077148c-0.1665039,0.2299805-0.2275391,0.5195312-0.1679688,0.796875  c0.4990234,2.3232422,1.4091797,4.5180664,2.7055664,6.5239258c0.1538086,0.2382812,0.4018555,0.3999023,0.6816406,0.4443359  c0.28125,0.0463867,0.565918-0.03125,0.7866211-0.2094727c1.1796875-0.9536133,2.8803711-0.8623047,3.9541016,0.2119141  c1.0742188,1.0742188,1.1655273,2.7739258,0.2119141,3.9541016c-0.1782227,0.2207031-0.2543945,0.5063477-0.2094727,0.7866211  c0.0444336,0.2797852,0.2060547,0.527832,0.4443359,0.6816406c2.0058594,1.2963867,4.2006836,2.2070312,6.5239258,2.7055664  c0.2783203,0.0595703,0.5673828-0.0014648,0.796875-0.1679688c0.2299805-0.1665039,0.3779297-0.4228516,0.4077148-0.7050781  C47.2128906,62.1376953,48.4794922,60.9990234,50,60.9990234S52.7871094,62.1376953,52.9458008,63.6474609z M45.3105469,62.3310547  c-1.4169922-0.3886719-2.7749023-0.9521484-4.0561523-1.6831055c0.9057617-1.8642578,0.5644531-4.144043-0.9614258-5.6694336  c-1.5249023-1.5258789-3.8056641-1.8671875-5.6694336-0.9614258c-0.730957-1.28125-1.2944336-2.6391602-1.6831055-4.0561523  c1.9599609-0.6762695,3.3320312-2.5297852,3.3320312-4.6894531s-1.3720703-4.0131836-3.3320312-4.6894531  c0.3886719-1.4174805,0.9521484-2.7753906,1.6831055-4.0561523c1.8618164,0.9047852,4.1430664,0.5644531,5.6694336-0.9614258  c1.5258789-1.5258789,1.8671875-3.8056641,0.9614258-5.6694336c1.28125-0.730957,2.6391602-1.2949219,4.0561523-1.6831055  C45.9868164,30.171875,47.840332,31.5439453,50,31.5439453s4.0131836-1.3720703,4.6894531-3.3320312  c1.4169922,0.3881836,2.7749023,0.9521484,4.0561523,1.6831055c-0.9057617,1.8637695-0.5644531,4.1435547,0.9614258,5.6694336  c1.5258789,1.5263672,3.8051758,1.8676758,5.6694336,0.9614258c0.730957,1.2807617,1.2944336,2.6386719,1.6831055,4.0561523  c-1.9599609,0.6762695-3.3320312,2.5297852-3.3320312,4.6894531s1.3720703,4.0131836,3.3320312,4.6894531  c-0.3886719,1.4169922-0.9521484,2.7753906-1.6831055,4.0561523c-1.8632812-0.9047852-4.1430664-0.5644531-5.6694336,0.9614258  c-1.5258789,1.5253906-1.8671875,3.8051758-0.9614258,5.6694336c-1.28125,0.730957-2.6391602,1.2944336-4.0561523,1.6831055  C54.0131836,60.3710938,52.159668,58.9990234,50,58.9990234S45.9868164,60.3710938,45.3105469,62.3310547z"/><path d="M49.4404297,89.8881836c0.1425781,0.0737305,0.300293,0.1123047,0.4609375,0.1123047h0.1972656  c0.1606445,0,0.3183594-0.0385742,0.4609375-0.1123047C90.0131836,69.4003906,90.0048828,23.8305664,90,23.3725586  c-0.003418-0.309082-0.1494141-0.5996094-0.3955078-0.7866211c-3.7875977-2.8730469-8.2275391-5.3613281-13.1958008-7.3959961  c-16.7827148-6.8725586-36.0341797-6.871582-52.815918,0c-4.96875,2.0336914-9.4086914,4.5224609-13.1972656,7.3959961  C10.1494141,22.7729492,10.003418,23.0634766,10,23.3725586C9.9951172,23.8305664,9.9868164,69.4003906,49.4404297,89.8881836z   M24.3505859,17.0405273c16.3007812-6.6733398,34.9995117-6.6743164,51.300293,0  c4.6323242,1.8969727,8.7822266,4.1962891,12.3432617,6.8378906C87.8833008,28.7626953,85.8535156,69.0415039,50,87.9238281  c-35.824707-18.8671875-37.8793945-59.159668-37.9936523-64.0458984  C15.5678711,21.2358398,19.7182617,18.9370117,24.3505859,17.0405273z"/><path d="M49.4599609,81.9003906c0.1425781,0.0737305,0.300293,0.1123047,0.4609375,0.1123047h0.1582031  c0.1606445,0,0.3183594-0.0385742,0.4609375-0.1123047c31.7304688-16.4770508,31.7236328-54.1142578,31.7197266-54.4921875  c-0.0029297-0.3095703-0.1494141-0.6000977-0.3955078-0.7871094c-3.050293-2.3134766-6.6240234-4.3168945-10.621582-5.9536133  c-13.4995117-5.527832-28.984375-5.5292969-42.4838867-0.0004883c-4,1.6376953-7.5737305,3.6411133-10.6230469,5.9541016  c-0.2460938,0.1870117-0.3925781,0.4775391-0.3955078,0.7871094C17.7363281,27.7861328,17.7294922,65.4233398,49.4599609,81.9003906  z M19.7475586,27.9130859c2.8217773-2.0810547,6.105957-3.8950195,9.769043-5.3955078  C42.534668,17.1875,57.4677734,17.1879883,70.4848633,22.5180664c3.6616211,1.4995117,6.9448242,3.3129883,9.7680664,5.3955078  C80.1425781,32.2890625,78.3540039,64.9208984,50,79.925293C21.6733398,64.9350586,19.8608398,32.2905273,19.7475586,27.9130859z"/></svg>