<svg xmlns="http://www.w3.org/2000/svg" viewBox="0 0 64 80" x="0px" y="0px"><g><path d="M57,2H27a5.006,5.006,0,0,0-5,5V20.7A10.991,10.991,0,1,0,6.7,36H3a1,1,0,0,0-1,1v4a1,1,0,0,0,1,1H4.18L8.02,61.2A1,1,0,0,0,9,62H55a1,1,0,0,0,.98-.8L59.82,42H61a1,1,0,0,0,1-1V37a1,1,0,0,0-1-1H54V32h7a1,1,0,0,0,1-1V7A5.006,5.006,0,0,0,57,2ZM4,27a9,9,0,1,1,9,9A9.011,9.011,0,0,1,4,27Zm15.305,9A11.092,11.092,0,0,0,22,33.305V36ZM19,60V58H33v2Zm25.671-.309L31.444,52.637l.885-1.328,13.227,7.054ZM41,60H35V57a.989.989,0,0,0-.045-.224ZM22.094,55.68l-1.572-1.572L30.906,46.32l1.572,1.572Zm6.926-2.695a1.023,1.023,0,0,0,.01.259,1,1,0,0,0,.5.638L33.5,56H25ZM54.18,60H46.868l.964-1.445a1,1,0,0,0-.361-1.437l-14-7.469L34.6,48.8a1,1,0,0,0,.107-1.507l-3-3A1,1,0,0,0,30.4,44.2l-12,9a1,1,0,0,0-.107,1.507L19.586,56H18a1,1,0,0,0-1,1v3H9.82l-2-10H13V48H7.42l-.4-2H19V44H6.62l-.4-2H57.78ZM60,40H4V38H60ZM24,36V7a3,3,0,0,1,3-3H53a4.98,4.98,0,0,0-1,3V36Zm36-6H54V7a3,3,0,0,1,6,0Z"/><path d="M47,8H28v2h4.219l2.566,10.263A3,3,0,1,0,39,23a2.966,2.966,0,0,0-.184-1h2.368A2.966,2.966,0,0,0,41,23a3,3,0,1,0,3-3H36.781l-.5-2H45a1,1,0,0,0,.97-.757l2-8A1,1,0,0,0,47,8ZM37,23a1,1,0,1,1-1-1A1,1,0,0,1,37,23Zm8,0a1,1,0,1,1-1-1A1,1,0,0,1,45,23Zm-.781-7H35.781l-.5-2H42V12H34.781l-.5-2H45.719Z"/><rect x="27" y="28" width="2" height="2"/><rect x="31" y="28" width="15" height="2"/><rect x="27" y="32" width="16" height="2"/><path d="M14,20H12v2H10a1,1,0,0,0-1,1v4a1,1,0,0,0,1,1h5v2H9v2h3v2h2V32h2a1,1,0,0,0,1-1V27a1,1,0,0,0-1-1H11V24h6V22H14Z"/><polygon points="16 14 18 14 18 12 20 12 20 10 18 10 18 8 16 8 16 10 14 10 14 12 16 12 16 14"/><polygon points="4 8 6 8 6 6 8 6 8 4 6 4 6 2 4 2 4 4 2 4 2 6 4 6 4 8"/><rect x="6" y="12" width="2" height="2"/><rect x="19" y="3" width="2" height="2"/></g></svg>