<?xml version="1.0" standalone="no"?>
<!DOCTYPE svg PUBLIC "-//W3C//DTD SVG 20010904//EN"
 "http://www.w3.org/TR/2001/REC-SVG-20010904/DTD/svg10.dtd">
<svg version="1.0" xmlns="http://www.w3.org/2000/svg"
 width="299.000000pt" height="168.000000pt" viewBox="0 0 299.000000 168.000000"
 preserveAspectRatio="xMidYMid meet">

<g transform="translate(0.000000,168.000000) scale(0.100000,-0.100000)"
fill="#000000" stroke="none">
<path d="M1812 1417 c-30 -36 -163 -67 -462 -110 l-225 -32 -3 -137 -3 -137
43 -6 c24 -4 84 -12 133 -19 l90 -12 -90 -13 c-49 -7 -108 -16 -130 -19 l-40
-8 -3 -136 -3 -136 88 -12 c49 -7 108 -16 133 -20 l45 -7 -60 -7 c-33 -5 -91
-13 -130 -20 l-70 -11 -3 -133 -3 -133 23 6 c13 2 119 18 237 35 242 35 368
63 414 94 l32 22 3 143 c2 126 0 146 -15 163 -17 19 -17 20 0 29 15 9 17 28
17 156 0 123 -3 149 -17 165 -15 17 -15 19 1 31 14 11 16 30 14 146 -3 113 -5
132 -16 118z"/>
</g>
</svg>
