<svg xmlns="http://www.w3.org/2000/svg" xmlns:xlink="http://www.w3.org/1999/xlink" version="1.1" x="0px" y="0px" viewBox="0 0 52 65" enable-background="new 0 0 52 52" xml:space="preserve"><g><g><path d="M34.6610947,39.387207H17.36129c-1.378417,0-2.499999-1.1210938-2.499999-2.5V21.5004883    c0-0.2763672,0.2236328-0.5,0.5-0.5h21.2998047c0.2763672,0,0.5,0.2236328,0.5,0.5V36.887207    C37.1610947,38.2661133,36.0395126,39.387207,34.6610947,39.387207z M15.8612909,22.0004883V36.887207    c0,0.8271484,0.6728506,1.5,1.499999,1.5h17.2998047c0.8271484,0,1.5-0.6728516,1.5-1.5V22.0004883H15.8612909z"/></g><g><path d="M34.0326767,22.0004883H17.9897079c-0.2763672,0-0.5-0.2236328-0.5-0.5v-4.3652344    c0-4.6992188,3.8227539-8.5214844,8.5214844-8.5214844s8.5214844,3.8222656,8.5214844,8.5214844v4.3652344    C34.5326767,21.7768555,34.3090439,22.0004883,34.0326767,22.0004883z M18.4897079,21.0004883h15.0429688v-3.8652344    c0-4.1474609-3.3740234-7.5214844-7.5214844-7.5214844s-7.5214844,3.3740234-7.5214844,7.5214844V21.0004883z"/></g><g><g><g><path d="M4.9579706,35.769043c-0.1923828,0-0.3759766-0.1113281-0.4580078-0.2988281      C0.5649042,26.5288086,2.4848261,16.2885742,9.3910761,9.3833008c9.1635733-9.1630859,24.074707-9.1650391,33.2402344,0      c0.1953125,0.1953125,0.1953125,0.5117188,0,0.7070313s-0.5117188,0.1953125-0.7070313,0      c-8.7753906-8.7744141-23.0527344-8.7734375-31.8261719,0c-6.6123047,6.6113281-8.4506836,16.4160156-4.6831055,24.9775391      c0.1113281,0.2529297-0.003418,0.5478516-0.2563477,0.6591797C5.0932245,35.7553711,5.0248652,35.769043,4.9579706,35.769043z"/></g><g><path d="M26.0111923,49.4897461c-6.019043,0-12.038085-2.2910156-16.6201172-6.8720703      c-0.1953125-0.1953125-0.1953125-0.5117188,0-0.7070313s0.5117188-0.1953125,0.7070313,0      c8.7749014,8.7724609,23.0522461,8.7724609,31.8261719,0c6.8188477-6.8183594,8.5361328-17.2089844,4.2724609-25.8564453      c-0.1225586-0.2470703-0.0205078-0.546875,0.2270508-0.6689453c0.2485352-0.1230469,0.5478516-0.0195313,0.6694336,0.2275391      c4.4536133,9.03125,2.6601563,19.8837891-4.4619141,27.0048828C38.04879,47.1987305,32.029747,49.4897461,26.0111923,49.4897461      z"/></g></g><g><path d="M42.2777939,10.2368164h-3.5361328c-0.2763672,0-0.5-0.2236328-0.5-0.5s0.2236328-0.5,0.5-0.5h3.0361328V6.2016602     c0-0.2763672,0.2236328-0.5,0.5-0.5s0.5,0.2236328,0.5,0.5v3.5351563     C42.7777939,10.0131836,42.5541611,10.2368164,42.2777939,10.2368164z"/></g><g><path d="M9.7441034,46.2993164L9.7441034,46.2993164c-0.2763672,0-0.5-0.2236328-0.5-0.5l0.0004883-3.5351563     c0-0.2763672,0.2241211-0.5,0.5-0.5h3.5361328c0.2763672,0,0.5,0.2236328,0.5,0.5s-0.2236328,0.5-0.5,0.5h-3.0361328     l-0.0004883,3.0351563C10.2441034,46.0756836,10.0199823,46.2993164,9.7441034,46.2993164z"/></g></g><g><g><path d="M26.0111923,31.612793c-1.378418,0-2.5-1.1210938-2.5-2.5s1.121582-2.5,2.5-2.5s2.5,1.1210938,2.5,2.5     S27.3896103,31.612793,26.0111923,31.612793z M26.0111923,27.612793c-0.8271484,0-1.5,0.6728516-1.5,1.5s0.6728516,1.5,1.5,1.5     s1.5-0.6728516,1.5-1.5S26.8383408,27.612793,26.0111923,27.612793z"/></g><g><path d="M26.0111923,34.387207c-0.2763672,0-0.5-0.2236328-0.5-0.5V31.112793c0-0.2763672,0.2236328-0.5,0.5-0.5     s0.5,0.2236328,0.5,0.5v2.7744141C26.5111923,34.1635742,26.2875595,34.387207,26.0111923,34.387207z"/></g></g></g></svg>