<svg xmlns="http://www.w3.org/2000/svg" xmlns:xlink="http://www.w3.org/1999/xlink" version="1.1" x="0px" y="0px" viewBox="0 0 512 640" style="enable-background:new 0 0 512 512;" xml:space="preserve"><g><g><g><path d="M143.91,446.28c-11.59,0-22.98-1.86-33.85-5.511c-10.52-3.54-20.39-8.7-29.34-15.34c-8.84-6.57-16.58-14.43-23.01-23.37     c-6.51-9.06-11.53-19.02-14.9-29.6c-0.32-1.021-0.23-2.11,0.26-3.05c0.49-0.95,1.32-1.65,2.34-1.98     c0.39-0.12,0.8-0.189,1.21-0.189c1.75,0,3.28,1.119,3.81,2.79c13.02,40.819,50.58,68.25,93.47,68.25h0.01     c26.24,0,50.9-10.2,69.45-28.73c18.53-18.52,28.73-43.16,28.73-69.37c0-54.14-44.04-98.18-98.18-98.18     c-50.72,0-93.66,39.569-97.77,90.09c-0.18,2.17-2.14,3.83-4.31,3.66c-2.07-0.17-3.69-1.931-3.68-4c0-0.11,0.01-0.21,0.02-0.311     c2.15-26.51,14.11-51.08,33.66-69.199c19.65-18.21,45.25-28.24,72.08-28.24c14.35,0,28.26,2.81,41.36,8.34     c12.65,5.35,24,13,33.74,22.74c9.75,9.739,17.4,21.1,22.75,33.75c5.53,13.1,8.34,27.01,8.33,41.35c0,14.33-2.8,28.23-8.33,41.311     c-5.35,12.63-13,23.979-22.75,33.72s-21.1,17.39-33.75,22.74C172.17,443.479,158.26,446.28,143.91,446.28z M42.45,355.72     c-2.03,0-3.74-1.53-3.97-3.55c-0.24-2.19,1.34-4.18,3.53-4.42c2.18-0.25,4.18,1.35,4.42,3.52c0.12,1.07-0.18,2.11-0.85,2.94     c-0.66,0.84-1.61,1.359-2.68,1.479C42.76,355.71,42.61,355.72,42.45,355.72z"/></g><g><path d="M143.92,446.28l-0.02-0.051v0.051c-11.53,0-22.88-1.851-33.72-5.49c-10.51-3.53-20.35-8.67-29.27-15.28     c-1.01-0.75-1.62-1.95-1.62-3.21v-55.73c0-1.63,1.02-3.13,2.54-3.72l36.08-14.17c0.47-0.18,0.97-0.27,1.47-0.27     c1.46,0,2.8,0.79,3.5,2.069l12.45,22.721l5.75-5.75c0.76-0.75,1.76-1.17,2.83-1.17c1.02,0,1.99,0.38,2.73,1.069l5.18,4.83     l13.29-21.85c0.98-1.61,3.12-2.34,4.88-1.65l36.09,14.17c1.51,0.59,2.53,2.09,2.53,3.72v55.73c0,1.26-0.6,2.46-1.61,3.21     c-8.92,6.61-18.77,11.76-29.28,15.28C166.86,444.43,155.49,446.28,143.92,446.28z M87.291,420.26     c16.6,11.79,36.18,18.021,56.62,18.021c20.5,0,40.11-6.23,56.7-18.021V369.3l-30.41-11.94l-14.1,23.181     c-0.63,1.029-1.68,1.71-2.87,1.88c-1.19,0.16-2.4-0.22-3.28-1.04l-5.94-5.54l-6.79,6.8c-0.88,0.87-2.17,1.3-3.4,1.13     c-1.24-0.18-2.34-0.939-2.94-2.04l-13.32-24.31l-30.27,11.88V420.26z"/></g><g><path d="M103.7,438.1c-2.21,0-4-1.79-4-4v-51c0-2.21,1.79-4,4-4c2.2,0,4,1.79,4,4v51C107.7,436.31,105.9,438.1,103.7,438.1z"/></g><g><path d="M184.13,438.1c-2.21,0-4-1.79-4-4v-51c0-2.21,1.79-4,4-4c2.2,0,4,1.79,4,4v51C188.13,436.31,186.331,438.1,184.13,438.1z     "/></g><g><path d="M144.46,346.8c-5.39,0-10.67-1.89-15.28-5.45c-3.94-3.03-7.46-7.25-10.47-12.52c-5.09-8.98-8.28-20.33-8.31-29.62     c0-9.11,3.55-17.67,9.99-24.11c6.45-6.439,15.01-9.99,24.11-9.99l0,0l0,0c9.1,0,17.64,3.551,24.06,10     c6.41,6.431,9.94,14.99,9.96,24.101c-0.01,6.649-1.73,14.72-4.7,22.14c-3.56,8.811-8.29,15.54-14.04,20     c-4.6,3.561-9.86,5.45-15.23,5.45H144.46z M144.5,273.109c-14.36,0.021-26.07,11.73-26.1,26.101     c-0.01,5.5,1.57,12.84,4.12,19.149c2.92,7.29,7.02,13.2,11.54,16.65c3.32,2.54,6.74,3.78,10.44,3.79     c3.68-0.01,7.08-1.25,10.4-3.79c3.04-2.34,5.94-5.85,8.37-10.14c5.02-8.75,7.28-19.431,7.25-25.66     C170.521,284.84,158.851,273.13,144.5,273.109L144.5,273.109z"/></g><g><path d="M167.26,296.29L167.26,296.29c-8.25-0.01-16.1-2.471-22.11-6.95c-1.77-1.31-2.14-3.83-0.82-5.59     c0.77-1.03,1.94-1.61,3.21-1.61c0.87,0,1.7,0.271,2.39,0.79c4.55,3.41,10.85,5.36,17.29,5.36h0.04c1.66,0,3.44-0.16,5.78-0.54     c2.18-0.34,4.24,1.16,4.58,3.319c0.17,1.061-0.08,2.12-0.71,2.98c-0.63,0.86-1.55,1.43-2.61,1.6     C172.43,295.95,169.94,296.29,167.26,296.29z"/></g><g><path d="M128.65,295.7L128.65,295.7c-4.87,0-9.6-0.851-14.06-2.53c-2.06-0.78-3.1-3.09-2.33-5.16c0.59-1.54,2.09-2.58,3.75-2.58     c0.48,0,0.95,0.08,1.41,0.26c3.49,1.311,7.38,2.011,11.23,2.011h0.04c6.25,0,12.3-1.78,16.6-4.881     c3.98-2.88,6.17-6.55,6.17-10.34c0-2.21,1.8-4,4-4c2.21,0,4,1.79,4,4c0,6.4-3.47,12.54-9.51,16.851     C144.21,293.43,136.65,295.689,128.65,295.7z"/></g><g><path d="M152.68,382.46c-1.02,0-1.98-0.38-2.73-1.08l-8.77-8.17c-1.48-1.391-1.69-3.66-0.5-5.29l17.71-24.2     c0.67-0.91,1.7-1.5,2.83-1.62c1.12-0.109,2.25,0.26,3.09,1.03l6.92,6.33c1.41,1.28,1.71,3.399,0.72,5.03l-15.85,26.05     c-0.63,1.029-1.68,1.72-2.87,1.88C153.041,382.439,152.86,382.46,152.68,382.46z M149.24,369.78l2.58,2.399l11.58-19.04     l-1.19-1.09L149.24,369.78z"/></g><g><path d="M134.38,383.81c-0.19,0-0.38-0.02-0.56-0.04c-1.24-0.18-2.34-0.939-2.94-2.04l-15.01-27.399     c-0.88-1.61-0.56-3.61,0.79-4.86l6.83-6.32c0.83-0.779,1.96-1.159,3.1-1.05c1.13,0.11,2.17,0.7,2.84,1.62l17.71,24.2l0,0     c1.15,1.58,0.98,3.81-0.4,5.189l-9.52,9.53C136.47,383.38,135.44,383.81,134.38,383.81z M124.38,353.22l10.95,19.98l3.33-3.32     l-13.03-17.811L124.38,353.22z"/></g><g><path d="M367.66,446.28c-11.58,0-22.98-1.86-33.851-5.511c-10.52-3.54-20.39-8.7-29.33-15.34c-8.85-6.57-16.59-14.43-23.02-23.37     c-6.51-9.06-11.521-19.02-14.89-29.6c-0.671-2.11,0.489-4.36,2.59-5.03c0.399-0.13,0.81-0.189,1.22-0.189     c1.75,0,3.28,1.119,3.81,2.79c13.021,40.819,50.58,68.25,93.46,68.25h0.011c26.25,0,50.91-10.2,69.45-28.73     c18.529-18.52,28.739-43.16,28.739-69.37c0-54.14-44.05-98.18-98.189-98.18c-50.71,0-93.641,39.56-97.761,90.069     c0,0.011,0,0.011,0,0.021c-0.17,2.06-1.92,3.67-3.979,3.67l0,0c-0.11,0-0.22,0-0.33-0.01c-2.07-0.17-3.69-1.931-3.68-4.01     c0-0.091,0.01-0.19,0.02-0.301c2.15-26.51,14.11-51.08,33.65-69.199c19.66-18.21,45.25-28.24,72.08-28.24     c14.35,0,28.27,2.8,41.359,8.34c12.65,5.34,24.011,13,33.75,22.74c9.74,9.739,17.391,21.1,22.74,33.75     c5.53,13.1,8.34,27.01,8.34,41.35c0,14.33-2.81,28.23-8.34,41.311c-5.34,12.63-13,23.979-22.74,33.72     c-9.75,9.74-21.109,17.39-33.75,22.729C395.93,443.479,382.01,446.28,367.66,446.28z M266.21,355.72c-2.03,0-3.73-1.52-3.97-3.54     v-0.01c-0.12-1.07,0.18-2.11,0.85-2.95c0.66-0.83,1.62-1.36,2.68-1.479c2.19-0.24,4.181,1.359,4.42,3.529     c0,0.011,0,0.011,0,0.021c0.24,2.18-1.34,4.16-3.529,4.399C266.51,355.71,266.36,355.72,266.21,355.72z"/></g><g><path d="M367.67,446.28l-0.01-0.051v0.051c-11.54,0-22.88-1.851-33.73-5.49c-10.5-3.521-20.35-8.67-29.26-15.28     c-1.03-0.76-1.62-1.93-1.62-3.21v-55.73c0-1.63,1.021-3.13,2.54-3.72l36.09-14.17c0.46-0.18,0.96-0.27,1.46-0.27     c1.46,0,2.8,0.79,3.5,2.08l12.44,22.71l5.75-5.75c1.479-1.48,4.03-1.521,5.56-0.101l5.181,4.83l13.29-21.85     c0.989-1.61,3.109-2.34,4.88-1.65l36.09,14.17c1.52,0.59,2.54,2.09,2.54,3.72v55.73c0,1.26-0.61,2.46-1.62,3.21     c-8.92,6.61-18.771,11.76-29.28,15.28C390.62,444.43,379.24,446.28,367.67,446.28z M311.05,420.26     c16.6,11.79,36.17,18.021,56.61,18.021c20.5,0,40.109-6.23,56.71-18.021V369.3l-30.42-11.94L379.85,380.54     c-0.63,1.029-1.68,1.71-2.87,1.88c-1.199,0.16-2.399-0.22-3.279-1.04l-5.94-5.54l-6.79,6.79c-0.88,0.88-2.17,1.31-3.399,1.14     c-1.24-0.18-2.341-0.939-2.94-2.04l-13.31-24.31L311.05,369.3V420.26z"/></g><g><path d="M327.53,438.1c-2.2,0-4-1.79-4-4v-51c0-2.21,1.8-4,4-4c2.21,0,4,1.79,4,4v51C331.53,436.31,329.74,438.1,327.53,438.1z"/></g><g><path d="M407.88,438.1c-2.2,0-4-1.79-4-4v-51c0-2.21,1.8-4,4-4c2.21,0,4,1.79,4,4v51C411.88,436.31,410.09,438.1,407.88,438.1z"/></g><g><path d="M368.21,346.8c-5.36,0-10.63-1.89-15.24-5.45c-3.939-3.04-7.46-7.25-10.47-12.52c-5.11-8.99-8.3-20.34-8.34-29.62     c0-9.11,3.55-17.67,9.989-24.11c6.44-6.439,15-9.99,24.11-9.99l0,0l0,0c9.101,0,17.66,3.551,24.101,9.99     c6.439,6.44,9.989,15,9.989,24.11c-0.01,6.649-1.729,14.72-4.72,22.14c-3.58,8.811-8.32,15.54-14.09,20     c-4.601,3.561-9.87,5.45-15.24,5.45H368.21z M368.26,273.109c-14.37,0.021-26.07,11.73-26.1,26.101     c-0.021,5.49,1.569,12.83,4.14,19.14c2.89,7.19,7.1,13.26,11.55,16.66c3.32,2.54,6.721,3.78,10.41,3.79     c3.68-0.01,7.08-1.25,10.4-3.79c3.05-2.34,5.96-5.85,8.41-10.14c5.04-8.771,7.31-19.45,7.279-25.66     C394.33,284.84,382.62,273.13,368.26,273.109L368.26,273.109z"/></g><g><path d="M391.02,296.29L391.02,296.29c-8.29-0.01-16.12-2.48-22.05-6.96h-0.01c-1.76-1.34-2.11-3.851-0.771-5.61     c0.761-1,1.921-1.58,3.19-1.58c0.88,0,1.71,0.28,2.41,0.811c4.46,3.399,10.72,5.34,17.18,5.34h0.05c1.65,0,3.431-0.16,5.78-0.54     c0.21-0.03,0.43-0.05,0.64-0.05c1.971,0,3.631,1.42,3.94,3.38c0.35,2.17-1.15,4.229-3.32,4.569     C396.06,295.97,393.66,296.29,391.02,296.29z"/></g><g><path d="M352.41,295.7L352.41,295.7c-4.88,0-9.61-0.851-14.061-2.53c-1-0.38-1.79-1.12-2.229-2.09     c-0.44-0.98-0.48-2.061-0.101-3.061c0.58-1.55,2.091-2.59,3.74-2.59c0.48,0,0.96,0.08,1.42,0.26     c3.49,1.32,7.37,2.011,11.21,2.011h0.061c6.239,0,12.29-1.78,16.6-4.881c3.98-2.88,6.17-6.55,6.17-10.34c0-2.199,1.8-4,4-4     c2.21,0,4,1.801,4,4c0,6.4-3.47,12.54-9.51,16.851C367.97,293.43,360.41,295.689,352.41,295.7z"/></g><g><path d="M376.43,382.46c-1.01,0-1.979-0.391-2.729-1.08l-8.771-8.17c-1.479-1.391-1.689-3.66-0.49-5.29l17.7-24.2     c0.67-0.91,1.71-1.5,2.84-1.62c1.131-0.1,2.261,0.271,3.091,1.03l6.909,6.33c1.41,1.28,1.71,3.399,0.721,5.03l-15.851,26.05     c-0.63,1.029-1.68,1.71-2.87,1.88C376.8,382.439,376.62,382.46,376.43,382.46z M372.99,369.78l2.58,2.399l11.579-19.04     l-1.189-1.09L372.99,369.78z"/></g><g><path d="M358.14,383.81c-0.189,0-0.38-0.02-0.569-0.04c-1.24-0.18-2.341-0.939-2.94-2.04l-15-27.399     c-0.88-1.61-0.56-3.61,0.79-4.86l6.83-6.32c0.83-0.779,1.96-1.159,3.1-1.05c1.13,0.11,2.17,0.7,2.84,1.62l17.7,24.2l0,0     c1.15,1.58,0.98,3.81-0.399,5.189l-9.521,9.521C360.229,383.38,359.189,383.81,358.14,383.81z M348.14,353.22l10.94,19.98     l3.33-3.32l-13.021-17.811L348.14,353.22z"/></g><g><path d="M255.2,248.66c-11.59,0-22.98-1.86-33.86-5.52c-10.52-3.53-20.4-8.69-29.35-15.33c-8.85-6.56-16.61-14.42-23.04-23.36     c-6.52-9.06-11.54-19.02-14.92-29.6c-0.67-2.1,0.49-4.36,2.59-5.03c0.4-0.12,0.81-0.19,1.22-0.19c1.74,0,3.28,1.12,3.81,2.79     c13.04,40.81,50.63,68.24,93.54,68.24h0.01c26.21,0,50.859-10.21,69.41-28.73c18.55-18.53,28.77-43.17,28.77-69.37     c0-26.23-10.22-50.9-28.77-69.44c-18.551-18.53-43.2-28.74-69.41-28.74c-50.77,0-93.75,39.58-97.85,90.1     c-0.18,2.17-2.13,3.84-4.32,3.66c-2.07-0.17-3.68-1.93-3.67-4c0-0.1,0-0.21,0.01-0.31c2.16-26.5,14.13-51.08,33.71-69.2     c19.67-18.22,45.28-28.25,72.12-28.25c14.33,0,28.229,2.8,41.319,8.34c12.641,5.34,24,12.99,33.75,22.74s17.41,21.1,22.761,33.75     c5.54,13.09,8.35,27.01,8.35,41.35c0,14.33-2.81,28.23-8.35,41.31c-5.351,12.63-13.011,23.98-22.761,33.72     c-9.75,9.74-21.109,17.39-33.75,22.73C283.43,245.85,269.53,248.66,255.2,248.66z M153.66,158.11c-2.03,0-3.74-1.52-3.97-3.55     c-0.12-1.06,0.18-2.11,0.85-2.94c0.66-0.84,1.62-1.36,2.68-1.48c2.18-0.25,4.17,1.35,4.42,3.53c0.25,2.19-1.33,4.17-3.53,4.42     C153.96,158.11,153.811,158.11,153.66,158.11z"/></g><g><path d="M255.2,248.66h-0.01c-11.55,0-22.91-1.84-33.77-5.48c-10.46-3.5-20.31-8.61-29.29-15.19c-1.02-0.75-1.63-1.96-1.63-3.23     v-55.81c0-1.63,1.02-3.13,2.54-3.72l36.08-14.17c0.47-0.18,0.96-0.28,1.46-0.28c1.46,0,2.81,0.8,3.51,2.08l12.45,22.75l5.84-5.79     c1.48-1.47,4.03-1.5,5.549-0.09l5.17,4.83l13.3-21.85c0.98-1.62,3.12-2.34,4.881-1.65l36.01,14.17c1.51,0.59,2.53,2.09,2.53,3.72     v55.81c0,1.27-0.61,2.47-1.631,3.22c-8.93,6.58-18.779,11.69-29.26,15.2C278.07,246.82,266.72,248.66,255.2,248.66z      M198.5,222.71c16.71,11.74,36.32,17.94,56.7,17.95c20.399,0,39.97-6.21,56.62-17.95v-51.04l-30.341-11.93l-14.1,23.18     c-0.63,1.03-1.67,1.72-2.87,1.88c-1.18,0.17-2.399-0.22-3.27-1.04l-5.96-5.55l-6.88,6.82c-0.89,0.88-2.14,1.3-3.39,1.12     c-1.24-0.19-2.33-0.95-2.93-2.04l-13.31-24.32l-30.27,11.89V222.71z"/></g><g><path d="M214.99,240.48c-2.21,0-4-1.79-4-4v-51.01c0-2.2,1.79-4,4-4c2.2,0,4,1.8,4,4v51.01     C218.99,238.69,217.19,240.48,214.99,240.48z"/></g><g><path d="M295.41,240.48c-2.2,0-4-1.79-4-4v-51.01c0-2.2,1.8-4,4-4c2.21,0,4,1.8,4,4v51.01     C299.41,238.69,297.62,240.48,295.41,240.48z"/></g><g><path d="M255.66,149.17c-5.36,0-10.63-1.88-15.23-5.43c-3.93-3.03-7.45-7.24-10.45-12.5c-5.08-8.98-8.26-20.34-8.29-29.65     c0.01-18.79,15.27-34.09,34.01-34.1l0,0l0,0c9.109,0,17.67,3.55,24.109,9.99c6.44,6.44,9.99,15,9.99,24.11     c-0.01,6.79-1.68,14.66-4.7,22.18c-3.569,8.8-8.31,15.52-14.08,19.97c-4.609,3.55-9.89,5.43-15.279,5.43H255.66z M255.7,75.49     c-6.92,0-13.44,2.72-18.37,7.65c-4.93,4.94-7.64,11.49-7.64,18.45c-0.02,5.53,1.56,12.88,4.11,19.19     c2.92,7.28,7,13.18,11.51,16.62c3.31,2.53,6.71,3.76,10.39,3.77c3.71-0.01,7.13-1.24,10.449-3.78     c3.061-2.33,5.961-5.83,8.4-10.11c5.03-8.73,7.28-19.44,7.26-25.69C281.78,87.22,270.07,75.52,255.7,75.49L255.7,75.49z"/></g><g><path d="M278.55,98.67L278.55,98.67c-8.479-0.01-16.36-2.49-22.179-6.99c-1.74-1.36-2.05-3.88-0.7-5.62     c0.76-0.98,1.91-1.54,3.16-1.54c0.89,0,1.74,0.29,2.45,0.84c4.33,3.38,10.6,5.31,17.22,5.31h0.05c2.08,0,3.88-0.16,5.51-0.5     c0.271-0.05,0.551-0.08,0.82-0.08c1.88,0,3.53,1.34,3.91,3.18c0.22,1.05,0.02,2.12-0.57,3.01s-1.49,1.51-2.53,1.72     C283.5,98.46,281.17,98.67,278.55,98.67z"/></g><g><path d="M239.851,98.09L239.851,98.09c-4.72-0.01-9.53-0.85-13.91-2.44c-0.01,0-0.01,0-0.01,0c-1.01-0.37-1.81-1.1-2.26-2.07     c-0.45-0.97-0.5-2.05-0.13-3.06c0.57-1.57,2.08-2.63,3.75-2.63c0.47,0,0.93,0.08,1.37,0.24c3.51,1.28,7.37,1.96,11.18,1.96h0.05     c6.25,0,12.32-1.78,16.65-4.88c4.009-2.88,6.209-6.52,6.209-10.26c0-2.21,1.79-4,4-4c2.2,0,4,1.79,4,4     c-0.01,6.36-3.49,12.48-9.57,16.78C255.42,95.82,247.851,98.08,239.851,98.09z"/></g><g><path d="M263.97,184.84c-1.02,0-1.99-0.38-2.729-1.08l-8.77-8.18c-1.48-1.38-1.69-3.65-0.5-5.28l17.7-24.2     c0.67-0.91,1.7-1.5,2.83-1.62c1.12-0.11,2.26,0.26,3.1,1.03l6.92,6.32c1.4,1.29,1.71,3.4,0.71,5.03l-15.85,26.06     c-0.62,1.03-1.67,1.72-2.87,1.88C264.33,184.82,264.149,184.84,263.97,184.84z M260.52,172.15l2.58,2.41l11.59-19.04l-1.199-1.1     L260.52,172.15z"/></g><g><path d="M245.581,186.19c-0.19,0-0.38-0.02-0.57-0.04c-1.24-0.18-2.33-0.95-2.93-2.04l-15.01-27.41     c-0.88-1.62-0.55-3.62,0.81-4.87l6.91-6.32c0.84-0.76,1.96-1.14,3.1-1.03c1.13,0.11,2.16,0.7,2.83,1.62l17.709,24.19     c0,0,0,0,0,0.01c1.17,1.6,1,3.79-0.41,5.2l-9.619,9.53C247.65,185.77,246.65,186.19,245.581,186.19z M235.601,155.62l10.94,19.99     l3.4-3.37l-13.04-17.81L235.601,155.62z"/></g><g><path d="M251.25,475.62l-0.01-0.051l-0.01,0.051c-18.95,0-37.71-2.65-55.76-7.88c-17.47-5.07-34.19-12.521-49.7-22.15     c-0.91-0.56-1.55-1.44-1.79-2.48c-0.24-1.04-0.07-2.119,0.5-3.02c0.73-1.19,2-1.9,3.4-1.9c0.74,0,1.47,0.21,2.11,0.61     c30.37,18.85,65.39,28.82,101.25,28.82c36.189,0,71.55-10.17,102.25-29.4c0.64-0.4,1.37-0.61,2.12-0.61     c1.39,0,2.659,0.7,3.39,1.87c1.17,1.87,0.6,4.351-1.26,5.521c-15.66,9.81-32.53,17.399-50.15,22.56     C289.35,472.91,270.39,475.62,251.25,475.62z"/></g><g><path d="M447.51,280.359c-2.21,0-4-1.79-4-4v-1.1c0-67.86-36.36-131.38-94.899-165.76c-0.921-0.54-1.57-1.41-1.841-2.44     c-0.27-1.03-0.12-2.11,0.42-3.03c0.71-1.22,2.04-1.98,3.45-1.98c0.71,0,1.41,0.19,2.021,0.55     c29.55,17.35,54.319,42.17,71.62,71.78c8.76,14.99,15.52,31.06,20.1,47.76c4.73,17.22,7.13,35.101,7.13,53.12v1.1     C451.51,278.569,449.71,280.359,447.51,280.359z"/></g><g><path d="M55.47,293.09c-2.08,0-3.83-1.63-3.98-3.71c-0.35-4.65-0.52-9.4-0.52-14.12c0-19.05,2.67-37.9,7.95-56.03     c5.11-17.56,12.63-34.36,22.36-49.92c19.31-30.9,46.64-55.95,79.03-72.47c0.57-0.29,1.18-0.43,1.81-0.43     c1.51,0,2.88,0.83,3.57,2.18c0.48,0.95,0.57,2.04,0.24,3.05c-0.33,1.02-1.04,1.84-1.99,2.33     C99.19,136.99,58.96,202.63,58.97,275.26c0,4.53,0.16,9.08,0.49,13.53c0.17,2.2-1.49,4.13-3.69,4.29     C55.66,293.09,55.57,293.09,55.47,293.09z"/></g></g></g>></svg>