<svg xmlns="http://www.w3.org/2000/svg" data-name="Layer 1" viewBox="0 0 100 125" x="0px" y="0px"><title>Cloud Computing Icon Set Outline</title><path d="M94,51.73A18.17,18.17,0,0,1,75.85,69.88h-.31a1.52,1.52,0,1,1,0-3h.31a15.11,15.11,0,0,0,6.76-28.63,1.51,1.51,0,0,1-.83-1.35A13.53,13.53,0,0,0,68.29,23.43a13.32,13.32,0,0,0-2.94.33,1.52,1.52,0,0,1-1.68-.8,15.38,15.38,0,0,0-28.9,4.27,1.53,1.53,0,0,1-2,1.16A11.21,11.21,0,0,0,17.54,38.88a11.07,11.07,0,0,0,.29,2.49,1.53,1.53,0,0,1-.94,1.76,12.27,12.27,0,0,0,4.42,23.72h3.15a1.52,1.52,0,1,1,0,3H21.31A15.3,15.3,0,0,1,14.64,40.8a13.76,13.76,0,0,1-.13-1.92A14.25,14.25,0,0,1,32.15,25a18.42,18.42,0,0,1,33.68-4.46,17,17,0,0,1,2.46-.18A16.56,16.56,0,0,1,84.78,35.94,18,18,0,0,1,94,51.73Z"/><path d="M34,60.19H66a5.26,5.26,0,0,0,5.25-5.25V52.45A5.26,5.26,0,0,0,66,47.2H34a5.26,5.26,0,0,0-5.25,5.25v2.49A5.26,5.26,0,0,0,34,60.19Zm-2.21-7.74A2.22,2.22,0,0,1,34,50.23H66a2.22,2.22,0,0,1,2.21,2.22v2.49A2.22,2.22,0,0,1,66,57.16H34a2.22,2.22,0,0,1-2.21-2.22Z"/><path d="M35.9,55.92a2.23,2.23,0,1,0-2.22-2.22A2.23,2.23,0,0,0,35.9,55.92Zm0-3a.82.82,0,1,1-.81.82A.82.82,0,0,1,35.9,52.88Z"/><path d="M28.78,69.12A5.26,5.26,0,0,0,34,74.37H66a5.26,5.26,0,0,0,5.25-5.25V66.63A5.26,5.26,0,0,0,66,61.38H34a5.26,5.26,0,0,0-5.25,5.25Zm3-2.49A2.22,2.22,0,0,1,34,64.41H66a2.22,2.22,0,0,1,2.21,2.22v2.49A2.22,2.22,0,0,1,66,71.34H34a2.22,2.22,0,0,1-2.21-2.22Z"/><path d="M35.9,70.1a2.23,2.23,0,1,0-2.22-2.22A2.23,2.23,0,0,0,35.9,70.1Zm0-3a.81.81,0,1,1-.81.81A.82.82,0,0,1,35.9,67.07Z"/><path d="M28.78,83.3A5.26,5.26,0,0,0,34,88.55H66a5.26,5.26,0,0,0,5.25-5.25V80.81A5.26,5.26,0,0,0,66,75.56H34a5.26,5.26,0,0,0-5.25,5.25Zm3-2.49A2.22,2.22,0,0,1,34,78.59H66a2.22,2.22,0,0,1,2.21,2.22V83.3A2.22,2.22,0,0,1,66,85.52H34a2.22,2.22,0,0,1-2.21-2.22Z"/><path d="M35.9,84.28a2.23,2.23,0,1,0-2.22-2.22A2.23,2.23,0,0,0,35.9,84.28Zm0-3a.81.81,0,1,1-.81.81A.82.82,0,0,1,35.9,81.25Z"/></svg>