<svg xmlns="http://www.w3.org/2000/svg" data-name="Слой 1" viewBox="0 0 128 160" x="0px" y="0px"><title>cms, Monitor, Computer, Template, Web Design, content, layout, Ui</title><path d="M122,8H6a6.05,6.05,0,0,0-6,6V98a6.05,6.05,0,0,0,6,6H62v12H31a2,2,0,0,0,0,4H97a2,2,0,0,0,0-4H66V104h56a6.05,6.05,0,0,0,6-6V14A6.05,6.05,0,0,0,122,8ZM6,12H122a2,2,0,0,1,2,2V24H4V14A2,2,0,0,1,6,12ZM122,100H6a2,2,0,0,1-2-2V28H124V98A2,2,0,0,1,122,100Z"/><circle cx="116" cy="18" r="2"/><circle cx="108" cy="18" r="2"/><circle cx="100" cy="18" r="2"/><path d="M114,36H58a2,2,0,0,0-2,2V66a2,2,0,0,0,2,2h56a2,2,0,0,0,2-2V38A2,2,0,0,0,114,36Zm-2,28H60V40h52Z"/><path d="M12,66.33c0,.06,0,.12,0,.18a2,2,0,0,0,.06.19l.08.18.09.17.12.17.07.1,0,0,.19.18.12.1.23.13.12.07a2,2,0,0,0,.32.1l.07,0A2,2,0,0,0,14,68H46a2,2,0,0,0,.41,0l.07,0a2,2,0,0,0,.32-.1l.12-.07.23-.13.12-.1.19-.18,0,0,.07-.1L47.7,67l.09-.17.08-.18a2,2,0,0,0,.06-.19c0-.06,0-.12,0-.18a2,2,0,0,0,0-.21S48,66,48,66V38s0-.08,0-.11a2,2,0,0,0,0-.21c0-.06,0-.12,0-.18a2,2,0,0,0-.06-.19l-.08-.18L47.7,37l-.12-.17-.07-.1,0,0-.15-.14-.14-.12-.16-.1-.17-.09-.17-.06-.2-.06-.17,0-.22,0H13.93l-.21,0-.19,0-.18.06-.18.07-.17.09-.17.1-.14.12-.15.14,0,0-.07.1L12.3,37l-.09.17-.08.18a2,2,0,0,0-.06.19c0,.06,0,.12,0,.18a2,2,0,0,0,0,.21S12,38,12,38V66s0,.08,0,.11A2,2,0,0,0,12,66.33Zm32-4.74L33,52l11-9.59ZM40.68,64H19.32L30,54.66ZM30,49.34,19.32,40H40.68ZM27,52,16,61.59V42.41Z"/><path d="M14,80H64a2,2,0,0,0,0-4H14a2,2,0,0,0,0,4Z"/><path d="M114,76H76a2,2,0,0,0,0,4h38a2,2,0,0,0,0-4Z"/><path d="M48,88H14a2,2,0,0,0,0,4H48a2,2,0,0,0,0-4Z"/><path d="M114,88H60a2,2,0,0,0,0,4h54a2,2,0,0,0,0-4Z"/></svg>