<?xml version="1.0" encoding="iso-8859-1"?>
<!-- Generator: Adobe Illustrator 22.0.1, SVG Export Plug-In . SVG Version: 6.00 Build 0)  -->
<svg xmlns="http://www.w3.org/2000/svg" xmlns:xlink="http://www.w3.org/1999/xlink" version="1.1" id="Layer_1" x="0px" y="0px" viewBox="0 0 64 64" style="enable-background:new 0 0 64 64;" xml:space="preserve" width="512px" height="512px">
<linearGradient id="SVGID_1__69503" gradientUnits="userSpaceOnUse" x1="32" y1="6" x2="32" y2="58" spreadMethod="reflect">
	<stop offset="0" style="stop-color:#1A6DFF"/>
	<stop offset="1" style="stop-color:#C822FF"/>
</linearGradient>
<circle style="fill:none;stroke:url(#SVGID_1__69503);stroke-width:2;stroke-miterlimit:10;" cx="32" cy="32" r="25"/>
<linearGradient id="SVGID_2__69503" gradientUnits="userSpaceOnUse" x1="31.0298" y1="16" x2="31.0298" y2="48" spreadMethod="reflect">
	<stop offset="0" style="stop-color:#6DC7FF"/>
	<stop offset="1" style="stop-color:#E6ABFF"/>
</linearGradient>
<path style="fill:url(#SVGID_2__69503);" d="M13.125,36c-0.961-7.967,8.851-17.938,17.349-20c0,0-3.474,2.449-3.474,4.525  c0,4.154,1.971,2.745,1.971,2.745s0.039,14.986,0.039,16.057c0,1.071,0.985,1.673,2.365,1.673C32.755,41,36,39.25,36,39.25  s0-11.903,0-13.375s-1.644-2.822-2.438-3.515c2.123,0,3.088,0.737,3.088,0.737s2.756-3.643,9.919-5.557  C45.481,18.951,42,23.227,42,24.5s0,13.763,0,14.5s0.849,1,1.375,1c0.526,0,2.904-0.691,5.625-3.75c0,0.93-3.632,7.118-9.131,10.746  L36.25,44l-3.739,4c0,0-9.261-0.5-12.511-6c0.967,0.146,3,0.54,3-1s0-11.495,0-12.5S22.479,27,21.625,27  C20.771,27.001,17.747,27.685,13.125,36z"/>
</svg>
