<svg xmlns="http://www.w3.org/2000/svg" xmlns:xlink="http://www.w3.org/1999/xlink" viewBox="0 0 56 75" version="1.1" x="0px" y="0px"><title>16 -House Utilities- (house, home, property, real, estate)</title><desc>Created with Sketch.</desc><g stroke="none" stroke-width="1" fill="none" fill-rule="evenodd" stroke-linecap="round" stroke-linejoin="round"><g transform="translate(-705.000000, -482.000000)" stroke="#000000" stroke-width="2"><g transform="translate(705.000000, 483.000000)"><path d="M15,10 L15,4 L17,4 L17,0 L5,0 L5,4 L7,4 L7,17 L1.408,21.849 C0.561,22.6 1.093,24 2.225,24 L7,24 L7,54 L5,54 L5,58 L50.992,58 L51,54 L49,54 L49,24 L53.782,24 C54.9,24 55.425,22.617 54.589,21.875 L31.585,1.468 C29.574,-0.468 26.393,-0.468 24.383,1.468 L15,10 L15,10 Z"/><polygon points="36 33 30 33 35.966 22 28.241 22 21 37.077 26 37.077 21 52"/></g></g></g></svg>