<svg xmlns="http://www.w3.org/2000/svg" xmlns:xlink="http://www.w3.org/1999/xlink" version="1.1" x="0px" y="0px" viewBox="0 0 64 80" enable-background="new 0 0 64 64" xml:space="preserve"><g display="none"><g display="inline"><path fill="#000000" d="M0,44.385l0-40.49c0-0.718,0.588-1.306,1.306-1.306h61.388C63.412,2.589,64,3.177,64,3.895v40.49"/></g><path display="inline" fill="#000000" d="M0,44.385l0,5.225c0,0.718,0.588,1.306,1.306,1.306h61.388   c0.718,0,1.306-0.588,1.306-1.306v-5.225H0z"/><rect x="18.285" y="60.059" display="inline" fill="#000000" width="27.429" height="1.306"/><polygon display="inline" fill="#000000" points="41.143,60.059 22.857,60.059 24.163,50.916 39.837,50.916  "/><rect x="2.612" y="5.201" display="inline" fill="#000000" width="58.775" height="36.572"/><polyline display="inline" fill="#000000" stroke="#2D2D2D" stroke-miterlimit="10" points="12.489,30.544 24.995,18.039    37.392,30.544 49.789,18.039  "/><circle display="inline" fill="#000000" cx="12.489" cy="30.544" r="4.364"/><circle display="inline" fill="#000000" cx="12.489" cy="30.544" r="1.921"/><circle display="inline" fill="#000000" cx="37.594" cy="30.544" r="4.364"/><circle display="inline" fill="#000000" cx="37.594" cy="30.544" r="1.921"/><circle display="inline" fill="#000000" cx="25.002" cy="18.039" r="6.086"/><circle display="inline" fill="#000000" cx="25.002" cy="18.039" r="2.678"/><circle display="inline" fill="#000000" cx="49.789" cy="18.039" r="6.086"/><circle display="inline" fill="#000000" cx="49.789" cy="18.039" r="2.678"/></g><g display="none"><rect x="-237.667" y="-316.375" display="inline" fill="#000000" stroke="#222020" stroke-miterlimit="10" width="785.333" height="403.333"/></g><g display="none"><g display="inline"><path d="M0,44.385l0-40.49c0-0.718,0.588-1.306,1.306-1.306h61.388C63.412,2.589,64,3.177,64,3.895v40.49"/></g><g display="inline"><path d="M0,44.385l0,5.225c0,0.718,0.588,1.306,1.306,1.306h61.388c0.718,0,1.306-0.588,1.306-1.306v-5.225H0z"/></g><g display="inline"><rect x="18.285" y="60.059" width="27.429" height="1.306"/></g><g display="inline"><polygon fill="#000000" points="41.143,60.059 22.857,60.059 24.163,50.916 39.837,50.916   "/></g><g display="inline"><rect x="2.612" y="5.201" fill="#000000" width="58.775" height="36.572"/></g><g display="inline"><polygon points="37.392,31.254 24.993,18.747 12.843,30.898 12.136,30.191 24.997,17.329 37.392,29.834 49.434,17.687     50.145,18.39   "/></g><g display="inline"><circle fill="#000000" cx="12.489" cy="30.544" r="4.364"/></g><g display="inline"><circle cx="12.489" cy="30.544" r="1.921"/></g><g display="inline"><circle fill="#000000" cx="37.594" cy="30.544" r="4.364"/></g><g display="inline"><circle cx="37.594" cy="30.544" r="1.921"/></g><g display="inline"><circle fill="#000000" cx="25.002" cy="18.039" r="6.086"/></g><g display="inline"><circle cx="25.002" cy="18.039" r="2.678"/></g><g display="inline"><circle fill="#000000" cx="49.789" cy="18.039" r="6.086"/></g><g display="inline"><circle cx="49.789" cy="18.039" r="2.678"/></g></g><g display="none"><g display="inline"><polyline fill="#000000" stroke="#222020" stroke-width="2" stroke-miterlimit="10" points="12.489,30.544 24.995,18.039     37.392,30.544 49.789,18.039   "/><path fill="#000000" stroke="#222020" stroke-width="2" stroke-miterlimit="10" d="M1,44.007V4.826C1,4.13,1.569,3.562,2.265,3.562    h59.469C62.431,3.562,63,4.13,63,4.826v39.182"/><path fill="#000000" stroke="#222020" stroke-width="2" stroke-miterlimit="10" d="M63,44.007v5.056c0,0.695-0.569,1.264-1.265,1.264    H2.265C1.569,50.327,1,49.758,1,49.063v-5.056H63z"/><rect x="18.714" y="59.174" fill="#000000" stroke="#222020" stroke-width="2" stroke-miterlimit="10" width="26.572" height="1.264"/><polygon fill="#000000" stroke="#222020" stroke-width="2" stroke-miterlimit="10" points="40.857,59.174 23.143,59.174     24.408,50.327 39.592,50.327   "/><circle fill="#000000" stroke="#222020" stroke-width="2" stroke-miterlimit="10" cx="12.489" cy="30.544" r="4.364"/><circle fill="#000000" cx="12.489" cy="30.544" r="1.921"/><circle fill="#000000" stroke="#222020" stroke-width="2" stroke-miterlimit="10" cx="37.594" cy="30.544" r="4.364"/><circle fill="#000000" cx="37.594" cy="30.544" r="1.921"/><circle fill="#000000" stroke="#222020" stroke-width="2" stroke-miterlimit="10" cx="25.002" cy="18.039" r="6.086"/><circle fill="#000000" stroke="#222020" stroke-width="2" stroke-miterlimit="10" cx="25.002" cy="18.039" r="2.678"/><circle fill="#000000" stroke="#222020" stroke-width="2" stroke-miterlimit="10" cx="49.789" cy="18.039" r="6.086"/><circle fill="#000000" stroke="#222020" stroke-width="2" stroke-miterlimit="10" cx="49.789" cy="18.039" r="2.678"/></g></g><g><g><path d="M12.796,28.391c-1.318,0-2.391,1.062-2.391,2.366c0,1.305,1.072,2.366,2.391,2.366s2.391-1.062,2.391-2.366    C15.187,29.452,14.114,28.391,12.796,28.391z M12.796,32.123c-0.767,0-1.391-0.613-1.391-1.366s0.624-1.366,1.391-1.366    s1.391,0.613,1.391,1.366S13.562,32.123,12.796,32.123z"/><path d="M37.506,28.391c-1.318,0-2.391,1.062-2.391,2.366c0,1.305,1.072,2.366,2.391,2.366s2.391-1.062,2.391-2.366    C39.896,29.452,38.824,28.391,37.506,28.391z M37.506,32.123c-0.767,0-1.391-0.613-1.391-1.366s0.624-1.366,1.391-1.366    s1.391,0.613,1.391,1.366S38.272,32.123,37.506,32.123z"/><path d="M25.112,15.503c-1.729,0-3.137,1.392-3.137,3.103c0,1.71,1.407,3.102,3.137,3.102s3.136-1.392,3.136-3.102    C28.248,16.895,26.842,15.503,25.112,15.503z M25.112,20.707c-1.178,0-2.137-0.942-2.137-2.102s0.959-2.103,2.137-2.103    s2.136,0.943,2.136,2.103S26.29,20.707,25.112,20.707z"/><path d="M49.51,12.192c-3.579,0-6.49,2.877-6.49,6.414c0,1.598,0.599,3.059,1.581,4.183l-4.217,4.2    c-0.804-0.602-1.794-0.972-2.878-0.972c-1.226,0-2.335,0.471-3.184,1.222l-4.381-4.363c1.029-1.135,1.661-2.629,1.661-4.269    c0-3.537-2.911-6.414-6.489-6.414c-3.579,0-6.49,2.877-6.49,6.414c0,1.586,0.589,3.037,1.558,4.158l-4.382,4.326    c-0.825-0.661-1.86-1.074-3.002-1.074C10.151,26.016,8,28.143,8,30.757s2.151,4.74,4.796,4.74s4.796-2.126,4.796-4.74    c0-1.127-0.416-2.149-1.083-2.964l4.382-4.326c1.136,0.965,2.609,1.552,4.221,1.552c1.557,0,2.987-0.545,4.106-1.452l4.425,4.406    c-0.58,0.784-0.933,1.741-0.933,2.784c0,2.614,2.151,4.74,4.796,4.74s4.796-2.126,4.796-4.74c0-1.184-0.457-2.255-1.186-3.087    l4.198-4.18c1.133,0.951,2.596,1.529,4.196,1.529c3.579,0,6.49-2.877,6.49-6.413C56,15.069,53.089,12.192,49.51,12.192z     M12.796,34.497C10.703,34.497,9,32.82,9,30.757s1.703-3.741,3.796-3.741s3.796,1.679,3.796,3.741S14.889,34.497,12.796,34.497z     M19.622,18.606c0-2.985,2.463-5.414,5.49-5.414c3.026,0,5.489,2.429,5.489,5.414c0,2.984-2.463,5.413-5.489,5.413    C22.085,24.019,19.622,21.59,19.622,18.606z M37.506,34.497c-2.093,0-3.796-1.678-3.796-3.74s1.703-3.741,3.796-3.741    s3.796,1.679,3.796,3.741S39.599,34.497,37.506,34.497z M49.51,24.019c-3.027,0-5.49-2.429-5.49-5.413    c0-2.985,2.463-5.414,5.49-5.414S55,15.62,55,18.606C55,21.59,52.537,24.019,49.51,24.019z"/><path d="M49.51,15.503c-1.729,0-3.136,1.392-3.136,3.103c0,1.71,1.406,3.102,3.136,3.102s3.137-1.392,3.137-3.102    C52.646,16.895,51.239,15.503,49.51,15.503z M49.51,20.707c-1.178,0-2.136-0.942-2.136-2.102s0.958-2.103,2.136-2.103    s2.137,0.943,2.137,2.103S50.688,20.707,49.51,20.707z"/><path d="M61.734,3.062H2.266C1.292,3.062,0.5,3.853,0.5,4.826v38.682v0.5v5.056c0,0.973,0.792,1.764,1.766,1.764h21.566    l-1.122,7.848h-4.496v3.264h27.571v-3.264h-4.495l-1.122-7.848h21.566c0.974,0,1.766-0.791,1.766-1.764v-5.056v-0.5V4.826    C63.5,3.853,62.708,3.062,61.734,3.062z M44.785,59.674v1.264H19.214v-1.264h3.353h18.867H44.785z M40.281,58.674H23.719    l1.123-7.848h14.316L40.281,58.674z M62.5,49.063c0,0.421-0.344,0.764-0.766,0.764H40.025H23.975H2.266    c-0.422,0-0.766-0.343-0.766-0.764v-4.556h61V49.063z M1.5,43.507V4.826c0-0.421,0.344-0.764,0.766-0.764h59.469    c0.422,0,0.766,0.343,0.766,0.764v38.682H1.5z"/></g></g><g display="none"><path display="inline" fill="#000000" d="M32,0C14.327,0,0,14.327,0,32c0,17.673,14.327,32,32,32s32-14.327,32-32   C64,14.327,49.673,0,32,0z"/><path display="inline" fill="#000000" d="M25.117,50.388c-0.042,0.335-1.802,8.761-1.551,8.761c0.252,0,16.893,0,16.893,0   l-1.425-8.635L25.117,50.388z"/><path display="inline" fill="#000000" stroke="#000000" stroke-width="2" stroke-miterlimit="10" d="M1,44.007V4.826   C1,4.13,1.569,3.562,2.265,3.562h59.469C62.431,3.562,63,4.13,63,4.826v39.182"/><polyline display="inline" fill="none" stroke="#000000" stroke-width="2" stroke-miterlimit="10" points="12.489,30.544    24.995,18.039 37.392,30.544 49.789,18.039  "/><path display="inline" fill="#000000" stroke="#000000" stroke-width="2" stroke-miterlimit="10" d="M63,44.007v5.056   c0,0.695-0.569,1.264-1.265,1.264H2.265C1.569,50.327,1,49.758,1,49.063v-5.056H63z"/><rect x="18.714" y="59.174" display="inline" fill="none" stroke="#000000" stroke-width="2" stroke-miterlimit="10" width="26.572" height="1.264"/><polygon display="inline" fill="none" stroke="#000000" stroke-width="2" stroke-miterlimit="10" points="40.857,59.174    23.143,59.174 24.408,50.327 39.592,50.327  "/><circle display="inline" fill="#000000" stroke="#000000" stroke-width="2" stroke-miterlimit="10" cx="12.489" cy="30.544" r="4.364"/><circle display="inline" cx="12.489" cy="30.544" r="1.921"/><circle display="inline" fill="#000000" stroke="#000000" stroke-width="2" stroke-miterlimit="10" cx="37.594" cy="30.544" r="4.364"/><circle display="inline" cx="37.594" cy="30.544" r="1.921"/><circle display="inline" fill="#000000" stroke="#000000" stroke-width="2" stroke-miterlimit="10" cx="25.002" cy="18.039" r="6.086"/><circle display="inline" fill="#000000" stroke="#000000" stroke-width="2" stroke-miterlimit="10" cx="25.002" cy="18.039" r="2.678"/><circle display="inline" fill="#000000" stroke="#000000" stroke-width="2" stroke-miterlimit="10" cx="49.789" cy="18.039" r="6.086"/><circle display="inline" fill="#000000" stroke="#000000" stroke-width="2" stroke-miterlimit="10" cx="49.789" cy="18.039" r="2.678"/></g><g display="none"><path display="inline" fill="#000000" d="M25.117,50.388c-0.042,0.335-1.802,8.761-1.551,8.761c0.252,0,16.893,0,16.893,0   l-1.425-8.635L25.117,50.388z"/><path display="inline" fill="#000000" d="M1,44.007V4.826C1,4.13,1.569,3.562,2.265,3.562h59.469C62.431,3.562,63,4.13,63,4.826   v39.182"/><path display="inline" fill="#000000" d="M64,44.007h-2V4.826c0-0.143-0.122-0.264-0.266-0.264H2.266C2.122,4.562,2,4.683,2,4.826   v39.182H0V4.826c0-1.248,1.017-2.264,2.266-2.264h59.469C62.983,2.562,64,3.577,64,4.826V44.007z"/><polygon display="inline" fill="#000000" points="37.392,31.965 24.992,19.455 13.196,31.251 11.782,29.837 24.998,16.621    37.392,29.123 49.079,17.334 50.499,18.743  "/><path display="inline" fill="#000000" d="M63,44.007v5.056c0,0.695-0.569,1.264-1.265,1.264H2.265C1.569,50.327,1,49.758,1,49.063   v-5.056H63z"/><path display="inline" fill="#000000" d="M61.734,51.326H2.266C1.017,51.326,0,50.311,0,49.063v-6.056h64v6.056   C64,50.311,62.983,51.326,61.734,51.326z M2,45.007v4.056c0,0.143,0.122,0.264,0.266,0.264h59.469c0.144,0,0.266-0.121,0.266-0.264   v-4.056H2z"/><rect x="17.714" y="58.174" display="inline" fill="#000000" width="28.571" height="3.264"/><path display="inline" fill="#000000" d="M42.011,60.174H21.989l1.552-10.848h16.918L42.011,60.174z M24.296,58.174h15.408   l-0.979-6.848H25.275L24.296,58.174z"/><circle display="inline" fill="#000000" cx="12.489" cy="30.544" r="4.364"/><path display="inline" fill="#000000" d="M12.489,35.909c-2.958,0-5.364-2.406-5.364-5.364s2.406-5.364,5.364-5.364   s5.364,2.406,5.364,5.364S15.447,35.909,12.489,35.909z M12.489,27.18c-1.855,0-3.364,1.509-3.364,3.364   c0,1.855,1.509,3.364,3.364,3.364s3.364-1.509,3.364-3.364C15.854,28.689,14.345,27.18,12.489,27.18z"/><circle display="inline" fill="#000000" cx="12.489" cy="30.544" r="1.921"/><circle display="inline" fill="#000000" cx="37.594" cy="30.544" r="4.364"/><path display="inline" fill="#000000" d="M37.594,35.909c-2.958,0-5.364-2.406-5.364-5.364s2.406-5.364,5.364-5.364   s5.364,2.406,5.364,5.364S40.552,35.909,37.594,35.909z M37.594,27.18c-1.855,0-3.364,1.509-3.364,3.364   c0,1.855,1.509,3.364,3.364,3.364s3.364-1.509,3.364-3.364C40.958,28.689,39.449,27.18,37.594,27.18z"/><circle display="inline" fill="#000000" cx="37.594" cy="30.544" r="1.921"/><circle display="inline" fill="#000000" cx="25.002" cy="18.039" r="6.086"/><path display="inline" fill="#000000" d="M25.002,25.124c-3.907,0-7.086-3.179-7.086-7.086c0-3.906,3.179-7.085,7.086-7.085   s7.086,3.179,7.086,7.085C32.088,21.946,28.909,25.124,25.002,25.124z M25.002,12.953c-2.805,0-5.086,2.281-5.086,5.085   c0,2.805,2.281,5.086,5.086,5.086s5.086-2.281,5.086-5.086C30.088,15.235,27.807,12.953,25.002,12.953z"/><circle display="inline" fill="#000000" cx="25.002" cy="18.039" r="2.678"/><path display="inline" fill="#000000" d="M25.002,21.717c-2.028,0-3.678-1.65-3.678-3.679s1.649-3.678,3.678-3.678   s3.679,1.649,3.679,3.678S27.03,21.717,25.002,21.717z M25.002,16.361c-0.925,0-1.678,0.753-1.678,1.678   c0,0.926,0.753,1.679,1.678,1.679c0.926,0,1.679-0.753,1.679-1.679C26.681,17.114,25.928,16.361,25.002,16.361z"/><circle display="inline" fill="#000000" cx="49.789" cy="18.039" r="6.086"/><path display="inline" fill="#000000" d="M49.789,25.124c-3.907,0-7.086-3.179-7.086-7.086c0-3.906,3.179-7.085,7.086-7.085   s7.086,3.179,7.086,7.085C56.875,21.946,53.696,25.124,49.789,25.124z M49.789,12.953c-2.805,0-5.086,2.281-5.086,5.085   c0,2.805,2.281,5.086,5.086,5.086s5.086-2.281,5.086-5.086C54.875,15.235,52.594,12.953,49.789,12.953z"/><circle display="inline" fill="#000000" cx="49.789" cy="18.039" r="2.678"/><path display="inline" fill="#000000" d="M49.789,21.717c-2.028,0-3.678-1.65-3.678-3.679s1.649-3.678,3.678-3.678   s3.679,1.649,3.679,3.678S51.817,21.717,49.789,21.717z M49.789,16.361c-0.925,0-1.678,0.753-1.678,1.678   c0,0.926,0.753,1.679,1.678,1.679c0.926,0,1.679-0.753,1.679-1.679C51.468,17.114,50.715,16.361,49.789,16.361z"/></g><g display="none"><g display="inline"><path d="M69.005,67.009h-0.16c-1.295-3.999-5.002-6.729-9.274-6.729c-0.76,0-1.52,0.091-2.267,0.271    c-2.453-5.833-8.197-9.69-14.583-9.69c-8.725,0-15.825,7.089-15.825,15.803c0,0.241,0.006,0.483,0.017,0.726    c-5.528,1.368-9.452,6.303-9.452,12.057c0,6.858,5.588,12.438,12.457,12.438h3.976l-4.059,4.138l7.117,6.944l7.525-7.673v19.567    h9.967V95.294l7.526,7.674l7.116-6.944l-4.058-4.138h3.976c6.868,0,12.456-5.58,12.456-12.438S75.873,67.009,69.005,67.009z     M66.255,95.992l-4.253,4.151l-8.1-8.258l-1.458-1.486v1.486v20.976h-5.967V91.885v-1.487l-1.459,1.487l-8.098,8.258l-4.254-4.151    l4.028-4.106l1.962-2l10.805-11.017L66.255,95.992z"/></g><g display="inline"><path d="M0.313-17.223h-59.469c-1.249,0-2.266,1.016-2.266,2.264v38.182v1v5.056c0,1.248,1.017,2.264,2.266,2.264h20.989    l-0.98,6.848h-4.561v3.264h28.572v-3.264h-4.561l-0.98-6.848h20.99c1.249,0,2.265-1.016,2.265-2.264v-5.056v-1v-38.182    C2.578-16.207,1.562-17.223,0.313-17.223z M0.578,23.222h-60v-38.181c0-0.143,0.122-0.264,0.266-0.264h59.47    c0.143,0,0.264,0.121,0.264,0.264V23.222z"/></g><g display="inline"><path d="M56.578,6.204c3.94,0,7.146-3.205,7.146-7.146s-3.206-7.145-7.146-7.145s-7.146,3.205-7.146,7.146    S52.638,6.204,56.578,6.204z"/><path d="M62.82,7.214l-0.649-0.009L56.578,19.33L50.985,7.205l-0.649,0.009c-2.495,0.033-7.216,1.5-7.216,6.813v8.06h12.187h2.543    h12.187v-8.06C70.036,8.714,65.315,7.247,62.82,7.214z"/><polygon points="52.818,7.438 56.578,15.762 60.338,7.438 56.578,7.438   "/><path d="M86.313-14.223H26.844c-1.249,0-2.266,1.016-2.266,2.264v38.182v1v5.056c0,1.248,1.017,2.264,2.266,2.264h20.989    l-0.98,6.848h-4.561v3.264h28.572v-3.264h-4.561l-0.98-6.848h20.99c1.249,0,2.265-1.016,2.265-2.264v-5.056v-1v-38.182    C88.578-13.207,87.562-14.223,86.313-14.223z M86.578,26.222h-60v-38.181c0-0.143,0.122-0.264,0.266-0.264h59.47    c0.143,0,0.264,0.121,0.264,0.264V26.222z"/></g></g></svg>