<svg xmlns="http://www.w3.org/2000/svg" xmlns:xlink="http://www.w3.org/1999/xlink" version="1.0" id="Layer_1" x="0px" y="0px" width="100%" height="100%" viewBox="0 0 64 64" enable-background="new 0 0 64 64" xml:space="preserve" data-ember-extension="1" data-lt-installed="true" stroke="url(#grad-cca4f70f-738b-7212)">
  <linearGradient id="grad-cca4f70f-738b-7212" gradientUnits="userSpaceOnUse">
    <stop offset="0" stop-color="#ff795f"/>
    <stop offset="100" stop-color="#ce1768"/>
  </linearGradient>
  <path fill="none" stroke="url(#grad-cca4f70f-738b-7212)" stroke-width="2" stroke-miterlimit="10" d="M53 34A3 3 0 1 1 59 34 3 3 0 1 1 53 34" style="stroke-dasharray:19, 21;stroke-dashoffset:0"/>
  <path fill="none" stroke="url(#grad-cca4f70f-738b-7212)" stroke-width="2" stroke-miterlimit="10" d="M19 4A3 3 0 1 1 25 4 3 3 0 1 1 19 4" style="stroke-dasharray:19, 21;stroke-dashoffset:0"/>
  <path fill="none" stroke="url(#grad-cca4f70f-738b-7212)" stroke-width="2" stroke-miterlimit="10" d="M37 50A3 3 0 1 1 43 50 3 3 0 1 1 37 50" style="stroke-dasharray:19, 21;stroke-dashoffset:0"/>
  <path fill="none" stroke="url(#grad-cca4f70f-738b-7212)" stroke-width="2" stroke-miterlimit="10" d="M4 31A3 3 0 1 1 10 31 3 3 0 1 1 4 31" style="stroke-dasharray:19, 21;stroke-dashoffset:0"/>
  <path fill="none" stroke="url(#grad-cca4f70f-738b-7212)" stroke-width="2" stroke-miterlimit="10" d="M8 28L20 6" style="stroke-dasharray:26, 28;stroke-dashoffset:0"/>
  <path fill="none" stroke="url(#grad-cca4f70f-738b-7212)" stroke-width="2" stroke-miterlimit="10" d="M43 48L54 36" style="stroke-dasharray:17, 19;stroke-dashoffset:0"/>
  <path fill="none" stroke="url(#grad-cca4f70f-738b-7212)" stroke-width="2" stroke-miterlimit="10" width="62" height="6" d="M1 57L63 57 63 63 1 63Z" style="stroke-dasharray:136, 138;stroke-dashoffset:0"/>
  <path fill="none" stroke="url(#grad-cca4f70f-738b-7212)" stroke-width="2" stroke-miterlimit="10" d="M24 6L38 47" style="stroke-dasharray:44, 46;stroke-dashoffset:0"/>
</svg>
