<svg xmlns="http://www.w3.org/2000/svg" xmlns:xlink="http://www.w3.org/1999/xlink" version="1.1" id="Layer_1" x="0px" y="0px" width="100%" height="100%" viewBox="0 0 64 64" enable-background="new 0 0 64 64" xml:space="preserve" data-ember-extension="1" data-lt-installed="true">
  <path fill="none" stroke="#000000" stroke-width="2" stroke-linejoin="bevel" stroke-miterlimit="10" d="M59 56c0 3.866-11.641 7-26 7S7 59.866 7 56" style="stroke-dasharray:57, 59;stroke-dashoffset:0"/>
  <path fill="none" stroke="#000000" stroke-width="2" stroke-linejoin="bevel" stroke-miterlimit="10" d="M59 40c0 3.866-11.641 7-26 7S7 43.866 7 40" style="stroke-dasharray:57, 59;stroke-dashoffset:0"/>
  <path fill="none" stroke="#000000" stroke-width="2" stroke-linejoin="bevel" stroke-miterlimit="10" d="M59 24c0 3.866-11.641 7-26 7S7 27.866 7 24" style="stroke-dasharray:57, 59;stroke-dashoffset:0"/>
  <path fill="none" stroke="#000000" stroke-width="2" stroke-linejoin="bevel" stroke-miterlimit="10" d="M7 8A26 7 0 1 1 59 8 26 7 0 1 1 7 8" style="stroke-dasharray:113, 115;stroke-dashoffset:0"/>
  <path fill="none" stroke="#000000" stroke-width="2" stroke-linejoin="bevel" stroke-miterlimit="10" d="M7 8L7 56" style="stroke-dasharray:48, 50;stroke-dashoffset:0"/>
  <path fill="none" stroke="#000000" stroke-width="2" stroke-linejoin="bevel" stroke-miterlimit="10" d="M59 8L59 56" style="stroke-dasharray:48, 50;stroke-dashoffset:0"/>
</svg>
